<?xml version="1.0" encoding="UTF-8"?><svg xmlns="http://www.w3.org/2000/svg" xmlns:xlink="http://www.w3.org/1999/xlink" fill-opacity="1" color-rendering="auto" color-interpolation="auto" text-rendering="auto" stroke="black" stroke-linecap="square" width="547" stroke-miterlimit="10" shape-rendering="auto" stroke-opacity="1" fill="black" stroke-dasharray="none" font-weight="normal" stroke-width="1" height="314" font-family="'Dialog'" font-style="normal" stroke-linejoin="miter" font-size="12px" stroke-dashoffset="0" image-rendering="auto">
  <!--Generated by ySVG 2.5-->
  <defs id="genericDefs"/>
  <g>
    <defs id="defs1">
      <clipPath clipPathUnits="userSpaceOnUse" id="clipPath1">
        <path d="M0 0 L547 0 L547 314 L0 314 L0 0 Z"/>
      </clipPath>
      <clipPath clipPathUnits="userSpaceOnUse" id="clipPath2">
        <path d="M-640 -535 L-93 -535 L-93 -221 L-640 -221 L-640 -535 Z"/>
      </clipPath>
      <clipPath clipPathUnits="userSpaceOnUse" id="clipPath3">
        <path d="M-282 -519 L-282 -403 L-108 -403 L-108 -519 Z"/>
      </clipPath>
      <clipPath clipPathUnits="userSpaceOnUse" id="clipPath4">
        <path d="M-624 -519 L-624 -390 L-411 -390 L-411 -519 Z"/>
      </clipPath>
      <clipPath clipPathUnits="userSpaceOnUse" id="clipPath5">
        <path d="M0 0 L0 30 L119 30 L119 0 Z"/>
      </clipPath>
    </defs>
    <g fill="white" text-rendering="geometricPrecision" shape-rendering="geometricPrecision" transform="translate(640,535)" stroke="white">
      <rect x="-640" width="547" height="314" y="-535" clip-path="url(#clipPath2)" stroke="none"/>
    </g>
    <g fill="rgb(255,255,204)" text-rendering="geometricPrecision" shape-rendering="geometricPrecision" transform="matrix(1,0,0,1,640,535)" stroke="rgb(255,255,204)">
      <rect x="-282.5" width="174" height="117" y="-519" clip-path="url(#clipPath2)" stroke="none"/>
    </g>
    <g text-rendering="geometricPrecision" stroke-miterlimit="1.45" shape-rendering="geometricPrecision" transform="matrix(1,0,0,1,640,535)" stroke-linecap="butt">
      <rect fill="none" x="-282.5" width="174" height="117" y="-519" clip-path="url(#clipPath2)"/>
      <text x="-245.3831" font-size="13px" y="-501.4316" clip-path="url(#clipPath3)" font-family="sans-serif" stroke="none" font-weight="bold" xml:space="preserve">GoodCustomer</text>
      <line stroke-linecap="square" clip-path="url(#clipPath3)" fill="none" x1="-281" x2="-109" y1="-493" y2="-493" stroke-miterlimit="10"/>
      <text x="-277.5" xml:space="preserve" y="-477.0879" clip-path="url(#clipPath3)" font-family="sans-serif" stroke="none">name : String</text>
      <text x="-277.5" xml:space="preserve" y="-462.9551" clip-path="url(#clipPath3)" font-family="sans-serif" stroke="none">purchaseHistory : List&lt;...&gt;</text>
      <text x="-277.5" xml:space="preserve" y="-448.8223" clip-path="url(#clipPath3)" font-family="sans-serif" stroke="none">creditRating : int</text>
      <text x="-277.5" xml:space="preserve" y="-434.6895" clip-path="url(#clipPath3)" font-family="sans-serif" stroke="none">complaintLog : List&lt;...&gt;</text>
      <line stroke-linecap="square" clip-path="url(#clipPath3)" fill="none" x1="-281" x2="-109" y1="-427" y2="-427" stroke-miterlimit="10"/>
    </g>
    <g fill="rgb(255,255,204)" text-rendering="geometricPrecision" shape-rendering="geometricPrecision" transform="matrix(1,0,0,1,640,535)" stroke="rgb(255,255,204)">
      <rect x="-624" width="213" height="129" y="-519" clip-path="url(#clipPath2)" stroke="none"/>
    </g>
    <g text-rendering="geometricPrecision" stroke-miterlimit="1.45" shape-rendering="geometricPrecision" transform="matrix(1,0,0,1,640,535)" stroke-linecap="butt">
      <rect fill="none" x="-624" width="213" height="129" y="-519" clip-path="url(#clipPath2)"/>
      <text x="-549.29" xml:space="preserve" y="-502.3984" clip-path="url(#clipPath4)" font-family="sans-serif" stroke="none">&lt;&lt;final&gt;&gt;</text>
      <text x="-557.2363" font-size="13px" y="-478.2988" clip-path="url(#clipPath4)" font-family="sans-serif" stroke="none" font-weight="bold" xml:space="preserve">CustomerID</text>
      <line stroke-linecap="square" clip-path="url(#clipPath4)" fill="none" x1="-623" x2="-412" y1="-470" y2="-470" stroke-miterlimit="10"/>
      <text x="-619" xml:space="preserve" y="-453.9551" clip-path="url(#clipPath4)" font-family="sans-serif" stroke="none">driversLicenseNo : String</text>
      <text x="-619" xml:space="preserve" y="-439.8223" clip-path="url(#clipPath4)" font-family="sans-serif" stroke="none">state : String</text>
      <line stroke-linecap="square" clip-path="url(#clipPath4)" fill="none" x1="-623" x2="-412" y1="-432" y2="-432" stroke-miterlimit="10"/>
      <text x="-619" xml:space="preserve" y="-415.6895" clip-path="url(#clipPath4)" font-family="sans-serif" stroke="none">equals(Object other) : Boolean</text>
      <text x="-619" xml:space="preserve" y="-401.5566" clip-path="url(#clipPath4)" font-family="sans-serif" stroke="none">hashCode() : int</text>
    </g>
    <g fill="white" text-rendering="geometricPrecision" shape-rendering="geometricPrecision" transform="matrix(1,0,0,1,640,535)" stroke="white">
      <path d="M-411 -487 L-381 -487 L-388.5 -457 L-403.5 -457 Z" fill-rule="evenodd" clip-path="url(#clipPath2)" stroke="none"/>
      <path fill="none" stroke-miterlimit="1.45" d="M-411 -487 L-381 -487 L-388.5 -457 L-403.5 -457 Z" fill-rule="evenodd" clip-path="url(#clipPath2)" stroke-linecap="butt"/>
    </g>
    <g text-rendering="geometricPrecision" stroke-miterlimit="1.45" shape-rendering="geometricPrecision" font-family="sans-serif" transform="matrix(1,0,0,1,640,535)" stroke-linecap="butt">
      <text x="-399.7939" xml:space="preserve" y="-467.4648" clip-path="url(#clipPath2)" stroke="none">1</text>
    </g>
    <g fill="white" text-rendering="geometricPrecision" shape-rendering="geometricPrecision" transform="matrix(1,0,0,1,640,535)" stroke="white">
      <path d="M-312.5 -487 L-282.5 -487 L-290 -457 L-305 -457 Z" fill-rule="evenodd" clip-path="url(#clipPath2)" stroke="none"/>
      <path fill="none" stroke-miterlimit="1.45" d="M-312.5 -487 L-282.5 -487 L-290 -457 L-305 -457 Z" fill-rule="evenodd" clip-path="url(#clipPath2)" stroke-linecap="butt"/>
    </g>
    <g text-rendering="geometricPrecision" stroke-miterlimit="1.45" shape-rendering="geometricPrecision" font-family="sans-serif" transform="matrix(1,0,0,1,640,535)" stroke-linecap="butt">
      <text x="-301.2939" xml:space="preserve" y="-467.4648" clip-path="url(#clipPath2)" stroke="none">1</text>
    </g>
    <g fill="rgb(255,204,0)" text-rendering="geometricPrecision" shape-rendering="geometricPrecision" transform="matrix(1,0,0,1,640,535)" stroke="rgb(255,204,0)">
      <path d="M-612.5 -301 L-471.5 -301 L-471.5 -286 L-456.5 -286 L-456.5 -236 L-612.5 -236 Z" stroke="none" clip-path="url(#clipPath2)"/>
      <path fill="white" d="M-471.5 -301 L-471.5 -286 L-456.5 -286 Z" clip-path="url(#clipPath2)" fill-rule="evenodd" stroke="none"/>
    </g>
    <g text-rendering="geometricPrecision" stroke-miterlimit="1.45" shape-rendering="geometricPrecision" transform="matrix(1,0,0,1,640,535)" stroke-linecap="butt">
      <path fill="none" d="M-612.5 -301 L-471.5 -301 L-471.5 -286 L-456.5 -286 L-456.5 -236 L-612.5 -236 Z" clip-path="url(#clipPath2)"/>
      <path fill="none" d="M-471.5 -301 L-471.5 -286 L-456.5 -286 Z" clip-path="url(#clipPath2)" fill-rule="evenodd"/>
      <text x="-595.3027" xml:space="preserve" y="-271.0312" clip-path="url(#clipPath2)" font-family="sans-serif" stroke="none">Implements equals(),</text>
      <text x="-567.1777" xml:space="preserve" y="-256.8984" clip-path="url(#clipPath2)" font-family="sans-serif" stroke="none">hashCode()</text>
    </g>
    <g fill="rgb(255,204,0)" text-rendering="geometricPrecision" shape-rendering="geometricPrecision" transform="matrix(1,0,0,1,640,535)" stroke="rgb(255,204,0)">
      <path d="M-272 -301 L-131 -301 L-131 -286 L-116 -286 L-116 -236 L-272 -236 Z" stroke="none" clip-path="url(#clipPath2)"/>
      <path fill="white" d="M-131 -301 L-131 -286 L-116 -286 Z" clip-path="url(#clipPath2)" fill-rule="evenodd" stroke="none"/>
    </g>
    <g text-rendering="geometricPrecision" stroke-miterlimit="1.45" shape-rendering="geometricPrecision" transform="matrix(1,0,0,1,640,535)" stroke-linecap="butt">
      <path fill="none" d="M-272 -301 L-131 -301 L-131 -286 L-116 -286 L-116 -236 L-272 -236 Z" clip-path="url(#clipPath2)"/>
      <path fill="none" d="M-131 -301 L-131 -286 L-116 -286 Z" clip-path="url(#clipPath2)" fill-rule="evenodd"/>
    </g>
    <g text-rendering="geometricPrecision" stroke-miterlimit="1.45" shape-rendering="geometricPrecision" font-family="sans-serif" transform="matrix(1,0,0,1,640,535) translate(-253,-283)" stroke-linecap="butt">
      <text x="0" xml:space="preserve" y="12" clip-path="url(#clipPath5)" stroke="none">Does </text>
      <text x="33" xml:space="preserve" y="12" clip-path="url(#clipPath5)" font-weight="bold" stroke="none">not</text>
      <text x="54" xml:space="preserve" y="12" clip-path="url(#clipPath5)" stroke="none"> implement</text>
      <text x="119" xml:space="preserve" y="12" clip-path="url(#clipPath5)" stroke="none"> </text>
      <text x="0" xml:space="preserve" y="27" clip-path="url(#clipPath5)" stroke="none">equals(), hashCode()</text>
    </g>
    <g text-rendering="geometricPrecision" stroke-miterlimit="1.45" shape-rendering="geometricPrecision" transform="matrix(1,0,0,1,640,535)" stroke-linecap="butt">
      <path fill="none" d="M-289.4844 -458.7487 L-410.9804 -456.4848" clip-path="url(#clipPath2)"/>
      <path fill="white" d="M-282.4856 -458.8792 L-289.3912 -453.7496 L-296.4832 -458.6183 L-289.5775 -463.7479 Z" clip-path="url(#clipPath2)" stroke="none"/>
      <path fill="none" d="M-282.4856 -458.8792 L-289.3912 -453.7496 L-296.4832 -458.6183 L-289.5775 -463.7479 Z" clip-path="url(#clipPath2)"/>
      <path fill="none" stroke-dasharray="6,2" d="M-531.5325 -300.9683 L-523.8511 -385.0119" clip-path="url(#clipPath2)"/>
      <path stroke-dasharray="6,2" d="M-523.487 -388.9953 L-530.5543 -377.5912 L-523.487 -388.9953 L-518.6041 -376.4991 Z" clip-path="url(#clipPath2)" stroke="none"/>
      <path fill="none" stroke-miterlimit="10" d="M-523.487 -388.9953 L-530.5543 -377.5912 L-523.487 -388.9953 L-518.6041 -376.4991 Z" clip-path="url(#clipPath2)" stroke-linecap="square"/>
      <path fill="none" stroke-dasharray="6,2" d="M-194.2538 -300.9844 L-195.0036 -396.9669" clip-path="url(#clipPath2)"/>
      <path stroke-dasharray="6,2" d="M-195.0349 -400.9668 L-200.941 -388.9203 L-195.0349 -400.9668 L-188.9413 -389.0141 Z" clip-path="url(#clipPath2)" stroke="none"/>
      <path fill="none" stroke-miterlimit="10" d="M-195.0349 -400.9668 L-200.941 -388.9203 L-195.0349 -400.9668 L-188.9413 -389.0141 Z" clip-path="url(#clipPath2)" stroke-linecap="square"/>
    </g>
  </g>
</svg>
