<?xml version="1.0" encoding="UTF-8"?><svg xmlns="http://www.w3.org/2000/svg" xmlns:xlink="http://www.w3.org/1999/xlink" fill-opacity="1" color-rendering="auto" color-interpolation="auto" text-rendering="auto" stroke="black" stroke-linecap="square" width="468" stroke-miterlimit="10" shape-rendering="auto" stroke-opacity="1" fill="black" stroke-dasharray="none" font-weight="normal" stroke-width="1" height="300" font-family="'Dialog'" font-style="normal" stroke-linejoin="miter" font-size="12px" stroke-dashoffset="0" image-rendering="auto">
  <!--Generated by ySVG 2.5-->
  <defs id="genericDefs"/>
  <g>
    <defs id="defs1">
      <clipPath clipPathUnits="userSpaceOnUse" id="clipPath1">
        <path d="M0 0 L468 0 L468 300 L0 300 L0 0 Z"/>
      </clipPath>
      <clipPath clipPathUnits="userSpaceOnUse" id="clipPath2">
        <path d="M-1324 -882 L-856 -882 L-856 -582 L-1324 -582 L-1324 -882 Z"/>
      </clipPath>
      <clipPath clipPathUnits="userSpaceOnUse" id="clipPath3">
        <path d="M-1308 -866 L-1308 -791 L-1190 -791 L-1190 -866 Z"/>
      </clipPath>
      <clipPath clipPathUnits="userSpaceOnUse" id="clipPath4">
        <path d="M-1101 -866 L-1101 -766 L-972 -766 L-972 -866 Z"/>
      </clipPath>
    </defs>
    <g fill="white" text-rendering="geometricPrecision" shape-rendering="geometricPrecision" transform="translate(1324,882)" stroke="white">
      <rect x="-1324" width="468" height="300" y="-882" clip-path="url(#clipPath2)" stroke="none"/>
    </g>
    <g fill="rgb(255,255,204)" text-rendering="geometricPrecision" shape-rendering="geometricPrecision" transform="matrix(1,0,0,1,1324,882)" stroke="rgb(255,255,204)">
      <rect x="-1308" width="118" height="76" y="-867" clip-path="url(#clipPath2)" stroke="none"/>
    </g>
    <g text-rendering="geometricPrecision" stroke-miterlimit="1.45" shape-rendering="geometricPrecision" transform="matrix(1,0,0,1,1324,882)" stroke-linecap="butt">
      <rect fill="none" x="-1308" width="118" height="76" y="-867" clip-path="url(#clipPath2)"/>
      <text x="-1265.2976" font-size="13px" y="-849.4316" clip-path="url(#clipPath3)" font-family="sans-serif" stroke="none" font-weight="bold" xml:space="preserve">Bank</text>
      <line stroke-linecap="square" clip-path="url(#clipPath3)" fill="none" x1="-1307" x2="-1191" y1="-841" y2="-841" stroke-miterlimit="10"/>
      <text x="-1303" xml:space="preserve" y="-825.0879" clip-path="url(#clipPath3)" font-family="sans-serif" stroke="none"> </text>
      <line stroke-linecap="square" clip-path="url(#clipPath3)" fill="none" x1="-1307" x2="-1191" y1="-817" y2="-817" stroke-miterlimit="10"/>
      <text x="-1303" xml:space="preserve" y="-800.9551" clip-path="url(#clipPath3)" font-family="sans-serif" stroke="none"> </text>
    </g>
    <g fill="white" text-rendering="geometricPrecision" shape-rendering="geometricPrecision" transform="matrix(1,0,0,1,1324,882)" stroke="white">
      <path d="M-901 -627 L-871 -627 L-878.5 -597 L-893.5 -597 Z" fill-rule="evenodd" clip-path="url(#clipPath2)" stroke="none"/>
      <path fill="none" stroke-miterlimit="1.45" d="M-901 -627 L-871 -627 L-878.5 -597 L-893.5 -597 Z" fill-rule="evenodd" clip-path="url(#clipPath2)" stroke-linecap="butt"/>
      <rect x="-1101" y="-867" clip-path="url(#clipPath2)" fill="rgb(255,255,204)" width="129" height="101" stroke="none"/>
    </g>
    <g text-rendering="geometricPrecision" stroke-miterlimit="1.45" shape-rendering="geometricPrecision" transform="matrix(1,0,0,1,1324,882)" stroke-linecap="butt">
      <rect fill="none" x="-1101" width="129" height="101" y="-867" clip-path="url(#clipPath2)"/>
      <text x="-1081.0137" xml:space="preserve" y="-850.3984" clip-path="url(#clipPath4)" font-family="sans-serif" stroke="none">&lt;&lt;interface&gt;&gt;</text>
      <text x="-1086.072" font-size="13px" y="-826.2988" clip-path="url(#clipPath4)" font-family="sans-serif" stroke="none" font-weight="bold" xml:space="preserve">List&lt;Account&gt;</text>
      <line stroke-linecap="square" clip-path="url(#clipPath4)" fill="none" x1="-1100" x2="-973" y1="-818" y2="-818" stroke-miterlimit="10"/>
      <text x="-1096" xml:space="preserve" y="-801.9551" clip-path="url(#clipPath4)" font-family="sans-serif" stroke="none"> </text>
      <line stroke-linecap="square" clip-path="url(#clipPath4)" fill="none" x1="-1100" x2="-973" y1="-794" y2="-794" stroke-miterlimit="10"/>
      <text x="-1096" xml:space="preserve" y="-777.8223" clip-path="url(#clipPath4)" font-family="sans-serif" stroke="none"> </text>
      <path fill="none" stroke-dasharray="6,2" d="M-1190.0038 -829 L-1106.0079 -829" clip-path="url(#clipPath2)"/>
      <path stroke-dasharray="6,2" d="M-1102.0079 -829 L-1114.0079 -835 L-1102.0079 -829 L-1114.0079 -823 Z" clip-path="url(#clipPath2)" stroke="none"/>
      <path fill="none" stroke-miterlimit="10" d="M-1102.0079 -829 L-1114.0079 -835 L-1102.0079 -829 L-1114.0079 -823 Z" clip-path="url(#clipPath2)" stroke-linecap="square"/>
    </g>
  </g>
</svg>
