<?xml version="1.0" encoding="UTF-8"?><svg xmlns="http://www.w3.org/2000/svg" xmlns:xlink="http://www.w3.org/1999/xlink" fill-opacity="1" color-rendering="auto" color-interpolation="auto" text-rendering="auto" stroke="black" stroke-linecap="square" width="579" stroke-miterlimit="10" shape-rendering="auto" stroke-opacity="1" fill="black" stroke-dasharray="none" font-weight="normal" stroke-width="1" height="381" font-family="'Dialog'" font-style="normal" stroke-linejoin="miter" font-size="12px" stroke-dashoffset="0" image-rendering="auto">
  <!--Generated by ySVG 2.5-->
  <defs id="genericDefs"/>
  <g>
    <defs id="defs1">
      <clipPath clipPathUnits="userSpaceOnUse" id="clipPath1">
        <path d="M0 0 L579 0 L579 381 L0 381 L0 0 Z"/>
      </clipPath>
      <clipPath clipPathUnits="userSpaceOnUse" id="clipPath2">
        <path d="M-1338 -963 L-759 -963 L-759 -582 L-1338 -582 L-1338 -963 Z"/>
      </clipPath>
      <clipPath clipPathUnits="userSpaceOnUse" id="clipPath3">
        <path d="M-1308 -866 L-1308 -791 L-1190 -791 L-1190 -866 Z"/>
      </clipPath>
      <clipPath clipPathUnits="userSpaceOnUse" id="clipPath4">
        <path d="M-1101 -877 L-1101 -748 L-972 -748 L-972 -877 Z"/>
      </clipPath>
      <clipPath clipPathUnits="userSpaceOnUse" id="clipPath5">
        <path d="M-1322 -715 L-1322 -615 L-1175 -615 L-1175 -715 Z"/>
      </clipPath>
      <clipPath clipPathUnits="userSpaceOnUse" id="clipPath6">
        <path d="M-1095 -695 L-1095 -620 L-977 -620 L-977 -695 Z"/>
      </clipPath>
      <clipPath clipPathUnits="userSpaceOnUse" id="clipPath7">
        <path d="M-892 -695 L-892 -620 L-774 -620 L-774 -695 Z"/>
      </clipPath>
      <clipPath clipPathUnits="userSpaceOnUse" id="clipPath8">
        <path d="M-892 -945 L-892 -870 L-774 -870 L-774 -945 Z"/>
      </clipPath>
    </defs>
    <g fill="white" text-rendering="geometricPrecision" shape-rendering="geometricPrecision" transform="translate(1338,963)" stroke="white">
      <rect x="-1338" width="579" height="381" y="-963" clip-path="url(#clipPath2)" stroke="none"/>
    </g>
    <g fill="rgb(255,255,204)" text-rendering="geometricPrecision" shape-rendering="geometricPrecision" transform="matrix(1,0,0,1,1338,963)" stroke="rgb(255,255,204)">
      <rect x="-1308" width="118" height="76" y="-867" clip-path="url(#clipPath2)" stroke="none"/>
    </g>
    <g text-rendering="geometricPrecision" stroke-miterlimit="1.45" shape-rendering="geometricPrecision" transform="matrix(1,0,0,1,1338,963)" stroke-linecap="butt">
      <rect fill="none" x="-1308" width="118" height="76" y="-867" clip-path="url(#clipPath2)"/>
      <text x="-1265.2976" font-size="13px" y="-849.4316" clip-path="url(#clipPath3)" font-family="sans-serif" stroke="none" font-weight="bold" xml:space="preserve">Bank</text>
      <line stroke-linecap="square" clip-path="url(#clipPath3)" fill="none" x1="-1307" x2="-1191" y1="-841" y2="-841" stroke-miterlimit="10"/>
      <text x="-1303" xml:space="preserve" y="-825.0879" clip-path="url(#clipPath3)" font-family="sans-serif" stroke="none"> </text>
      <line stroke-linecap="square" clip-path="url(#clipPath3)" fill="none" x1="-1307" x2="-1191" y1="-817" y2="-817" stroke-miterlimit="10"/>
      <text x="-1303" xml:space="preserve" y="-800.9551" clip-path="url(#clipPath3)" font-family="sans-serif" stroke="none"> </text>
    </g>
    <g fill="white" text-rendering="geometricPrecision" shape-rendering="geometricPrecision" transform="matrix(1,0,0,1,1338,963)" stroke="white">
      <path d="M-901 -627 L-871 -627 L-878.5 -597 L-893.5 -597 Z" fill-rule="evenodd" clip-path="url(#clipPath2)" stroke="none"/>
      <path fill="none" stroke-miterlimit="1.45" d="M-901 -627 L-871 -627 L-878.5 -597 L-893.5 -597 Z" fill-rule="evenodd" clip-path="url(#clipPath2)" stroke-linecap="butt"/>
      <rect x="-1101" y="-877.9109" clip-path="url(#clipPath2)" fill="rgb(255,255,204)" width="129" height="130" stroke="none"/>
    </g>
    <g text-rendering="geometricPrecision" stroke-miterlimit="1.45" shape-rendering="geometricPrecision" transform="matrix(1,0,0,1,1338,963)" stroke-linecap="butt">
      <rect fill="none" x="-1101" width="129" height="130" y="-877.9109" clip-path="url(#clipPath2)"/>
      <text x="-1081.0137" xml:space="preserve" y="-861.3093" clip-path="url(#clipPath4)" font-family="sans-serif" stroke="none">&lt;&lt;interface&gt;&gt;</text>
      <text x="-1086.072" font-size="13px" y="-837.2097" clip-path="url(#clipPath4)" font-family="sans-serif" stroke="none" font-weight="bold" xml:space="preserve">List&lt;Account&gt;</text>
      <text x="-1091.9436" font-size="13px" y="-821.8992" clip-path="url(#clipPath4)" font-family="sans-serif" stroke="none" font-weight="bold" xml:space="preserve">but with a more </text>
      <text x="-1090.033" font-size="13px" y="-806.5886" clip-path="url(#clipPath4)" font-family="sans-serif" stroke="none" font-weight="bold" xml:space="preserve">confusing name</text>
      <line stroke-linecap="square" clip-path="url(#clipPath4)" fill="none" x1="-1100" x2="-973" y1="-798" y2="-798" stroke-miterlimit="10"/>
      <text x="-1096" xml:space="preserve" y="-782.2449" clip-path="url(#clipPath4)" font-family="sans-serif" stroke="none"> </text>
      <line stroke-linecap="square" clip-path="url(#clipPath4)" fill="none" x1="-1100" x2="-973" y1="-774" y2="-774" stroke-miterlimit="10"/>
      <text x="-1096" xml:space="preserve" y="-758.1121" clip-path="url(#clipPath4)" font-family="sans-serif" stroke="none"> </text>
    </g>
    <g fill="rgb(255,255,204)" text-rendering="geometricPrecision" shape-rendering="geometricPrecision" transform="matrix(1,0,0,1,1338,963)" stroke="rgb(255,255,204)">
      <rect x="-1322.5" width="147" height="101" y="-715.5" clip-path="url(#clipPath2)" stroke="none"/>
    </g>
    <g text-rendering="geometricPrecision" stroke-miterlimit="1.45" shape-rendering="geometricPrecision" transform="matrix(1,0,0,1,1338,963)" stroke-linecap="butt">
      <rect fill="none" x="-1322.5" width="147" height="101" y="-715.5" clip-path="url(#clipPath2)"/>
      <text x="-1293.5137" xml:space="preserve" y="-698.8984" clip-path="url(#clipPath5)" font-family="sans-serif" stroke="none">&lt;&lt;interface&gt;&gt;</text>
      <text x="-1309.4392" font-size="13px" y="-674.7988" clip-path="url(#clipPath5)" font-family="sans-serif" stroke="none" font-weight="bold" xml:space="preserve">AccountOperation</text>
      <line stroke-linecap="square" clip-path="url(#clipPath5)" fill="none" x1="-1321" x2="-1176" y1="-667" y2="-667" stroke-miterlimit="10"/>
      <text x="-1317.5" xml:space="preserve" y="-650.4551" clip-path="url(#clipPath5)" font-family="sans-serif" stroke="none"> </text>
      <line stroke-linecap="square" clip-path="url(#clipPath5)" fill="none" x1="-1321" x2="-1176" y1="-642" y2="-642" stroke-miterlimit="10"/>
      <text x="-1317.5" xml:space="preserve" y="-626.3223" clip-path="url(#clipPath5)" font-family="sans-serif" stroke="none">+apply(Account a)</text>
    </g>
    <g fill="rgb(255,255,204)" text-rendering="geometricPrecision" shape-rendering="geometricPrecision" transform="matrix(1,0,0,1,1338,963)" stroke="rgb(255,255,204)">
      <rect x="-1095.5" width="118" height="76" y="-696" clip-path="url(#clipPath2)" stroke="none"/>
    </g>
    <g text-rendering="geometricPrecision" stroke-miterlimit="1.45" shape-rendering="geometricPrecision" transform="matrix(1,0,0,1,1338,963)" stroke-linecap="butt">
      <rect fill="none" x="-1095.5" width="118" height="76" y="-696" clip-path="url(#clipPath2)"/>
      <text x="-1075.3223" font-size="13px" y="-678.4316" clip-path="url(#clipPath6)" font-family="sans-serif" stroke="none" font-weight="bold" xml:space="preserve">ListAdapter</text>
      <line stroke-linecap="square" clip-path="url(#clipPath6)" fill="none" x1="-1094" x2="-978" y1="-670" y2="-670" stroke-miterlimit="10"/>
      <text x="-1090.5" xml:space="preserve" y="-654.0879" clip-path="url(#clipPath6)" font-family="sans-serif" stroke="none"> </text>
      <line stroke-linecap="square" clip-path="url(#clipPath6)" fill="none" x1="-1094" x2="-978" y1="-646" y2="-646" stroke-miterlimit="10"/>
      <text x="-1090.5" xml:space="preserve" y="-629.9551" clip-path="url(#clipPath6)" font-family="sans-serif" stroke="none"> </text>
    </g>
    <g fill="rgb(255,255,204)" text-rendering="geometricPrecision" shape-rendering="geometricPrecision" transform="matrix(1,0,0,1,1338,963)" stroke="rgb(255,255,204)">
      <rect x="-892" width="118" height="76" y="-696" clip-path="url(#clipPath2)" stroke="none"/>
    </g>
    <g text-rendering="geometricPrecision" stroke-miterlimit="1.45" shape-rendering="geometricPrecision" transform="matrix(1,0,0,1,1338,963)" stroke-linecap="butt">
      <rect fill="none" x="-892" width="118" height="76" y="-696" clip-path="url(#clipPath2)"/>
      <text x="-882.572" font-size="13px" y="-678.4316" clip-path="url(#clipPath7)" font-family="sans-serif" stroke="none" font-weight="bold" xml:space="preserve">List&lt;Account&gt;</text>
      <line stroke-linecap="square" clip-path="url(#clipPath7)" fill="none" x1="-891" x2="-775" y1="-670" y2="-670" stroke-miterlimit="10"/>
      <text x="-887" xml:space="preserve" y="-654.0879" clip-path="url(#clipPath7)" font-family="sans-serif" stroke="none"> </text>
      <line stroke-linecap="square" clip-path="url(#clipPath7)" fill="none" x1="-891" x2="-775" y1="-646" y2="-646" stroke-miterlimit="10"/>
      <text x="-887" xml:space="preserve" y="-629.9551" clip-path="url(#clipPath7)" font-family="sans-serif" stroke="none"> </text>
    </g>
    <g fill="rgb(255,255,204)" text-rendering="geometricPrecision" shape-rendering="geometricPrecision" transform="matrix(1,0,0,1,1338,963)" stroke="rgb(255,255,204)">
      <rect x="-892" width="118" height="76" y="-946" clip-path="url(#clipPath2)" stroke="none"/>
    </g>
    <g text-rendering="geometricPrecision" stroke-miterlimit="1.45" shape-rendering="geometricPrecision" transform="matrix(1,0,0,1,1338,963)" stroke-linecap="butt">
      <rect fill="none" x="-892" width="118" height="76" y="-946" clip-path="url(#clipPath2)"/>
      <text x="-873.8408" font-size="13px" y="-928.4316" clip-path="url(#clipPath8)" font-family="sans-serif" stroke="none" font-weight="bold" xml:space="preserve">BankFactory</text>
      <line stroke-linecap="square" clip-path="url(#clipPath8)" fill="none" x1="-891" x2="-775" y1="-920" y2="-920" stroke-miterlimit="10"/>
      <text x="-887" xml:space="preserve" y="-904.0879" clip-path="url(#clipPath8)" font-family="sans-serif" stroke="none"> </text>
      <line stroke-linecap="square" clip-path="url(#clipPath8)" fill="none" x1="-891" x2="-775" y1="-896" y2="-896" stroke-miterlimit="10"/>
      <text x="-887" xml:space="preserve" y="-879.9551" clip-path="url(#clipPath8)" font-family="sans-serif" stroke="none"> </text>
      <path fill="none" stroke-dasharray="6,2" d="M-1190.0038 -829 L-1106.0079 -829" clip-path="url(#clipPath2)"/>
      <path stroke-dasharray="6,2" d="M-1102.0079 -829 L-1114.0079 -835 L-1102.0079 -829 L-1114.0079 -823 Z" clip-path="url(#clipPath2)" stroke="none"/>
      <path fill="none" stroke-miterlimit="10" d="M-1102.0079 -829 L-1114.0079 -835 L-1102.0079 -829 L-1114.0079 -823 Z" clip-path="url(#clipPath2)" stroke-linecap="square"/>
      <path fill="none" stroke-dasharray="6,2" d="M-1249 -791.0029 L-1249 -720.4811" clip-path="url(#clipPath2)"/>
      <path stroke-dasharray="6,2" d="M-1249 -716.4811 L-1243 -728.4811 L-1249 -716.4811 L-1255 -728.4811 Z" clip-path="url(#clipPath2)" stroke="none"/>
      <path fill="none" stroke-miterlimit="10" d="M-1249 -716.4811 L-1243 -728.4811 L-1249 -716.4811 L-1255 -728.4811 Z" clip-path="url(#clipPath2)" stroke-linecap="square"/>
      <path fill="none" stroke-dasharray="6,2" d="M-1036.5 -696.0092 L-1036.5 -732.9243" clip-path="url(#clipPath2)"/>
      <path fill="white" stroke-dasharray="6,2" d="M-1036.5 -747.9243 L-1042.5 -731.9243 L-1030.5 -731.9243 Z" clip-path="url(#clipPath2)" stroke="none"/>
      <path fill="none" d="M-1036.5 -747.9243 L-1042.5 -731.9243 L-1030.5 -731.9243 Z" clip-path="url(#clipPath2)"/>
      <path fill="none" d="M-970.5267 -658 L-892.0316 -658" clip-path="url(#clipPath2)"/>
      <path fill="white" d="M-977.5267 -658 L-970.5267 -663 L-963.5267 -658 L-970.5267 -653 Z" clip-path="url(#clipPath2)" stroke="none"/>
      <path fill="none" d="M-977.5267 -658 L-970.5267 -663 L-963.5267 -658 L-970.5267 -653 Z" clip-path="url(#clipPath2)"/>
      <path fill="none" d="M-833 -870.0056 L-833 -696.0171" clip-path="url(#clipPath2)"/>
      <text x="-829.5986" xml:space="preserve" y="-778.4648" clip-path="url(#clipPath2)" font-family="sans-serif" stroke="none">↓ creates</text>
      <path fill="none" d="M-891.9824 -908 L-1249 -908 L-1249 -874.9956" clip-path="url(#clipPath2)"/>
      <path d="M-1249 -866.9956 L-1244 -878.9956 L-1249 -875.9956 L-1254 -878.9956 Z" clip-path="url(#clipPath2)" stroke="none"/>
      <text x="-1117.0928" xml:space="preserve" y="-933.4648" clip-path="url(#clipPath2)" font-family="sans-serif" stroke="none">← creates</text>
    </g>
  </g>
</svg>
