<?xml version="1.0" encoding="UTF-8"?><svg xmlns="http://www.w3.org/2000/svg" xmlns:xlink="http://www.w3.org/1999/xlink" fill-opacity="1" color-rendering="auto" color-interpolation="auto" text-rendering="auto" stroke="black" stroke-linecap="square" width="519" stroke-miterlimit="10" shape-rendering="auto" stroke-opacity="1" fill="black" stroke-dasharray="none" font-weight="normal" stroke-width="1" height="305" font-family="'Dialog'" font-style="normal" stroke-linejoin="miter" font-size="12px" stroke-dashoffset="0" image-rendering="auto">
  <!--Generated by ySVG 2.5-->
  <defs id="genericDefs"/>
  <g>
    <defs id="defs1">
      <clipPath clipPathUnits="userSpaceOnUse" id="clipPath1">
        <path d="M0 0 L519 0 L519 305 L0 305 L0 0 Z"/>
      </clipPath>
      <clipPath clipPathUnits="userSpaceOnUse" id="clipPath2">
        <path d="M-1270 -876 L-751 -876 L-751 -571 L-1270 -571 L-1270 -876 Z"/>
      </clipPath>
      <clipPath clipPathUnits="userSpaceOnUse" id="clipPath3">
        <path d="M-1255 -860 L-1255 -758 L-1120 -758 L-1120 -860 Z"/>
      </clipPath>
      <clipPath clipPathUnits="userSpaceOnUse" id="clipPath4">
        <path d="M-1078 -860 L-1078 -758 L-943 -758 L-943 -860 Z"/>
      </clipPath>
      <clipPath clipPathUnits="userSpaceOnUse" id="clipPath5">
        <path d="M-901 -860 L-901 -758 L-766 -758 L-766 -860 Z"/>
      </clipPath>
      <clipPath clipPathUnits="userSpaceOnUse" id="clipPath6">
        <path d="M-1190 -688 L-1190 -586 L-1055 -586 L-1055 -688 Z"/>
      </clipPath>
      <clipPath clipPathUnits="userSpaceOnUse" id="clipPath7">
        <path d="M-963 -688 L-963 -586 L-828 -586 L-828 -688 Z"/>
      </clipPath>
    </defs>
    <g fill="white" text-rendering="geometricPrecision" shape-rendering="geometricPrecision" transform="translate(1270,876)" stroke="white">
      <rect x="-1270" width="519" height="305" y="-876" clip-path="url(#clipPath2)" stroke="none"/>
    </g>
    <g fill="rgb(255,255,204)" text-rendering="geometricPrecision" shape-rendering="geometricPrecision" transform="matrix(1,0,0,1,1270,876)" stroke="rgb(255,255,204)">
      <rect x="-1255" width="135" height="103" y="-861" clip-path="url(#clipPath2)" stroke="none"/>
    </g>
    <g text-rendering="geometricPrecision" stroke-miterlimit="1.45" shape-rendering="geometricPrecision" transform="matrix(1,0,0,1,1270,876)" stroke-linecap="butt">
      <rect fill="none" x="-1255" width="135" height="103" y="-861" clip-path="url(#clipPath2)"/>
      <text x="-1232.0137" xml:space="preserve" y="-844.3984" clip-path="url(#clipPath3)" font-family="sans-serif" stroke="none">&lt;&lt;interface&gt;&gt;</text>
      <text x="-1210.6848" font-size="13px" y="-820.2988" clip-path="url(#clipPath3)" font-family="sans-serif" stroke="none" font-weight="bold" xml:space="preserve">Reader</text>
      <line stroke-linecap="square" clip-path="url(#clipPath3)" fill="none" x1="-1254" x2="-1121" y1="-812" y2="-812" stroke-miterlimit="10"/>
      <text x="-1250" xml:space="preserve" y="-795.9551" clip-path="url(#clipPath3)" font-family="sans-serif" stroke="none"> </text>
      <line stroke-linecap="square" clip-path="url(#clipPath3)" fill="none" x1="-1254" x2="-1121" y1="-788" y2="-788" stroke-miterlimit="10"/>
      <text x="-1250" xml:space="preserve" y="-771.8223" clip-path="url(#clipPath3)" font-family="sans-serif" stroke="none"> read(byte[] b)</text>
    </g>
    <g fill="white" text-rendering="geometricPrecision" shape-rendering="geometricPrecision" transform="matrix(1,0,0,1,1270,876)" stroke="white">
      <path d="M-901 -627 L-871 -627 L-878.5 -597 L-893.5 -597 Z" fill-rule="evenodd" clip-path="url(#clipPath2)" stroke="none"/>
      <path fill="none" stroke-miterlimit="1.45" d="M-901 -627 L-871 -627 L-878.5 -597 L-893.5 -597 Z" fill-rule="evenodd" clip-path="url(#clipPath2)" stroke-linecap="butt"/>
      <rect x="-1078" y="-861" clip-path="url(#clipPath2)" fill="rgb(255,255,204)" width="135" height="103" stroke="none"/>
    </g>
    <g text-rendering="geometricPrecision" stroke-miterlimit="1.45" shape-rendering="geometricPrecision" transform="matrix(1,0,0,1,1270,876)" stroke-linecap="butt">
      <rect fill="none" x="-1078" width="135" height="103" y="-861" clip-path="url(#clipPath2)"/>
      <text x="-1055.0137" xml:space="preserve" y="-844.3984" clip-path="url(#clipPath4)" font-family="sans-serif" stroke="none">&lt;&lt;interface&gt;&gt;</text>
      <text x="-1030.8411" font-size="13px" y="-820.2988" clip-path="url(#clipPath4)" font-family="sans-serif" stroke="none" font-weight="bold" xml:space="preserve">Writer</text>
      <line stroke-linecap="square" clip-path="url(#clipPath4)" fill="none" x1="-1077" x2="-944" y1="-812" y2="-812" stroke-miterlimit="10"/>
      <text x="-1073" xml:space="preserve" y="-795.9551" clip-path="url(#clipPath4)" font-family="sans-serif" stroke="none"> </text>
      <line stroke-linecap="square" clip-path="url(#clipPath4)" fill="none" x1="-1077" x2="-944" y1="-788" y2="-788" stroke-miterlimit="10"/>
      <text x="-1073" xml:space="preserve" y="-771.8223" clip-path="url(#clipPath4)" font-family="sans-serif" stroke="none">write(byte[] b)</text>
    </g>
    <g fill="rgb(255,255,204)" text-rendering="geometricPrecision" shape-rendering="geometricPrecision" transform="matrix(1,0,0,1,1270,876)" stroke="rgb(255,255,204)">
      <rect x="-901" width="135" height="103" y="-861" clip-path="url(#clipPath2)" stroke="none"/>
    </g>
    <g text-rendering="geometricPrecision" stroke-miterlimit="1.45" shape-rendering="geometricPrecision" transform="matrix(1,0,0,1,1270,876)" stroke-linecap="butt">
      <rect fill="none" x="-901" width="135" height="103" y="-861" clip-path="url(#clipPath2)"/>
      <text x="-878.0137" xml:space="preserve" y="-844.3984" clip-path="url(#clipPath5)" font-family="sans-serif" stroke="none">&lt;&lt;interface&gt;&gt;</text>
      <text x="-862.4231" font-size="13px" y="-820.2988" clip-path="url(#clipPath5)" font-family="sans-serif" stroke="none" font-weight="bold" xml:space="preserve">Trimmer</text>
      <line stroke-linecap="square" clip-path="url(#clipPath5)" fill="none" x1="-900" x2="-767" y1="-812" y2="-812" stroke-miterlimit="10"/>
      <text x="-896" xml:space="preserve" y="-795.9551" clip-path="url(#clipPath5)" font-family="sans-serif" stroke="none"> </text>
      <line stroke-linecap="square" clip-path="url(#clipPath5)" fill="none" x1="-900" x2="-767" y1="-788" y2="-788" stroke-miterlimit="10"/>
      <text x="-896" xml:space="preserve" y="-771.8223" clip-path="url(#clipPath5)" font-family="sans-serif" stroke="none">trim(byte[] b, ...)</text>
    </g>
    <g fill="rgb(255,255,204)" text-rendering="geometricPrecision" shape-rendering="geometricPrecision" transform="matrix(1,0,0,1,1270,876)" stroke="rgb(255,255,204)">
      <rect x="-1190" width="135" height="103" y="-689" clip-path="url(#clipPath2)" stroke="none"/>
    </g>
    <g text-rendering="geometricPrecision" stroke-miterlimit="1.45" shape-rendering="geometricPrecision" transform="matrix(1,0,0,1,1270,876)" stroke-linecap="butt">
      <rect fill="none" x="-1190" width="135" height="103" y="-689" clip-path="url(#clipPath2)"/>
      <text x="-1167.0137" xml:space="preserve" y="-672.3984" clip-path="url(#clipPath6)" font-family="sans-serif" stroke="none">&lt;&lt;interface&gt;&gt;</text>
      <text x="-1159.2625" font-size="13px" y="-648.2988" clip-path="url(#clipPath6)" font-family="sans-serif" stroke="none" font-weight="bold" xml:space="preserve">ReadWriter</text>
      <line stroke-linecap="square" clip-path="url(#clipPath6)" fill="none" x1="-1189" x2="-1056" y1="-640" y2="-640" stroke-miterlimit="10"/>
      <text x="-1185" xml:space="preserve" y="-623.9551" clip-path="url(#clipPath6)" font-family="sans-serif" stroke="none"> </text>
      <line stroke-linecap="square" clip-path="url(#clipPath6)" fill="none" x1="-1189" x2="-1056" y1="-616" y2="-616" stroke-miterlimit="10"/>
    </g>
    <g fill="rgb(255,255,204)" text-rendering="geometricPrecision" shape-rendering="geometricPrecision" transform="matrix(1,0,0,1,1270,876)" stroke="rgb(255,255,204)">
      <rect x="-963" width="135" height="103" y="-689" clip-path="url(#clipPath2)" stroke="none"/>
    </g>
    <g text-rendering="geometricPrecision" stroke-miterlimit="1.45" shape-rendering="geometricPrecision" transform="matrix(1,0,0,1,1270,876)" stroke-linecap="butt">
      <rect fill="none" x="-963" width="135" height="103" y="-689" clip-path="url(#clipPath2)"/>
      <text x="-940.0137" xml:space="preserve" y="-672.3984" clip-path="url(#clipPath7)" font-family="sans-serif" stroke="none">&lt;&lt;interface&gt;&gt;</text>
      <text x="-934.5413" font-size="13px" y="-648.2988" clip-path="url(#clipPath7)" font-family="sans-serif" stroke="none" font-weight="bold" xml:space="preserve">TrimReader</text>
      <line stroke-linecap="square" clip-path="url(#clipPath7)" fill="none" x1="-962" x2="-829" y1="-640" y2="-640" stroke-miterlimit="10"/>
      <text x="-958" xml:space="preserve" y="-623.9551" clip-path="url(#clipPath7)" font-family="sans-serif" stroke="none"> </text>
      <line stroke-linecap="square" clip-path="url(#clipPath7)" fill="none" x1="-962" x2="-829" y1="-616" y2="-616" stroke-miterlimit="10"/>
      <path fill="none" stroke-dasharray="6,2" d="M-1134.5 -689.0107 L-1134.5 -719 L-1187.5 -719 L-1187.5 -743.0193" clip-path="url(#clipPath2)"/>
      <path fill="white" stroke-dasharray="6,2" d="M-1187.5 -758.0193 L-1193.5 -742.0193 L-1181.5 -742.0193 Z" clip-path="url(#clipPath2)" stroke="none"/>
      <path fill="none" d="M-1187.5 -758.0193 L-1193.5 -742.0193 L-1181.5 -742.0193 Z" clip-path="url(#clipPath2)"/>
      <path fill="none" stroke-dasharray="6,2" d="M-1122.5 -689.0344 L-1122.5 -719 L-1010.5 -719 L-1010.5 -743.0193" clip-path="url(#clipPath2)"/>
      <path fill="white" stroke-dasharray="6,2" d="M-1010.5 -758.0193 L-1016.5 -742.0193 L-1004.5 -742.0193 Z" clip-path="url(#clipPath2)" stroke="none"/>
      <path fill="none" d="M-1010.5 -758.0193 L-1016.5 -742.0193 L-1004.5 -742.0193 Z" clip-path="url(#clipPath2)"/>
      <path fill="none" stroke-dasharray="6,2" d="M-895.5 -688.9768 L-895.5 -738 L-1153.5 -738 L-1153.5 -742.9966" clip-path="url(#clipPath2)"/>
      <path fill="white" stroke-dasharray="6,2" d="M-1153.5 -757.9966 L-1159.5 -741.9966 L-1147.5 -741.9966 Z" clip-path="url(#clipPath2)" stroke="none"/>
      <path fill="none" d="M-1153.5 -757.9966 L-1159.5 -741.9966 L-1147.5 -741.9966 Z" clip-path="url(#clipPath2)"/>
      <path fill="none" stroke-dasharray="6,2" d="M-895.5 -688.9768 L-895.5 -738 L-833.5 -738 L-833.5 -743.0046" clip-path="url(#clipPath2)"/>
      <path fill="white" stroke-dasharray="6,2" d="M-833.5 -758.0046 L-839.5 -742.0046 L-827.5 -742.0046 Z" clip-path="url(#clipPath2)" stroke="none"/>
      <path fill="none" d="M-833.5 -758.0046 L-839.5 -742.0046 L-827.5 -742.0046 Z" clip-path="url(#clipPath2)"/>
    </g>
  </g>
</svg>
