<?xml version="1.0" encoding="UTF-8"?><svg xmlns="http://www.w3.org/2000/svg" xmlns:xlink="http://www.w3.org/1999/xlink" fill-opacity="1" color-rendering="auto" color-interpolation="auto" text-rendering="auto" stroke="black" stroke-linecap="square" width="609" stroke-miterlimit="10" shape-rendering="auto" stroke-opacity="1" fill="black" stroke-dasharray="none" font-weight="normal" stroke-width="1" height="377" font-family="'Dialog'" font-style="normal" stroke-linejoin="miter" font-size="12px" stroke-dashoffset="0" image-rendering="auto">
  <!--Generated by ySVG 2.5-->
  <defs id="genericDefs"/>
  <g>
    <defs id="defs1">
      <clipPath clipPathUnits="userSpaceOnUse" id="clipPath1">
        <path d="M0 0 L609 0 L609 377 L0 377 L0 0 Z"/>
      </clipPath>
      <clipPath clipPathUnits="userSpaceOnUse" id="clipPath2">
        <path d="M65 118 L674 118 L674 495 L65 495 L65 118 Z"/>
      </clipPath>
      <clipPath clipPathUnits="userSpaceOnUse" id="clipPath3">
        <path d="M80 149 L80 224 L181 224 L181 149 Z"/>
      </clipPath>
      <clipPath clipPathUnits="userSpaceOnUse" id="clipPath4">
        <path d="M331 149 L331 252 L514 252 L514 149 Z"/>
      </clipPath>
      <clipPath clipPathUnits="userSpaceOnUse" id="clipPath5">
        <path d="M0 0 L0 15 L122 15 L122 0 Z"/>
      </clipPath>
      <clipPath clipPathUnits="userSpaceOnUse" id="clipPath6">
        <path d="M202 335 L202 410 L392 410 L392 335 Z"/>
      </clipPath>
      <clipPath clipPathUnits="userSpaceOnUse" id="clipPath7">
        <path d="M458 335 L458 480 L659 480 L659 335 Z"/>
      </clipPath>
    </defs>
    <g fill="white" text-rendering="geometricPrecision" shape-rendering="geometricPrecision" transform="translate(-65,-118)" stroke="white">
      <rect x="65" width="609" height="377" y="118" clip-path="url(#clipPath2)" stroke="none"/>
    </g>
    <g fill="rgb(255,255,204)" text-rendering="geometricPrecision" shape-rendering="geometricPrecision" transform="matrix(1,0,0,1,-65,-118)" stroke="rgb(255,255,204)">
      <rect x="81" width="99" height="73" y="150" clip-path="url(#clipPath2)" stroke="none"/>
      <rect x="80" y="149" clip-path="url(#clipPath2)" fill="white" width="1" height="75" stroke="none"/>
      <rect x="81" y="149" clip-path="url(#clipPath2)" fill="white" width="99" height="1" stroke="none"/>
      <rect x="81" y="223" clip-path="url(#clipPath2)" fill="rgb(178,178,142)" width="100" height="1" stroke="none"/>
      <rect x="180" y="149" clip-path="url(#clipPath2)" fill="rgb(178,178,142)" width="1" height="74" stroke="none"/>
    </g>
    <g font-size="13px" stroke-linecap="butt" transform="matrix(1,0,0,1,-65,-118)" text-rendering="geometricPrecision" font-family="sans-serif" shape-rendering="geometricPrecision" font-weight="bold" stroke-miterlimit="1.45">
      <text x="86.5774" xml:space="preserve" y="166.5684" clip-path="url(#clipPath3)" stroke="none">MovingEntity</text>
    </g>
    <g text-rendering="geometricPrecision" shape-rendering="geometricPrecision" transform="matrix(1,0,0,1,-65,-118)">
      <line y2="174" fill="none" x1="81" clip-path="url(#clipPath3)" x2="180" y1="174"/>
      <text stroke-linecap="butt" x="85" y="190.9121" clip-path="url(#clipPath3)" font-family="sans-serif" stroke="none" stroke-miterlimit="1.45" xml:space="preserve"> </text>
      <line y2="198" fill="none" x1="81" clip-path="url(#clipPath3)" x2="180" y1="198"/>
      <text stroke-linecap="butt" x="85" y="215.0449" clip-path="url(#clipPath3)" font-family="sans-serif" stroke="none" stroke-miterlimit="1.45" xml:space="preserve"> </text>
      <rect x="332" y="150" clip-path="url(#clipPath2)" fill="rgb(255,255,204)" width="181" height="101" stroke="none"/>
      <rect x="331" y="149" clip-path="url(#clipPath2)" fill="white" width="1" height="103" stroke="none"/>
      <rect x="332" y="149" clip-path="url(#clipPath2)" fill="white" width="181" height="1" stroke="none"/>
      <rect x="332" y="251" clip-path="url(#clipPath2)" fill="rgb(178,178,142)" width="182" height="1" stroke="none"/>
      <rect x="513" y="149" clip-path="url(#clipPath2)" fill="rgb(178,178,142)" width="1" height="102" stroke="none"/>
      <text stroke-linecap="butt" x="377.9863" y="165.6016" clip-path="url(#clipPath4)" font-family="sans-serif" stroke="none" stroke-miterlimit="1.45" xml:space="preserve">&lt;&lt;interface&gt;&gt;</text>
    </g>
    <g font-size="13px" stroke-linecap="butt" transform="matrix(1,0,0,1,-65,-118)" text-rendering="geometricPrecision" font-family="sans-serif" shape-rendering="geometricPrecision" font-weight="bold" stroke-miterlimit="1.45">
      <text x="369.4749" xml:space="preserve" y="189.7012" clip-path="url(#clipPath4)" stroke="none">PathingStrategy</text>
    </g>
    <g text-rendering="geometricPrecision" shape-rendering="geometricPrecision" transform="matrix(1,0,0,1,-65,-118)">
      <line y2="197" fill="none" x1="332" clip-path="url(#clipPath4)" x2="513" y1="197"/>
      <text stroke-linecap="butt" x="336" y="214.0449" clip-path="url(#clipPath4)" font-family="sans-serif" stroke="none" stroke-miterlimit="1.45" xml:space="preserve"> </text>
      <line y2="221" fill="none" x1="332" clip-path="url(#clipPath4)" x2="513" y1="221"/>
    </g>
    <g stroke-linecap="butt" transform="matrix(1,0,0,1,-65,-118) translate(336,226)" text-rendering="geometricPrecision" font-family="sans-serif" shape-rendering="geometricPrecision" font-style="italic" stroke-miterlimit="1.45">
      <text x="0" xml:space="preserve" y="12" clip-path="url(#clipPath5)" stroke="none">computePath() : List</text>
      <text x="114" xml:space="preserve" y="12" clip-path="url(#clipPath5)" stroke="none">  </text>
    </g>
    <g fill="rgb(255,255,204)" text-rendering="geometricPrecision" shape-rendering="geometricPrecision" transform="matrix(1,0,0,1,-65,-118)" stroke="rgb(255,255,204)">
      <rect x="203" width="188" height="73" y="336" clip-path="url(#clipPath2)" stroke="none"/>
      <rect x="202" y="335" clip-path="url(#clipPath2)" fill="white" width="1" height="75" stroke="none"/>
      <rect x="203" y="335" clip-path="url(#clipPath2)" fill="white" width="188" height="1" stroke="none"/>
      <rect x="203" y="409" clip-path="url(#clipPath2)" fill="rgb(178,178,142)" width="189" height="1" stroke="none"/>
      <rect x="391" y="335" clip-path="url(#clipPath2)" fill="rgb(178,178,142)" width="1" height="74" stroke="none"/>
    </g>
    <g font-size="13px" stroke-linecap="butt" transform="matrix(1,0,0,1,-65,-118)" text-rendering="geometricPrecision" font-family="sans-serif" shape-rendering="geometricPrecision" font-weight="bold" stroke-miterlimit="1.45">
      <text x="209.2056" xml:space="preserve" y="352.5684" clip-path="url(#clipPath6)" stroke="none">SingleStepPathingStrategy</text>
    </g>
    <g text-rendering="geometricPrecision" shape-rendering="geometricPrecision" transform="matrix(1,0,0,1,-65,-118)">
      <line y2="360" fill="none" x1="203" clip-path="url(#clipPath6)" x2="391" y1="360"/>
      <text stroke-linecap="butt" x="207" y="376.9121" clip-path="url(#clipPath6)" font-family="sans-serif" stroke="none" stroke-miterlimit="1.45" xml:space="preserve"> </text>
      <line y2="384" fill="none" x1="203" clip-path="url(#clipPath6)" x2="391" y1="384"/>
      <text stroke-linecap="butt" x="207" y="401.0449" clip-path="url(#clipPath6)" font-family="sans-serif" stroke="none" stroke-miterlimit="1.45" xml:space="preserve">computePath() : List&lt;Point&gt;</text>
      <rect x="459" y="336" clip-path="url(#clipPath2)" fill="rgb(255,255,204)" width="199" height="143" stroke="none"/>
      <rect x="458" y="335" clip-path="url(#clipPath2)" fill="white" width="1" height="145" stroke="none"/>
      <rect x="459" y="335" clip-path="url(#clipPath2)" fill="white" width="199" height="1" stroke="none"/>
      <rect x="459" y="479" clip-path="url(#clipPath2)" fill="rgb(178,178,142)" width="200" height="1" stroke="none"/>
      <rect x="658" y="335" clip-path="url(#clipPath2)" fill="rgb(178,178,142)" width="1" height="144" stroke="none"/>
    </g>
    <g font-size="13px" stroke-linecap="butt" transform="matrix(1,0,0,1,-65,-118)" text-rendering="geometricPrecision" font-family="sans-serif" shape-rendering="geometricPrecision" font-weight="bold" stroke-miterlimit="1.45">
      <text x="487.5649" xml:space="preserve" y="352.5684" clip-path="url(#clipPath7)" stroke="none">AStarPathingStrategy</text>
    </g>
    <g text-rendering="geometricPrecision" shape-rendering="geometricPrecision" transform="matrix(1,0,0,1,-65,-118)">
      <line y2="360" fill="none" x1="459" clip-path="url(#clipPath7)" x2="658" y1="360"/>
      <text stroke-linecap="butt" x="463" y="376.9121" clip-path="url(#clipPath7)" font-family="sans-serif" stroke="none" stroke-miterlimit="1.45" xml:space="preserve">-openSet</text>
      <text stroke-linecap="butt" x="463" y="391.0449" clip-path="url(#clipPath7)" font-family="sans-serif" stroke="none" stroke-miterlimit="1.45" xml:space="preserve">-closedSet</text>
      <text stroke-linecap="butt" x="463" y="405.1777" clip-path="url(#clipPath7)" font-family="sans-serif" stroke="none" stroke-miterlimit="1.45" xml:space="preserve">-cameFrom</text>
      <text stroke-linecap="butt" x="463" y="419.3105" clip-path="url(#clipPath7)" font-family="sans-serif" stroke="none" stroke-miterlimit="1.45" xml:space="preserve">-fScore</text>
      <text stroke-linecap="butt" x="463" y="433.4434" clip-path="url(#clipPath7)" font-family="sans-serif" stroke="none" stroke-miterlimit="1.45" xml:space="preserve">-gScore</text>
      <line y2="440" fill="none" x1="459" clip-path="url(#clipPath7)" x2="658" y1="440"/>
      <text stroke-linecap="butt" x="463" y="457.5762" clip-path="url(#clipPath7)" font-family="sans-serif" stroke="none" stroke-miterlimit="1.45" xml:space="preserve">computePath() : List&lt;Point&gt;</text>
      <text stroke-linecap="butt" x="278.4658" y="199.5352" clip-path="url(#clipPath2)" font-family="sans-serif" stroke="none" stroke-miterlimit="1.45" xml:space="preserve">strategy</text>
      <path fill="none" stroke-miterlimit="1.45" d="M180.9811 186.5 L326.999 186.5" clip-path="url(#clipPath2)" stroke-linecap="butt"/>
      <path stroke-miterlimit="1.45" d="M330.999 186.5 L322.999 180.5 L325.999 186.5 L322.999 192.5 Z" clip-path="url(#clipPath2)" stroke-linecap="butt" stroke="none"/>
      <text stroke-linecap="butt" x="254.1016" y="146.9023" clip-path="url(#clipPath2)" font-family="sans-serif" stroke="none" stroke-miterlimit="1.45" xml:space="preserve"> </text>
      <text stroke-linecap="butt" x="254.1016" y="161.0352" clip-path="url(#clipPath2)" font-family="sans-serif" stroke="none" stroke-miterlimit="1.45" xml:space="preserve"> </text>
      <text stroke-linecap="butt" x="234.918" y="175.168" clip-path="url(#clipPath2)" font-family="sans-serif" stroke="none" stroke-miterlimit="1.45" xml:space="preserve">uses →</text>
      <path fill="none" stroke-miterlimit="1.45" stroke-dasharray="6,2" d="M297 334.9832 L297 282 L422.5 282 L422.5 267.0344" clip-path="url(#clipPath2)" stroke-linecap="butt"/>
    </g>
    <g stroke-linecap="butt" transform="matrix(1,0,0,1,-65,-118)" fill="white" text-rendering="geometricPrecision" shape-rendering="geometricPrecision" stroke-dasharray="6,2" stroke="white" stroke-miterlimit="1.45">
      <path d="M422.5 252.0344 L416.5 268.0344 L428.5 268.0344 Z" stroke="none" clip-path="url(#clipPath2)"/>
      <path fill="none" stroke-dasharray="none" d="M422.5 252.0344 L416.5 268.0344 L428.5 268.0344 Z" clip-path="url(#clipPath2)" stroke="black"/>
      <path fill="none" d="M558.5 334.976 L558.5 282 L422.5 282 L422.5 267.0344" clip-path="url(#clipPath2)" stroke="black"/>
      <path d="M422.5 252.0344 L416.5 268.0344 L428.5 268.0344 Z" clip-path="url(#clipPath2)" stroke="none"/>
      <path fill="none" stroke-dasharray="none" d="M422.5 252.0344 L416.5 268.0344 L428.5 268.0344 Z" clip-path="url(#clipPath2)" stroke="black"/>
    </g>
  </g>
</svg>
