<?xml version="1.0" encoding="UTF-8"?><svg xmlns="http://www.w3.org/2000/svg" xmlns:xlink="http://www.w3.org/1999/xlink" fill-opacity="1" color-rendering="auto" color-interpolation="auto" text-rendering="auto" stroke="black" stroke-linecap="square" width="819" stroke-miterlimit="10" shape-rendering="auto" stroke-opacity="1" fill="black" stroke-dasharray="none" font-weight="normal" stroke-width="1" height="385" font-family="'Dialog'" font-style="normal" stroke-linejoin="miter" font-size="12px" stroke-dashoffset="0" image-rendering="auto">
  <!--Generated by ySVG 2.5-->
  <defs id="genericDefs"/>
  <g>
    <defs id="defs1">
      <clipPath clipPathUnits="userSpaceOnUse" id="clipPath1">
        <path d="M0 0 L819 0 L819 385 L0 385 L0 0 Z"/>
      </clipPath>
      <clipPath clipPathUnits="userSpaceOnUse" id="clipPath2">
        <path d="M-4 47 L815 47 L815 432 L-4 432 L-4 47 Z"/>
      </clipPath>
      <clipPath clipPathUnits="userSpaceOnUse" id="clipPath3">
        <path d="M120 126 L120 262 L332 262 L332 126 Z"/>
      </clipPath>
      <clipPath clipPathUnits="userSpaceOnUse" id="clipPath4">
        <path d="M0 0 L0 45 L154 45 L154 0 Z"/>
      </clipPath>
      <clipPath clipPathUnits="userSpaceOnUse" id="clipPath5">
        <path d="M11 313 L11 417 L194 417 L194 313 Z"/>
      </clipPath>
      <clipPath clipPathUnits="userSpaceOnUse" id="clipPath6">
        <path d="M0 0 L0 30 L154 30 L154 0 Z"/>
      </clipPath>
      <clipPath clipPathUnits="userSpaceOnUse" id="clipPath7">
        <path d="M303 313 L303 417 L486 417 L486 313 Z"/>
      </clipPath>
    </defs>
    <g fill="white" text-rendering="geometricPrecision" shape-rendering="geometricPrecision" transform="translate(4,-47)" stroke="white">
      <rect x="-4" width="819" height="385" y="47" clip-path="url(#clipPath2)" stroke="none"/>
    </g>
    <g fill="rgb(255,255,204)" text-rendering="geometricPrecision" shape-rendering="geometricPrecision" transform="matrix(1,0,0,1,4,-47)" stroke="rgb(255,255,204)">
      <rect x="121" width="210" height="134" y="127" clip-path="url(#clipPath2)" stroke="none"/>
      <rect x="120" y="126" clip-path="url(#clipPath2)" fill="white" width="1" height="136" stroke="none"/>
      <rect x="121" y="126" clip-path="url(#clipPath2)" fill="white" width="210" height="1" stroke="none"/>
      <rect x="121" y="261" clip-path="url(#clipPath2)" fill="rgb(178,178,142)" width="211" height="1" stroke="none"/>
      <rect x="331" y="126" clip-path="url(#clipPath2)" fill="rgb(178,178,142)" width="1" height="135" stroke="none"/>
    </g>
    <g text-rendering="geometricPrecision" stroke-miterlimit="1.45" shape-rendering="geometricPrecision" font-family="sans-serif" transform="matrix(1,0,0,1,4,-47)" stroke-linecap="butt">
      <text x="183.9434" xml:space="preserve" y="142.6016" clip-path="url(#clipPath3)" stroke="none">&lt;&lt;abstract&gt;&gt;</text>
      <text x="174.8809" font-size="13px" y="166.7012" clip-path="url(#clipPath3)" stroke="none" font-weight="bold" xml:space="preserve">SomethingDoer</text>
      <line stroke-linecap="square" clip-path="url(#clipPath3)" fill="none" x1="121" x2="331" y1="174" y2="174" stroke-miterlimit="10"/>
      <text x="125.5" xml:space="preserve" y="191.0449" clip-path="url(#clipPath3)" stroke="none"> </text>
      <line stroke-linecap="square" clip-path="url(#clipPath3)" fill="none" x1="121" x2="331" y1="198" y2="198" stroke-miterlimit="10"/>
    </g>
    <g text-rendering="geometricPrecision" stroke-miterlimit="1.45" shape-rendering="geometricPrecision" font-family="sans-serif" transform="matrix(1,0,0,1,4,-47) translate(125,203)" stroke-linecap="butt">
      <text x="0" xml:space="preserve" y="12" clip-path="url(#clipPath4)" stroke="none">+doSomething()  </text>
      <text x="100" xml:space="preserve" y="12" clip-path="url(#clipPath4)" stroke="none"> </text>
      <text font-style="italic" x="0" xml:space="preserve" y="27" clip-path="url(#clipPath4)" stroke="none">#doSomethingSubPart1()  </text>
      <text font-style="italic" x="150" xml:space="preserve" y="27" clip-path="url(#clipPath4)" stroke="none"> </text>
      <text font-style="italic" x="0" xml:space="preserve" y="42" clip-path="url(#clipPath4)" stroke="none">#doSomethingSubPart2()  </text>
      <text font-style="italic" x="150" xml:space="preserve" y="42" clip-path="url(#clipPath4)" stroke="none"> </text>
    </g>
    <g fill="rgb(255,255,204)" text-rendering="geometricPrecision" shape-rendering="geometricPrecision" transform="matrix(1,0,0,1,4,-47)" stroke="rgb(255,255,204)">
      <rect x="12" width="181" height="102" y="314" clip-path="url(#clipPath2)" stroke="none"/>
      <rect x="11" y="313" clip-path="url(#clipPath2)" fill="white" width="1" height="104" stroke="none"/>
      <rect x="12" y="313" clip-path="url(#clipPath2)" fill="white" width="181" height="1" stroke="none"/>
      <rect x="12" y="416" clip-path="url(#clipPath2)" fill="rgb(178,178,142)" width="182" height="1" stroke="none"/>
      <rect x="193" y="313" clip-path="url(#clipPath2)" fill="rgb(178,178,142)" width="1" height="103" stroke="none"/>
    </g>
    <g font-size="13px" stroke-linecap="butt" transform="matrix(1,0,0,1,4,-47)" text-rendering="geometricPrecision" font-family="sans-serif" shape-rendering="geometricPrecision" font-weight="bold" stroke-miterlimit="1.45">
      <text x="73.5579" xml:space="preserve" y="330.5684" clip-path="url(#clipPath5)" stroke="none">VariantA</text>
    </g>
    <g text-rendering="geometricPrecision" shape-rendering="geometricPrecision" transform="matrix(1,0,0,1,4,-47)">
      <line y2="338" fill="none" x1="12" clip-path="url(#clipPath5)" x2="193" y1="338"/>
      <text stroke-linecap="butt" x="16" y="354.9121" clip-path="url(#clipPath5)" font-family="sans-serif" stroke="none" stroke-miterlimit="1.45" xml:space="preserve"> </text>
      <line y2="362" fill="none" x1="12" clip-path="url(#clipPath5)" x2="193" y1="362"/>
    </g>
    <g text-rendering="geometricPrecision" stroke-miterlimit="1.45" shape-rendering="geometricPrecision" font-family="sans-serif" transform="matrix(1,0,0,1,4,-47) translate(16,367)" stroke-linecap="butt">
      <text x="0" xml:space="preserve" y="12" clip-path="url(#clipPath6)" stroke="none">#doSomethingSubPart1()  </text>
      <text x="150" xml:space="preserve" y="12" clip-path="url(#clipPath6)" stroke="none"> </text>
      <text x="0" xml:space="preserve" y="27" clip-path="url(#clipPath6)" stroke="none">#doSomethingSubPart2()  </text>
      <text x="150" xml:space="preserve" y="27" clip-path="url(#clipPath6)" stroke="none"> </text>
    </g>
    <g fill="rgb(255,255,204)" text-rendering="geometricPrecision" shape-rendering="geometricPrecision" transform="matrix(1,0,0,1,4,-47)" stroke="rgb(255,255,204)">
      <rect x="304" width="181" height="102" y="314" clip-path="url(#clipPath2)" stroke="none"/>
      <rect x="303" y="313" clip-path="url(#clipPath2)" fill="white" width="1" height="104" stroke="none"/>
      <rect x="304" y="313" clip-path="url(#clipPath2)" fill="white" width="181" height="1" stroke="none"/>
      <rect x="304" y="416" clip-path="url(#clipPath2)" fill="rgb(178,178,142)" width="182" height="1" stroke="none"/>
      <rect x="485" y="313" clip-path="url(#clipPath2)" fill="rgb(178,178,142)" width="1" height="103" stroke="none"/>
    </g>
    <g font-size="13px" stroke-linecap="butt" transform="matrix(1,0,0,1,4,-47)" text-rendering="geometricPrecision" font-family="sans-serif" shape-rendering="geometricPrecision" font-weight="bold" stroke-miterlimit="1.45">
      <text x="366.2498" xml:space="preserve" y="330.5684" clip-path="url(#clipPath7)" stroke="none">VariantB</text>
    </g>
    <g text-rendering="geometricPrecision" shape-rendering="geometricPrecision" transform="matrix(1,0,0,1,4,-47)">
      <line y2="338" fill="none" x1="304" clip-path="url(#clipPath7)" x2="485" y1="338"/>
      <text stroke-linecap="butt" x="308" y="354.9121" clip-path="url(#clipPath7)" font-family="sans-serif" stroke="none" stroke-miterlimit="1.45" xml:space="preserve"> </text>
      <line y2="362" fill="none" x1="304" clip-path="url(#clipPath7)" x2="485" y1="362"/>
    </g>
    <g text-rendering="geometricPrecision" stroke-miterlimit="1.45" shape-rendering="geometricPrecision" font-family="sans-serif" transform="matrix(1,0,0,1,4,-47) translate(308,367)" stroke-linecap="butt">
      <text x="0" xml:space="preserve" y="12" clip-path="url(#clipPath6)" stroke="none">#doSomethingSubPart1()  </text>
      <text x="150" xml:space="preserve" y="12" clip-path="url(#clipPath6)" stroke="none"> </text>
      <text x="0" xml:space="preserve" y="27" clip-path="url(#clipPath6)" stroke="none">#doSomethingSubPart2()  </text>
      <text x="150" xml:space="preserve" y="27" clip-path="url(#clipPath6)" stroke="none"> </text>
    </g>
    <g fill="yellow" text-rendering="geometricPrecision" shape-rendering="geometricPrecision" transform="matrix(1,0,0,1,4,-47)" stroke="yellow">
      <path d="M471.3333 62 L784.3333 62 L784.3333 77 L799.3333 77 L799.3333 239 L471.3333 239 Z" stroke="none" clip-path="url(#clipPath2)"/>
      <path fill="white" d="M784.3333 62 L784.3333 77 L799.3333 77 Z" clip-path="url(#clipPath2)" fill-rule="evenodd" stroke="none"/>
    </g>
    <g text-rendering="geometricPrecision" stroke-miterlimit="1.45" shape-rendering="geometricPrecision" transform="matrix(1,0,0,1,4,-47)" stroke-linecap="butt">
      <path fill="none" d="M471.3333 62 L784.3333 62 L784.3333 77 L799.3333 77 L799.3333 239 L471.3333 239 Z" clip-path="url(#clipPath2)"/>
      <path fill="none" d="M784.3333 62 L784.3333 77 L799.3333 77 Z" clip-path="url(#clipPath2)" fill-rule="evenodd"/>
      <text x="496.683" xml:space="preserve" y="91.4375" clip-path="url(#clipPath2)" font-family="sans-serif" stroke="none">protected abstract ... doSomethingSubPart1(...);</text>
      <text x="496.683" xml:space="preserve" y="105.5703" clip-path="url(#clipPath2)" font-family="sans-serif" stroke="none">protected abstract ... doSomethingSubPart2(...);</text>
      <text x="496.683" xml:space="preserve" y="119.7031" clip-path="url(#clipPath2)" font-family="sans-serif" stroke="none"> </text>
      <text x="496.683" xml:space="preserve" y="133.8359" clip-path="url(#clipPath2)" font-family="sans-serif" stroke="none">public ... doSomething(...) {</text>
      <text x="496.683" xml:space="preserve" y="147.9688" clip-path="url(#clipPath2)" font-family="sans-serif" stroke="none">    a bunch of stuff;</text>
      <text x="496.683" xml:space="preserve" y="162.1016" clip-path="url(#clipPath2)" font-family="sans-serif" stroke="none">    doSomethingSubPart1(...);</text>
      <text x="496.683" xml:space="preserve" y="176.2344" clip-path="url(#clipPath2)" font-family="sans-serif" stroke="none">    a bunch more stuff;</text>
      <text x="496.683" xml:space="preserve" y="190.3672" clip-path="url(#clipPath2)" font-family="sans-serif" stroke="none">    doSomethingSubPart2(...);</text>
      <text x="496.683" xml:space="preserve" y="204.5" clip-path="url(#clipPath2)" font-family="sans-serif" stroke="none">    even more stuff;</text>
      <text x="496.683" xml:space="preserve" y="218.6328" clip-path="url(#clipPath2)" font-family="sans-serif" stroke="none">}</text>
      <path fill="none" d="M102.5 313.0127 L102.5 287 L226.5 287 L226.5 276.979" clip-path="url(#clipPath2)"/>
      <path fill="white" d="M226.5 261.979 L220.5 277.979 L232.5 277.979 Z" clip-path="url(#clipPath2)" stroke="none"/>
      <path fill="none" d="M226.5 261.979 L220.5 277.979 L232.5 277.979 Z" clip-path="url(#clipPath2)"/>
      <path fill="none" d="M394.5 313.0127 L394.5 287 L226.5 287 L226.5 276.979" clip-path="url(#clipPath2)"/>
      <path fill="white" d="M226.5 261.979 L220.5 277.979 L232.5 277.979 Z" clip-path="url(#clipPath2)" stroke="none"/>
      <path fill="none" d="M226.5 261.979 L220.5 277.979 L232.5 277.979 Z" clip-path="url(#clipPath2)"/>
      <path fill="none" stroke-dasharray="6,2" d="M471.3159 167.9515 L332.5012 182.7214" clip-path="url(#clipPath2)"/>
    </g>
  </g>
</svg>
