<?xml version="1.0" encoding="UTF-8"?><svg xmlns="http://www.w3.org/2000/svg" xmlns:xlink="http://www.w3.org/1999/xlink" fill-opacity="1" color-rendering="auto" color-interpolation="auto" text-rendering="auto" stroke="black" stroke-linecap="square" width="758" stroke-miterlimit="10" shape-rendering="auto" stroke-opacity="1" fill="black" stroke-dasharray="none" font-weight="normal" stroke-width="1" height="380" font-family="'Dialog'" font-style="normal" stroke-linejoin="miter" font-size="12px" stroke-dashoffset="0" image-rendering="auto">
  <!--Generated by ySVG 2.5-->
  <defs id="genericDefs"/>
  <g>
    <defs id="defs1">
      <clipPath clipPathUnits="userSpaceOnUse" id="clipPath1">
        <path d="M0 0 L758 0 L758 380 L0 380 L0 0 Z"/>
      </clipPath>
      <clipPath clipPathUnits="userSpaceOnUse" id="clipPath2">
        <path d="M94 183 L852 183 L852 563 L94 563 L94 183 Z"/>
      </clipPath>
      <clipPath clipPathUnits="userSpaceOnUse" id="clipPath3">
        <path d="M413 198 L413 329 L568 329 L568 198 Z"/>
      </clipPath>
      <clipPath clipPathUnits="userSpaceOnUse" id="clipPath4">
        <path d="M0 0 L0 68 L140 68 L140 0 Z"/>
      </clipPath>
      <clipPath clipPathUnits="userSpaceOnUse" id="clipPath5">
        <path d="M109 417 L109 539 L252 539 L252 417 Z"/>
      </clipPath>
      <clipPath clipPathUnits="userSpaceOnUse" id="clipPath6">
        <path d="M0 0 L0 75 L138 75 L138 0 Z"/>
      </clipPath>
      <clipPath clipPathUnits="userSpaceOnUse" id="clipPath7">
        <path d="M492 417 L492 539 L661 539 L661 417 Z"/>
      </clipPath>
      <clipPath clipPathUnits="userSpaceOnUse" id="clipPath8">
        <path d="M0 0 L0 75 L140 75 L140 0 Z"/>
      </clipPath>
      <clipPath clipPathUnits="userSpaceOnUse" id="clipPath9">
        <path d="M318 417 L318 539 L461 539 L461 417 Z"/>
      </clipPath>
      <clipPath clipPathUnits="userSpaceOnUse" id="clipPath10">
        <path d="M694 417 L694 548 L837 548 L837 417 Z"/>
      </clipPath>
      <clipPath clipPathUnits="userSpaceOnUse" id="clipPath11">
        <path d="M0 0 L0 22 L24 22 L24 0 Z"/>
      </clipPath>
    </defs>
    <g fill="white" text-rendering="geometricPrecision" shape-rendering="geometricPrecision" transform="translate(-94,-183)" stroke="white">
      <rect x="94" width="758" height="380" y="183" clip-path="url(#clipPath2)" stroke="none"/>
    </g>
    <g fill="rgb(255,255,204)" text-rendering="geometricPrecision" shape-rendering="geometricPrecision" transform="matrix(1,0,0,1,-94,-183)" stroke="rgb(255,255,204)">
      <rect x="414" width="153" height="129" y="199" clip-path="url(#clipPath2)" stroke="none"/>
      <rect x="413" y="198" clip-path="url(#clipPath2)" fill="white" width="1" height="131" stroke="none"/>
      <rect x="414" y="198" clip-path="url(#clipPath2)" fill="white" width="153" height="1" stroke="none"/>
      <rect x="414" y="328" clip-path="url(#clipPath2)" fill="rgb(178,178,142)" width="154" height="1" stroke="none"/>
      <rect x="567" y="198" clip-path="url(#clipPath2)" fill="rgb(178,178,142)" width="1" height="130" stroke="none"/>
    </g>
    <g text-rendering="geometricPrecision" stroke-miterlimit="1.45" shape-rendering="geometricPrecision" font-family="sans-serif" transform="matrix(1,0,0,1,-94,-183)" stroke-linecap="butt">
      <text x="447.1172" xml:space="preserve" y="214.6016" clip-path="url(#clipPath3)" stroke="none">&lt;&lt;Abstract&gt;&gt;</text>
      <text x="432.4951" font-size="13px" y="238.7012" clip-path="url(#clipPath3)" stroke="none" font-weight="bold" xml:space="preserve">java.lang.Number</text>
      <line stroke-linecap="square" clip-path="url(#clipPath3)" fill="none" x1="414" x2="567" y1="246" y2="246" stroke-miterlimit="10"/>
      <line stroke-linecap="square" clip-path="url(#clipPath3)" fill="none" x1="414" x2="567" y1="256" y2="256" stroke-miterlimit="10"/>
    </g>
    <g stroke-linecap="butt" transform="matrix(1,0,0,1,-94,-183) translate(418,261)" text-rendering="geometricPrecision" font-family="sans-serif" shape-rendering="geometricPrecision" font-style="italic" stroke-miterlimit="1.45">
      <text x="0" xml:space="preserve" y="12" clip-path="url(#clipPath4)" stroke="none">doubleValue() : double  </text>
      <text x="140" xml:space="preserve" y="12" clip-path="url(#clipPath4)" stroke="none"> </text>
      <text x="0" xml:space="preserve" y="27" clip-path="url(#clipPath4)" stroke="none">floatValue() : float  </text>
      <text x="110" xml:space="preserve" y="27" clip-path="url(#clipPath4)" stroke="none"> </text>
      <text x="0" xml:space="preserve" y="42" clip-path="url(#clipPath4)" stroke="none">longValue() : long  </text>
      <text x="108" xml:space="preserve" y="42" clip-path="url(#clipPath4)" stroke="none"> </text>
      <text x="0" xml:space="preserve" y="57" clip-path="url(#clipPath4)" stroke="none">intValue() : int  </text>
      <text x="88" xml:space="preserve" y="57" clip-path="url(#clipPath4)" stroke="none"> </text>
      <text x="0" xml:space="preserve" y="72" clip-path="url(#clipPath4)" stroke="none">...</text>
    </g>
    <g fill="rgb(255,255,204)" text-rendering="geometricPrecision" shape-rendering="geometricPrecision" transform="matrix(1,0,0,1,-94,-183)" stroke="rgb(255,255,204)">
      <rect x="110" width="141" height="120" y="418" clip-path="url(#clipPath2)" stroke="none"/>
      <rect x="109" y="417" clip-path="url(#clipPath2)" fill="white" width="1" height="122" stroke="none"/>
      <rect x="110" y="417" clip-path="url(#clipPath2)" fill="white" width="141" height="1" stroke="none"/>
      <rect x="110" y="538" clip-path="url(#clipPath2)" fill="rgb(178,178,142)" width="142" height="1" stroke="none"/>
      <rect x="251" y="417" clip-path="url(#clipPath2)" fill="rgb(178,178,142)" width="1" height="121" stroke="none"/>
    </g>
    <g font-size="13px" stroke-linecap="butt" transform="matrix(1,0,0,1,-94,-183)" text-rendering="geometricPrecision" font-family="sans-serif" shape-rendering="geometricPrecision" font-weight="bold" stroke-miterlimit="1.45">
      <text x="125.2151" xml:space="preserve" y="434.5684" clip-path="url(#clipPath5)" stroke="none">java.lang.Integer</text>
    </g>
    <g text-rendering="geometricPrecision" shape-rendering="geometricPrecision" transform="matrix(1,0,0,1,-94,-183)">
      <line y2="442" fill="none" x1="110" clip-path="url(#clipPath5)" x2="251" y1="442"/>
      <line y2="452" fill="none" x1="110" clip-path="url(#clipPath5)" x2="251" y1="452"/>
    </g>
    <g text-rendering="geometricPrecision" stroke-miterlimit="1.45" shape-rendering="geometricPrecision" font-family="sans-serif" transform="matrix(1,0,0,1,-94,-183) translate(114,457)" stroke-linecap="butt">
      <text x="0" xml:space="preserve" y="12" clip-path="url(#clipPath6)" stroke="none">doubleValue() : double  </text>
      <text x="0" xml:space="preserve" y="27" clip-path="url(#clipPath6)" stroke="none">floatValue() : float  </text>
      <text x="110" xml:space="preserve" y="27" clip-path="url(#clipPath6)" stroke="none"> </text>
      <text x="0" xml:space="preserve" y="42" clip-path="url(#clipPath6)" stroke="none">longValue() : long  </text>
      <text x="108" xml:space="preserve" y="42" clip-path="url(#clipPath6)" stroke="none"> </text>
      <text x="0" xml:space="preserve" y="57" clip-path="url(#clipPath6)" stroke="none">intValue() : int  </text>
      <text x="88" xml:space="preserve" y="57" clip-path="url(#clipPath6)" stroke="none"> </text>
      <text x="0" xml:space="preserve" y="72" clip-path="url(#clipPath6)" stroke="none">...</text>
    </g>
    <g fill="rgb(255,255,204)" text-rendering="geometricPrecision" shape-rendering="geometricPrecision" transform="matrix(1,0,0,1,-94,-183)" stroke="rgb(255,255,204)">
      <rect x="493" width="167" height="120" y="418" clip-path="url(#clipPath2)" stroke="none"/>
      <rect x="492" y="417" clip-path="url(#clipPath2)" fill="white" width="1" height="122" stroke="none"/>
      <rect x="493" y="417" clip-path="url(#clipPath2)" fill="white" width="167" height="1" stroke="none"/>
      <rect x="493" y="538" clip-path="url(#clipPath2)" fill="rgb(178,178,142)" width="168" height="1" stroke="none"/>
      <rect x="660" y="417" clip-path="url(#clipPath2)" fill="rgb(178,178,142)" width="1" height="121" stroke="none"/>
    </g>
    <g font-size="13px" stroke-linecap="butt" transform="matrix(1,0,0,1,-94,-183)" text-rendering="geometricPrecision" font-family="sans-serif" shape-rendering="geometricPrecision" font-weight="bold" stroke-miterlimit="1.45">
      <text x="507.8628" xml:space="preserve" y="434.5684" clip-path="url(#clipPath7)" stroke="none">java.lang.BigDecimal</text>
    </g>
    <g text-rendering="geometricPrecision" shape-rendering="geometricPrecision" transform="matrix(1,0,0,1,-94,-183)">
      <line y2="442" fill="none" x1="493" clip-path="url(#clipPath7)" x2="660" y1="442"/>
      <line y2="452" fill="none" x1="493" clip-path="url(#clipPath7)" x2="660" y1="452"/>
    </g>
    <g text-rendering="geometricPrecision" stroke-miterlimit="1.45" shape-rendering="geometricPrecision" font-family="sans-serif" transform="matrix(1,0,0,1,-94,-183) translate(497,457)" stroke-linecap="butt">
      <text x="0" xml:space="preserve" y="12" clip-path="url(#clipPath8)" stroke="none">doubleValue() : double  </text>
      <text x="140" xml:space="preserve" y="12" clip-path="url(#clipPath8)" stroke="none"> </text>
      <text x="0" xml:space="preserve" y="27" clip-path="url(#clipPath8)" stroke="none">floatValue() : float  </text>
      <text x="110" xml:space="preserve" y="27" clip-path="url(#clipPath8)" stroke="none"> </text>
      <text x="0" xml:space="preserve" y="42" clip-path="url(#clipPath8)" stroke="none">longValue() : long  </text>
      <text x="108" xml:space="preserve" y="42" clip-path="url(#clipPath8)" stroke="none"> </text>
      <text x="0" xml:space="preserve" y="57" clip-path="url(#clipPath8)" stroke="none">intValue() : int  </text>
      <text x="88" xml:space="preserve" y="57" clip-path="url(#clipPath8)" stroke="none"> </text>
      <text x="0" xml:space="preserve" y="72" clip-path="url(#clipPath8)" stroke="none">...</text>
    </g>
    <g fill="rgb(255,255,204)" text-rendering="geometricPrecision" shape-rendering="geometricPrecision" transform="matrix(1,0,0,1,-94,-183)" stroke="rgb(255,255,204)">
      <rect x="319" width="141" height="120" y="418" clip-path="url(#clipPath2)" stroke="none"/>
      <rect x="318" y="417" clip-path="url(#clipPath2)" fill="white" width="1" height="122" stroke="none"/>
      <rect x="319" y="417" clip-path="url(#clipPath2)" fill="white" width="141" height="1" stroke="none"/>
      <rect x="319" y="538" clip-path="url(#clipPath2)" fill="rgb(178,178,142)" width="142" height="1" stroke="none"/>
      <rect x="460" y="417" clip-path="url(#clipPath2)" fill="rgb(178,178,142)" width="1" height="121" stroke="none"/>
    </g>
    <g font-size="13px" stroke-linecap="butt" transform="matrix(1,0,0,1,-94,-183)" text-rendering="geometricPrecision" font-family="sans-serif" shape-rendering="geometricPrecision" font-weight="bold" stroke-miterlimit="1.45">
      <text x="334.3293" xml:space="preserve" y="434.5684" clip-path="url(#clipPath9)" stroke="none">java.lang.Double</text>
    </g>
    <g text-rendering="geometricPrecision" shape-rendering="geometricPrecision" transform="matrix(1,0,0,1,-94,-183)">
      <line y2="442" fill="none" x1="319" clip-path="url(#clipPath9)" x2="460" y1="442"/>
      <line y2="452" fill="none" x1="319" clip-path="url(#clipPath9)" x2="460" y1="452"/>
    </g>
    <g text-rendering="geometricPrecision" stroke-miterlimit="1.45" shape-rendering="geometricPrecision" font-family="sans-serif" transform="matrix(1,0,0,1,-94,-183) translate(323,457)" stroke-linecap="butt">
      <text x="0" xml:space="preserve" y="12" clip-path="url(#clipPath6)" stroke="none">doubleValue() : double  </text>
      <text x="0" xml:space="preserve" y="27" clip-path="url(#clipPath6)" stroke="none">floatValue() : float  </text>
      <text x="110" xml:space="preserve" y="27" clip-path="url(#clipPath6)" stroke="none"> </text>
      <text x="0" xml:space="preserve" y="42" clip-path="url(#clipPath6)" stroke="none">longValue() : long  </text>
      <text x="108" xml:space="preserve" y="42" clip-path="url(#clipPath6)" stroke="none"> </text>
      <text x="0" xml:space="preserve" y="57" clip-path="url(#clipPath6)" stroke="none">intValue() : int  </text>
      <text x="88" xml:space="preserve" y="57" clip-path="url(#clipPath6)" stroke="none"> </text>
      <text x="0" xml:space="preserve" y="72" clip-path="url(#clipPath6)" stroke="none">...</text>
    </g>
    <g fill="rgb(255,255,204)" text-rendering="geometricPrecision" shape-rendering="geometricPrecision" transform="matrix(1,0,0,1,-94,-183)" stroke="rgb(255,255,204)">
      <rect x="695" width="141" height="129" y="418" clip-path="url(#clipPath2)" stroke="none"/>
      <rect x="694" y="417" clip-path="url(#clipPath2)" fill="white" width="1" height="131" stroke="none"/>
      <rect x="695" y="417" clip-path="url(#clipPath2)" fill="white" width="141" height="1" stroke="none"/>
      <rect x="695" y="547" clip-path="url(#clipPath2)" fill="rgb(178,178,142)" width="142" height="1" stroke="none"/>
      <rect x="836" y="417" clip-path="url(#clipPath2)" fill="rgb(178,178,142)" width="1" height="130" stroke="none"/>
    </g>
    <g font-size="18px" stroke-linecap="butt" transform="matrix(1,0,0,1,-94,-183) translate(753,422)" text-rendering="geometricPrecision" font-family="sans-serif" shape-rendering="geometricPrecision" font-weight="bold" stroke-miterlimit="1.45">
      <text x="0" xml:space="preserve" y="18" clip-path="url(#clipPath11)" stroke="none">. . .</text>
    </g>
    <g text-rendering="geometricPrecision" shape-rendering="geometricPrecision" transform="matrix(1,0,0,1,-94,-183)">
      <line y2="449" fill="none" x1="695" clip-path="url(#clipPath10)" x2="836" y1="449"/>
      <line y2="459" fill="none" x1="695" clip-path="url(#clipPath10)" x2="836" y1="459"/>
    </g>
    <g text-rendering="geometricPrecision" stroke-miterlimit="1.45" shape-rendering="geometricPrecision" font-family="sans-serif" transform="matrix(1,0,0,1,-94,-183) translate(699,464)" stroke-linecap="butt">
      <text x="0" xml:space="preserve" y="12" clip-path="url(#clipPath6)" stroke="none">doubleValue() : double  </text>
      <text x="0" xml:space="preserve" y="27" clip-path="url(#clipPath6)" stroke="none">floatValue() : float  </text>
      <text x="110" xml:space="preserve" y="27" clip-path="url(#clipPath6)" stroke="none"> </text>
      <text x="0" xml:space="preserve" y="42" clip-path="url(#clipPath6)" stroke="none">longValue() : long  </text>
      <text x="108" xml:space="preserve" y="42" clip-path="url(#clipPath6)" stroke="none"> </text>
      <text x="0" xml:space="preserve" y="57" clip-path="url(#clipPath6)" stroke="none">intValue() : int  </text>
      <text x="88" xml:space="preserve" y="57" clip-path="url(#clipPath6)" stroke="none"> </text>
      <text x="0" xml:space="preserve" y="72" clip-path="url(#clipPath6)" stroke="none">...</text>
    </g>
    <g text-rendering="geometricPrecision" stroke-miterlimit="1.45" shape-rendering="geometricPrecision" transform="matrix(1,0,0,1,-94,-183)" stroke-linecap="butt">
      <path fill="none" d="M180.5 417.0112 L180.5 368 L490.5 368 L490.5 343.9911" clip-path="url(#clipPath2)"/>
      <path fill="white" d="M490.5 328.9911 L484.5 344.9911 L496.5 344.9911 Z" clip-path="url(#clipPath2)" stroke="none"/>
      <path fill="none" d="M490.5 328.9911 L484.5 344.9911 L496.5 344.9911 Z" clip-path="url(#clipPath2)"/>
      <path fill="none" d="M577.0544 417.0112 L577.5 368 L490.5 368 L490.5 343.9911" clip-path="url(#clipPath2)"/>
      <path fill="white" d="M490.5 328.9911 L484.5 344.9911 L496.5 344.9911 Z" clip-path="url(#clipPath2)" stroke="none"/>
      <path fill="none" d="M490.5 328.9911 L484.5 344.9911 L496.5 344.9911 Z" clip-path="url(#clipPath2)"/>
      <path fill="none" d="M389.5 417.0112 L389.5 368 L490.5 368 L490.5 343.9911" clip-path="url(#clipPath2)"/>
      <path fill="white" d="M490.5 328.9911 L484.5 344.9911 L496.5 344.9911 Z" clip-path="url(#clipPath2)" stroke="none"/>
      <path fill="none" d="M490.5 328.9911 L484.5 344.9911 L496.5 344.9911 Z" clip-path="url(#clipPath2)"/>
      <path fill="none" d="M765.5 417.0035 L765.5 368 L490.5 368 L490.5 343.9911" clip-path="url(#clipPath2)"/>
      <path fill="white" d="M490.5 328.9911 L484.5 344.9911 L496.5 344.9911 Z" clip-path="url(#clipPath2)" stroke="none"/>
      <path fill="none" d="M490.5 328.9911 L484.5 344.9911 L496.5 344.9911 Z" clip-path="url(#clipPath2)"/>
    </g>
  </g>
</svg>
