<?xml version="1.0" encoding="UTF-8"?><svg xmlns="http://www.w3.org/2000/svg" xmlns:xlink="http://www.w3.org/1999/xlink" fill-opacity="1" color-rendering="auto" color-interpolation="auto" text-rendering="auto" stroke="black" stroke-linecap="square" width="1021" stroke-miterlimit="10" shape-rendering="auto" stroke-opacity="1" fill="black" stroke-dasharray="none" font-weight="normal" stroke-width="1" height="373" font-family="'Dialog'" font-style="normal" stroke-linejoin="miter" font-size="12px" stroke-dashoffset="0" image-rendering="auto">
  <!--Generated by ySVG 2.5-->
  <defs id="genericDefs"/>
  <g>
    <defs id="defs1">
      <clipPath clipPathUnits="userSpaceOnUse" id="clipPath1">
        <path d="M0 0 L1021 0 L1021 373 L0 373 L0 0 Z"/>
      </clipPath>
      <clipPath clipPathUnits="userSpaceOnUse" id="clipPath2">
        <path d="M151 104 L1172 104 L1172 477 L151 477 L151 104 Z"/>
      </clipPath>
      <clipPath clipPathUnits="userSpaceOnUse" id="clipPath3">
        <path d="M287 119 L287 196 L468 196 L468 119 Z"/>
      </clipPath>
      <clipPath clipPathUnits="userSpaceOnUse" id="clipPath4">
        <path d="M287 385 L287 462 L468 462 L468 385 Z"/>
      </clipPath>
      <clipPath clipPathUnits="userSpaceOnUse" id="clipPath5">
        <path d="M166 246 L166 323 L347 323 L347 246 Z"/>
      </clipPath>
      <clipPath clipPathUnits="userSpaceOnUse" id="clipPath6">
        <path d="M423 246 L423 323 L604 323 L604 246 Z"/>
      </clipPath>
      <clipPath clipPathUnits="userSpaceOnUse" id="clipPath7">
        <path d="M840 119 L840 196 L1021 196 L1021 119 Z"/>
      </clipPath>
      <clipPath clipPathUnits="userSpaceOnUse" id="clipPath8">
        <path d="M840 385 L840 462 L1021 462 L1021 385 Z"/>
      </clipPath>
      <clipPath clipPathUnits="userSpaceOnUse" id="clipPath9">
        <path d="M719 246 L719 323 L900 323 L900 246 Z"/>
      </clipPath>
      <clipPath clipPathUnits="userSpaceOnUse" id="clipPath10">
        <path d="M976 246 L976 323 L1157 323 L1157 246 Z"/>
      </clipPath>
    </defs>
    <g fill="white" text-rendering="geometricPrecision" shape-rendering="geometricPrecision" transform="translate(-151,-104)" stroke="white">
      <rect x="151" width="1021" height="373" y="104" clip-path="url(#clipPath2)" stroke="none"/>
    </g>
    <g fill="rgb(255,255,204)" text-rendering="geometricPrecision" shape-rendering="geometricPrecision" transform="matrix(1,0,0,1,-151,-104)" stroke="rgb(255,255,204)">
      <rect x="288" width="179" height="75" y="120" clip-path="url(#clipPath2)" stroke="none"/>
      <rect x="287" y="119" clip-path="url(#clipPath2)" fill="white" width="1" height="77" stroke="none"/>
      <rect x="288" y="119" clip-path="url(#clipPath2)" fill="white" width="179" height="1" stroke="none"/>
      <rect x="288" y="195" clip-path="url(#clipPath2)" fill="rgb(178,178,142)" width="180" height="1" stroke="none"/>
      <rect x="467" y="119" clip-path="url(#clipPath2)" fill="rgb(178,178,142)" width="1" height="76" stroke="none"/>
    </g>
    <g font-size="13px" stroke-linecap="butt" transform="matrix(1,0,0,1,-151,-104)" text-rendering="geometricPrecision" font-family="sans-serif" shape-rendering="geometricPrecision" font-weight="bold" stroke-miterlimit="1.45">
      <text x="294.46" xml:space="preserve" y="136.5684" clip-path="url(#clipPath3)" stroke="none">List&lt;? extends Number&gt;</text>
    </g>
    <g text-rendering="geometricPrecision" shape-rendering="geometricPrecision" transform="matrix(1,0,0,1,-151,-104)">
      <line y2="144" fill="none" x1="288" clip-path="url(#clipPath3)" x2="467" y1="144"/>
      <text stroke-linecap="butt" x="292" y="160.9121" clip-path="url(#clipPath3)" font-family="sans-serif" stroke="none" stroke-miterlimit="1.45" xml:space="preserve"> </text>
      <line y2="168" fill="none" x1="288" clip-path="url(#clipPath3)" x2="467" y1="168"/>
      <text stroke-linecap="butt" x="292" y="185.0449" clip-path="url(#clipPath3)" font-family="sans-serif" stroke="none" stroke-miterlimit="1.45" xml:space="preserve">+get(int i) : Number</text>
      <rect x="288" y="386" clip-path="url(#clipPath2)" fill="rgb(255,255,204)" width="179" height="75" stroke="none"/>
      <rect x="287" y="385" clip-path="url(#clipPath2)" fill="white" width="1" height="77" stroke="none"/>
      <rect x="288" y="385" clip-path="url(#clipPath2)" fill="white" width="179" height="1" stroke="none"/>
      <rect x="288" y="461" clip-path="url(#clipPath2)" fill="rgb(178,178,142)" width="180" height="1" stroke="none"/>
      <rect x="467" y="385" clip-path="url(#clipPath2)" fill="rgb(178,178,142)" width="1" height="76" stroke="none"/>
    </g>
    <g font-size="13px" stroke-linecap="butt" transform="matrix(1,0,0,1,-151,-104)" text-rendering="geometricPrecision" font-family="sans-serif" shape-rendering="geometricPrecision" font-weight="bold" stroke-miterlimit="1.45">
      <text x="328.3184" xml:space="preserve" y="402.5684" clip-path="url(#clipPath4)" stroke="none">List&lt;Number&gt;</text>
    </g>
    <g text-rendering="geometricPrecision" shape-rendering="geometricPrecision" transform="matrix(1,0,0,1,-151,-104)">
      <line y2="410" fill="none" x1="288" clip-path="url(#clipPath4)" x2="467" y1="410"/>
      <text stroke-linecap="butt" x="292" y="426.9121" clip-path="url(#clipPath4)" font-family="sans-serif" stroke="none" stroke-miterlimit="1.45" xml:space="preserve"> </text>
      <line y2="434" fill="none" x1="288" clip-path="url(#clipPath4)" x2="467" y1="434"/>
      <text stroke-linecap="butt" x="292" y="451.0449" clip-path="url(#clipPath4)" font-family="sans-serif" stroke="none" stroke-miterlimit="1.45" xml:space="preserve"> </text>
      <rect x="167" y="247" clip-path="url(#clipPath2)" fill="rgb(255,255,204)" width="179" height="75" stroke="none"/>
      <rect x="166" y="246" clip-path="url(#clipPath2)" fill="white" width="1" height="77" stroke="none"/>
      <rect x="167" y="246" clip-path="url(#clipPath2)" fill="white" width="179" height="1" stroke="none"/>
      <rect x="167" y="322" clip-path="url(#clipPath2)" fill="rgb(178,178,142)" width="180" height="1" stroke="none"/>
      <rect x="346" y="246" clip-path="url(#clipPath2)" fill="rgb(178,178,142)" width="1" height="76" stroke="none"/>
    </g>
    <g font-size="13px" stroke-linecap="butt" transform="matrix(1,0,0,1,-151,-104)" text-rendering="geometricPrecision" font-family="sans-serif" shape-rendering="geometricPrecision" font-weight="bold" stroke-miterlimit="1.45">
      <text x="210.0383" xml:space="preserve" y="263.5684" clip-path="url(#clipPath5)" stroke="none">List&lt;Integer&gt;</text>
    </g>
    <g text-rendering="geometricPrecision" shape-rendering="geometricPrecision" transform="matrix(1,0,0,1,-151,-104)">
      <line y2="271" fill="none" x1="167" clip-path="url(#clipPath5)" x2="346" y1="271"/>
      <text stroke-linecap="butt" x="171" y="287.9121" clip-path="url(#clipPath5)" font-family="sans-serif" stroke="none" stroke-miterlimit="1.45" xml:space="preserve"> </text>
      <line y2="295" fill="none" x1="167" clip-path="url(#clipPath5)" x2="346" y1="295"/>
      <text stroke-linecap="butt" x="171" y="312.0449" clip-path="url(#clipPath5)" font-family="sans-serif" stroke="none" stroke-miterlimit="1.45" xml:space="preserve"> </text>
      <rect x="424" y="247" clip-path="url(#clipPath2)" fill="rgb(255,255,204)" width="179" height="75" stroke="none"/>
      <rect x="423" y="246" clip-path="url(#clipPath2)" fill="white" width="1" height="77" stroke="none"/>
      <rect x="424" y="246" clip-path="url(#clipPath2)" fill="white" width="179" height="1" stroke="none"/>
      <rect x="424" y="322" clip-path="url(#clipPath2)" fill="rgb(178,178,142)" width="180" height="1" stroke="none"/>
      <rect x="603" y="246" clip-path="url(#clipPath2)" fill="rgb(178,178,142)" width="1" height="76" stroke="none"/>
    </g>
    <g font-size="13px" stroke-linecap="butt" transform="matrix(1,0,0,1,-151,-104)" text-rendering="geometricPrecision" font-family="sans-serif" shape-rendering="geometricPrecision" font-weight="bold" stroke-miterlimit="1.45">
      <text x="453.686" xml:space="preserve" y="263.5684" clip-path="url(#clipPath6)" stroke="none">List&lt;BigDecimal&gt;</text>
    </g>
    <g text-rendering="geometricPrecision" shape-rendering="geometricPrecision" transform="matrix(1,0,0,1,-151,-104)">
      <line y2="271" fill="none" x1="424" clip-path="url(#clipPath6)" x2="603" y1="271"/>
      <text stroke-linecap="butt" x="428" y="287.9121" clip-path="url(#clipPath6)" font-family="sans-serif" stroke="none" stroke-miterlimit="1.45" xml:space="preserve"> </text>
      <line y2="295" fill="none" x1="424" clip-path="url(#clipPath6)" x2="603" y1="295"/>
      <text stroke-linecap="butt" x="428" y="312.0449" clip-path="url(#clipPath6)" font-family="sans-serif" stroke="none" stroke-miterlimit="1.45" xml:space="preserve"> </text>
      <rect x="841" y="120" clip-path="url(#clipPath2)" fill="rgb(255,255,204)" width="179" height="75" stroke="none"/>
      <rect x="840" y="119" clip-path="url(#clipPath2)" fill="white" width="1" height="77" stroke="none"/>
      <rect x="841" y="119" clip-path="url(#clipPath2)" fill="white" width="179" height="1" stroke="none"/>
      <rect x="841" y="195" clip-path="url(#clipPath2)" fill="rgb(178,178,142)" width="180" height="1" stroke="none"/>
      <rect x="1020" y="119" clip-path="url(#clipPath2)" fill="rgb(178,178,142)" width="1" height="76" stroke="none"/>
    </g>
    <g font-size="13px" stroke-linecap="butt" transform="matrix(1,0,0,1,-151,-104)" text-rendering="geometricPrecision" font-family="sans-serif" shape-rendering="geometricPrecision" font-weight="bold" stroke-miterlimit="1.45">
      <text x="857.5083" xml:space="preserve" y="136.5684" clip-path="url(#clipPath7)" stroke="none">List&lt;? super Integer&gt;</text>
    </g>
    <g text-rendering="geometricPrecision" shape-rendering="geometricPrecision" transform="matrix(1,0,0,1,-151,-104)">
      <line y2="144" fill="none" x1="841" clip-path="url(#clipPath7)" x2="1020" y1="144"/>
      <text stroke-linecap="butt" x="845" y="160.9121" clip-path="url(#clipPath7)" font-family="sans-serif" stroke="none" stroke-miterlimit="1.45" xml:space="preserve"> </text>
      <line y2="168" fill="none" x1="841" clip-path="url(#clipPath7)" x2="1020" y1="168"/>
      <text stroke-linecap="butt" x="845" y="185.0449" clip-path="url(#clipPath7)" font-family="sans-serif" stroke="none" stroke-miterlimit="1.45" xml:space="preserve">+add(Integer value) : void</text>
      <rect x="841" y="386" clip-path="url(#clipPath2)" fill="rgb(255,255,204)" width="179" height="75" stroke="none"/>
      <rect x="840" y="385" clip-path="url(#clipPath2)" fill="white" width="1" height="77" stroke="none"/>
      <rect x="841" y="385" clip-path="url(#clipPath2)" fill="white" width="179" height="1" stroke="none"/>
      <rect x="841" y="461" clip-path="url(#clipPath2)" fill="rgb(178,178,142)" width="180" height="1" stroke="none"/>
      <rect x="1020" y="385" clip-path="url(#clipPath2)" fill="rgb(178,178,142)" width="1" height="76" stroke="none"/>
    </g>
    <g font-size="13px" stroke-linecap="butt" transform="matrix(1,0,0,1,-151,-104)" text-rendering="geometricPrecision" font-family="sans-serif" shape-rendering="geometricPrecision" font-weight="bold" stroke-miterlimit="1.45">
      <text x="881.3184" xml:space="preserve" y="402.5684" clip-path="url(#clipPath8)" stroke="none">List&lt;Number&gt;</text>
    </g>
    <g text-rendering="geometricPrecision" shape-rendering="geometricPrecision" transform="matrix(1,0,0,1,-151,-104)">
      <line y2="410" fill="none" x1="841" clip-path="url(#clipPath8)" x2="1020" y1="410"/>
      <text stroke-linecap="butt" x="845" y="426.9121" clip-path="url(#clipPath8)" font-family="sans-serif" stroke="none" stroke-miterlimit="1.45" xml:space="preserve"> </text>
      <line y2="434" fill="none" x1="841" clip-path="url(#clipPath8)" x2="1020" y1="434"/>
      <text stroke-linecap="butt" x="845" y="451.0449" clip-path="url(#clipPath8)" font-family="sans-serif" stroke="none" stroke-miterlimit="1.45" xml:space="preserve"> </text>
      <rect x="720" y="247" clip-path="url(#clipPath2)" fill="rgb(255,255,204)" width="179" height="75" stroke="none"/>
      <rect x="719" y="246" clip-path="url(#clipPath2)" fill="white" width="1" height="77" stroke="none"/>
      <rect x="720" y="246" clip-path="url(#clipPath2)" fill="white" width="179" height="1" stroke="none"/>
      <rect x="720" y="322" clip-path="url(#clipPath2)" fill="rgb(178,178,142)" width="180" height="1" stroke="none"/>
      <rect x="899" y="246" clip-path="url(#clipPath2)" fill="rgb(178,178,142)" width="1" height="76" stroke="none"/>
    </g>
    <g font-size="13px" stroke-linecap="butt" transform="matrix(1,0,0,1,-151,-104)" text-rendering="geometricPrecision" font-family="sans-serif" shape-rendering="geometricPrecision" font-weight="bold" stroke-miterlimit="1.45">
      <text x="763.0383" xml:space="preserve" y="263.5684" clip-path="url(#clipPath9)" stroke="none">List&lt;Integer&gt;</text>
    </g>
    <g text-rendering="geometricPrecision" shape-rendering="geometricPrecision" transform="matrix(1,0,0,1,-151,-104)">
      <line y2="271" fill="none" x1="720" clip-path="url(#clipPath9)" x2="899" y1="271"/>
      <text stroke-linecap="butt" x="724" y="287.9121" clip-path="url(#clipPath9)" font-family="sans-serif" stroke="none" stroke-miterlimit="1.45" xml:space="preserve"> </text>
      <line y2="295" fill="none" x1="720" clip-path="url(#clipPath9)" x2="899" y1="295"/>
      <text stroke-linecap="butt" x="724" y="312.0449" clip-path="url(#clipPath9)" font-family="sans-serif" stroke="none" stroke-miterlimit="1.45" xml:space="preserve"> </text>
      <rect x="977" y="247" clip-path="url(#clipPath2)" fill="rgb(255,255,204)" width="179" height="75" stroke="none"/>
      <rect x="976" y="246" clip-path="url(#clipPath2)" fill="white" width="1" height="77" stroke="none"/>
      <rect x="977" y="246" clip-path="url(#clipPath2)" fill="white" width="179" height="1" stroke="none"/>
      <rect x="977" y="322" clip-path="url(#clipPath2)" fill="rgb(178,178,142)" width="180" height="1" stroke="none"/>
      <rect x="1156" y="246" clip-path="url(#clipPath2)" fill="rgb(178,178,142)" width="1" height="76" stroke="none"/>
    </g>
    <g font-size="13px" stroke-linecap="butt" transform="matrix(1,0,0,1,-151,-104)" text-rendering="geometricPrecision" font-family="sans-serif" shape-rendering="geometricPrecision" font-weight="bold" stroke-miterlimit="1.45">
      <text x="1022.2314" xml:space="preserve" y="263.5684" clip-path="url(#clipPath10)" stroke="none">List&lt;Object&gt;</text>
    </g>
    <g text-rendering="geometricPrecision" shape-rendering="geometricPrecision" transform="matrix(1,0,0,1,-151,-104)">
      <line y2="271" fill="none" x1="977" clip-path="url(#clipPath10)" x2="1156" y1="271"/>
      <text stroke-linecap="butt" x="981" y="287.9121" clip-path="url(#clipPath10)" font-family="sans-serif" stroke="none" stroke-miterlimit="1.45" xml:space="preserve"> </text>
      <line y2="295" fill="none" x1="977" clip-path="url(#clipPath10)" x2="1156" y1="295"/>
      <text stroke-linecap="butt" x="981" y="312.0449" clip-path="url(#clipPath10)" font-family="sans-serif" stroke="none" stroke-miterlimit="1.45" xml:space="preserve"> </text>
      <path fill="none" stroke-miterlimit="1.45" d="M377.5 385.0222 L377.5 211.0221" clip-path="url(#clipPath2)" stroke-linecap="butt"/>
    </g>
    <g stroke-linecap="butt" transform="matrix(1,0,0,1,-151,-104)" fill="white" text-rendering="geometricPrecision" shape-rendering="geometricPrecision" stroke="white" stroke-miterlimit="1.45">
      <path d="M377.5 196.0221 L371.5 212.0221 L383.5 212.0221 Z" stroke="none" clip-path="url(#clipPath2)"/>
      <path fill="none" d="M377.5 196.0221 L371.5 212.0221 L383.5 212.0221 Z" clip-path="url(#clipPath2)" stroke="black"/>
      <path fill="none" d="M256.5 246.0237 L256.5 226 L377.5 226 L377.5 210.9978" clip-path="url(#clipPath2)" stroke="black"/>
      <path d="M377.5 195.9978 L371.5 211.9978 L383.5 211.9978 Z" clip-path="url(#clipPath2)" stroke="none"/>
      <path fill="none" d="M377.5 195.9978 L371.5 211.9978 L383.5 211.9978 Z" clip-path="url(#clipPath2)" stroke="black"/>
      <path fill="none" d="M513.5 246.0237 L513.5 226 L377.5 226 L377.5 210.9978" clip-path="url(#clipPath2)" stroke="black"/>
      <path d="M377.5 195.9978 L371.5 211.9978 L383.5 211.9978 Z" clip-path="url(#clipPath2)" stroke="none"/>
      <path fill="none" d="M377.5 195.9978 L371.5 211.9978 L383.5 211.9978 Z" clip-path="url(#clipPath2)" stroke="black"/>
      <path fill="none" d="M930.5 385.0222 L930.5 211.0221" clip-path="url(#clipPath2)" stroke="black"/>
      <path d="M930.5 196.0221 L924.5 212.0221 L936.5 212.0221 Z" clip-path="url(#clipPath2)" stroke="none"/>
      <path fill="none" d="M930.5 196.0221 L924.5 212.0221 L936.5 212.0221 Z" clip-path="url(#clipPath2)" stroke="black"/>
      <path fill="none" d="M809.5 246.0237 L809.5 226 L930.5 226 L930.5 210.9978" clip-path="url(#clipPath2)" stroke="black"/>
      <path d="M930.5 195.9978 L924.5 211.9978 L936.5 211.9978 Z" clip-path="url(#clipPath2)" stroke="none"/>
      <path fill="none" d="M930.5 195.9978 L924.5 211.9978 L936.5 211.9978 Z" clip-path="url(#clipPath2)" stroke="black"/>
      <path fill="none" d="M1066.5 246.0237 L1066.5 226 L930.5 226 L930.5 210.9978" clip-path="url(#clipPath2)" stroke="black"/>
      <path d="M930.5 195.9978 L924.5 211.9978 L936.5 211.9978 Z" clip-path="url(#clipPath2)" stroke="none"/>
      <path fill="none" d="M930.5 195.9978 L924.5 211.9978 L936.5 211.9978 Z" clip-path="url(#clipPath2)" stroke="black"/>
    </g>
  </g>
</svg>
