<?xml version="1.0" encoding="UTF-8"?><svg xmlns="http://www.w3.org/2000/svg" xmlns:xlink="http://www.w3.org/1999/xlink" fill-opacity="1" color-rendering="auto" color-interpolation="auto" text-rendering="auto" stroke="black" stroke-linecap="square" width="668" stroke-miterlimit="10" shape-rendering="auto" stroke-opacity="1" fill="black" stroke-dasharray="none" font-weight="normal" stroke-width="1" height="511" font-family="'Dialog'" font-style="normal" stroke-linejoin="miter" font-size="12px" stroke-dashoffset="0" image-rendering="auto">
  <!--Generated by ySVG 2.5-->
  <defs id="genericDefs"/>
  <g>
    <defs id="defs1">
      <clipPath clipPathUnits="userSpaceOnUse" id="clipPath1">
        <path d="M0 0 L668 0 L668 511 L0 511 L0 0 Z"/>
      </clipPath>
      <clipPath clipPathUnits="userSpaceOnUse" id="clipPath2">
        <path d="M-477 -286 L191 -286 L191 225 L-477 225 L-477 -286 Z"/>
      </clipPath>
      <clipPath clipPathUnits="userSpaceOnUse" id="clipPath3">
        <path d="M-259 -133 L-259 -41 L-61 -41 L-61 -133 Z"/>
      </clipPath>
      <clipPath clipPathUnits="userSpaceOnUse" id="clipPath4">
        <path d="M-232 -239 L-232 -205 L-90 -205 L-90 -239 Z"/>
      </clipPath>
      <clipPath clipPathUnits="userSpaceOnUse" id="clipPath5">
        <path d="M-461 -265 L-461 -173 L-306 -173 L-306 -265 Z"/>
      </clipPath>
      <clipPath clipPathUnits="userSpaceOnUse" id="clipPath6">
        <path d="M-394 140 L-394 174 L-297 174 L-297 140 Z"/>
      </clipPath>
      <clipPath clipPathUnits="userSpaceOnUse" id="clipPath7">
        <path d="M-385 15 L-385 90 L-243 90 L-243 15 Z"/>
      </clipPath>
      <clipPath clipPathUnits="userSpaceOnUse" id="clipPath8">
        <path d="M-208 15 L-208 90 L-53 90 L-53 15 Z"/>
      </clipPath>
      <clipPath clipPathUnits="userSpaceOnUse" id="clipPath9">
        <path d="M-27 23 L-27 98 L56 98 L56 23 Z"/>
      </clipPath>
      <clipPath clipPathUnits="userSpaceOnUse" id="clipPath10">
        <path d="M-259 140 L-259 174 L-162 174 L-162 140 Z"/>
      </clipPath>
      <clipPath clipPathUnits="userSpaceOnUse" id="clipPath11">
        <path d="M4 -270 L4 -173 L159 -173 L159 -270 Z"/>
      </clipPath>
      <clipPath clipPathUnits="userSpaceOnUse" id="clipPath12">
        <path d="M92 23 L92 98 L175 98 L175 23 Z"/>
      </clipPath>
    </defs>
    <g fill="white" text-rendering="geometricPrecision" shape-rendering="geometricPrecision" transform="translate(477,286)" stroke="white">
      <rect x="-477" width="668" height="511" y="-286" clip-path="url(#clipPath2)" stroke="none"/>
    </g>
    <g fill="rgb(255,255,204)" text-rendering="geometricPrecision" shape-rendering="geometricPrecision" transform="matrix(1,0,0,1,477,286)" stroke="rgb(255,255,204)">
      <rect x="-259" width="198" height="92" y="-133" clip-path="url(#clipPath2)" stroke="none"/>
    </g>
    <g text-rendering="geometricPrecision" stroke-miterlimit="1.45" shape-rendering="geometricPrecision" transform="matrix(1,0,0,1,477,286)" stroke-linecap="butt">
      <rect fill="none" x="-259" width="198" height="92" y="-133" clip-path="url(#clipPath2)"/>
      <text x="-203.3828" xml:space="preserve" y="-116.3984" clip-path="url(#clipPath3)" font-family="sans-serif" stroke="none">&lt;&lt;Abstract&gt;&gt;</text>
      <text x="-227.2122" font-size="13px" y="-92.2988" clip-path="url(#clipPath3)" font-family="sans-serif" stroke="none" font-weight="bold" xml:space="preserve">FourWheeledVehicle</text>
      <line stroke-linecap="square" clip-path="url(#clipPath3)" fill="none" x1="-258" x2="-62" y1="-84" y2="-84" stroke-miterlimit="10"/>
      <text x="-254" xml:space="preserve" y="-67.9551" clip-path="url(#clipPath3)" font-family="sans-serif" stroke="none">wheels : Wheel[4]</text>
      <line stroke-linecap="square" clip-path="url(#clipPath3)" fill="none" x1="-258" x2="-62" y1="-60" y2="-60" stroke-miterlimit="10"/>
    </g>
    <g fill="rgb(255,255,204)" text-rendering="geometricPrecision" shape-rendering="geometricPrecision" transform="matrix(1,0,0,1,477,286)" stroke="rgb(255,255,204)">
      <rect x="-232.5" width="142" height="34" y="-239" clip-path="url(#clipPath2)" stroke="none"/>
    </g>
    <g text-rendering="geometricPrecision" stroke-miterlimit="1.45" shape-rendering="geometricPrecision" transform="matrix(1,0,0,1,477,286)" stroke-linecap="butt">
      <rect fill="none" x="-232.5" width="142" height="34" y="-239" clip-path="url(#clipPath2)"/>
      <text x="-214.5918" font-size="13px" y="-221.4316" clip-path="url(#clipPath4)" font-family="sans-serif" stroke="none" font-weight="bold" xml:space="preserve">java.lang.Object</text>
    </g>
    <g fill="rgb(204,255,204)" text-rendering="geometricPrecision" shape-rendering="geometricPrecision" transform="matrix(1,0,0,1,477,286)" stroke="rgb(204,255,204)">
      <rect x="-461" width="155" height="92" y="-265.5" clip-path="url(#clipPath2)" stroke="none"/>
    </g>
    <g text-rendering="geometricPrecision" stroke-miterlimit="1.45" shape-rendering="geometricPrecision" transform="matrix(1,0,0,1,477,286)" stroke-linecap="butt">
      <rect fill="none" x="-461" width="155" height="92" y="-265.5" clip-path="url(#clipPath2)"/>
      <text x="-428.0078" xml:space="preserve" y="-248.8984" clip-path="url(#clipPath5)" font-family="sans-serif" stroke="none">&lt;&lt;Interface&gt;&gt;</text>
      <text x="-407.6147" font-size="13px" y="-224.7988" clip-path="url(#clipPath5)" font-family="sans-serif" stroke="none" font-weight="bold" xml:space="preserve">Vehicle</text>
      <line stroke-linecap="square" clip-path="url(#clipPath5)" fill="none" x1="-460" x2="-307" y1="-217" y2="-217" stroke-miterlimit="10"/>
      <line stroke-linecap="square" clip-path="url(#clipPath5)" fill="none" x1="-460" x2="-307" y1="-207" y2="-207" stroke-miterlimit="10"/>
      <text x="-456" xml:space="preserve" y="-190.4551" clip-path="url(#clipPath5)" font-family="sans-serif" stroke="none">go()</text>
    </g>
    <g fill="rgb(255,255,204)" text-rendering="geometricPrecision" shape-rendering="geometricPrecision" transform="matrix(1,0,0,1,477,286)" stroke="rgb(255,255,204)">
      <rect x="-394" width="97" height="34" y="141" clip-path="url(#clipPath2)" stroke="none"/>
    </g>
    <g text-rendering="geometricPrecision" stroke-miterlimit="1.45" shape-rendering="geometricPrecision" transform="matrix(1,0,0,1,477,286)" stroke-linecap="butt">
      <rect fill="none" x="-394" width="97" height="34" y="141" clip-path="url(#clipPath2)"/>
      <text x="-380.2439" font-size="13px" y="158.5684" clip-path="url(#clipPath6)" font-family="sans-serif" stroke="none" font-weight="bold" xml:space="preserve">SpecialCar</text>
    </g>
    <g fill="rgb(255,255,204)" text-rendering="geometricPrecision" shape-rendering="geometricPrecision" transform="matrix(1,0,0,1,477,286)" stroke="rgb(255,255,204)">
      <rect x="-385" width="142" height="75.5" y="15.75" clip-path="url(#clipPath2)" stroke="none"/>
    </g>
    <g text-rendering="geometricPrecision" stroke-miterlimit="1.45" shape-rendering="geometricPrecision" transform="matrix(1,0,0,1,477,286)" stroke-linecap="butt">
      <rect fill="none" x="-385" width="142" height="75.5" y="15.75" clip-path="url(#clipPath2)"/>
      <text x="-325.4067" font-size="13px" y="33.3184" clip-path="url(#clipPath7)" font-family="sans-serif" stroke="none" font-weight="bold" xml:space="preserve">Car</text>
      <line stroke-linecap="square" clip-path="url(#clipPath7)" fill="none" x1="-384" x2="-244" y1="41" y2="41" stroke-miterlimit="10"/>
      <text x="-380" xml:space="preserve" y="57.6621" clip-path="url(#clipPath7)" font-family="sans-serif" stroke="none">steering : CarSteering</text>
      <line stroke-linecap="square" clip-path="url(#clipPath7)" fill="none" x1="-384" x2="-244" y1="65" y2="65" stroke-miterlimit="10"/>
      <text x="-380" xml:space="preserve" y="81.7949" clip-path="url(#clipPath7)" font-family="sans-serif" stroke="none">go()</text>
    </g>
    <g fill="rgb(255,255,204)" text-rendering="geometricPrecision" shape-rendering="geometricPrecision" transform="matrix(1,0,0,1,477,286)" stroke="rgb(255,255,204)">
      <rect x="-208" width="155" height="75.5" y="15.75" clip-path="url(#clipPath2)" stroke="none"/>
    </g>
    <g text-rendering="geometricPrecision" stroke-miterlimit="1.45" shape-rendering="geometricPrecision" transform="matrix(1,0,0,1,477,286)" stroke-linecap="butt">
      <rect fill="none" x="-208" width="155" height="75.5" y="15.75" clip-path="url(#clipPath2)"/>
      <text x="-152.7485" font-size="13px" y="33.3184" clip-path="url(#clipPath8)" font-family="sans-serif" stroke="none" font-weight="bold" xml:space="preserve">Pickup</text>
      <line stroke-linecap="square" clip-path="url(#clipPath8)" fill="none" x1="-207" x2="-54" y1="41" y2="41" stroke-miterlimit="10"/>
      <text x="-203" xml:space="preserve" y="57.6621" clip-path="url(#clipPath8)" font-family="sans-serif" stroke="none">steering : TruckSteering</text>
      <line stroke-linecap="square" clip-path="url(#clipPath8)" fill="none" x1="-207" x2="-54" y1="65" y2="65" stroke-miterlimit="10"/>
      <text x="-203" xml:space="preserve" y="81.7949" clip-path="url(#clipPath8)" font-family="sans-serif" stroke="none">go()</text>
    </g>
    <g fill="rgb(255,255,204)" text-rendering="geometricPrecision" shape-rendering="geometricPrecision" transform="matrix(1,0,0,1,477,286)" stroke="rgb(255,255,204)">
      <rect x="-27" width="83" height="75.5" y="24" clip-path="url(#clipPath2)" stroke="none"/>
    </g>
    <g text-rendering="geometricPrecision" stroke-miterlimit="1.45" shape-rendering="geometricPrecision" transform="matrix(1,0,0,1,477,286)" stroke-linecap="butt">
      <rect fill="none" x="-27" width="83" height="75.5" y="24" clip-path="url(#clipPath2)"/>
      <text x="-21.9229" font-size="13px" y="41.5684" clip-path="url(#clipPath9)" font-family="sans-serif" stroke="none" font-weight="bold" xml:space="preserve">Motorcycle</text>
      <line stroke-linecap="square" clip-path="url(#clipPath9)" fill="none" x1="-26" x2="54" y1="49" y2="49" stroke-miterlimit="10"/>
      <line stroke-linecap="square" clip-path="url(#clipPath9)" fill="none" x1="-26" x2="54" y1="59" y2="59" stroke-miterlimit="10"/>
      <text x="-22" xml:space="preserve" y="75.9121" clip-path="url(#clipPath9)" font-family="sans-serif" stroke="none">go()</text>
      <text x="-22" xml:space="preserve" y="90.0449" clip-path="url(#clipPath9)" font-family="sans-serif" stroke="none">goFast()</text>
    </g>
    <g fill="rgb(255,127,127)" text-rendering="geometricPrecision" shape-rendering="geometricPrecision" transform="matrix(1,0,0,1,477,286)" stroke="rgb(255,127,127)">
      <rect x="-259" width="97" height="34" y="141" clip-path="url(#clipPath2)" stroke="none"/>
    </g>
    <g text-rendering="geometricPrecision" stroke-miterlimit="1.45" shape-rendering="geometricPrecision" transform="matrix(1,0,0,1,477,286)" stroke-linecap="butt">
      <rect fill="none" x="-259" width="97" height="34" y="141" clip-path="url(#clipPath2)"/>
      <text x="-244.1553" font-size="13px" y="158.5684" clip-path="url(#clipPath10)" font-family="sans-serif" stroke="none" font-weight="bold" xml:space="preserve">CarPickup</text>
    </g>
    <g fill="rgb(255,204,0)" text-rendering="geometricPrecision" shape-rendering="geometricPrecision" transform="matrix(1,0,0,1,477,286)" stroke="rgb(255,204,0)">
      <path d="M-98 167.5 L0 167.5 L0 182.5 L15 182.5 L15 209.5 L-98 209.5 Z" stroke="none" clip-path="url(#clipPath2)"/>
      <path fill="white" d="M0 167.5 L0 182.5 L15 182.5 Z" clip-path="url(#clipPath2)" fill-rule="evenodd" stroke="none"/>
    </g>
    <g text-rendering="geometricPrecision" stroke-miterlimit="1.45" shape-rendering="geometricPrecision" transform="matrix(1,0,0,1,477,286)" stroke-linecap="butt">
      <path fill="none" d="M-98 167.5 L0 167.5 L0 182.5 L15 182.5 L15 209.5 L-98 209.5 Z" clip-path="url(#clipPath2)"/>
      <path fill="none" d="M0 167.5 L0 182.5 L15 182.5 Z" clip-path="url(#clipPath2)" fill-rule="evenodd"/>
      <text x="-78.3438" xml:space="preserve" y="185.9688" clip-path="url(#clipPath2)" font-family="sans-serif" stroke="none">Forbidden in</text>
      <text x="-53.0986" xml:space="preserve" y="200.1016" clip-path="url(#clipPath2)" font-family="sans-serif" stroke="none">Java</text>
    </g>
    <g fill="rgb(204,255,204)" text-rendering="geometricPrecision" shape-rendering="geometricPrecision" transform="matrix(1,0,0,1,477,286)" stroke="rgb(204,255,204)">
      <rect x="5" width="155" height="97" y="-270.5" clip-path="url(#clipPath2)" stroke="none"/>
    </g>
    <g text-rendering="geometricPrecision" stroke-miterlimit="1.45" shape-rendering="geometricPrecision" transform="matrix(1,0,0,1,477,286)" stroke-linecap="butt">
      <rect fill="none" x="5" width="155" height="97" y="-270.5" clip-path="url(#clipPath2)"/>
      <text x="37.9922" xml:space="preserve" y="-253.8984" clip-path="url(#clipPath11)" font-family="sans-serif" stroke="none">&lt;&lt;Interface&gt;&gt;</text>
      <text x="21.0864" font-size="13px" y="-229.7988" clip-path="url(#clipPath11)" font-family="sans-serif" stroke="none" font-weight="bold" xml:space="preserve">SportyConveyance</text>
      <line stroke-linecap="square" clip-path="url(#clipPath11)" fill="none" x1="5" x2="158" y1="-222" y2="-222" stroke-miterlimit="10"/>
      <line stroke-linecap="square" clip-path="url(#clipPath11)" fill="none" x1="5" x2="158" y1="-212" y2="-212" stroke-miterlimit="10"/>
      <text x="10" xml:space="preserve" y="-195.4551" clip-path="url(#clipPath11)" font-family="sans-serif" stroke="none">go()</text>
      <text x="10" xml:space="preserve" y="-181.3223" clip-path="url(#clipPath11)" font-family="sans-serif" stroke="none">goFast()</text>
    </g>
    <g fill="rgb(255,255,204)" text-rendering="geometricPrecision" shape-rendering="geometricPrecision" transform="matrix(1,0,0,1,477,286)" stroke="rgb(255,255,204)">
      <rect x="92.5" width="83" height="75.5" y="24" clip-path="url(#clipPath2)" stroke="none"/>
    </g>
    <g text-rendering="geometricPrecision" stroke-miterlimit="1.45" shape-rendering="geometricPrecision" transform="matrix(1,0,0,1,477,286)" stroke-linecap="butt">
      <rect fill="none" x="92.5" width="83" height="75.5" y="24" clip-path="url(#clipPath2)"/>
      <text x="109.3616" font-size="13px" y="41.5684" clip-path="url(#clipPath12)" font-family="sans-serif" stroke="none" font-weight="bold" xml:space="preserve">Dragon</text>
      <line stroke-linecap="square" clip-path="url(#clipPath12)" fill="none" x1="93" x2="174" y1="49" y2="49" stroke-miterlimit="10"/>
      <line stroke-linecap="square" clip-path="url(#clipPath12)" fill="none" x1="93" x2="174" y1="59" y2="59" stroke-miterlimit="10"/>
      <text x="97.5" xml:space="preserve" y="75.9121" clip-path="url(#clipPath12)" font-family="sans-serif" stroke="none">go()</text>
      <text x="97.5" xml:space="preserve" y="90.0449" clip-path="url(#clipPath12)" font-family="sans-serif" stroke="none">goFast()</text>
      <path fill="none" d="M-160.5109 -132.9778 L-161.1445 -190.005" clip-path="url(#clipPath2)"/>
      <path fill="white" d="M-161.3112 -205.0041 L-167.133 -188.9384 L-155.1338 -189.0717 Z" clip-path="url(#clipPath2)" stroke="none"/>
      <path fill="none" d="M-161.3112 -205.0041 L-167.133 -188.9384 L-155.1338 -189.0717 Z" clip-path="url(#clipPath2)"/>
      <path fill="none" stroke-dasharray="6,2" d="M-215 -133.0264 L-215 -144.5 L-383.5 -144.5 L-383.5 -158.4673" clip-path="url(#clipPath2)"/>
      <path fill="white" stroke-dasharray="6,2" d="M-383.5 -173.4673 L-389.5 -157.4673 L-377.5 -157.4673 Z" clip-path="url(#clipPath2)" stroke="none"/>
      <path fill="none" d="M-383.5 -173.4673 L-389.5 -157.4673 L-377.5 -157.4673 Z" clip-path="url(#clipPath2)"/>
      <path fill="none" d="M-345.5 141.0102 L-345.5 106.2634" clip-path="url(#clipPath2)"/>
      <path fill="white" d="M-345.5 91.2634 L-351.5 107.2634 L-339.5 107.2634 Z" clip-path="url(#clipPath2)" stroke="none"/>
      <path fill="none" d="M-345.5 91.2634 L-351.5 107.2634 L-339.5 107.2634 Z" clip-path="url(#clipPath2)"/>
      <path fill="none" d="M-314.3147 15.7363 L-314.5 -6.5 L-160 -6.5 L-160 -25.9719" clip-path="url(#clipPath2)"/>
      <path fill="white" d="M-160 -40.9719 L-166 -24.9719 L-154 -24.9719 Z" clip-path="url(#clipPath2)" stroke="none"/>
      <path fill="none" d="M-160 -40.9719 L-166 -24.9719 L-154 -24.9719 Z" clip-path="url(#clipPath2)"/>
      <path fill="none" d="M-131.1294 15.7363 L-131.5 -6.5 L-160 -6.5 L-160 -25.9719" clip-path="url(#clipPath2)"/>
      <path fill="white" d="M-160 -40.9719 L-166 -24.9719 L-154 -24.9719 Z" clip-path="url(#clipPath2)" stroke="none"/>
      <path fill="none" d="M-160 -40.9719 L-166 -24.9719 L-154 -24.9719 Z" clip-path="url(#clipPath2)"/>
      <path fill="none" d="M14.5 23.9785 L14.5 -145.5 L-161.5 -145.5 L-161.5 -190.0042" clip-path="url(#clipPath2)"/>
      <path fill="white" d="M-161.5 -205.0042 L-167.5 -189.0042 L-155.5 -189.0042 Z" clip-path="url(#clipPath2)" stroke="none"/>
      <path fill="none" d="M-161.5 -205.0042 L-167.5 -189.0042 L-155.5 -189.0042 Z" clip-path="url(#clipPath2)"/>
      <path fill="none" stroke-dasharray="6,2" d="M-12 23.9614 L-12 -15.5 L-383.5 -15.5 L-383.5 -158.5303" clip-path="url(#clipPath2)"/>
      <path fill="white" stroke-dasharray="6,2" d="M-383.5 -173.5303 L-389.5 -157.5303 L-377.5 -157.5303 Z" clip-path="url(#clipPath2)" stroke="none"/>
      <path fill="none" d="M-383.5 -173.5303 L-389.5 -157.5303 L-377.5 -157.5303 Z" clip-path="url(#clipPath2)"/>
      <path fill="none" d="M-210.5 140.9683 L-210.5 119.5 L-314.5 119.5 L-314.3995 106.2369" clip-path="url(#clipPath2)"/>
      <path fill="white" d="M-314.2859 91.2373 L-320.407 107.1914 L-308.4073 107.2823 Z" clip-path="url(#clipPath2)" stroke="none"/>
      <path fill="none" d="M-314.2859 91.2373 L-320.407 107.1914 L-308.4073 107.2823 Z" clip-path="url(#clipPath2)"/>
      <path fill="none" d="M-210.5 140.9683 L-210.5 119.5 L-128 119.5 L-128.5028 106.2266" clip-path="url(#clipPath2)"/>
      <path fill="white" d="M-129.0706 91.2373 L-134.4606 107.4529 L-122.4692 106.9987 Z" clip-path="url(#clipPath2)" stroke="none"/>
      <path fill="none" d="M-129.0706 91.2373 L-134.4606 107.4529 L-122.4692 106.9987 Z" clip-path="url(#clipPath2)"/>
      <path fill="none" stroke-dasharray="6,2" d="M-97.9846 178.306 L-157.0957 167.6381" clip-path="url(#clipPath2)"/>
      <path stroke-dasharray="6,2" d="M-161.0321 166.9276 L-150.2885 174.9635 L-161.0321 166.9276 L-148.1572 163.1543 Z" clip-path="url(#clipPath2)" stroke="none"/>
      <path fill="none" stroke-miterlimit="10" d="M-161.0321 166.9276 L-150.2885 174.9635 L-161.0321 166.9276 L-148.1572 163.1543 Z" clip-path="url(#clipPath2)" stroke-linecap="square"/>
      <path fill="none" stroke-dasharray="6,2" d="M35 23.9666 L35 -108.5 L82.5 -108.5 L82.5 -158.4799" clip-path="url(#clipPath2)"/>
      <path fill="white" stroke-dasharray="6,2" d="M82.5 -173.4799 L76.5 -157.4799 L88.5 -157.4799 Z" clip-path="url(#clipPath2)" stroke="none"/>
      <path fill="none" d="M82.5 -173.4799 L76.5 -157.4799 L88.5 -157.4799 Z" clip-path="url(#clipPath2)"/>
      <path fill="none" d="M134 23.9785 L134 -145.5 L-161.5 -145.5 L-161.5 -190.0107" clip-path="url(#clipPath2)"/>
      <path fill="white" d="M-161.5 -205.0107 L-167.5 -189.0107 L-155.5 -189.0107 Z" clip-path="url(#clipPath2)" stroke="none"/>
      <path fill="none" d="M-161.5 -205.0107 L-167.5 -189.0107 L-155.5 -189.0107 Z" clip-path="url(#clipPath2)"/>
      <path fill="none" stroke-dasharray="6,2" d="M118 23.9932 L118 -109.5 L82.5 -109.5 L82.5 -158.5228" clip-path="url(#clipPath2)"/>
      <path fill="white" stroke-dasharray="6,2" d="M82.5 -173.5228 L76.5 -157.5228 L88.5 -157.5228 Z" clip-path="url(#clipPath2)" stroke="none"/>
      <path fill="none" d="M82.5 -173.5228 L76.5 -157.5228 L88.5 -157.5228 Z" clip-path="url(#clipPath2)"/>
    </g>
  </g>
</svg>
