<?xml version="1.0" encoding="UTF-8"?><svg xmlns="http://www.w3.org/2000/svg" xmlns:xlink="http://www.w3.org/1999/xlink" fill-opacity="1" color-rendering="auto" color-interpolation="auto" text-rendering="auto" stroke="black" stroke-linecap="square" width="226" stroke-miterlimit="10" shape-rendering="auto" stroke-opacity="1" fill="black" stroke-dasharray="none" font-weight="normal" stroke-width="1" height="279" font-family="'Dialog'" font-style="normal" stroke-linejoin="miter" font-size="12px" stroke-dashoffset="0" image-rendering="auto">
  <!--Generated by ySVG 2.5-->
  <defs id="genericDefs"/>
  <g>
    <defs id="defs1">
      <clipPath clipPathUnits="userSpaceOnUse" id="clipPath1">
        <path d="M0 0 L226 0 L226 279 L0 279 L0 0 Z"/>
      </clipPath>
      <clipPath clipPathUnits="userSpaceOnUse" id="clipPath2">
        <path d="M-255 -255 L-29 -255 L-29 24 L-255 24 L-255 -255 Z"/>
      </clipPath>
      <clipPath clipPathUnits="userSpaceOnUse" id="clipPath3">
        <path d="M-239 -100 L-239 9 L-44 9 L-44 -100 Z"/>
      </clipPath>
      <clipPath clipPathUnits="userSpaceOnUse" id="clipPath4">
        <path d="M0 0 L0 30 L152 30 L152 0 Z"/>
      </clipPath>
      <clipPath clipPathUnits="userSpaceOnUse" id="clipPath5">
        <path d="M-232 -239 L-232 -159 L-51 -159 L-51 -239 Z"/>
      </clipPath>
    </defs>
    <g fill="white" text-rendering="geometricPrecision" shape-rendering="geometricPrecision" transform="translate(255,255)" stroke="white">
      <rect x="-255" width="226" height="279" y="-255" clip-path="url(#clipPath2)" stroke="none"/>
    </g>
    <g fill="rgb(255,255,204)" text-rendering="geometricPrecision" shape-rendering="geometricPrecision" transform="matrix(1,0,0,1,255,255)" stroke="rgb(255,255,204)">
      <rect x="-239.5" width="195" height="109" y="-100" clip-path="url(#clipPath2)" stroke="none"/>
    </g>
    <g text-rendering="geometricPrecision" stroke-miterlimit="1.45" shape-rendering="geometricPrecision" transform="matrix(1,0,0,1,255,255)" stroke-linecap="butt">
      <rect fill="none" x="-239.5" width="195" height="109" y="-100" clip-path="url(#clipPath2)"/>
      <text x="-159.1545" font-size="13px" y="-82.4316" clip-path="url(#clipPath3)" font-family="sans-serif" stroke="none" font-weight="bold" xml:space="preserve">Point</text>
      <line stroke-linecap="square" clip-path="url(#clipPath3)" fill="none" x1="-238" x2="-45" y1="-74" y2="-74" stroke-miterlimit="10"/>
      <text x="-234.5" xml:space="preserve" y="-58.0879" clip-path="url(#clipPath3)" font-family="sans-serif" stroke="none">+x : int</text>
      <text x="-234.5" xml:space="preserve" y="-43.9551" clip-path="url(#clipPath3)" font-family="sans-serif" stroke="none">+y : int</text>
      <line stroke-linecap="square" clip-path="url(#clipPath3)" fill="none" x1="-238" x2="-45" y1="-36" y2="-36" stroke-miterlimit="10"/>
    </g>
    <g text-rendering="geometricPrecision" stroke-miterlimit="1.45" shape-rendering="geometricPrecision" font-family="sans-serif" transform="matrix(1,0,0,1,255,255) translate(-234,-31)" stroke-linecap="butt">
      <text x="0" xml:space="preserve" y="12" clip-path="url(#clipPath4)" stroke="none">+equals(Object) : boolean</text>
      <text x="152" xml:space="preserve" y="12" clip-path="url(#clipPath4)" stroke="none"> </text>
      <text x="0" xml:space="preserve" y="27" clip-path="url(#clipPath4)" font-weight="bold" stroke="none">+hashCode() : int</text>
    </g>
    <g fill="rgb(255,255,204)" text-rendering="geometricPrecision" shape-rendering="geometricPrecision" transform="matrix(1,0,0,1,255,255)" stroke="rgb(255,255,204)">
      <rect x="-232.5" width="181" height="80" y="-239" clip-path="url(#clipPath2)" stroke="none"/>
    </g>
    <g text-rendering="geometricPrecision" stroke-miterlimit="1.45" shape-rendering="geometricPrecision" transform="matrix(1,0,0,1,255,255)" stroke-linecap="butt">
      <rect fill="none" x="-232.5" width="181" height="80" y="-239" clip-path="url(#clipPath2)"/>
      <text x="-195.0918" font-size="13px" y="-221.4316" clip-path="url(#clipPath5)" font-family="sans-serif" stroke="none" font-weight="bold" xml:space="preserve">java.lang.Object</text>
      <line stroke-linecap="square" clip-path="url(#clipPath5)" fill="none" x1="-231" x2="-52" y1="-213" y2="-213" stroke-miterlimit="10"/>
      <line stroke-linecap="square" clip-path="url(#clipPath5)" fill="none" x1="-231" x2="-52" y1="-203" y2="-203" stroke-miterlimit="10"/>
    </g>
    <g text-rendering="geometricPrecision" stroke-miterlimit="1.45" shape-rendering="geometricPrecision" font-family="sans-serif" transform="matrix(1,0,0,1,255,255) translate(-227,-198)" stroke-linecap="butt">
      <text x="0" xml:space="preserve" y="12" clip-path="url(#clipPath4)" stroke="none">+equals(Object) : boolean</text>
      <text x="152" xml:space="preserve" y="12" clip-path="url(#clipPath4)" stroke="none"> </text>
      <text x="0" xml:space="preserve" y="27" clip-path="url(#clipPath4)" font-weight="bold" stroke="none">+hashCode() : int</text>
    </g>
    <g text-rendering="geometricPrecision" stroke-miterlimit="1.45" shape-rendering="geometricPrecision" transform="matrix(1,0,0,1,255,255)" stroke-linecap="butt">
      <path fill="none" d="M-142 -100.027 L-142 -144.0338" clip-path="url(#clipPath2)"/>
      <path fill="white" d="M-142 -159.0338 L-148 -143.0338 L-136 -143.0338 Z" clip-path="url(#clipPath2)" stroke="none"/>
      <path fill="none" d="M-142 -159.0338 L-148 -143.0338 L-136 -143.0338 Z" clip-path="url(#clipPath2)"/>
    </g>
  </g>
</svg>
