<?xml version="1.0" encoding="UTF-8"?><svg xmlns="http://www.w3.org/2000/svg" xmlns:xlink="http://www.w3.org/1999/xlink" fill-opacity="1" color-rendering="auto" color-interpolation="auto" text-rendering="auto" stroke="black" stroke-linecap="square" width="522" stroke-miterlimit="10" shape-rendering="auto" stroke-opacity="1" fill="black" stroke-dasharray="none" font-weight="normal" stroke-width="1" height="197" font-family="'Dialog'" font-style="normal" stroke-linejoin="miter" font-size="12px" stroke-dashoffset="0" image-rendering="auto">
  <!--Generated by ySVG 2.5-->
  <defs id="genericDefs"/>
  <g>
    <defs id="defs1">
      <clipPath clipPathUnits="userSpaceOnUse" id="clipPath1">
        <path d="M0 0 L522 0 L522 197 L0 197 L0 0 Z"/>
      </clipPath>
      <clipPath clipPathUnits="userSpaceOnUse" id="clipPath2">
        <path d="M-951 -596 L-429 -596 L-429 -399 L-951 -399 L-951 -596 Z"/>
      </clipPath>
      <clipPath clipPathUnits="userSpaceOnUse" id="clipPath3">
        <path d="M-608 -574 L-608 -415 L-444 -415 L-444 -574 Z"/>
      </clipPath>
      <clipPath clipPathUnits="userSpaceOnUse" id="clipPath4">
        <path d="M-935 -580 L-935 -477 L-728 -477 L-728 -580 Z"/>
      </clipPath>
    </defs>
    <g fill="white" text-rendering="geometricPrecision" shape-rendering="geometricPrecision" transform="translate(951,596)" stroke="white">
      <rect x="-951" width="522" height="197" y="-596" clip-path="url(#clipPath2)" stroke="none"/>
    </g>
    <g fill="rgb(255,255,204)" text-rendering="geometricPrecision" shape-rendering="geometricPrecision" transform="matrix(1,0,0,1,951,596)" stroke="rgb(255,255,204)">
      <rect x="-608.5" width="164" height="160" y="-574" clip-path="url(#clipPath2)" stroke="none"/>
    </g>
    <g text-rendering="geometricPrecision" stroke-miterlimit="1.45" shape-rendering="geometricPrecision" transform="matrix(1,0,0,1,951,596)" stroke-linecap="butt">
      <rect fill="none" x="-608.5" width="164" height="160" y="-574" clip-path="url(#clipPath2)"/>
      <text x="-589.3545" font-size="13px" y="-556.4316" clip-path="url(#clipPath3)" font-family="sans-serif" stroke="none" font-weight="bold" xml:space="preserve">WineInventoryItem</text>
      <line stroke-linecap="square" clip-path="url(#clipPath3)" fill="none" x1="-607" x2="-445" y1="-548" y2="-548" stroke-miterlimit="10"/>
      <text x="-603.5" xml:space="preserve" y="-532.0879" clip-path="url(#clipPath3)" font-family="sans-serif" stroke="none"> </text>
      <line stroke-linecap="square" clip-path="url(#clipPath3)" fill="none" x1="-607" x2="-445" y1="-524" y2="-524" stroke-miterlimit="10"/>
      <text x="-603.5" xml:space="preserve" y="-507.9551" clip-path="url(#clipPath3)" font-family="sans-serif" stroke="none">+getName()</text>
      <text x="-603.5" xml:space="preserve" y="-493.8223" clip-path="url(#clipPath3)" font-family="sans-serif" stroke="none">+getYear()</text>
      <text x="-603.5" xml:space="preserve" y="-479.6895" clip-path="url(#clipPath3)" font-family="sans-serif" stroke="none">+setQuantity(int)</text>
      <text x="-603.5" xml:space="preserve" y="-465.5566" clip-path="url(#clipPath3)" font-family="sans-serif" stroke="none">+getQuantity()</text>
      <text x="-603.5" xml:space="preserve" y="-451.4238" clip-path="url(#clipPath3)" font-family="sans-serif" stroke="none">+setPrice()</text>
      <text x="-603.5" xml:space="preserve" y="-437.291" clip-path="url(#clipPath3)" font-family="sans-serif" stroke="none">+getPrice()</text>
      <text x="-603.5" xml:space="preserve" y="-423.1582" clip-path="url(#clipPath3)" font-family="sans-serif" stroke="none"> </text>
    </g>
    <g fill="rgb(255,255,204)" text-rendering="geometricPrecision" shape-rendering="geometricPrecision" transform="matrix(1,0,0,1,951,596)" stroke="rgb(255,255,204)">
      <rect x="-935" width="207" height="104" y="-581" clip-path="url(#clipPath2)" stroke="none"/>
    </g>
    <g text-rendering="geometricPrecision" stroke-miterlimit="1.45" shape-rendering="geometricPrecision" transform="matrix(1,0,0,1,951,596)" stroke-linecap="butt">
      <rect fill="none" x="-935" width="207" height="104" y="-581" clip-path="url(#clipPath2)"/>
      <text x="-879.4534" font-size="13px" y="-563.4316" clip-path="url(#clipPath4)" font-family="sans-serif" stroke="none" font-weight="bold" xml:space="preserve">WineInventory</text>
      <line stroke-linecap="square" clip-path="url(#clipPath4)" fill="none" x1="-934" x2="-729" y1="-555" y2="-555" stroke-miterlimit="10"/>
      <text x="-930" xml:space="preserve" y="-539.0879" clip-path="url(#clipPath4)" font-family="sans-serif" stroke="none"> </text>
      <line stroke-linecap="square" clip-path="url(#clipPath4)" fill="none" x1="-934" x2="-729" y1="-531" y2="-531" stroke-miterlimit="10"/>
      <text x="-930" xml:space="preserve" y="-514.9551" clip-path="url(#clipPath4)" font-family="sans-serif" stroke="none">+getWine(String name, int year)</text>
    </g>
    <g fill="white" text-rendering="geometricPrecision" shape-rendering="geometricPrecision" transform="matrix(1,0,0,1,951,596)" stroke="white">
      <path d="M-638.5 -544 L-608.5 -544 L-616 -514 L-631 -514 Z" fill-rule="evenodd" clip-path="url(#clipPath2)" stroke="none"/>
      <path fill="none" stroke-miterlimit="1.45" d="M-638.5 -544 L-608.5 -544 L-616 -514 L-631 -514 Z" fill-rule="evenodd" clip-path="url(#clipPath2)" stroke-linecap="butt"/>
    </g>
    <g text-rendering="geometricPrecision" stroke-miterlimit="1.45" shape-rendering="geometricPrecision" font-family="sans-serif" transform="matrix(1,0,0,1,951,596)" stroke-linecap="butt">
      <text x="-627.2236" xml:space="preserve" y="-524.4648" clip-path="url(#clipPath2)" stroke="none">n</text>
      <path fill="none" d="M-720.9705 -539 L-616.4943 -539" clip-path="url(#clipPath2)"/>
      <path fill="white" d="M-727.9705 -539 L-720.9705 -544 L-713.9705 -539 L-720.9705 -534 Z" clip-path="url(#clipPath2)" stroke="none"/>
      <path fill="none" d="M-727.9705 -539 L-720.9705 -544 L-713.9705 -539 L-720.9705 -534 Z" clip-path="url(#clipPath2)"/>
      <path d="M-608.4943 -539 L-620.4943 -544 L-617.4943 -539 L-620.4943 -534 Z" clip-path="url(#clipPath2)" stroke="none"/>
    </g>
  </g>
</svg>
