<?xml version="1.0" encoding="UTF-8"?><svg xmlns="http://www.w3.org/2000/svg" xmlns:xlink="http://www.w3.org/1999/xlink" fill-opacity="1" color-rendering="auto" color-interpolation="auto" text-rendering="auto" stroke="black" stroke-linecap="square" width="749" stroke-miterlimit="10" shape-rendering="auto" stroke-opacity="1" fill="black" stroke-dasharray="none" font-weight="normal" stroke-width="1" height="353" font-family="'Dialog'" font-style="normal" stroke-linejoin="miter" font-size="12px" stroke-dashoffset="0" image-rendering="auto">
  <!--Generated by ySVG 2.5-->
  <defs id="genericDefs"/>
  <g>
    <defs id="defs1">
      <clipPath clipPathUnits="userSpaceOnUse" id="clipPath1">
        <path d="M0 0 L749 0 L749 353 L0 353 L0 0 Z"/>
      </clipPath>
      <clipPath clipPathUnits="userSpaceOnUse" id="clipPath2">
        <path d="M170 152 L919 152 L919 505 L170 505 L170 152 Z"/>
      </clipPath>
      <clipPath clipPathUnits="userSpaceOnUse" id="clipPath3">
        <path d="M185 196 L185 304 L356 304 L356 196 Z"/>
      </clipPath>
      <clipPath clipPathUnits="userSpaceOnUse" id="clipPath4">
        <path d="M185 371 L185 467 L356 467 L356 371 Z"/>
      </clipPath>
      <clipPath clipPathUnits="userSpaceOnUse" id="clipPath5">
        <path d="M448 196 L448 304 L619 304 L619 196 Z"/>
      </clipPath>
      <clipPath clipPathUnits="userSpaceOnUse" id="clipPath6">
        <path d="M448 371 L448 490 L619 490 L619 371 Z"/>
      </clipPath>
    </defs>
    <g fill="white" text-rendering="geometricPrecision" shape-rendering="geometricPrecision" transform="translate(-170,-152)" stroke="white">
      <rect x="170" width="749" height="353" y="152" clip-path="url(#clipPath2)" stroke="none"/>
    </g>
    <g fill="rgb(255,255,204)" text-rendering="geometricPrecision" shape-rendering="geometricPrecision" transform="matrix(1,0,0,1,-170,-152)" stroke="rgb(255,255,204)">
      <rect x="186" width="169" height="106" y="197" clip-path="url(#clipPath2)" stroke="none"/>
      <rect x="185" y="196" clip-path="url(#clipPath2)" fill="white" width="1" height="108" stroke="none"/>
      <rect x="186" y="196" clip-path="url(#clipPath2)" fill="white" width="169" height="1" stroke="none"/>
      <rect x="186" y="303" clip-path="url(#clipPath2)" fill="rgb(178,178,142)" width="170" height="1" stroke="none"/>
      <rect x="355" y="196" clip-path="url(#clipPath2)" fill="rgb(178,178,142)" width="1" height="107" stroke="none"/>
    </g>
    <g text-rendering="geometricPrecision" stroke-miterlimit="1.45" shape-rendering="geometricPrecision" font-family="sans-serif" transform="matrix(1,0,0,1,-170,-152)" stroke-linecap="butt">
      <text x="227.9434" xml:space="preserve" y="212.6016" clip-path="url(#clipPath3)" stroke="none">&lt;&lt;abstract&gt;&gt;</text>
      <text x="251.1555" font-size="13px" y="236.7012" clip-path="url(#clipPath3)" stroke="none" font-weight="bold" xml:space="preserve">Entity</text>
      <line stroke-linecap="square" clip-path="url(#clipPath3)" fill="none" x1="186" x2="355" y1="244" y2="244" stroke-miterlimit="10"/>
      <text x="190" xml:space="preserve" y="261.0449" clip-path="url(#clipPath3)" stroke="none">-images : List&lt;PImage&gt;</text>
      <text x="190" xml:space="preserve" y="275.1777" clip-path="url(#clipPath3)" stroke="none">#imageIndex : int</text>
      <line stroke-linecap="square" clip-path="url(#clipPath3)" fill="none" x1="186" x2="355" y1="282" y2="282" stroke-miterlimit="10"/>
    </g>
    <g fill="rgb(255,255,204)" text-rendering="geometricPrecision" shape-rendering="geometricPrecision" transform="matrix(1,0,0,1,-170,-152)" stroke="rgb(255,255,204)">
      <rect x="186" width="169" height="94" y="372" clip-path="url(#clipPath2)" stroke="none"/>
      <rect x="185" y="371" clip-path="url(#clipPath2)" fill="white" width="1" height="96" stroke="none"/>
      <rect x="186" y="371" clip-path="url(#clipPath2)" fill="white" width="169" height="1" stroke="none"/>
      <rect x="186" y="466" clip-path="url(#clipPath2)" fill="rgb(178,178,142)" width="170" height="1" stroke="none"/>
      <rect x="355" y="371" clip-path="url(#clipPath2)" fill="rgb(178,178,142)" width="1" height="95" stroke="none"/>
    </g>
    <g text-rendering="geometricPrecision" stroke-miterlimit="1.45" shape-rendering="geometricPrecision" font-family="sans-serif" transform="matrix(1,0,0,1,-170,-152)" stroke-linecap="butt">
      <text x="227.9434" xml:space="preserve" y="387.6016" clip-path="url(#clipPath4)" stroke="none">&lt;&lt;abstract&gt;&gt;</text>
      <text x="219.1125" font-size="13px" y="411.7012" clip-path="url(#clipPath4)" stroke="none" font-weight="bold" xml:space="preserve">AnimatedEntity</text>
      <line stroke-linecap="square" clip-path="url(#clipPath4)" fill="none" x1="186" x2="355" y1="419" y2="419" stroke-miterlimit="10"/>
      <text x="190" xml:space="preserve" y="436.0449" clip-path="url(#clipPath4)" stroke="none">-animationPeriod : int</text>
      <line stroke-linecap="square" clip-path="url(#clipPath4)" fill="none" x1="186" x2="355" y1="443" y2="443" stroke-miterlimit="10"/>
    </g>
    <g fill="rgb(255,255,204)" text-rendering="geometricPrecision" shape-rendering="geometricPrecision" transform="matrix(1,0,0,1,-170,-152)" stroke="rgb(255,255,204)">
      <rect x="449" width="169" height="106" y="197" clip-path="url(#clipPath2)" stroke="none"/>
      <rect x="448" y="196" clip-path="url(#clipPath2)" fill="white" width="1" height="108" stroke="none"/>
      <rect x="449" y="196" clip-path="url(#clipPath2)" fill="white" width="169" height="1" stroke="none"/>
      <rect x="449" y="303" clip-path="url(#clipPath2)" fill="rgb(178,178,142)" width="170" height="1" stroke="none"/>
      <rect x="618" y="196" clip-path="url(#clipPath2)" fill="rgb(178,178,142)" width="1" height="107" stroke="none"/>
    </g>
    <g text-rendering="geometricPrecision" stroke-miterlimit="1.45" shape-rendering="geometricPrecision" font-family="sans-serif" transform="matrix(1,0,0,1,-170,-152)" stroke-linecap="butt">
      <text x="490.9434" xml:space="preserve" y="212.6016" clip-path="url(#clipPath5)" stroke="none">&lt;&lt;abstract&gt;&gt;</text>
      <text x="514.1555" font-size="13px" y="236.7012" clip-path="url(#clipPath5)" stroke="none" font-weight="bold" xml:space="preserve">Entity</text>
      <line stroke-linecap="square" clip-path="url(#clipPath5)" fill="none" x1="449" x2="618" y1="244" y2="244" stroke-miterlimit="10"/>
      <text x="453" xml:space="preserve" y="261.0449" clip-path="url(#clipPath5)" stroke="none">-images : List&lt;PImage&gt;</text>
      <line stroke-linecap="square" clip-path="url(#clipPath5)" fill="none" x1="449" x2="618" y1="268" y2="268" stroke-miterlimit="10"/>
      <text x="453" xml:space="preserve" y="285.1777" clip-path="url(#clipPath5)" stroke="none">#getImageIndex() : int</text>
    </g>
    <g fill="rgb(255,255,204)" text-rendering="geometricPrecision" shape-rendering="geometricPrecision" transform="matrix(1,0,0,1,-170,-152)" stroke="rgb(255,255,204)">
      <rect x="449" width="169" height="117" y="372" clip-path="url(#clipPath2)" stroke="none"/>
      <rect x="448" y="371" clip-path="url(#clipPath2)" fill="white" width="1" height="119" stroke="none"/>
      <rect x="449" y="371" clip-path="url(#clipPath2)" fill="white" width="169" height="1" stroke="none"/>
      <rect x="449" y="489" clip-path="url(#clipPath2)" fill="rgb(178,178,142)" width="170" height="1" stroke="none"/>
      <rect x="618" y="371" clip-path="url(#clipPath2)" fill="rgb(178,178,142)" width="1" height="118" stroke="none"/>
    </g>
    <g text-rendering="geometricPrecision" stroke-miterlimit="1.45" shape-rendering="geometricPrecision" font-family="sans-serif" transform="matrix(1,0,0,1,-170,-152)" stroke-linecap="butt">
      <text x="490.9434" xml:space="preserve" y="387.6016" clip-path="url(#clipPath6)" stroke="none">&lt;&lt;abstract&gt;&gt;</text>
      <text x="482.1125" font-size="13px" y="411.7012" clip-path="url(#clipPath6)" stroke="none" font-weight="bold" xml:space="preserve">AnimatedEntity</text>
      <line stroke-linecap="square" clip-path="url(#clipPath6)" fill="none" x1="449" x2="618" y1="419" y2="419" stroke-miterlimit="10"/>
      <text x="453" xml:space="preserve" y="436.0449" clip-path="url(#clipPath6)" stroke="none">-imageIndex : int</text>
      <text x="453" xml:space="preserve" y="450.1777" clip-path="url(#clipPath6)" stroke="none">-animationPeriod : int</text>
      <line stroke-linecap="square" clip-path="url(#clipPath6)" fill="none" x1="449" x2="618" y1="457" y2="457" stroke-miterlimit="10"/>
      <text x="453" xml:space="preserve" y="474.3105" clip-path="url(#clipPath6)" stroke="none">#getImageIndex() : int</text>
    </g>
    <g fill="yellow" text-rendering="geometricPrecision" shape-rendering="geometricPrecision" transform="matrix(1,0,0,1,-170,-152)" stroke="yellow">
      <path d="M687 167 L889 167 L889 182 L904 182 L904 304 L687 304 Z" stroke="none" clip-path="url(#clipPath2)"/>
      <path fill="white" d="M889 167 L889 182 L904 182 Z" clip-path="url(#clipPath2)" fill-rule="evenodd" stroke="none"/>
    </g>
    <g text-rendering="geometricPrecision" stroke-miterlimit="1.45" shape-rendering="geometricPrecision" transform="matrix(1,0,0,1,-170,-152)" stroke-linecap="butt">
      <path fill="none" d="M687 167 L889 167 L889 182 L904 182 L904 304 L687 304 Z" clip-path="url(#clipPath2)"/>
      <path fill="none" d="M889 167 L889 182 L904 182 Z" clip-path="url(#clipPath2)" fill-rule="evenodd"/>
      <text x="705.002" xml:space="preserve" y="190.5703" clip-path="url(#clipPath2)" font-family="sans-serif" stroke="none">//</text>
      <text x="705.002" xml:space="preserve" y="204.7031" clip-path="url(#clipPath2)" font-family="sans-serif" stroke="none">// Overridden in sublcasses</text>
      <text x="705.002" xml:space="preserve" y="218.8359" clip-path="url(#clipPath2)" font-family="sans-serif" stroke="none">// with &gt; 1 image, like</text>
      <text x="705.002" xml:space="preserve" y="232.9688" clip-path="url(#clipPath2)" font-family="sans-serif" stroke="none">// AnimatedEntity</text>
      <text x="705.002" xml:space="preserve" y="247.1016" clip-path="url(#clipPath2)" font-family="sans-serif" stroke="none">//</text>
      <text x="705.002" xml:space="preserve" y="261.2344" clip-path="url(#clipPath2)" font-family="sans-serif" stroke="none">protected int getImageIndex() {</text>
      <text x="705.002" xml:space="preserve" y="275.3672" clip-path="url(#clipPath2)" font-family="sans-serif" stroke="none">    return 0;</text>
      <text x="705.002" xml:space="preserve" y="289.5" clip-path="url(#clipPath2)" font-family="sans-serif" stroke="none">}</text>
      <path fill="none" d="M270.5 371.0149 L270.5 318.9781" clip-path="url(#clipPath2)"/>
      <path fill="white" d="M270.5 303.9781 L264.5 319.9781 L276.5 319.9781 Z" clip-path="url(#clipPath2)" stroke="none"/>
      <path fill="none" d="M270.5 303.9781 L264.5 319.9781 L276.5 319.9781 Z" clip-path="url(#clipPath2)"/>
      <path fill="none" d="M533.5 370.965 L533.5 319.0149" clip-path="url(#clipPath2)"/>
      <path fill="white" d="M533.5 304.0149 L527.5 320.0149 L539.5 320.0149 Z" clip-path="url(#clipPath2)" stroke="none"/>
      <path fill="none" d="M533.5 304.0149 L527.5 320.0149 L539.5 320.0149 Z" clip-path="url(#clipPath2)"/>
      <path fill="none" stroke-dasharray="6,2" d="M686.9836 241.5057 L618.9727 245.2696" clip-path="url(#clipPath2)"/>
    </g>
  </g>
</svg>
