<?xml version="1.0" encoding="UTF-8"?><svg xmlns="http://www.w3.org/2000/svg" xmlns:xlink="http://www.w3.org/1999/xlink" fill-opacity="1" color-rendering="auto" color-interpolation="auto" text-rendering="auto" stroke="black" stroke-linecap="square" width="467" stroke-miterlimit="10" shape-rendering="auto" stroke-opacity="1" fill="black" stroke-dasharray="none" font-weight="normal" stroke-width="1" height="302" font-family="'Dialog'" font-style="normal" stroke-linejoin="miter" font-size="12px" stroke-dashoffset="0" image-rendering="auto">
  <!--Generated by ySVG 2.5-->
  <defs id="genericDefs"/>
  <g>
    <defs id="defs1">
      <clipPath clipPathUnits="userSpaceOnUse" id="clipPath1">
        <path d="M0 0 L467 0 L467 302 L0 302 L0 0 Z"/>
      </clipPath>
      <clipPath clipPathUnits="userSpaceOnUse" id="clipPath2">
        <path d="M-4 130 L463 130 L463 432 L-4 432 L-4 130 Z"/>
      </clipPath>
      <clipPath clipPathUnits="userSpaceOnUse" id="clipPath3">
        <path d="M120 145 L120 262 L332 262 L332 145 Z"/>
      </clipPath>
      <clipPath clipPathUnits="userSpaceOnUse" id="clipPath4">
        <path d="M0 0 L0 30 L172 30 L172 0 Z"/>
      </clipPath>
      <clipPath clipPathUnits="userSpaceOnUse" id="clipPath5">
        <path d="M11 313 L11 417 L194 417 L194 313 Z"/>
      </clipPath>
      <clipPath clipPathUnits="userSpaceOnUse" id="clipPath6">
        <path d="M0 0 L0 15 L172 15 L172 0 Z"/>
      </clipPath>
      <clipPath clipPathUnits="userSpaceOnUse" id="clipPath7">
        <path d="M265 313 L265 402 L448 402 L448 313 Z"/>
      </clipPath>
    </defs>
    <g fill="white" text-rendering="geometricPrecision" shape-rendering="geometricPrecision" transform="translate(4,-130)" stroke="white">
      <rect x="-4" width="467" height="302" y="130" clip-path="url(#clipPath2)" stroke="none"/>
    </g>
    <g fill="rgb(255,255,204)" text-rendering="geometricPrecision" shape-rendering="geometricPrecision" transform="matrix(1,0,0,1,4,-130)" stroke="rgb(255,255,204)">
      <rect x="121" width="210" height="115" y="146" clip-path="url(#clipPath2)" stroke="none"/>
      <rect x="120" y="145" clip-path="url(#clipPath2)" fill="white" width="1" height="117" stroke="none"/>
      <rect x="121" y="145" clip-path="url(#clipPath2)" fill="white" width="210" height="1" stroke="none"/>
      <rect x="121" y="261" clip-path="url(#clipPath2)" fill="rgb(178,178,142)" width="211" height="1" stroke="none"/>
      <rect x="331" y="145" clip-path="url(#clipPath2)" fill="rgb(178,178,142)" width="1" height="116" stroke="none"/>
    </g>
    <g text-rendering="geometricPrecision" stroke-miterlimit="1.45" shape-rendering="geometricPrecision" font-family="sans-serif" transform="matrix(1,0,0,1,4,-130)" stroke-linecap="butt">
      <text x="183.9434" xml:space="preserve" y="161.6016" clip-path="url(#clipPath3)" stroke="none">&lt;&lt;abstract&gt;&gt;</text>
      <text x="182.5774" font-size="13px" y="185.7012" clip-path="url(#clipPath3)" stroke="none" font-weight="bold" xml:space="preserve">MovingEntity</text>
      <line stroke-linecap="square" clip-path="url(#clipPath3)" fill="none" x1="121" x2="331" y1="193" y2="193" stroke-miterlimit="10"/>
      <text x="125.5" xml:space="preserve" y="210.0449" clip-path="url(#clipPath3)" stroke="none"> </text>
      <line stroke-linecap="square" clip-path="url(#clipPath3)" fill="none" x1="121" x2="331" y1="217" y2="217" stroke-miterlimit="10"/>
    </g>
    <g text-rendering="geometricPrecision" stroke-miterlimit="1.45" shape-rendering="geometricPrecision" font-family="sans-serif" transform="matrix(1,0,0,1,4,-130) translate(125,222)" stroke-linecap="butt">
      <text x="0" xml:space="preserve" y="12" clip-path="url(#clipPath4)" stroke="none">nextPosition(...)  </text>
      <text x="97" xml:space="preserve" y="12" clip-path="url(#clipPath4)" stroke="none"> </text>
      <text font-style="italic" x="0" xml:space="preserve" y="27" clip-path="url(#clipPath4)" stroke="none">isBlocked(Position) : boolean  </text>
      <text font-style="italic" x="172" xml:space="preserve" y="27" clip-path="url(#clipPath4)" stroke="none"> </text>
    </g>
    <g fill="rgb(255,255,204)" text-rendering="geometricPrecision" shape-rendering="geometricPrecision" transform="matrix(1,0,0,1,4,-130)" stroke="rgb(255,255,204)">
      <rect x="12" width="181" height="102" y="314" clip-path="url(#clipPath2)" stroke="none"/>
      <rect x="11" y="313" clip-path="url(#clipPath2)" fill="white" width="1" height="104" stroke="none"/>
      <rect x="12" y="313" clip-path="url(#clipPath2)" fill="white" width="181" height="1" stroke="none"/>
      <rect x="12" y="416" clip-path="url(#clipPath2)" fill="rgb(178,178,142)" width="182" height="1" stroke="none"/>
      <rect x="193" y="313" clip-path="url(#clipPath2)" fill="rgb(178,178,142)" width="1" height="103" stroke="none"/>
    </g>
    <g text-rendering="geometricPrecision" stroke-miterlimit="1.45" shape-rendering="geometricPrecision" font-family="sans-serif" transform="matrix(1,0,0,1,4,-130)" stroke-linecap="butt">
      <text x="59.9434" xml:space="preserve" y="329.6016" clip-path="url(#clipPath5)" stroke="none">&lt;&lt;abstract&gt;&gt;</text>
      <text x="83.4539" font-size="13px" y="353.7012" clip-path="url(#clipPath5)" stroke="none" font-weight="bold" xml:space="preserve">Miner</text>
      <line stroke-linecap="square" clip-path="url(#clipPath5)" fill="none" x1="12" x2="193" y1="361" y2="361" stroke-miterlimit="10"/>
      <text x="16" xml:space="preserve" y="378.0449" clip-path="url(#clipPath5)" stroke="none"> </text>
      <line stroke-linecap="square" clip-path="url(#clipPath5)" fill="none" x1="12" x2="193" y1="385" y2="385" stroke-miterlimit="10"/>
    </g>
    <g text-rendering="geometricPrecision" stroke-miterlimit="1.45" shape-rendering="geometricPrecision" font-family="sans-serif" transform="matrix(1,0,0,1,4,-130) translate(16,390)" stroke-linecap="butt">
      <text x="0" xml:space="preserve" y="12" clip-path="url(#clipPath6)" stroke="none">isBlocked(Position) : boolean  </text>
    </g>
    <g fill="rgb(255,255,204)" text-rendering="geometricPrecision" shape-rendering="geometricPrecision" transform="matrix(1,0,0,1,4,-130)" stroke="rgb(255,255,204)">
      <rect x="266" width="181" height="87" y="314" clip-path="url(#clipPath2)" stroke="none"/>
      <rect x="265" y="313" clip-path="url(#clipPath2)" fill="white" width="1" height="89" stroke="none"/>
      <rect x="266" y="313" clip-path="url(#clipPath2)" fill="white" width="181" height="1" stroke="none"/>
      <rect x="266" y="401" clip-path="url(#clipPath2)" fill="rgb(178,178,142)" width="182" height="1" stroke="none"/>
      <rect x="447" y="313" clip-path="url(#clipPath2)" fill="rgb(178,178,142)" width="1" height="88" stroke="none"/>
    </g>
    <g font-size="13px" stroke-linecap="butt" transform="matrix(1,0,0,1,4,-130)" text-rendering="geometricPrecision" font-family="sans-serif" shape-rendering="geometricPrecision" font-weight="bold" stroke-miterlimit="1.45">
      <text x="329.7192" xml:space="preserve" y="330.5684" clip-path="url(#clipPath7)" stroke="none">OreBlob</text>
    </g>
    <g text-rendering="geometricPrecision" shape-rendering="geometricPrecision" transform="matrix(1,0,0,1,4,-130)">
      <line y2="338" fill="none" x1="266" clip-path="url(#clipPath7)" x2="447" y1="338"/>
      <text stroke-linecap="butt" x="270" y="354.9121" clip-path="url(#clipPath7)" font-family="sans-serif" stroke="none" stroke-miterlimit="1.45" xml:space="preserve"> </text>
      <line y2="362" fill="none" x1="266" clip-path="url(#clipPath7)" x2="447" y1="362"/>
    </g>
    <g text-rendering="geometricPrecision" stroke-miterlimit="1.45" shape-rendering="geometricPrecision" font-family="sans-serif" transform="matrix(1,0,0,1,4,-130) translate(270,367)" stroke-linecap="butt">
      <text x="0" xml:space="preserve" y="12" clip-path="url(#clipPath6)" stroke="none">isBlocked(Position) : boolean  </text>
    </g>
    <g text-rendering="geometricPrecision" stroke-miterlimit="1.45" shape-rendering="geometricPrecision" transform="matrix(1,0,0,1,4,-130)" stroke-linecap="butt">
      <path fill="none" d="M102.5 313.0127 L102.5 287 L226.5 287 L226.5 277.0071" clip-path="url(#clipPath2)"/>
      <path fill="white" d="M226.5 262.0071 L220.5 278.0071 L232.5 278.0071 Z" clip-path="url(#clipPath2)" stroke="none"/>
      <path fill="none" d="M226.5 262.0071 L220.5 278.0071 L232.5 278.0071 Z" clip-path="url(#clipPath2)"/>
      <path fill="none" d="M356.5 312.99 L356.5 287 L226.5 287 L226.5 277.0071" clip-path="url(#clipPath2)"/>
      <path fill="white" d="M226.5 262.0071 L220.5 278.0071 L232.5 278.0071 Z" clip-path="url(#clipPath2)" stroke="none"/>
      <path fill="none" d="M226.5 262.0071 L220.5 278.0071 L232.5 278.0071 Z" clip-path="url(#clipPath2)"/>
    </g>
  </g>
</svg>
