<?xml version="1.0" encoding="UTF-8"?><svg xmlns="http://www.w3.org/2000/svg" xmlns:xlink="http://www.w3.org/1999/xlink" fill-opacity="1" color-rendering="auto" color-interpolation="auto" text-rendering="auto" stroke="black" stroke-linecap="square" width="704" stroke-miterlimit="10" shape-rendering="auto" stroke-opacity="1" fill="black" stroke-dasharray="none" font-weight="normal" stroke-width="1" height="293" font-family="'Dialog'" font-style="normal" stroke-linejoin="miter" font-size="12px" stroke-dashoffset="0" image-rendering="auto">
  <!--Generated by ySVG 2.5-->
  <defs id="genericDefs"/>
  <g>
    <defs id="defs1">
      <clipPath clipPathUnits="userSpaceOnUse" id="clipPath1">
        <path d="M0 0 L704 0 L704 293 L0 293 L0 0 Z"/>
      </clipPath>
      <clipPath clipPathUnits="userSpaceOnUse" id="clipPath2">
        <path d="M141 116 L845 116 L845 409 L141 409 L141 116 Z"/>
      </clipPath>
      <clipPath clipPathUnits="userSpaceOnUse" id="clipPath3">
        <path d="M185 149 L185 220 L287 220 L287 149 Z"/>
      </clipPath>
      <clipPath clipPathUnits="userSpaceOnUse" id="clipPath4">
        <path d="M590 149 L590 253 L699 253 L699 149 Z"/>
      </clipPath>
      <clipPath clipPathUnits="userSpaceOnUse" id="clipPath5">
        <path d="M0 0 L0 15 L71 15 L71 0 Z"/>
      </clipPath>
      <clipPath clipPathUnits="userSpaceOnUse" id="clipPath6">
        <path d="M448 323 L448 394 L620 394 L620 323 Z"/>
      </clipPath>
      <clipPath clipPathUnits="userSpaceOnUse" id="clipPath7">
        <path d="M658 323 L658 394 L830 394 L830 323 Z"/>
      </clipPath>
    </defs>
    <g fill="white" text-rendering="geometricPrecision" shape-rendering="geometricPrecision" transform="translate(-141,-116)" stroke="white">
      <rect x="141" width="704" height="293" y="116" clip-path="url(#clipPath2)" stroke="none"/>
    </g>
    <g fill="rgb(255,255,204)" text-rendering="geometricPrecision" shape-rendering="geometricPrecision" transform="matrix(1,0,0,1,-141,-116)" stroke="rgb(255,255,204)">
      <rect x="186" width="100" height="69" y="150" clip-path="url(#clipPath2)" stroke="none"/>
      <rect x="185" y="149" clip-path="url(#clipPath2)" fill="white" width="1" height="71" stroke="none"/>
      <rect x="186" y="149" clip-path="url(#clipPath2)" fill="white" width="100" height="1" stroke="none"/>
      <rect x="186" y="219" clip-path="url(#clipPath2)" fill="rgb(178,178,142)" width="101" height="1" stroke="none"/>
      <rect x="286" y="149" clip-path="url(#clipPath2)" fill="rgb(178,178,142)" width="1" height="70" stroke="none"/>
    </g>
    <g font-size="13px" stroke-linecap="butt" transform="matrix(1,0,0,1,-141,-116)" text-rendering="geometricPrecision" font-family="sans-serif" shape-rendering="geometricPrecision" font-weight="bold" stroke-miterlimit="1.45">
      <text x="210.0317" xml:space="preserve" y="166.5684" clip-path="url(#clipPath3)" stroke="none">Context</text>
    </g>
    <g text-rendering="geometricPrecision" shape-rendering="geometricPrecision" transform="matrix(1,0,0,1,-141,-116)">
      <line y2="174" fill="none" x1="186" clip-path="url(#clipPath3)" x2="286" y1="174"/>
      <text stroke-linecap="butt" x="190" y="190.9121" clip-path="url(#clipPath3)" font-family="sans-serif" stroke="none" stroke-miterlimit="1.45" xml:space="preserve"> </text>
      <line y2="198" fill="none" x1="186" clip-path="url(#clipPath3)" x2="286" y1="198"/>
      <text stroke-linecap="butt" x="190" y="215.0449" clip-path="url(#clipPath3)" font-family="sans-serif" stroke="none" stroke-miterlimit="1.45" xml:space="preserve"> </text>
      <rect x="591" y="150" clip-path="url(#clipPath2)" fill="rgb(255,255,204)" width="107" height="102" stroke="none"/>
      <rect x="590" y="149" clip-path="url(#clipPath2)" fill="white" width="1" height="104" stroke="none"/>
      <rect x="591" y="149" clip-path="url(#clipPath2)" fill="white" width="107" height="1" stroke="none"/>
      <rect x="591" y="252" clip-path="url(#clipPath2)" fill="rgb(178,178,142)" width="108" height="1" stroke="none"/>
      <rect x="698" y="149" clip-path="url(#clipPath2)" fill="rgb(178,178,142)" width="1" height="103" stroke="none"/>
      <text stroke-linecap="butt" x="599.9863" y="165.6016" clip-path="url(#clipPath4)" font-family="sans-serif" stroke="none" stroke-miterlimit="1.45" xml:space="preserve">&lt;&lt;interface&gt;&gt;</text>
    </g>
    <g font-size="13px" stroke-linecap="butt" transform="matrix(1,0,0,1,-141,-116)" text-rendering="geometricPrecision" font-family="sans-serif" shape-rendering="geometricPrecision" font-weight="bold" stroke-miterlimit="1.45">
      <text x="616.856" xml:space="preserve" y="189.7012" clip-path="url(#clipPath4)" stroke="none">Strategy</text>
    </g>
    <g text-rendering="geometricPrecision" shape-rendering="geometricPrecision" transform="matrix(1,0,0,1,-141,-116)">
      <line y2="197" fill="none" x1="591" clip-path="url(#clipPath4)" x2="698" y1="197"/>
      <text stroke-linecap="butt" x="595" y="214.0449" clip-path="url(#clipPath4)" font-family="sans-serif" stroke="none" stroke-miterlimit="1.45" xml:space="preserve"> </text>
      <line y2="221" fill="none" x1="591" clip-path="url(#clipPath4)" x2="698" y1="221"/>
    </g>
    <g stroke-linecap="butt" transform="matrix(1,0,0,1,-141,-116) translate(595,226)" text-rendering="geometricPrecision" font-family="sans-serif" shape-rendering="geometricPrecision" font-style="italic" stroke-miterlimit="1.45">
      <text x="0" xml:space="preserve" y="12" clip-path="url(#clipPath5)" stroke="none">operation()  </text>
    </g>
    <g fill="rgb(255,255,204)" text-rendering="geometricPrecision" shape-rendering="geometricPrecision" transform="matrix(1,0,0,1,-141,-116)" stroke="rgb(255,255,204)">
      <rect x="449" width="170" height="69" y="324" clip-path="url(#clipPath2)" stroke="none"/>
      <rect x="448" y="323" clip-path="url(#clipPath2)" fill="white" width="1" height="71" stroke="none"/>
      <rect x="449" y="323" clip-path="url(#clipPath2)" fill="white" width="170" height="1" stroke="none"/>
      <rect x="449" y="393" clip-path="url(#clipPath2)" fill="rgb(178,178,142)" width="171" height="1" stroke="none"/>
      <rect x="619" y="323" clip-path="url(#clipPath2)" fill="rgb(178,178,142)" width="1" height="70" stroke="none"/>
    </g>
    <g font-size="13px" stroke-linecap="butt" transform="matrix(1,0,0,1,-141,-116)" text-rendering="geometricPrecision" font-family="sans-serif" shape-rendering="geometricPrecision" font-weight="bold" stroke-miterlimit="1.45">
      <text x="471.8533" xml:space="preserve" y="340.5684" clip-path="url(#clipPath6)" stroke="none">ConcreteStrategyA</text>
    </g>
    <g text-rendering="geometricPrecision" shape-rendering="geometricPrecision" transform="matrix(1,0,0,1,-141,-116)">
      <line y2="348" fill="none" x1="449" clip-path="url(#clipPath6)" x2="619" y1="348"/>
      <text stroke-linecap="butt" x="453" y="364.9121" clip-path="url(#clipPath6)" font-family="sans-serif" stroke="none" stroke-miterlimit="1.45" xml:space="preserve"> </text>
      <line y2="372" fill="none" x1="449" clip-path="url(#clipPath6)" x2="619" y1="372"/>
      <text stroke-linecap="butt" x="453" y="389.0449" clip-path="url(#clipPath6)" font-family="sans-serif" stroke="none" stroke-miterlimit="1.45" xml:space="preserve">operation()</text>
      <rect x="659" y="324" clip-path="url(#clipPath2)" fill="rgb(255,255,204)" width="170" height="69" stroke="none"/>
      <rect x="658" y="323" clip-path="url(#clipPath2)" fill="white" width="1" height="71" stroke="none"/>
      <rect x="659" y="323" clip-path="url(#clipPath2)" fill="white" width="170" height="1" stroke="none"/>
      <rect x="659" y="393" clip-path="url(#clipPath2)" fill="rgb(178,178,142)" width="171" height="1" stroke="none"/>
      <rect x="829" y="323" clip-path="url(#clipPath2)" fill="rgb(178,178,142)" width="1" height="70" stroke="none"/>
    </g>
    <g font-size="13px" stroke-linecap="butt" transform="matrix(1,0,0,1,-141,-116)" text-rendering="geometricPrecision" font-family="sans-serif" shape-rendering="geometricPrecision" font-weight="bold" stroke-miterlimit="1.45">
      <text x="681.8533" xml:space="preserve" y="340.5684" clip-path="url(#clipPath7)" stroke="none">ConcreteStrategyA</text>
    </g>
    <g text-rendering="geometricPrecision" shape-rendering="geometricPrecision" transform="matrix(1,0,0,1,-141,-116)">
      <line y2="348" fill="none" x1="659" clip-path="url(#clipPath7)" x2="829" y1="348"/>
      <text stroke-linecap="butt" x="663" y="364.9121" clip-path="url(#clipPath7)" font-family="sans-serif" stroke="none" stroke-miterlimit="1.45" xml:space="preserve"> </text>
      <line y2="372" fill="none" x1="659" clip-path="url(#clipPath7)" x2="829" y1="372"/>
      <text stroke-linecap="butt" x="663" y="389.0449" clip-path="url(#clipPath7)" font-family="sans-serif" stroke="none" stroke-miterlimit="1.45" xml:space="preserve">operation()</text>
      <path fill="yellow" d="M156.5 275 L300.5 275 L300.5 290 L315.5 290 L315.5 351 L156.5 351 Z" clip-path="url(#clipPath2)" stroke="none"/>
      <path fill="white" d="M300.5 275 L300.5 290 L315.5 290 Z" clip-path="url(#clipPath2)" fill-rule="evenodd" stroke="none"/>
      <path fill="none" stroke-miterlimit="1.45" d="M156.5 275 L300.5 275 L300.5 290 L315.5 290 L315.5 351 L156.5 351 Z" clip-path="url(#clipPath2)" stroke-linecap="butt"/>
      <path fill="none" stroke-miterlimit="1.45" d="M300.5 275 L300.5 290 L315.5 290 Z" fill-rule="evenodd" clip-path="url(#clipPath2)" stroke-linecap="butt"/>
      <text stroke-linecap="butt" x="226.5078" y="303.4023" clip-path="url(#clipPath2)" font-family="sans-serif" stroke="none" stroke-miterlimit="1.45" xml:space="preserve">. . .</text>
      <text stroke-linecap="butt" x="178.7041" y="317.5352" clip-path="url(#clipPath2)" font-family="sans-serif" stroke="none" stroke-miterlimit="1.45" xml:space="preserve">strategy.operation()</text>
      <text stroke-linecap="butt" x="226.5078" y="331.668" clip-path="url(#clipPath2)" font-family="sans-serif" stroke="none" stroke-miterlimit="1.45" xml:space="preserve">. . .</text>
      <text stroke-linecap="butt" x="533.9658" y="200.0352" clip-path="url(#clipPath2)" font-family="sans-serif" stroke="none" stroke-miterlimit="1.45" xml:space="preserve">strategy</text>
      <path fill="none" stroke-miterlimit="1.45" d="M287.0498 184.5 L586.013 184.5" clip-path="url(#clipPath2)" stroke-linecap="butt"/>
      <path stroke-miterlimit="1.45" d="M590.013 184.5 L582.013 178.5 L585.013 184.5 L582.013 190.5 Z" clip-path="url(#clipPath2)" stroke-linecap="butt" stroke="none"/>
      <text stroke-linecap="butt" x="436.6016" y="144.9023" clip-path="url(#clipPath2)" font-family="sans-serif" stroke="none" stroke-miterlimit="1.45" xml:space="preserve"> </text>
      <text stroke-linecap="butt" x="436.6016" y="159.0352" clip-path="url(#clipPath2)" font-family="sans-serif" stroke="none" stroke-miterlimit="1.45" xml:space="preserve"> </text>
      <text stroke-linecap="butt" x="417.418" y="173.168" clip-path="url(#clipPath2)" font-family="sans-serif" stroke="none" stroke-miterlimit="1.45" xml:space="preserve">uses →</text>
      <path fill="none" stroke-miterlimit="1.45" stroke-dasharray="6,2" d="M534 322.9934 L534 286 L644.5 286 L644.5 268.0044" clip-path="url(#clipPath2)" stroke-linecap="butt"/>
    </g>
    <g stroke-linecap="butt" transform="matrix(1,0,0,1,-141,-116)" fill="white" text-rendering="geometricPrecision" shape-rendering="geometricPrecision" stroke-dasharray="6,2" stroke="white" stroke-miterlimit="1.45">
      <path d="M644.5 253.0044 L638.5 269.0044 L650.5 269.0044 Z" stroke="none" clip-path="url(#clipPath2)"/>
      <path fill="none" stroke-dasharray="none" d="M644.5 253.0044 L638.5 269.0044 L650.5 269.0044 Z" clip-path="url(#clipPath2)" stroke="black"/>
      <path fill="none" d="M744 322.9934 L744 286 L644.5 286 L644.5 268.0044" clip-path="url(#clipPath2)" stroke="black"/>
      <path d="M644.5 253.0044 L638.5 269.0044 L650.5 269.0044 Z" clip-path="url(#clipPath2)" stroke="none"/>
      <path fill="none" stroke-dasharray="none" d="M644.5 253.0044 L638.5 269.0044 L650.5 269.0044 Z" clip-path="url(#clipPath2)" stroke="black"/>
      <path fill="none" d="M236 275.0084 L236 219.9874" clip-path="url(#clipPath2)" stroke="black"/>
    </g>
  </g>
</svg>
