<?xml version="1.0" encoding="UTF-8"?><svg xmlns="http://www.w3.org/2000/svg" xmlns:xlink="http://www.w3.org/1999/xlink" fill-opacity="1" color-rendering="auto" color-interpolation="auto" text-rendering="auto" stroke="black" stroke-linecap="square" width="547" stroke-miterlimit="10" shape-rendering="auto" stroke-opacity="1" fill="black" stroke-dasharray="none" font-weight="normal" stroke-width="1" height="497" font-family="'Dialog'" font-style="normal" stroke-linejoin="miter" font-size="12px" stroke-dashoffset="0" image-rendering="auto">
  <!--Generated by ySVG 2.5-->
  <defs id="genericDefs"/>
  <g>
    <defs id="defs1">
      <clipPath clipPathUnits="userSpaceOnUse" id="clipPath1">
        <path d="M0 0 L547 0 L547 497 L0 497 L0 0 Z"/>
      </clipPath>
      <clipPath clipPathUnits="userSpaceOnUse" id="clipPath2">
        <path d="M-789 -653 L-242 -653 L-242 -156 L-789 -156 L-789 -653 Z"/>
      </clipPath>
      <clipPath clipPathUnits="userSpaceOnUse" id="clipPath3">
        <path d="M-431 -454 L-431 -338 L-257 -338 L-257 -454 Z"/>
      </clipPath>
      <clipPath clipPathUnits="userSpaceOnUse" id="clipPath4">
        <path d="M-773 -454 L-773 -325 L-560 -325 L-560 -454 Z"/>
      </clipPath>
      <clipPath clipPathUnits="userSpaceOnUse" id="clipPath5">
        <path d="M0 0 L0 30 L119 30 L119 0 Z"/>
      </clipPath>
      <clipPath clipPathUnits="userSpaceOnUse" id="clipPath6">
        <path d="M-586 -637 L-586 -563 L-432 -563 L-432 -637 Z"/>
      </clipPath>
    </defs>
    <g fill="white" text-rendering="geometricPrecision" shape-rendering="geometricPrecision" transform="translate(789,653)" stroke="white">
      <rect x="-789" width="547" height="497" y="-653" clip-path="url(#clipPath2)" stroke="none"/>
    </g>
    <g fill="rgb(255,255,204)" text-rendering="geometricPrecision" shape-rendering="geometricPrecision" transform="matrix(1,0,0,1,789,653)" stroke="rgb(255,255,204)">
      <rect x="-431.5" width="174" height="117" y="-454" clip-path="url(#clipPath2)" stroke="none"/>
    </g>
    <g text-rendering="geometricPrecision" stroke-miterlimit="1.45" shape-rendering="geometricPrecision" transform="matrix(1,0,0,1,789,653)" stroke-linecap="butt">
      <rect fill="none" x="-431.5" width="174" height="117" y="-454" clip-path="url(#clipPath2)"/>
      <text x="-407.3545" font-size="13px" y="-436.4316" clip-path="url(#clipPath3)" font-family="sans-serif" stroke="none" font-weight="bold" xml:space="preserve">WineInventoryItem</text>
      <line stroke-linecap="square" clip-path="url(#clipPath3)" fill="none" x1="-430" x2="-258" y1="-428" y2="-428" stroke-miterlimit="10"/>
      <text x="-426.5" xml:space="preserve" y="-412.0879" clip-path="url(#clipPath3)" font-family="sans-serif" stroke="none">quantity : int</text>
      <text x="-426.5" xml:space="preserve" y="-397.9551" clip-path="url(#clipPath3)" font-family="sans-serif" stroke="none">price : int</text>
      <line stroke-linecap="square" clip-path="url(#clipPath3)" fill="none" x1="-430" x2="-258" y1="-390" y2="-390" stroke-miterlimit="10"/>
    </g>
    <g fill="rgb(255,255,204)" text-rendering="geometricPrecision" shape-rendering="geometricPrecision" transform="matrix(1,0,0,1,789,653)" stroke="rgb(255,255,204)">
      <rect x="-773" width="213" height="129" y="-454" clip-path="url(#clipPath2)" stroke="none"/>
    </g>
    <g text-rendering="geometricPrecision" stroke-miterlimit="1.45" shape-rendering="geometricPrecision" transform="matrix(1,0,0,1,789,653)" stroke-linecap="butt">
      <rect fill="none" x="-773" width="213" height="129" y="-454" clip-path="url(#clipPath2)"/>
      <text x="-698.29" xml:space="preserve" y="-437.3984" clip-path="url(#clipPath4)" font-family="sans-serif" stroke="none">&lt;&lt;final&gt;&gt;</text>
      <text x="-694.7788" font-size="13px" y="-413.2988" clip-path="url(#clipPath4)" font-family="sans-serif" stroke="none" font-weight="bold" xml:space="preserve">WineKey</text>
      <line stroke-linecap="square" clip-path="url(#clipPath4)" fill="none" x1="-772" x2="-561" y1="-405" y2="-405" stroke-miterlimit="10"/>
      <text x="-768" xml:space="preserve" y="-388.9551" clip-path="url(#clipPath4)" font-family="sans-serif" stroke="none">name : String</text>
      <text x="-768" xml:space="preserve" y="-374.8223" clip-path="url(#clipPath4)" font-family="sans-serif" stroke="none">year : Int</text>
      <line stroke-linecap="square" clip-path="url(#clipPath4)" fill="none" x1="-772" x2="-561" y1="-367" y2="-367" stroke-miterlimit="10"/>
      <text x="-768" xml:space="preserve" y="-350.6895" clip-path="url(#clipPath4)" font-family="sans-serif" stroke="none">equals(Object other) : Boolean</text>
      <text x="-768" xml:space="preserve" y="-336.5566" clip-path="url(#clipPath4)" font-family="sans-serif" stroke="none">hashCode() : int</text>
    </g>
    <g fill="white" text-rendering="geometricPrecision" shape-rendering="geometricPrecision" transform="matrix(1,0,0,1,789,653)" stroke="white">
      <path d="M-560 -422 L-530 -422 L-537.5 -392 L-552.5 -392 Z" fill-rule="evenodd" clip-path="url(#clipPath2)" stroke="none"/>
      <path fill="none" stroke-miterlimit="1.45" d="M-560 -422 L-530 -422 L-537.5 -392 L-552.5 -392 Z" fill-rule="evenodd" clip-path="url(#clipPath2)" stroke-linecap="butt"/>
    </g>
    <g text-rendering="geometricPrecision" stroke-miterlimit="1.45" shape-rendering="geometricPrecision" font-family="sans-serif" transform="matrix(1,0,0,1,789,653)" stroke-linecap="butt">
      <text x="-548.7939" xml:space="preserve" y="-402.4648" clip-path="url(#clipPath2)" stroke="none">1</text>
    </g>
    <g fill="white" text-rendering="geometricPrecision" shape-rendering="geometricPrecision" transform="matrix(1,0,0,1,789,653)" stroke="white">
      <path d="M-461.5 -422 L-431.5 -422 L-439 -392 L-454 -392 Z" fill-rule="evenodd" clip-path="url(#clipPath2)" stroke="none"/>
      <path fill="none" stroke-miterlimit="1.45" d="M-461.5 -422 L-431.5 -422 L-439 -392 L-454 -392 Z" fill-rule="evenodd" clip-path="url(#clipPath2)" stroke-linecap="butt"/>
    </g>
    <g text-rendering="geometricPrecision" stroke-miterlimit="1.45" shape-rendering="geometricPrecision" font-family="sans-serif" transform="matrix(1,0,0,1,789,653)" stroke-linecap="butt">
      <text x="-450.2939" xml:space="preserve" y="-402.4648" clip-path="url(#clipPath2)" stroke="none">1</text>
    </g>
    <g fill="rgb(255,204,0)" text-rendering="geometricPrecision" shape-rendering="geometricPrecision" transform="matrix(1,0,0,1,789,653)" stroke="rgb(255,204,0)">
      <path d="M-761.5 -236 L-620.5 -236 L-620.5 -221 L-605.5 -221 L-605.5 -171 L-761.5 -171 Z" stroke="none" clip-path="url(#clipPath2)"/>
      <path fill="white" d="M-620.5 -236 L-620.5 -221 L-605.5 -221 Z" clip-path="url(#clipPath2)" fill-rule="evenodd" stroke="none"/>
    </g>
    <g text-rendering="geometricPrecision" stroke-miterlimit="1.45" shape-rendering="geometricPrecision" transform="matrix(1,0,0,1,789,653)" stroke-linecap="butt">
      <path fill="none" d="M-761.5 -236 L-620.5 -236 L-620.5 -221 L-605.5 -221 L-605.5 -171 L-761.5 -171 Z" clip-path="url(#clipPath2)"/>
      <path fill="none" d="M-620.5 -236 L-620.5 -221 L-605.5 -221 Z" clip-path="url(#clipPath2)" fill-rule="evenodd"/>
      <text x="-744.3027" xml:space="preserve" y="-206.0312" clip-path="url(#clipPath2)" font-family="sans-serif" stroke="none">Implements equals(),</text>
      <text x="-716.1777" xml:space="preserve" y="-191.8984" clip-path="url(#clipPath2)" font-family="sans-serif" stroke="none">hashCode()</text>
    </g>
    <g fill="rgb(255,204,0)" text-rendering="geometricPrecision" shape-rendering="geometricPrecision" transform="matrix(1,0,0,1,789,653)" stroke="rgb(255,204,0)">
      <path d="M-421 -236 L-280 -236 L-280 -221 L-265 -221 L-265 -171 L-421 -171 Z" stroke="none" clip-path="url(#clipPath2)"/>
      <path fill="white" d="M-280 -236 L-280 -221 L-265 -221 Z" clip-path="url(#clipPath2)" fill-rule="evenodd" stroke="none"/>
    </g>
    <g text-rendering="geometricPrecision" stroke-miterlimit="1.45" shape-rendering="geometricPrecision" transform="matrix(1,0,0,1,789,653)" stroke-linecap="butt">
      <path fill="none" d="M-421 -236 L-280 -236 L-280 -221 L-265 -221 L-265 -171 L-421 -171 Z" clip-path="url(#clipPath2)"/>
      <path fill="none" d="M-280 -236 L-280 -221 L-265 -221 Z" clip-path="url(#clipPath2)" fill-rule="evenodd"/>
    </g>
    <g text-rendering="geometricPrecision" stroke-miterlimit="1.45" shape-rendering="geometricPrecision" font-family="sans-serif" transform="matrix(1,0,0,1,789,653) translate(-402,-218)" stroke-linecap="butt">
      <text x="0" xml:space="preserve" y="12" clip-path="url(#clipPath5)" stroke="none">Does </text>
      <text x="33" xml:space="preserve" y="12" clip-path="url(#clipPath5)" font-weight="bold" stroke="none">not</text>
      <text x="54" xml:space="preserve" y="12" clip-path="url(#clipPath5)" stroke="none"> implement</text>
      <text x="119" xml:space="preserve" y="12" clip-path="url(#clipPath5)" stroke="none"> </text>
      <text x="0" xml:space="preserve" y="27" clip-path="url(#clipPath5)" stroke="none">equals(), hashCode()</text>
    </g>
    <g fill="rgb(255,255,204)" text-rendering="geometricPrecision" shape-rendering="geometricPrecision" transform="matrix(1,0,0,1,789,653)" stroke="rgb(255,255,204)">
      <rect x="-586" width="154.5" height="74" y="-637" clip-path="url(#clipPath2)" stroke="none"/>
    </g>
    <g text-rendering="geometricPrecision" stroke-miterlimit="1.45" shape-rendering="geometricPrecision" transform="matrix(1,0,0,1,789,653)" stroke-linecap="butt">
      <rect fill="none" x="-586" width="154.5" height="74" y="-637" clip-path="url(#clipPath2)"/>
      <text x="-539.6155" font-size="13px" y="-619.4316" clip-path="url(#clipPath6)" font-family="sans-serif" stroke="none" font-weight="bold" xml:space="preserve">HashMap</text>
      <line stroke-linecap="square" clip-path="url(#clipPath6)" fill="none" x1="-585" x2="-432" y1="-611" y2="-611" stroke-miterlimit="10"/>
      <text x="-581" xml:space="preserve" y="-595.0879" clip-path="url(#clipPath6)" font-family="sans-serif" stroke="none"> </text>
      <line stroke-linecap="square" clip-path="url(#clipPath6)" fill="none" x1="-585" x2="-432" y1="-587" y2="-587" stroke-miterlimit="10"/>
      <text x="-581" xml:space="preserve" y="-570.9551" clip-path="url(#clipPath6)" font-family="sans-serif" stroke="none"> </text>
      <path fill="none" d="M-438.4844 -393.7487 L-559.9804 -391.4848" clip-path="url(#clipPath2)"/>
      <path fill="white" d="M-431.4856 -393.8792 L-438.3912 -388.7496 L-445.4832 -393.6183 L-438.5775 -398.7479 Z" clip-path="url(#clipPath2)" stroke="none"/>
      <path fill="none" d="M-431.4856 -393.8792 L-438.3912 -388.7496 L-445.4832 -393.6183 L-438.5775 -398.7479 Z" clip-path="url(#clipPath2)"/>
      <path fill="none" stroke-dasharray="6,2" d="M-680.5325 -235.9683 L-672.8511 -320.0119" clip-path="url(#clipPath2)"/>
      <path stroke-dasharray="6,2" d="M-672.487 -323.9953 L-679.5543 -312.5912 L-672.487 -323.9953 L-667.6041 -311.4991 Z" clip-path="url(#clipPath2)" stroke="none"/>
      <path fill="none" stroke-miterlimit="10" d="M-672.487 -323.9953 L-679.5543 -312.5912 L-672.487 -323.9953 L-667.6041 -311.4991 Z" clip-path="url(#clipPath2)" stroke-linecap="square"/>
      <path fill="none" stroke-dasharray="6,2" d="M-343.2538 -235.9844 L-344.0037 -331.9669" clip-path="url(#clipPath2)"/>
      <path stroke-dasharray="6,2" d="M-344.0349 -335.9668 L-349.941 -323.9203 L-344.0349 -335.9668 L-337.9413 -324.0141 Z" clip-path="url(#clipPath2)" stroke="none"/>
      <path fill="none" stroke-miterlimit="10" d="M-344.0349 -335.9668 L-349.941 -323.9203 L-344.0349 -335.9668 L-337.9413 -324.0141 Z" clip-path="url(#clipPath2)" stroke-linecap="square"/>
      <path fill="none" d="M-536.4603 -563.0237 L-613.3661 -460.4013" clip-path="url(#clipPath2)"/>
      <path d="M-618.1637 -453.9995 L-606.9662 -460.6038 L-612.7664 -461.2015 L-614.9685 -466.6007 Z" clip-path="url(#clipPath2)" stroke="none"/>
      <text x="-626.3824" xml:space="preserve" y="-505.9271" clip-path="url(#clipPath2)" font-family="sans-serif" stroke="none">keys</text>
      <path fill="none" d="M-479.0158 -562.9793 L-396.4883 -460.2283" clip-path="url(#clipPath2)"/>
      <path d="M-391.4787 -453.991 L-395.0948 -466.4779 L-397.1146 -461.0079 L-402.8914 -460.2159 Z" clip-path="url(#clipPath2)" stroke="none"/>
      <text x="-490.1205" xml:space="preserve" y="-501.605" clip-path="url(#clipPath2)" font-family="sans-serif" stroke="none">values</text>
    </g>
  </g>
</svg>
