<?xml version="1.0" encoding="UTF-8"?><svg xmlns="http://www.w3.org/2000/svg" xmlns:xlink="http://www.w3.org/1999/xlink" fill-opacity="1" color-rendering="auto" color-interpolation="auto" text-rendering="auto" stroke="black" stroke-linecap="square" width="489" stroke-miterlimit="10" shape-rendering="auto" stroke-opacity="1" fill="black" stroke-dasharray="none" font-weight="normal" stroke-width="1" height="432" font-family="'Dialog'" font-style="normal" stroke-linejoin="miter" font-size="12px" stroke-dashoffset="0" image-rendering="auto">
  <!--Generated by ySVG 2.5-->
  <defs id="genericDefs"/>
  <g>
    <defs id="defs1">
      <clipPath clipPathUnits="userSpaceOnUse" id="clipPath1">
        <path d="M0 0 L489 0 L489 432 L0 432 L0 0 Z"/>
      </clipPath>
      <clipPath clipPathUnits="userSpaceOnUse" id="clipPath2">
        <path d="M-1586 -1047 L-1097 -1047 L-1097 -615 L-1586 -615 L-1586 -1047 Z"/>
      </clipPath>
      <clipPath clipPathUnits="userSpaceOnUse" id="clipPath3">
        <path d="M-1570 -1032 L-1570 -957 L-1452 -957 L-1452 -1032 Z"/>
      </clipPath>
      <clipPath clipPathUnits="userSpaceOnUse" id="clipPath4">
        <path d="M-1326 -1032 L-1326 -933 L-1208 -933 L-1208 -1032 Z"/>
      </clipPath>
      <clipPath clipPathUnits="userSpaceOnUse" id="clipPath5">
        <path d="M-1443 -866 L-1443 -767 L-1312 -767 L-1312 -866 Z"/>
      </clipPath>
      <clipPath clipPathUnits="userSpaceOnUse" id="clipPath6">
        <path d="M-1230 -872 L-1230 -773 L-1112 -773 L-1112 -872 Z"/>
      </clipPath>
      <clipPath clipPathUnits="userSpaceOnUse" id="clipPath7">
        <path d="M-1549 -711 L-1549 -631 L-1436 -631 L-1436 -711 Z"/>
      </clipPath>
      <clipPath clipPathUnits="userSpaceOnUse" id="clipPath8">
        <path d="M-1334 -711 L-1334 -631 L-1216 -631 L-1216 -711 Z"/>
      </clipPath>
    </defs>
    <g fill="white" text-rendering="geometricPrecision" shape-rendering="geometricPrecision" transform="translate(1586,1047)" stroke="white">
      <rect x="-1586" width="489" height="432" y="-1047" clip-path="url(#clipPath2)" stroke="none"/>
    </g>
    <g fill="rgb(255,255,204)" text-rendering="geometricPrecision" shape-rendering="geometricPrecision" transform="matrix(1,0,0,1,1586,1047)" stroke="rgb(255,255,204)">
      <rect x="-1570" width="118" height="76" y="-1032" clip-path="url(#clipPath2)" stroke="none"/>
    </g>
    <g text-rendering="geometricPrecision" stroke-miterlimit="1.45" shape-rendering="geometricPrecision" transform="matrix(1,0,0,1,1586,1047)" stroke-linecap="butt">
      <rect fill="none" x="-1570" width="118" height="76" y="-1032" clip-path="url(#clipPath2)"/>
      <text x="-1550.6824" font-size="13px" y="-1014.4316" clip-path="url(#clipPath3)" font-family="sans-serif" stroke="none" font-weight="bold" xml:space="preserve">WorldModel</text>
      <line stroke-linecap="square" clip-path="url(#clipPath3)" fill="none" x1="-1569" x2="-1453" y1="-1006" y2="-1006" stroke-miterlimit="10"/>
      <text x="-1565" xml:space="preserve" y="-990.0879" clip-path="url(#clipPath3)" font-family="sans-serif" stroke="none"> </text>
      <line stroke-linecap="square" clip-path="url(#clipPath3)" fill="none" x1="-1569" x2="-1453" y1="-982" y2="-982" stroke-miterlimit="10"/>
      <text x="-1565" xml:space="preserve" y="-965.9551" clip-path="url(#clipPath3)" font-family="sans-serif" stroke="none"> scheduleActions()</text>
    </g>
    <g fill="rgb(255,255,204)" text-rendering="geometricPrecision" shape-rendering="geometricPrecision" transform="matrix(1,0,0,1,1586,1047)" stroke="rgb(255,255,204)">
      <rect x="-1326" width="118" height="100" y="-1032" clip-path="url(#clipPath2)" stroke="none"/>
    </g>
    <g text-rendering="geometricPrecision" stroke-miterlimit="1.45" shape-rendering="geometricPrecision" transform="matrix(1,0,0,1,1586,1047)" stroke-linecap="butt">
      <rect fill="none" x="-1326" width="118" height="100" y="-1032" clip-path="url(#clipPath2)"/>
      <text x="-1309.5566" xml:space="preserve" y="-1015.3984" clip-path="url(#clipPath4)" font-family="sans-serif" stroke="none">&lt;&lt;abstract&gt;&gt;</text>
      <text x="-1286.3445" font-size="13px" y="-991.2988" clip-path="url(#clipPath4)" font-family="sans-serif" stroke="none" font-weight="bold" xml:space="preserve">Entity</text>
      <line stroke-linecap="square" clip-path="url(#clipPath4)" fill="none" x1="-1325" x2="-1209" y1="-983" y2="-983" stroke-miterlimit="10"/>
      <text x="-1321" xml:space="preserve" y="-966.9551" clip-path="url(#clipPath4)" font-family="sans-serif" stroke="none"> </text>
      <line stroke-linecap="square" clip-path="url(#clipPath4)" fill="none" x1="-1325" x2="-1209" y1="-959" y2="-959" stroke-miterlimit="10"/>
      <text x="-1321" xml:space="preserve" y="-942.8223" clip-path="url(#clipPath4)" font-family="sans-serif" stroke="none"> </text>
    </g>
    <g fill="rgb(255,255,204)" text-rendering="geometricPrecision" shape-rendering="geometricPrecision" transform="matrix(1,0,0,1,1586,1047)" stroke="rgb(255,255,204)">
      <rect x="-1443" width="131" height="100" y="-867" clip-path="url(#clipPath2)" stroke="none"/>
    </g>
    <g text-rendering="geometricPrecision" stroke-miterlimit="1.45" shape-rendering="geometricPrecision" transform="matrix(1,0,0,1,1586,1047)" stroke-linecap="butt">
      <rect fill="none" x="-1443" width="131" height="100" y="-867" clip-path="url(#clipPath2)"/>
      <text x="-1420.0566" xml:space="preserve" y="-850.3984" clip-path="url(#clipPath5)" font-family="sans-serif" stroke="none">&lt;&lt;abstract&gt;&gt;</text>
      <text x="-1436.8347" font-size="13px" y="-826.2988" clip-path="url(#clipPath5)" font-family="sans-serif" stroke="none" font-weight="bold" xml:space="preserve">SchedulableEntity</text>
      <line stroke-linecap="square" clip-path="url(#clipPath5)" fill="none" x1="-1442" x2="-1313" y1="-818" y2="-818" stroke-miterlimit="10"/>
      <text x="-1438" xml:space="preserve" y="-801.9551" clip-path="url(#clipPath5)" font-family="sans-serif" stroke="none"> </text>
      <line stroke-linecap="square" clip-path="url(#clipPath5)" fill="none" x1="-1442" x2="-1313" y1="-794" y2="-794" stroke-miterlimit="10"/>
      <text x="-1438" xml:space="preserve" y="-777.8223" clip-path="url(#clipPath5)" font-family="sans-serif" stroke="none"> scheduleActions()</text>
    </g>
    <g fill="rgb(255,255,204)" text-rendering="geometricPrecision" shape-rendering="geometricPrecision" transform="matrix(1,0,0,1,1586,1047)" stroke="rgb(255,255,204)">
      <rect x="-1230" width="118" height="100" y="-873" clip-path="url(#clipPath2)" stroke="none"/>
    </g>
    <g text-rendering="geometricPrecision" stroke-miterlimit="1.45" shape-rendering="geometricPrecision" transform="matrix(1,0,0,1,1586,1047)" stroke-linecap="butt">
      <rect fill="none" x="-1230" width="118" height="100" y="-873" clip-path="url(#clipPath2)"/>
      <text x="-1213.5566" xml:space="preserve" y="-856.3984" clip-path="url(#clipPath6)" font-family="sans-serif" stroke="none">&lt;&lt;abstract&gt;&gt;</text>
      <text x="-1175.8179" font-size="13px" y="-832.2988" clip-path="url(#clipPath6)" font-family="sans-serif" stroke="none" font-weight="bold" xml:space="preserve">...</text>
      <line stroke-linecap="square" clip-path="url(#clipPath6)" fill="none" x1="-1229" x2="-1113" y1="-824" y2="-824" stroke-miterlimit="10"/>
      <text x="-1225" xml:space="preserve" y="-807.9551" clip-path="url(#clipPath6)" font-family="sans-serif" stroke="none"> </text>
      <line stroke-linecap="square" clip-path="url(#clipPath6)" fill="none" x1="-1229" x2="-1113" y1="-800" y2="-800" stroke-miterlimit="10"/>
    </g>
    <g fill="rgb(255,255,204)" text-rendering="geometricPrecision" shape-rendering="geometricPrecision" transform="matrix(1,0,0,1,1586,1047)" stroke="rgb(255,255,204)">
      <rect x="-1549" width="113" height="81" y="-712" clip-path="url(#clipPath2)" stroke="none"/>
    </g>
    <g text-rendering="geometricPrecision" stroke-miterlimit="1.45" shape-rendering="geometricPrecision" transform="matrix(1,0,0,1,1586,1047)" stroke-linecap="butt">
      <rect fill="none" x="-1549" width="113" height="81" y="-712" clip-path="url(#clipPath2)"/>
      <text x="-1497.3179" font-size="13px" y="-694.4316" clip-path="url(#clipPath7)" font-family="sans-serif" stroke="none" font-weight="bold" xml:space="preserve">...</text>
      <line stroke-linecap="square" clip-path="url(#clipPath7)" fill="none" x1="-1548" x2="-1437" y1="-686" y2="-686" stroke-miterlimit="10"/>
      <text x="-1544" xml:space="preserve" y="-670.0879" clip-path="url(#clipPath7)" font-family="sans-serif" stroke="none"> </text>
      <line stroke-linecap="square" clip-path="url(#clipPath7)" fill="none" x1="-1548" x2="-1437" y1="-662" y2="-662" stroke-miterlimit="10"/>
    </g>
    <g fill="rgb(255,255,204)" text-rendering="geometricPrecision" shape-rendering="geometricPrecision" transform="matrix(1,0,0,1,1586,1047)" stroke="rgb(255,255,204)">
      <rect x="-1334" width="118" height="81" y="-712" clip-path="url(#clipPath2)" stroke="none"/>
    </g>
    <g text-rendering="geometricPrecision" stroke-miterlimit="1.45" shape-rendering="geometricPrecision" transform="matrix(1,0,0,1,1586,1047)" stroke-linecap="butt">
      <rect fill="none" x="-1334" width="118" height="81" y="-712" clip-path="url(#clipPath2)"/>
      <text x="-1279.8179" font-size="13px" y="-694.4316" clip-path="url(#clipPath8)" font-family="sans-serif" stroke="none" font-weight="bold" xml:space="preserve">...</text>
      <line stroke-linecap="square" clip-path="url(#clipPath8)" fill="none" x1="-1333" x2="-1217" y1="-686" y2="-686" stroke-miterlimit="10"/>
      <text x="-1329" xml:space="preserve" y="-670.0879" clip-path="url(#clipPath8)" font-family="sans-serif" stroke="none"> </text>
      <line stroke-linecap="square" clip-path="url(#clipPath8)" fill="none" x1="-1333" x2="-1217" y1="-662" y2="-662" stroke-miterlimit="10"/>
      <path fill="none" d="M-1444.9794 -994 L-1334.0026 -994" clip-path="url(#clipPath2)"/>
      <path fill="white" d="M-1451.9794 -994 L-1444.9794 -999 L-1437.9794 -994 L-1444.9794 -989 Z" clip-path="url(#clipPath2)" stroke="none"/>
      <path fill="none" d="M-1451.9794 -994 L-1444.9794 -999 L-1437.9794 -994 L-1444.9794 -989 Z" clip-path="url(#clipPath2)"/>
      <path d="M-1326.0026 -994 L-1338.0026 -999 L-1335.0026 -994 L-1338.0026 -989 Z" clip-path="url(#clipPath2)" stroke="none"/>
      <text x="-1355.8984" xml:space="preserve" y="-996.5312" clip-path="url(#clipPath2)" font-family="sans-serif" stroke="none"> </text>
      <text x="-1357.7236" xml:space="preserve" y="-982.3984" clip-path="url(#clipPath2)" font-family="sans-serif" stroke="none">n</text>
      <path fill="none" d="M-1377.5 -866.989 L-1377.5 -894.5 L-1267 -894.5 L-1267 -916.9695" clip-path="url(#clipPath2)"/>
      <path fill="white" d="M-1267 -931.9695 L-1273 -915.9695 L-1261 -915.9695 Z" clip-path="url(#clipPath2)" stroke="none"/>
      <path fill="none" d="M-1267 -931.9695 L-1273 -915.9695 L-1261 -915.9695 Z" clip-path="url(#clipPath2)"/>
      <path fill="none" d="M-1171 -873.0291 L-1171 -894.5 L-1267 -894.5 L-1267 -916.9695" clip-path="url(#clipPath2)"/>
      <path fill="white" d="M-1267 -931.9695 L-1273 -915.9695 L-1261 -915.9695 Z" clip-path="url(#clipPath2)" stroke="none"/>
      <path fill="none" d="M-1267 -931.9695 L-1273 -915.9695 L-1261 -915.9695 Z" clip-path="url(#clipPath2)"/>
      <path fill="none" d="M-1492.5 -711.9683 L-1492.5 -738.5 L-1377.5 -738.5 L-1377.5 -751.9792" clip-path="url(#clipPath2)"/>
      <path fill="white" d="M-1377.5 -766.9792 L-1383.5 -750.9792 L-1371.5 -750.9792 Z" clip-path="url(#clipPath2)" stroke="none"/>
      <path fill="none" d="M-1377.5 -766.9792 L-1383.5 -750.9792 L-1371.5 -750.9792 Z" clip-path="url(#clipPath2)"/>
      <path fill="none" d="M-1275 -711.9683 L-1275 -738.5 L-1377.5 -738.5 L-1377.5 -751.9792" clip-path="url(#clipPath2)"/>
      <path fill="white" d="M-1377.5 -766.9792 L-1383.5 -750.9792 L-1371.5 -750.9792 Z" clip-path="url(#clipPath2)" stroke="none"/>
      <path fill="none" d="M-1377.5 -766.9792 L-1383.5 -750.9792 L-1371.5 -750.9792 Z" clip-path="url(#clipPath2)"/>
    </g>
  </g>
</svg>
