<?xml version="1.0" encoding="UTF-8"?><svg xmlns="http://www.w3.org/2000/svg" xmlns:xlink="http://www.w3.org/1999/xlink" fill-opacity="1" color-rendering="auto" color-interpolation="auto" text-rendering="auto" stroke="black" stroke-linecap="square" width="529" stroke-miterlimit="10" shape-rendering="auto" stroke-opacity="1" fill="black" stroke-dasharray="none" font-weight="normal" stroke-width="1" height="432" font-family="'Dialog'" font-style="normal" stroke-linejoin="miter" font-size="12px" stroke-dashoffset="0" image-rendering="auto">
  <!--Generated by ySVG 2.5-->
  <defs id="genericDefs"/>
  <g>
    <defs id="defs1">
      <clipPath clipPathUnits="userSpaceOnUse" id="clipPath1">
        <path d="M0 0 L529 0 L529 432 L0 432 L0 0 Z"/>
      </clipPath>
      <clipPath clipPathUnits="userSpaceOnUse" id="clipPath2">
        <path d="M-1601 -1047 L-1072 -1047 L-1072 -615 L-1601 -615 L-1601 -1047 Z"/>
      </clipPath>
      <clipPath clipPathUnits="userSpaceOnUse" id="clipPath3">
        <path d="M-1585 -1032 L-1585 -958 L-1431 -958 L-1431 -1032 Z"/>
      </clipPath>
      <clipPath clipPathUnits="userSpaceOnUse" id="clipPath4">
        <path d="M-1333 -1032 L-1333 -933 L-1172 -933 L-1172 -1032 Z"/>
      </clipPath>
      <clipPath clipPathUnits="userSpaceOnUse" id="clipPath5">
        <path d="M0 0 L0 15 L138 15 L138 0 Z"/>
      </clipPath>
      <clipPath clipPathUnits="userSpaceOnUse" id="clipPath6">
        <path d="M-1450 -884 L-1450 -773 L-1304 -773 L-1304 -884 Z"/>
      </clipPath>
      <clipPath clipPathUnits="userSpaceOnUse" id="clipPath7">
        <path d="M-1233 -872 L-1233 -773 L-1087 -773 L-1087 -872 Z"/>
      </clipPath>
      <clipPath clipPathUnits="userSpaceOnUse" id="clipPath8">
        <path d="M-1549 -711 L-1549 -631 L-1436 -631 L-1436 -711 Z"/>
      </clipPath>
      <clipPath clipPathUnits="userSpaceOnUse" id="clipPath9">
        <path d="M-1334 -711 L-1334 -631 L-1216 -631 L-1216 -711 Z"/>
      </clipPath>
    </defs>
    <g fill="white" text-rendering="geometricPrecision" shape-rendering="geometricPrecision" transform="translate(1601,1047)" stroke="white">
      <rect x="-1601" width="529" height="432" y="-1047" clip-path="url(#clipPath2)" stroke="none"/>
    </g>
    <g fill="rgb(255,255,204)" text-rendering="geometricPrecision" shape-rendering="geometricPrecision" transform="matrix(1,0,0,1,1601,1047)" stroke="rgb(255,255,204)">
      <rect x="-1585" width="155" height="75" y="-1032" clip-path="url(#clipPath2)" stroke="none"/>
    </g>
    <g text-rendering="geometricPrecision" stroke-miterlimit="1.45" shape-rendering="geometricPrecision" transform="matrix(1,0,0,1,1601,1047)" stroke-linecap="butt">
      <rect fill="none" x="-1585" width="155" height="75" y="-1032" clip-path="url(#clipPath2)"/>
      <text x="-1547.1824" font-size="13px" y="-1014.4316" clip-path="url(#clipPath3)" font-family="sans-serif" stroke="none" font-weight="bold" xml:space="preserve">WorldModel</text>
      <line stroke-linecap="square" clip-path="url(#clipPath3)" fill="none" x1="-1584" x2="-1431" y1="-1006" y2="-1006" stroke-miterlimit="10"/>
      <text x="-1580" xml:space="preserve" y="-990.0879" clip-path="url(#clipPath3)" font-family="sans-serif" stroke="none"> </text>
      <line stroke-linecap="square" clip-path="url(#clipPath3)" fill="none" x1="-1584" x2="-1431" y1="-982" y2="-982" stroke-miterlimit="10"/>
      <text x="-1580" xml:space="preserve" y="-965.9551" clip-path="url(#clipPath3)" font-family="sans-serif" stroke="none"> scheduleInitialActions()</text>
    </g>
    <g fill="rgb(255,255,204)" text-rendering="geometricPrecision" shape-rendering="geometricPrecision" transform="matrix(1,0,0,1,1601,1047)" stroke="rgb(255,255,204)">
      <rect x="-1333.5" width="161" height="100" y="-1032" clip-path="url(#clipPath2)" stroke="none"/>
    </g>
    <g text-rendering="geometricPrecision" stroke-miterlimit="1.45" shape-rendering="geometricPrecision" transform="matrix(1,0,0,1,1601,1047)" stroke-linecap="butt">
      <rect fill="none" x="-1333.5" width="161" height="100" y="-1032" clip-path="url(#clipPath2)"/>
      <text x="-1295.5566" xml:space="preserve" y="-1015.3984" clip-path="url(#clipPath4)" font-family="sans-serif" stroke="none">&lt;&lt;abstract&gt;&gt;</text>
      <text x="-1272.3445" font-size="13px" y="-991.2988" clip-path="url(#clipPath4)" font-family="sans-serif" stroke="none" font-weight="bold" xml:space="preserve">Entity</text>
      <line stroke-linecap="square" clip-path="url(#clipPath4)" fill="none" x1="-1332" x2="-1173" y1="-983" y2="-983" stroke-miterlimit="10"/>
      <text x="-1328.5" xml:space="preserve" y="-966.9551" clip-path="url(#clipPath4)" font-family="sans-serif" stroke="none"> </text>
      <line stroke-linecap="square" clip-path="url(#clipPath4)" fill="none" x1="-1332" x2="-1173" y1="-959" y2="-959" stroke-miterlimit="10"/>
    </g>
    <g stroke-linecap="butt" transform="matrix(1,0,0,1,1601,1047) translate(-1328,-954)" text-rendering="geometricPrecision" font-family="sans-serif" shape-rendering="geometricPrecision" font-style="italic" stroke-miterlimit="1.45">
      <text x="0" xml:space="preserve" y="12" clip-path="url(#clipPath5)" stroke="none">scheduleInitialActions()</text>
      <text font-style="normal" x="130" xml:space="preserve" y="12" clip-path="url(#clipPath5)" stroke="none">  </text>
    </g>
    <g fill="rgb(255,255,204)" text-rendering="geometricPrecision" shape-rendering="geometricPrecision" transform="matrix(1,0,0,1,1601,1047)" stroke="rgb(255,255,204)">
      <rect x="-1450.5" width="146" height="111.5" y="-884.5" clip-path="url(#clipPath2)" stroke="none"/>
    </g>
    <g text-rendering="geometricPrecision" stroke-miterlimit="1.45" shape-rendering="geometricPrecision" transform="matrix(1,0,0,1,1601,1047)" stroke-linecap="butt">
      <rect fill="none" x="-1450.5" width="146" height="111.5" y="-884.5" clip-path="url(#clipPath2)"/>
      <text x="-1420.0566" xml:space="preserve" y="-867.8984" clip-path="url(#clipPath6)" font-family="sans-serif" stroke="none">&lt;&lt;abstract&gt;&gt;</text>
      <text x="-1436.8347" font-size="13px" y="-843.7988" clip-path="url(#clipPath6)" font-family="sans-serif" stroke="none" font-weight="bold" xml:space="preserve">SchedulableEntity</text>
      <line stroke-linecap="square" clip-path="url(#clipPath6)" fill="none" x1="-1449" x2="-1305" y1="-836" y2="-836" stroke-miterlimit="10"/>
      <text x="-1445.5" xml:space="preserve" y="-819.4551" clip-path="url(#clipPath6)" font-family="sans-serif" stroke="none"> </text>
      <line stroke-linecap="square" clip-path="url(#clipPath6)" fill="none" x1="-1449" x2="-1305" y1="-811" y2="-811" stroke-miterlimit="10"/>
      <text x="-1445.5" xml:space="preserve" y="-795.3223" clip-path="url(#clipPath6)" font-family="sans-serif" stroke="none">scheduleInitialActions()</text>
      <text x="-1445.5" xml:space="preserve" y="-781.1895" clip-path="url(#clipPath6)" font-family="sans-serif" stroke="none">scheduleActions()</text>
    </g>
    <g fill="rgb(255,255,204)" text-rendering="geometricPrecision" shape-rendering="geometricPrecision" transform="matrix(1,0,0,1,1601,1047)" stroke="rgb(255,255,204)">
      <rect x="-1233" width="146" height="100" y="-873" clip-path="url(#clipPath2)" stroke="none"/>
    </g>
    <g text-rendering="geometricPrecision" stroke-miterlimit="1.45" shape-rendering="geometricPrecision" transform="matrix(1,0,0,1,1601,1047)" stroke-linecap="butt">
      <rect fill="none" x="-1233" width="146" height="100" y="-873" clip-path="url(#clipPath2)"/>
      <text x="-1202.5566" xml:space="preserve" y="-856.3984" clip-path="url(#clipPath7)" font-family="sans-serif" stroke="none">&lt;&lt;abstract&gt;&gt;</text>
      <text x="-1164.8179" font-size="13px" y="-832.2988" clip-path="url(#clipPath7)" font-family="sans-serif" stroke="none" font-weight="bold" xml:space="preserve">...</text>
      <line stroke-linecap="square" clip-path="url(#clipPath7)" fill="none" x1="-1232" x2="-1088" y1="-824" y2="-824" stroke-miterlimit="10"/>
      <text x="-1228" xml:space="preserve" y="-807.9551" clip-path="url(#clipPath7)" font-family="sans-serif" stroke="none"> </text>
      <line stroke-linecap="square" clip-path="url(#clipPath7)" fill="none" x1="-1232" x2="-1088" y1="-800" y2="-800" stroke-miterlimit="10"/>
      <text x="-1228" xml:space="preserve" y="-783.8223" clip-path="url(#clipPath7)" font-family="sans-serif" stroke="none">scheduleInitialActions()</text>
    </g>
    <g fill="rgb(255,255,204)" text-rendering="geometricPrecision" shape-rendering="geometricPrecision" transform="matrix(1,0,0,1,1601,1047)" stroke="rgb(255,255,204)">
      <rect x="-1549" width="113" height="81" y="-712" clip-path="url(#clipPath2)" stroke="none"/>
    </g>
    <g text-rendering="geometricPrecision" stroke-miterlimit="1.45" shape-rendering="geometricPrecision" transform="matrix(1,0,0,1,1601,1047)" stroke-linecap="butt">
      <rect fill="none" x="-1549" width="113" height="81" y="-712" clip-path="url(#clipPath2)"/>
      <text x="-1497.3179" font-size="13px" y="-694.4316" clip-path="url(#clipPath8)" font-family="sans-serif" stroke="none" font-weight="bold" xml:space="preserve">...</text>
      <line stroke-linecap="square" clip-path="url(#clipPath8)" fill="none" x1="-1548" x2="-1437" y1="-686" y2="-686" stroke-miterlimit="10"/>
      <text x="-1544" xml:space="preserve" y="-670.0879" clip-path="url(#clipPath8)" font-family="sans-serif" stroke="none"> </text>
      <line stroke-linecap="square" clip-path="url(#clipPath8)" fill="none" x1="-1548" x2="-1437" y1="-662" y2="-662" stroke-miterlimit="10"/>
    </g>
    <g fill="rgb(255,255,204)" text-rendering="geometricPrecision" shape-rendering="geometricPrecision" transform="matrix(1,0,0,1,1601,1047)" stroke="rgb(255,255,204)">
      <rect x="-1334" width="118" height="81" y="-712" clip-path="url(#clipPath2)" stroke="none"/>
    </g>
    <g text-rendering="geometricPrecision" stroke-miterlimit="1.45" shape-rendering="geometricPrecision" transform="matrix(1,0,0,1,1601,1047)" stroke-linecap="butt">
      <rect fill="none" x="-1334" width="118" height="81" y="-712" clip-path="url(#clipPath2)"/>
      <text x="-1279.8179" font-size="13px" y="-694.4316" clip-path="url(#clipPath9)" font-family="sans-serif" stroke="none" font-weight="bold" xml:space="preserve">...</text>
      <line stroke-linecap="square" clip-path="url(#clipPath9)" fill="none" x1="-1333" x2="-1217" y1="-686" y2="-686" stroke-miterlimit="10"/>
      <text x="-1329" xml:space="preserve" y="-670.0879" clip-path="url(#clipPath9)" font-family="sans-serif" stroke="none"> </text>
      <line stroke-linecap="square" clip-path="url(#clipPath9)" fill="none" x1="-1333" x2="-1217" y1="-662" y2="-662" stroke-miterlimit="10"/>
      <path fill="none" d="M-1423.0099 -994.3294 L-1341.4897 -994.1649" clip-path="url(#clipPath2)"/>
      <path fill="white" d="M-1430.0099 -994.3436 L-1422.9998 -999.3294 L-1416.0099 -994.3152 L-1423.02 -989.3294 Z" clip-path="url(#clipPath2)" stroke="none"/>
      <path fill="none" d="M-1430.0099 -994.3436 L-1422.9998 -999.3294 L-1416.0099 -994.3152 L-1423.02 -989.3294 Z" clip-path="url(#clipPath2)"/>
      <path d="M-1333.4897 -994.1487 L-1345.4796 -999.1729 L-1342.4897 -994.1669 L-1345.4998 -989.1729 Z" clip-path="url(#clipPath2)" stroke="none"/>
      <text x="-1358.5238" xml:space="preserve" y="-996.7267" clip-path="url(#clipPath2)" font-family="sans-serif" stroke="none"> </text>
      <text x="-1360.349" xml:space="preserve" y="-982.5939" clip-path="url(#clipPath2)" font-family="sans-serif" stroke="none">n</text>
      <path fill="none" d="M-1377.5 -884.5155 L-1377.5 -894.5 L-1253 -894.5 L-1253 -916.9695" clip-path="url(#clipPath2)"/>
      <path fill="white" d="M-1253 -931.9695 L-1259 -915.9695 L-1247 -915.9695 Z" clip-path="url(#clipPath2)" stroke="none"/>
      <path fill="none" d="M-1253 -931.9695 L-1259 -915.9695 L-1247 -915.9695 Z" clip-path="url(#clipPath2)"/>
      <path fill="none" d="M-1157.9009 -873.0291 L-1157 -894.5 L-1253 -894.5 L-1253 -916.9695" clip-path="url(#clipPath2)"/>
      <path fill="white" d="M-1253 -931.9695 L-1259 -915.9695 L-1247 -915.9695 Z" clip-path="url(#clipPath2)" stroke="none"/>
      <path fill="none" d="M-1253 -931.9695 L-1259 -915.9695 L-1247 -915.9695 Z" clip-path="url(#clipPath2)"/>
      <path fill="none" d="M-1492.5 -711.9683 L-1492.5 -738.5 L-1377.5 -738.5 L-1377.5 -758.0048" clip-path="url(#clipPath2)"/>
      <path fill="white" d="M-1377.5 -773.0048 L-1383.5 -757.0048 L-1371.5 -757.0048 Z" clip-path="url(#clipPath2)" stroke="none"/>
      <path fill="none" d="M-1377.5 -773.0048 L-1383.5 -757.0048 L-1371.5 -757.0048 Z" clip-path="url(#clipPath2)"/>
      <path fill="none" d="M-1275 -711.9683 L-1275 -738.5 L-1377.5 -738.5 L-1377.5 -758.0048" clip-path="url(#clipPath2)"/>
      <path fill="white" d="M-1377.5 -773.0048 L-1383.5 -757.0048 L-1371.5 -757.0048 Z" clip-path="url(#clipPath2)" stroke="none"/>
      <path fill="none" d="M-1377.5 -773.0048 L-1383.5 -757.0048 L-1371.5 -757.0048 Z" clip-path="url(#clipPath2)"/>
    </g>
  </g>
</svg>
