<?xml version="1.0" encoding="UTF-8"?><svg xmlns="http://www.w3.org/2000/svg" xmlns:xlink="http://www.w3.org/1999/xlink" fill-opacity="1" color-rendering="auto" color-interpolation="auto" text-rendering="auto" stroke="black" stroke-linecap="square" width="300" stroke-miterlimit="10" shape-rendering="auto" stroke-opacity="1" fill="black" stroke-dasharray="none" font-weight="normal" stroke-width="1" height="270" font-family="'Dialog'" font-style="normal" stroke-linejoin="miter" font-size="12px" stroke-dashoffset="0" image-rendering="auto">
  <!--Generated by ySVG 2.5-->
  <defs id="genericDefs"/>
  <g>
    <defs id="defs1">
      <clipPath clipPathUnits="userSpaceOnUse" id="clipPath1">
        <path d="M0 0 L300 0 L300 270 L0 270 L0 0 Z"/>
      </clipPath>
      <clipPath clipPathUnits="userSpaceOnUse" id="clipPath2">
        <path d="M-988 -869 L-688 -869 L-688 -599 L-988 -599 L-988 -869 Z"/>
      </clipPath>
      <clipPath clipPathUnits="userSpaceOnUse" id="clipPath3">
        <path d="M-940 -853 L-940 -756 L-735 -756 L-735 -853 Z"/>
      </clipPath>
      <clipPath clipPathUnits="userSpaceOnUse" id="clipPath4">
        <path d="M-972 -705 L-972 -614 L-703 -614 L-703 -705 Z"/>
      </clipPath>
      <clipPath clipPathUnits="userSpaceOnUse" id="clipPath5">
        <path d="M0 0 L0 30 L243 30 L243 0 Z"/>
      </clipPath>
    </defs>
    <g fill="white" text-rendering="geometricPrecision" shape-rendering="geometricPrecision" transform="translate(988,869)" stroke="white">
      <rect x="-988" width="300" height="270" y="-869" clip-path="url(#clipPath2)" stroke="none"/>
    </g>
    <g fill="rgb(255,255,204)" text-rendering="geometricPrecision" shape-rendering="geometricPrecision" transform="matrix(1,0,0,1,988,869)" stroke="rgb(255,255,204)">
      <rect x="-940.9104" width="205" height="97" y="-853.6" clip-path="url(#clipPath2)" stroke="none"/>
    </g>
    <g text-rendering="geometricPrecision" stroke-miterlimit="1.45" shape-rendering="geometricPrecision" transform="matrix(1,0,0,1,988,869)" stroke-linecap="butt">
      <rect fill="none" x="-940.9104" width="205" height="97" y="-853.6" clip-path="url(#clipPath2)"/>
      <text x="-856.1331" font-size="13px" y="-836.2474" clip-path="url(#clipPath3)" font-family="sans-serif" stroke="none" font-weight="bold" xml:space="preserve">Point</text>
      <line stroke-linecap="square" clip-path="url(#clipPath3)" fill="none" x1="-939" x2="-736" y1="-828" y2="-828" stroke-miterlimit="10"/>
      <text x="-935.9104" xml:space="preserve" y="-812.0712" clip-path="url(#clipPath3)" font-family="sans-serif" stroke="none">-x : final int</text>
      <text x="-935.9104" xml:space="preserve" y="-798.1083" clip-path="url(#clipPath3)" font-family="sans-serif" stroke="none">-y : final int</text>
      <line stroke-linecap="square" clip-path="url(#clipPath3)" fill="none" x1="-939" x2="-736" y1="-790" y2="-790" stroke-miterlimit="10"/>
      <text x="-935.9104" xml:space="preserve" y="-774.1454" clip-path="url(#clipPath3)" font-family="sans-serif" stroke="none">equals(Object other) : boolean</text>
      <text x="-935.9104" xml:space="preserve" y="-760.1825" clip-path="url(#clipPath3)" font-family="sans-serif" stroke="none">distanceTo(Point other) : float</text>
    </g>
    <g fill="rgb(255,255,204)" text-rendering="geometricPrecision" shape-rendering="geometricPrecision" transform="matrix(1,0,0,1,988,869)" stroke="rgb(255,255,204)">
      <rect x="-972.9104" width="269" height="91" y="-705.2" clip-path="url(#clipPath2)" stroke="none"/>
    </g>
    <g text-rendering="geometricPrecision" stroke-miterlimit="1.45" shape-rendering="geometricPrecision" transform="matrix(1,0,0,1,988,869)" stroke-linecap="butt">
      <rect fill="none" x="-972.9104" width="269" height="91" y="-705.2" clip-path="url(#clipPath2)"/>
      <text x="-865.8291" font-size="13px" y="-687.8475" clip-path="url(#clipPath4)" font-family="sans-serif" stroke="none" font-weight="bold" xml:space="preserve">Point3D</text>
      <line stroke-linecap="square" clip-path="url(#clipPath4)" fill="none" x1="-971" x2="-704" y1="-680" y2="-680" stroke-miterlimit="10"/>
      <text x="-967.9104" xml:space="preserve" y="-663.6712" clip-path="url(#clipPath4)" font-family="sans-serif" stroke="none">-z : final int</text>
      <line stroke-linecap="square" clip-path="url(#clipPath4)" fill="none" x1="-971" x2="-704" y1="-656" y2="-656" stroke-miterlimit="10"/>
    </g>
    <g stroke-linecap="butt" transform="matrix(1,0,0,1,988,869) translate(-967,-651)" fill="red" text-rendering="geometricPrecision" font-family="sans-serif" shape-rendering="geometricPrecision" stroke="red" stroke-miterlimit="1.45">
      <text x="0" xml:space="preserve" y="12" clip-path="url(#clipPath5)" stroke="none">equals(Object other) : boolean     </text>
      <text x="196" xml:space="preserve" y="12" clip-path="url(#clipPath5)" font-weight="bold" stroke="none">broken</text>
      <text x="243" xml:space="preserve" y="12" clip-path="url(#clipPath5)" stroke="none"> </text>
      <text x="0" xml:space="preserve" y="27" clip-path="url(#clipPath5)" stroke="none">distanceTo(Point other) : float     </text>
      <text x="190" xml:space="preserve" y="27" clip-path="url(#clipPath5)" font-weight="bold" stroke="none">broken</text>
      <text x="237" xml:space="preserve" y="27" clip-path="url(#clipPath5)" stroke="none"> </text>
    </g>
    <g text-rendering="geometricPrecision" stroke-miterlimit="1.45" shape-rendering="geometricPrecision" transform="matrix(1,0,0,1,988,869)" stroke-linecap="butt">
      <path fill="none" d="M-838.4104 -705.173 L-838.4104 -741.5515" clip-path="url(#clipPath2)"/>
      <path fill="white" d="M-838.4104 -756.5515 L-844.4104 -740.5515 L-832.4104 -740.5515 Z" clip-path="url(#clipPath2)" stroke="none"/>
      <path fill="none" d="M-838.4104 -756.5515 L-844.4104 -740.5515 L-832.4104 -740.5515 Z" clip-path="url(#clipPath2)"/>
    </g>
  </g>
</svg>
