<?xml version="1.0" encoding="UTF-8"?><svg xmlns="http://www.w3.org/2000/svg" xmlns:xlink="http://www.w3.org/1999/xlink" fill-opacity="1" color-rendering="auto" color-interpolation="auto" text-rendering="auto" stroke="black" stroke-linecap="square" width="611" stroke-miterlimit="10" shape-rendering="auto" stroke-opacity="1" fill="black" stroke-dasharray="none" font-weight="normal" stroke-width="1" height="438" font-family="'Dialog'" font-style="normal" stroke-linejoin="miter" font-size="12px" stroke-dashoffset="0" image-rendering="auto">
  <!--Generated by ySVG 2.5-->
  <defs id="genericDefs"/>
  <g>
    <defs id="defs1">
      <clipPath clipPathUnits="userSpaceOnUse" id="clipPath1">
        <path d="M0 0 L611 0 L611 438 L0 438 L0 0 Z"/>
      </clipPath>
      <clipPath clipPathUnits="userSpaceOnUse" id="clipPath2">
        <path d="M-1040 -878 L-429 -878 L-429 -440 L-1040 -440 L-1040 -878 Z"/>
      </clipPath>
      <clipPath clipPathUnits="userSpaceOnUse" id="clipPath3">
        <path d="M-649 -844 L-649 -747 L-444 -747 L-444 -844 Z"/>
      </clipPath>
      <clipPath clipPathUnits="userSpaceOnUse" id="clipPath4">
        <path d="M-942 -862 L-942 -729 L-713 -729 L-713 -862 Z"/>
      </clipPath>
      <clipPath clipPathUnits="userSpaceOnUse" id="clipPath5">
        <path d="M-649 -674 L-649 -577 L-444 -577 L-444 -674 Z"/>
      </clipPath>
      <clipPath clipPathUnits="userSpaceOnUse" id="clipPath6">
        <path d="M0 0 L0 145 L275 145 L275 0 Z"/>
      </clipPath>
    </defs>
    <g fill="white" text-rendering="geometricPrecision" shape-rendering="geometricPrecision" transform="translate(1040,878)" stroke="white">
      <rect x="-1040" width="611" height="438" y="-878" clip-path="url(#clipPath2)" stroke="none"/>
    </g>
    <g fill="rgb(255,255,204)" text-rendering="geometricPrecision" shape-rendering="geometricPrecision" transform="matrix(1,0,0,1,1040,878)" stroke="rgb(255,255,204)">
      <rect x="-649.9104" width="205" height="97" y="-844.6" clip-path="url(#clipPath2)" stroke="none"/>
    </g>
    <g text-rendering="geometricPrecision" stroke-miterlimit="1.45" shape-rendering="geometricPrecision" transform="matrix(1,0,0,1,1040,878)" stroke-linecap="butt">
      <rect fill="none" x="-649.9104" width="205" height="97" y="-844.6" clip-path="url(#clipPath2)"/>
      <text x="-565.1331" font-size="13px" y="-827.2474" clip-path="url(#clipPath3)" font-family="sans-serif" stroke="none" font-weight="bold" xml:space="preserve">Point</text>
      <line stroke-linecap="square" clip-path="url(#clipPath3)" fill="none" x1="-648" x2="-445" y1="-819" y2="-819" stroke-miterlimit="10"/>
      <text x="-644.9104" xml:space="preserve" y="-803.0712" clip-path="url(#clipPath3)" font-family="sans-serif" stroke="none">-x : final int</text>
      <text x="-644.9104" xml:space="preserve" y="-789.1083" clip-path="url(#clipPath3)" font-family="sans-serif" stroke="none">-y : final int</text>
      <line stroke-linecap="square" clip-path="url(#clipPath3)" fill="none" x1="-648" x2="-445" y1="-781" y2="-781" stroke-miterlimit="10"/>
      <text x="-644.9104" xml:space="preserve" y="-765.1454" clip-path="url(#clipPath3)" font-family="sans-serif" stroke="none">equals(Object other) : boolean</text>
    </g>
    <g fill="rgb(255,255,204)" text-rendering="geometricPrecision" shape-rendering="geometricPrecision" transform="matrix(1,0,0,1,1040,878)" stroke="rgb(255,255,204)">
      <rect x="-942.9104" width="229" height="133" y="-862.6" clip-path="url(#clipPath2)" stroke="none"/>
    </g>
    <g text-rendering="geometricPrecision" stroke-miterlimit="1.45" shape-rendering="geometricPrecision" transform="matrix(1,0,0,1,1040,878)" stroke-linecap="butt">
      <rect fill="none" x="-942.9104" width="229" height="133" y="-862.6" clip-path="url(#clipPath2)"/>
      <text x="-884.8379" font-size="13px" y="-845.2474" clip-path="url(#clipPath4)" font-family="sans-serif" stroke="none" font-weight="bold" xml:space="preserve">java.lang.Object</text>
      <line stroke-linecap="square" clip-path="url(#clipPath4)" fill="none" x1="-941" x2="-714" y1="-837" y2="-837" stroke-miterlimit="10"/>
      <line stroke-linecap="square" clip-path="url(#clipPath4)" fill="none" x1="-941" x2="-714" y1="-827" y2="-827" stroke-miterlimit="10"/>
      <text x="-937.9104" xml:space="preserve" y="-811.0712" clip-path="url(#clipPath4)" font-family="sans-serif" stroke="none">equals(Object other) : boolean</text>
      <text x="-937.9104" xml:space="preserve" y="-797.1083" clip-path="url(#clipPath4)" font-family="sans-serif" stroke="none">hashCode() : int</text>
      <text x="-937.9104" xml:space="preserve" y="-783.1454" clip-path="url(#clipPath4)" font-family="sans-serif" stroke="none">getClass() : Class</text>
      <text x="-937.9104" xml:space="preserve" y="-769.1825" clip-path="url(#clipPath4)" font-family="sans-serif" stroke="none">toString() : String</text>
      <text x="-937.9104" xml:space="preserve" y="-755.2196" clip-path="url(#clipPath4)" font-family="sans-serif" stroke="none">.. A few others we won't discuss</text>
    </g>
    <g fill="rgb(255,255,204)" text-rendering="geometricPrecision" shape-rendering="geometricPrecision" transform="matrix(1,0,0,1,1040,878)" stroke="rgb(255,255,204)">
      <rect x="-649.9104" width="205" height="97" y="-674.2" clip-path="url(#clipPath2)" stroke="none"/>
    </g>
    <g text-rendering="geometricPrecision" stroke-miterlimit="1.45" shape-rendering="geometricPrecision" transform="matrix(1,0,0,1,1040,878)" stroke-linecap="butt">
      <rect fill="none" x="-649.9104" width="205" height="97" y="-674.2" clip-path="url(#clipPath2)"/>
      <text x="-574.8291" font-size="13px" y="-656.8475" clip-path="url(#clipPath5)" font-family="sans-serif" stroke="none" font-weight="bold" xml:space="preserve">Point3D</text>
      <line stroke-linecap="square" clip-path="url(#clipPath5)" fill="none" x1="-648" x2="-445" y1="-649" y2="-649" stroke-miterlimit="10"/>
      <text x="-644.9104" xml:space="preserve" y="-632.6712" clip-path="url(#clipPath5)" font-family="sans-serif" stroke="none">-z : final int</text>
      <line stroke-linecap="square" clip-path="url(#clipPath5)" fill="none" x1="-648" x2="-445" y1="-625" y2="-625" stroke-miterlimit="10"/>
      <text x="-644.9104" xml:space="preserve" y="-608.7083" clip-path="url(#clipPath5)" font-family="sans-serif" stroke="none">equals(Object other) : boolean</text>
    </g>
    <g fill="rgb(255,153,204)" text-rendering="geometricPrecision" shape-rendering="geometricPrecision" transform="matrix(1,0,0,1,1040,878)" stroke="rgb(255,153,204)">
      <path d="M-1024.5 -636 L-713.5 -636 L-713.5 -621 L-698.5 -621 L-698.5 -455 L-1024.5 -455 Z" stroke="none" clip-path="url(#clipPath2)"/>
      <path fill="white" d="M-713.5 -636 L-713.5 -621 L-698.5 -621 Z" clip-path="url(#clipPath2)" fill-rule="evenodd" stroke="none"/>
    </g>
    <g text-rendering="geometricPrecision" stroke-miterlimit="1.45" shape-rendering="geometricPrecision" transform="matrix(1,0,0,1,1040,878)" stroke-linecap="butt">
      <path fill="none" d="M-1024.5 -636 L-713.5 -636 L-713.5 -621 L-698.5 -621 L-698.5 -455 L-1024.5 -455 Z" clip-path="url(#clipPath2)"/>
      <path fill="none" d="M-713.5 -636 L-713.5 -621 L-698.5 -621 Z" clip-path="url(#clipPath2)" fill-rule="evenodd"/>
    </g>
    <g font-size="24px" stroke-linecap="butt" transform="matrix(1,0,0,1,1040,878) translate(-999,-618)" text-rendering="geometricPrecision" font-family="sans-serif" shape-rendering="geometricPrecision" font-weight="bold" stroke-miterlimit="1.45">
      <text x="0" xml:space="preserve" y="23" clip-path="url(#clipPath6)" stroke="none">NO!</text>
      <text x="48" xml:space="preserve" y="23" clip-path="url(#clipPath6)" font-weight="normal" stroke="none"> </text>
      <text x="0" xml:space="preserve" y="52" clip-path="url(#clipPath6)" font-weight="normal" stroke="none">Never do this!</text>
      <text x="163" xml:space="preserve" y="52" clip-path="url(#clipPath6)" font-weight="normal" stroke="none"> </text>
      <text x="0" xml:space="preserve" y="81" clip-path="url(#clipPath6)" font-weight="normal" stroke="none">If you do this, you </text>
      <text x="223" xml:space="preserve" y="81" clip-path="url(#clipPath6)" stroke="none">will</text>
      <text x="267" xml:space="preserve" y="81" clip-path="url(#clipPath6)" font-weight="normal" stroke="none"> </text>
      <text x="275" xml:space="preserve" y="81" clip-path="url(#clipPath6)" font-weight="normal" stroke="none"> </text>
      <text x="0" xml:space="preserve" y="110" clip-path="url(#clipPath6)" font-weight="normal" stroke="none">spend eternity in</text>
      <text x="197" xml:space="preserve" y="110" clip-path="url(#clipPath6)" font-weight="normal" stroke="none"> </text>
      <text x="0" xml:space="preserve" y="139" clip-path="url(#clipPath6)" font-weight="normal" stroke="none">The Bad Place</text>
    </g>
    <g text-rendering="geometricPrecision" stroke-miterlimit="1.45" shape-rendering="geometricPrecision" transform="matrix(1,0,0,1,1040,878)" stroke-linecap="butt">
      <path fill="none" d="M-649.9384 -796.1 L-698.946 -796.1" clip-path="url(#clipPath2)"/>
      <path fill="white" d="M-713.946 -796.1 L-697.946 -790.1 L-697.946 -802.1 Z" clip-path="url(#clipPath2)" stroke="none"/>
      <path fill="none" d="M-713.946 -796.1 L-697.946 -790.1 L-697.946 -802.1 Z" clip-path="url(#clipPath2)"/>
      <path fill="none" d="M-547.4104 -674.1658 L-547.4104 -732.6061" clip-path="url(#clipPath2)"/>
      <path fill="white" d="M-547.4104 -747.6061 L-553.4104 -731.6061 L-541.4104 -731.6061 Z" clip-path="url(#clipPath2)" stroke="none"/>
      <path fill="none" d="M-547.4104 -747.6061 L-553.4104 -731.6061 L-541.4104 -731.6061 Z" clip-path="url(#clipPath2)"/>
      <path fill="none" stroke-dasharray="6,2" d="M-698.5123 -587.1174 L-654.7726 -598.286" clip-path="url(#clipPath2)"/>
      <path stroke-dasharray="6,2" d="M-650.897 -599.2756 L-664.0084 -602.1203 L-650.897 -599.2756 L-661.0396 -590.4933 Z" clip-path="url(#clipPath2)" stroke="none"/>
      <path fill="none" stroke-miterlimit="10" d="M-650.897 -599.2756 L-664.0084 -602.1203 L-650.897 -599.2756 L-661.0396 -590.4933 Z" clip-path="url(#clipPath2)" stroke-linecap="square"/>
    </g>
  </g>
</svg>
