<?xml version="1.0" encoding="UTF-8"?><svg xmlns="http://www.w3.org/2000/svg" xmlns:xlink="http://www.w3.org/1999/xlink" fill-opacity="1" color-rendering="auto" color-interpolation="auto" text-rendering="auto" stroke="black" stroke-linecap="square" width="601" stroke-miterlimit="10" shape-rendering="auto" stroke-opacity="1" fill="black" stroke-dasharray="none" font-weight="normal" stroke-width="1" height="422" font-family="'Dialog'" font-style="normal" stroke-linejoin="miter" font-size="12px" stroke-dashoffset="0" image-rendering="auto">
  <!--Generated by ySVG 2.5-->
  <defs id="genericDefs"/>
  <g>
    <defs id="defs1">
      <clipPath clipPathUnits="userSpaceOnUse" id="clipPath1">
        <path d="M0 0 L601 0 L601 422 L0 422 L0 0 Z"/>
      </clipPath>
      <clipPath clipPathUnits="userSpaceOnUse" id="clipPath2">
        <path d="M-977 -808 L-376 -808 L-376 -386 L-977 -386 L-977 -808 Z"/>
      </clipPath>
      <clipPath clipPathUnits="userSpaceOnUse" id="clipPath3">
        <path d="M-727 -782 L-727 -709 L-588 -709 L-588 -782 Z"/>
      </clipPath>
      <clipPath clipPathUnits="userSpaceOnUse" id="clipPath4">
        <path d="M0 0 L0 30 L102 30 L102 0 Z"/>
      </clipPath>
      <clipPath clipPathUnits="userSpaceOnUse" id="clipPath5">
        <path d="M-510 -782 L-510 -664 L-392 -664 L-392 -782 Z"/>
      </clipPath>
      <clipPath clipPathUnits="userSpaceOnUse" id="clipPath6">
        <path d="M-568 -767 L-568 -739 L-515 -739 L-515 -767 Z"/>
      </clipPath>
      <clipPath clipPathUnits="userSpaceOnUse" id="clipPath7">
        <path d="M-870 -504 L-870 -410 L-741 -410 L-741 -504 Z"/>
      </clipPath>
      <clipPath clipPathUnits="userSpaceOnUse" id="clipPath8">
        <path d="M-563 -508 L-563 -401 L-434 -401 L-434 -508 Z"/>
      </clipPath>
      <clipPath clipPathUnits="userSpaceOnUse" id="clipPath9">
        <path d="M-694 -693 L-694 -665 L-641 -665 L-641 -693 Z"/>
      </clipPath>
      <clipPath clipPathUnits="userSpaceOnUse" id="clipPath10">
        <path d="M-734 -665 L-734 -563 L-579 -563 L-579 -665 Z"/>
      </clipPath>
      <clipPath clipPathUnits="userSpaceOnUse" id="clipPath11">
        <path d="M-961 -792 L-961 -690 L-822 -690 L-822 -792 Z"/>
      </clipPath>
      <clipPath clipPathUnits="userSpaceOnUse" id="clipPath12">
        <path d="M-961 -645 L-961 -551 L-822 -551 L-822 -645 Z"/>
      </clipPath>
      <clipPath clipPathUnits="userSpaceOnUse" id="clipPath13">
        <path d="M-815 -767 L-815 -739 L-762 -739 L-762 -767 Z"/>
      </clipPath>
      <clipPath clipPathUnits="userSpaceOnUse" id="clipPath14">
        <path d="M-822 -603 L-822 -575 L-755 -575 L-755 -603 Z"/>
      </clipPath>
    </defs>
    <g fill="white" text-rendering="geometricPrecision" shape-rendering="geometricPrecision" transform="translate(977,808)" stroke="white">
      <rect x="-977" width="601" height="422" y="-808" clip-path="url(#clipPath2)" stroke="none"/>
    </g>
    <g fill="rgb(255,255,204)" text-rendering="geometricPrecision" shape-rendering="geometricPrecision" transform="matrix(1,0,0,1,977,808)" stroke="rgb(255,255,204)">
      <rect x="-727.2878" width="139" height="73.5" y="-782" clip-path="url(#clipPath2)" stroke="none"/>
    </g>
    <g text-rendering="geometricPrecision" stroke-miterlimit="1.45" shape-rendering="geometricPrecision" transform="matrix(1,0,0,1,977,808)" stroke-linecap="butt">
      <rect fill="none" x="-727.2878" width="139" height="73.5" y="-782" clip-path="url(#clipPath2)"/>
      <text x="-679.2651" font-size="13px" y="-764.4316" clip-path="url(#clipPath3)" font-family="sans-serif" stroke="none" font-weight="bold" xml:space="preserve">MyGUI</text>
      <line stroke-linecap="square" clip-path="url(#clipPath3)" fill="none" x1="-726" x2="-589" y1="-756" y2="-756" stroke-miterlimit="10"/>
      <line stroke-linecap="square" clip-path="url(#clipPath3)" fill="none" x1="-726" x2="-589" y1="-746" y2="-746" stroke-miterlimit="10"/>
    </g>
    <g text-rendering="geometricPrecision" stroke-miterlimit="1.45" shape-rendering="geometricPrecision" font-family="sans-serif" transform="matrix(1,0,0,1,977,808) translate(-722,-741)" stroke-linecap="butt">
      <text x="0" xml:space="preserve" y="12" clip-path="url(#clipPath4)" stroke="none">main(String[])</text>
      <line y2="13" fill="none" x1="0" clip-path="url(#clipPath4)" x2="76" y1="13"/>
      <text x="76" xml:space="preserve" y="12" clip-path="url(#clipPath4)" stroke="none"> </text>
      <text x="0" xml:space="preserve" y="27" clip-path="url(#clipPath4)" stroke="none">+paint(Graphics)</text>
      <text x="98" xml:space="preserve" y="27" clip-path="url(#clipPath4)" stroke="none"> </text>
    </g>
    <g fill="rgb(255,255,204)" text-rendering="geometricPrecision" shape-rendering="geometricPrecision" transform="matrix(1,0,0,1,977,808)" stroke="rgb(255,255,204)">
      <rect x="-510.0426" width="118.8" height="118.6" y="-782" clip-path="url(#clipPath2)" stroke="none"/>
    </g>
    <g text-rendering="geometricPrecision" stroke-miterlimit="1.45" shape-rendering="geometricPrecision" transform="matrix(1,0,0,1,977,808)" stroke-linecap="butt">
      <rect fill="none" x="-510.0426" width="118.8" height="118.6" y="-782" clip-path="url(#clipPath2)"/>
      <text x="-498.7801" font-size="13px" y="-764.4316" clip-path="url(#clipPath5)" font-family="sans-serif" stroke="none" font-weight="bold" xml:space="preserve">ShapesFactory</text>
      <line stroke-linecap="square" clip-path="url(#clipPath5)" fill="none" x1="-509" x2="-392" y1="-756" y2="-756" stroke-miterlimit="10"/>
      <text x="-505.0426" xml:space="preserve" y="-740.0879" clip-path="url(#clipPath5)" font-family="sans-serif" stroke="none">-width</text>
      <text x="-505.0426" xml:space="preserve" y="-725.9551" clip-path="url(#clipPath5)" font-family="sans-serif" stroke="none">-height</text>
      <line stroke-linecap="square" clip-path="url(#clipPath5)" fill="none" x1="-509" x2="-392" y1="-718" y2="-718" stroke-miterlimit="10"/>
      <text x="-505.0426" xml:space="preserve" y="-701.8223" clip-path="url(#clipPath5)" font-family="sans-serif" stroke="none">+makeShape()</text>
      <text x="-564.6338" font-size="13px" y="-749.9713" clip-path="url(#clipPath6)" font-family="sans-serif" stroke="none" xml:space="preserve">uses →</text>
    </g>
    <g fill="rgb(255,255,204)" text-rendering="geometricPrecision" shape-rendering="geometricPrecision" transform="matrix(1,0,0,1,977,808)" stroke="rgb(255,255,204)">
      <rect x="-870.4633" width="129.25" height="94.76" y="-504.44" clip-path="url(#clipPath2)" stroke="none"/>
    </g>
    <g text-rendering="geometricPrecision" stroke-miterlimit="1.45" shape-rendering="geometricPrecision" transform="matrix(1,0,0,1,977,808)" stroke-linecap="butt">
      <rect fill="none" x="-870.4633" width="129.25" height="94.76" y="-504.44" clip-path="url(#clipPath2)"/>
      <text x="-828.7121" font-size="13px" y="-486.8716" clip-path="url(#clipPath7)" font-family="sans-serif" stroke="none" font-weight="bold" xml:space="preserve">Square</text>
      <line stroke-linecap="square" clip-path="url(#clipPath7)" fill="none" x1="-869" x2="-742" y1="-479" y2="-479" stroke-miterlimit="10"/>
      <text x="-865.4633" xml:space="preserve" y="-462.5279" clip-path="url(#clipPath7)" font-family="sans-serif" stroke="none">-color</text>
      <line stroke-linecap="square" clip-path="url(#clipPath7)" fill="none" x1="-869" x2="-742" y1="-454" y2="-454" stroke-miterlimit="10"/>
      <text x="-865.4633" xml:space="preserve" y="-438.3951" clip-path="url(#clipPath7)" font-family="sans-serif" stroke="none">+getArea() : float</text>
      <text x="-865.4633" xml:space="preserve" y="-424.2623" clip-path="url(#clipPath7)" font-family="sans-serif" stroke="none">+accept(Visitor)</text>
    </g>
    <g fill="rgb(255,255,204)" text-rendering="geometricPrecision" shape-rendering="geometricPrecision" transform="matrix(1,0,0,1,977,808)" stroke="rgb(255,255,204)">
      <rect x="-563.0933" width="129.25" height="107" y="-508.26" clip-path="url(#clipPath2)" stroke="none"/>
    </g>
    <g text-rendering="geometricPrecision" stroke-miterlimit="1.45" shape-rendering="geometricPrecision" transform="matrix(1,0,0,1,977,808)" stroke-linecap="butt">
      <rect fill="none" x="-563.0933" width="129.25" height="107" y="-508.26" clip-path="url(#clipPath2)"/>
      <text x="-517.5494" font-size="13px" y="-490.6917" clip-path="url(#clipPath8)" font-family="sans-serif" stroke="none" font-weight="bold" xml:space="preserve">Circle</text>
      <line stroke-linecap="square" clip-path="url(#clipPath8)" fill="none" x1="-562" x2="-434" y1="-482" y2="-482" stroke-miterlimit="10"/>
      <text x="-558.0933" xml:space="preserve" y="-466.3479" clip-path="url(#clipPath8)" font-family="sans-serif" stroke="none">-color</text>
      <text x="-558.0933" xml:space="preserve" y="-452.2151" clip-path="url(#clipPath8)" font-family="sans-serif" stroke="none">-radius</text>
      <line stroke-linecap="square" clip-path="url(#clipPath8)" fill="none" x1="-562" x2="-434" y1="-444" y2="-444" stroke-miterlimit="10"/>
      <text x="-558.0933" xml:space="preserve" y="-428.0823" clip-path="url(#clipPath8)" font-family="sans-serif" stroke="none">+getArea() : float</text>
      <text x="-558.0933" xml:space="preserve" y="-413.9495" clip-path="url(#clipPath8)" font-family="sans-serif" stroke="none">+accept(Visitor)</text>
      <text x="-671.5339" font-size="13px" y="-675.8314" clip-path="url(#clipPath9)" font-family="sans-serif" stroke="none" xml:space="preserve">n</text>
    </g>
    <g fill="rgb(255,255,204)" text-rendering="geometricPrecision" shape-rendering="geometricPrecision" transform="matrix(1,0,0,1,977,808)" stroke="rgb(255,255,204)">
      <rect x="-734" width="155" height="102" y="-665.3998" clip-path="url(#clipPath2)" stroke="none"/>
    </g>
    <g text-rendering="geometricPrecision" stroke-miterlimit="1.45" shape-rendering="geometricPrecision" transform="matrix(1,0,0,1,977,808)" stroke-linecap="butt">
      <rect fill="none" x="-734" width="155" height="102" y="-665.3998" clip-path="url(#clipPath2)"/>
      <text x="-701.0137" xml:space="preserve" y="-648.7982" clip-path="url(#clipPath10)" font-family="sans-serif" stroke="none">&lt;&lt;interface&gt;&gt;</text>
      <text x="-676.4189" font-size="13px" y="-624.6986" clip-path="url(#clipPath10)" font-family="sans-serif" stroke="none" font-weight="bold" xml:space="preserve">Shape</text>
      <line stroke-linecap="square" clip-path="url(#clipPath10)" fill="none" x1="-733" x2="-580" y1="-616" y2="-616" stroke-miterlimit="10"/>
      <line stroke-linecap="square" clip-path="url(#clipPath10)" fill="none" x1="-733" x2="-580" y1="-606" y2="-606" stroke-miterlimit="10"/>
      <text x="-729" xml:space="preserve" y="-590.3549" clip-path="url(#clipPath10)" font-family="sans-serif" stroke="none">+getArea() : float</text>
      <text x="-729" xml:space="preserve" y="-576.222" clip-path="url(#clipPath10)" font-family="sans-serif" stroke="none">+accept(Visitor)</text>
    </g>
    <g fill="rgb(255,255,204)" text-rendering="geometricPrecision" shape-rendering="geometricPrecision" transform="matrix(1,0,0,1,977,808)" stroke="rgb(255,255,204)">
      <rect x="-961.9104" width="139" height="102" y="-792.8" clip-path="url(#clipPath2)" stroke="none"/>
    </g>
    <g text-rendering="geometricPrecision" stroke-miterlimit="1.45" shape-rendering="geometricPrecision" transform="matrix(1,0,0,1,977,808)" stroke-linecap="butt">
      <rect fill="none" x="-961.9104" width="139" height="102" y="-792.8" clip-path="url(#clipPath2)"/>
      <text x="-936.9182" xml:space="preserve" y="-776.1984" clip-path="url(#clipPath11)" font-family="sans-serif" stroke="none">&lt;&lt;Interface&gt;&gt;</text>
      <text x="-914.5955" font-size="13px" y="-752.0988" clip-path="url(#clipPath11)" font-family="sans-serif" stroke="none" font-weight="bold" xml:space="preserve">Visitor</text>
      <line stroke-linecap="square" clip-path="url(#clipPath11)" fill="none" x1="-960" x2="-823" y1="-744" y2="-744" stroke-miterlimit="10"/>
      <line stroke-linecap="square" clip-path="url(#clipPath11)" fill="none" x1="-960" x2="-823" y1="-734" y2="-734" stroke-miterlimit="10"/>
      <text x="-956.9104" xml:space="preserve" y="-717.7551" clip-path="url(#clipPath11)" font-family="sans-serif" stroke="none">+visitCircle(Circle)</text>
      <text x="-956.9104" xml:space="preserve" y="-703.6223" clip-path="url(#clipPath11)" font-family="sans-serif" stroke="none">+visitSquare(Square)</text>
    </g>
    <g fill="rgb(255,255,204)" text-rendering="geometricPrecision" shape-rendering="geometricPrecision" transform="matrix(1,0,0,1,977,808)" stroke="rgb(255,255,204)">
      <rect x="-961.9104" width="139" height="94.76" y="-645" clip-path="url(#clipPath2)" stroke="none"/>
    </g>
    <g text-rendering="geometricPrecision" stroke-miterlimit="1.45" shape-rendering="geometricPrecision" transform="matrix(1,0,0,1,977,808)" stroke-linecap="butt">
      <rect fill="none" x="-961.9104" width="139" height="94.76" y="-645" clip-path="url(#clipPath2)"/>
      <text x="-931.1438" font-size="13px" y="-627.4316" clip-path="url(#clipPath12)" font-family="sans-serif" stroke="none" font-weight="bold" xml:space="preserve">AWTPainter</text>
      <line stroke-linecap="square" clip-path="url(#clipPath12)" fill="none" x1="-960" x2="-823" y1="-619" y2="-619" stroke-miterlimit="10"/>
      <text x="-956.9104" xml:space="preserve" y="-603.0879" clip-path="url(#clipPath12)" font-family="sans-serif" stroke="none">-java.awt.Graphics</text>
      <line stroke-linecap="square" clip-path="url(#clipPath12)" fill="none" x1="-960" x2="-823" y1="-595" y2="-595" stroke-miterlimit="10"/>
      <text x="-956.9104" xml:space="preserve" y="-578.9551" clip-path="url(#clipPath12)" font-family="sans-serif" stroke="none">+visitCircle(Circle)</text>
      <text x="-956.9104" xml:space="preserve" y="-564.8223" clip-path="url(#clipPath12)" font-family="sans-serif" stroke="none">+visitSquare(Square)</text>
      <text x="-811.9003" font-size="13px" y="-749.4664" clip-path="url(#clipPath13)" font-family="sans-serif" stroke="none" xml:space="preserve">← uses</text>
      <text x="-820.184" font-size="13px" y="-585.7465" clip-path="url(#clipPath14)" font-family="sans-serif" stroke="none" xml:space="preserve">← creates</text>
      <path fill="none" d="M-588.3068 -741.5 L-510.0622 -741.5" clip-path="url(#clipPath2)"/>
      <path fill="none" d="M-655.0933 -701.4927 L-655.0933 -665.3987" clip-path="url(#clipPath2)"/>
      <path fill="white" d="M-655.0933 -708.4927 L-650.0933 -701.4927 L-655.0933 -694.4927 L-660.0933 -701.4927 Z" clip-path="url(#clipPath2)" stroke="none"/>
      <path fill="none" d="M-655.0933 -708.4927 L-650.0933 -701.4927 L-655.0933 -694.4927 L-660.0933 -701.4927 Z" clip-path="url(#clipPath2)"/>
      <path fill="none" stroke-dasharray="6,2" d="M-805.8383 -504.4054 L-805.8383 -528.6196 L-656.5 -528.6196 L-656.5 -548.426" clip-path="url(#clipPath2)"/>
      <path fill="white" stroke-dasharray="6,2" d="M-656.5 -563.426 L-662.5 -547.426 L-650.5 -547.426 Z" clip-path="url(#clipPath2)" stroke="none"/>
      <path fill="none" d="M-656.5 -563.426 L-662.5 -547.426 L-650.5 -547.426 Z" clip-path="url(#clipPath2)"/>
      <path fill="none" stroke-dasharray="6,2" d="M-494.1236 -508.2433 L-492.4683 -528.6196 L-656.5 -528.6196 L-656.5 -548.426" clip-path="url(#clipPath2)"/>
      <path fill="white" stroke-dasharray="6,2" d="M-656.5 -563.426 L-662.5 -547.426 L-650.5 -547.426 Z" clip-path="url(#clipPath2)" stroke="none"/>
      <path fill="none" d="M-656.5 -563.426 L-662.5 -547.426 L-650.5 -547.426 Z" clip-path="url(#clipPath2)"/>
      <path fill="none" d="M-733.9875 -614.3998 L-782.3979 -614.3998 L-782.3979 -741.8 L-814.9274 -741.8" clip-path="url(#clipPath2)"/>
      <path d="M-822.9274 -741.8 L-810.9274 -736.8 L-813.9274 -741.8 L-810.9274 -746.8 Z" clip-path="url(#clipPath2)" stroke="none"/>
      <path fill="none" d="M-727.3223 -742.6103 L-748.6663 -741.8 L-748.6663 -578.0914 L-814.9103 -578.0914" clip-path="url(#clipPath2)"/>
      <path d="M-822.9103 -578.0914 L-810.9103 -573.0914 L-813.9103 -578.0914 L-810.9103 -583.0914 Z" clip-path="url(#clipPath2)" stroke="none"/>
      <path fill="none" stroke-dasharray="6,2" d="M-892.4104 -645.0347 L-892.4104 -675.8187" clip-path="url(#clipPath2)"/>
      <path fill="white" stroke-dasharray="6,2" d="M-892.4104 -690.8187 L-898.4104 -674.8187 L-886.4104 -674.8187 Z" clip-path="url(#clipPath2)" stroke="none"/>
      <path fill="none" d="M-892.4104 -690.8187 L-898.4104 -674.8187 L-886.4104 -674.8187 Z" clip-path="url(#clipPath2)"/>
    </g>
  </g>
</svg>
