<?xml version="1.0" encoding="UTF-8"?><svg xmlns="http://www.w3.org/2000/svg" xmlns:xlink="http://www.w3.org/1999/xlink" fill-opacity="1" color-rendering="auto" color-interpolation="auto" text-rendering="auto" stroke="black" stroke-linecap="square" width="706" stroke-miterlimit="10" shape-rendering="auto" stroke-opacity="1" fill="black" stroke-dasharray="none" font-weight="normal" stroke-width="1" height="361" font-family="'Dialog'" font-style="normal" stroke-linejoin="miter" font-size="12px" stroke-dashoffset="0" image-rendering="auto">
  <!--Generated by ySVG 2.5-->
  <defs id="genericDefs"/>
  <g>
    <defs id="defs1">
      <clipPath clipPathUnits="userSpaceOnUse" id="clipPath1">
        <path d="M0 0 L706 0 L706 361 L0 361 L0 0 Z"/>
      </clipPath>
      <clipPath clipPathUnits="userSpaceOnUse" id="clipPath2">
        <path d="M-494 -415 L212 -415 L212 -54 L-494 -54 L-494 -415 Z"/>
      </clipPath>
      <clipPath clipPathUnits="userSpaceOnUse" id="clipPath3">
        <path d="M-266 -274 L-266 -240 L-116 -240 L-116 -274 Z"/>
      </clipPath>
      <clipPath clipPathUnits="userSpaceOnUse" id="clipPath4">
        <path d="M-301 -399 L-301 -319 L-81 -319 L-81 -399 Z"/>
      </clipPath>
      <clipPath clipPathUnits="userSpaceOnUse" id="clipPath5">
        <path d="M-443 -180 L-443 -146 L-293 -146 L-293 -180 Z"/>
      </clipPath>
      <clipPath clipPathUnits="userSpaceOnUse" id="clipPath6">
        <path d="M-143 -180 L-143 -146 L60 -146 L60 -180 Z"/>
      </clipPath>
      <clipPath clipPathUnits="userSpaceOnUse" id="clipPath7">
        <path d="M-352 -108 L-352 -74 L-202 -74 L-202 -108 Z"/>
      </clipPath>
      <clipPath clipPathUnits="userSpaceOnUse" id="clipPath8">
        <path d="M-116 -103 L-116 -69 L34 -69 L34 -103 Z"/>
      </clipPath>
    </defs>
    <g fill="white" text-rendering="geometricPrecision" shape-rendering="geometricPrecision" transform="translate(494,415)" stroke="white">
      <rect x="-494" width="706" height="361" y="-415" clip-path="url(#clipPath2)" stroke="none"/>
    </g>
    <g fill="rgb(255,255,204)" text-rendering="geometricPrecision" shape-rendering="geometricPrecision" transform="matrix(1,0,0,1,494,415)" stroke="rgb(255,255,204)">
      <rect x="-266.5" width="150" height="34" y="-274" clip-path="url(#clipPath2)" stroke="none"/>
    </g>
    <g text-rendering="geometricPrecision" stroke-miterlimit="1.45" shape-rendering="geometricPrecision" transform="matrix(1,0,0,1,494,415)" stroke-linecap="butt">
      <rect fill="none" x="-266.5" width="150" height="34" y="-274" clip-path="url(#clipPath2)"/>
      <text x="-255.3542" font-size="13px" y="-256.4316" clip-path="url(#clipPath3)" font-family="sans-serif" stroke="none" font-weight="bold" xml:space="preserve">java.lang.Exception</text>
    </g>
    <g fill="rgb(255,255,204)" text-rendering="geometricPrecision" shape-rendering="geometricPrecision" transform="matrix(1,0,0,1,494,415)" stroke="rgb(255,255,204)">
      <rect x="-301.5" width="220" height="80" y="-399" clip-path="url(#clipPath2)" stroke="none"/>
    </g>
    <g text-rendering="geometricPrecision" stroke-miterlimit="1.45" shape-rendering="geometricPrecision" transform="matrix(1,0,0,1,494,415)" stroke-linecap="butt">
      <rect fill="none" x="-301.5" width="220" height="80" y="-399" clip-path="url(#clipPath2)"/>
      <text x="-258.3853" font-size="13px" y="-381.4316" clip-path="url(#clipPath4)" font-family="sans-serif" stroke="none" font-weight="bold" xml:space="preserve">java.lang.Throwable</text>
      <line stroke-linecap="square" clip-path="url(#clipPath4)" fill="none" x1="-300" x2="-82" y1="-373" y2="-373" stroke-miterlimit="10"/>
      <text x="-296.5" xml:space="preserve" y="-357.0879" clip-path="url(#clipPath4)" font-family="sans-serif" stroke="none">message : String</text>
      <text x="-296.5" xml:space="preserve" y="-342.9551" clip-path="url(#clipPath4)" font-family="sans-serif" stroke="none">backgrace : StackFrameRecord[]</text>
      <line stroke-linecap="square" clip-path="url(#clipPath4)" fill="none" x1="-300" x2="-82" y1="-335" y2="-335" stroke-miterlimit="10"/>
    </g>
    <g fill="rgb(255,255,204)" text-rendering="geometricPrecision" shape-rendering="geometricPrecision" transform="matrix(1,0,0,1,494,415)" stroke="rgb(255,255,204)">
      <rect x="-443" width="150" height="34" y="-180" clip-path="url(#clipPath2)" stroke="none"/>
    </g>
    <g text-rendering="geometricPrecision" stroke-miterlimit="1.45" shape-rendering="geometricPrecision" transform="matrix(1,0,0,1,494,415)" stroke-linecap="butt">
      <rect fill="none" x="-443" width="150" height="34" y="-180" clip-path="url(#clipPath2)"/>
      <text x="-431.1338" font-size="13px" y="-162.4316" clip-path="url(#clipPath5)" font-family="sans-serif" stroke="none" font-weight="bold" xml:space="preserve">java.io.IOException</text>
    </g>
    <g fill="rgb(255,255,204)" text-rendering="geometricPrecision" shape-rendering="geometricPrecision" transform="matrix(1,0,0,1,494,415)" stroke="rgb(255,255,204)">
      <rect x="-143" width="203" height="34" y="-180" clip-path="url(#clipPath2)" stroke="none"/>
    </g>
    <g text-rendering="geometricPrecision" stroke-miterlimit="1.45" shape-rendering="geometricPrecision" transform="matrix(1,0,0,1,494,415)" stroke-linecap="butt">
      <rect fill="none" x="-143" width="203" height="34" y="-180" clip-path="url(#clipPath2)"/>
      <text x="-133.2363" font-size="13px" y="-162.4316" clip-path="url(#clipPath6)" font-family="sans-serif" stroke="none" font-weight="bold" xml:space="preserve">java.lang.RuntimeException</text>
    </g>
    <g fill="rgb(255,255,204)" text-rendering="geometricPrecision" shape-rendering="geometricPrecision" transform="matrix(1,0,0,1,494,415)" stroke="rgb(255,255,204)">
      <rect x="-352" width="150" height="34" y="-108" clip-path="url(#clipPath2)" stroke="none"/>
    </g>
    <g text-rendering="geometricPrecision" stroke-miterlimit="1.45" shape-rendering="geometricPrecision" transform="matrix(1,0,0,1,494,415)" stroke-linecap="butt">
      <rect fill="none" x="-352" width="150" height="34" y="-108" clip-path="url(#clipPath2)"/>
      <text x="-338.22" font-size="13px" y="-90.4316" clip-path="url(#clipPath7)" font-family="sans-serif" stroke="none" font-weight="bold" xml:space="preserve">Many subclasses...</text>
    </g>
    <g fill="rgb(255,255,204)" text-rendering="geometricPrecision" shape-rendering="geometricPrecision" transform="matrix(1,0,0,1,494,415)" stroke="rgb(255,255,204)">
      <rect x="-116.5" width="150" height="34" y="-103" clip-path="url(#clipPath2)" stroke="none"/>
    </g>
    <g text-rendering="geometricPrecision" stroke-miterlimit="1.45" shape-rendering="geometricPrecision" transform="matrix(1,0,0,1,494,415)" stroke-linecap="butt">
      <rect fill="none" x="-116.5" width="150" height="34" y="-103" clip-path="url(#clipPath2)"/>
      <text x="-102.72" font-size="13px" y="-85.4316" clip-path="url(#clipPath8)" font-family="sans-serif" stroke="none" font-weight="bold" xml:space="preserve">Many subclasses...</text>
    </g>
    <g fill="rgb(255,204,0)" text-rendering="geometricPrecision" shape-rendering="geometricPrecision" transform="matrix(1,0,0,1,494,415)" stroke="rgb(255,204,0)">
      <path d="M-479 -342.5 L-370 -342.5 L-370 -327.5 L-355 -327.5 L-355 -290.5 L-479 -290.5 Z" stroke="none" clip-path="url(#clipPath2)"/>
      <path fill="white" d="M-370 -342.5 L-370 -327.5 L-355 -327.5 Z" clip-path="url(#clipPath2)" fill-rule="evenodd" stroke="none"/>
    </g>
    <g text-rendering="geometricPrecision" stroke-miterlimit="1.45" shape-rendering="geometricPrecision" transform="matrix(1,0,0,1,494,415)" stroke-linecap="butt">
      <path fill="none" d="M-479 -342.5 L-370 -342.5 L-370 -327.5 L-355 -327.5 L-355 -290.5 L-479 -290.5 Z" clip-path="url(#clipPath2)"/>
      <path fill="none" d="M-370 -342.5 L-370 -327.5 L-355 -327.5 Z" clip-path="url(#clipPath2)" fill-rule="evenodd"/>
      <text x="-461.9297" xml:space="preserve" y="-319.0312" clip-path="url(#clipPath2)" font-family="sans-serif" stroke="none">Must be caught</text>
      <text x="-449.8535" xml:space="preserve" y="-304.8984" clip-path="url(#clipPath2)" font-family="sans-serif" stroke="none">or declared</text>
    </g>
    <g fill="rgb(255,204,0)" text-rendering="geometricPrecision" shape-rendering="geometricPrecision" transform="matrix(1,0,0,1,494,415)" stroke="rgb(255,204,0)">
      <path d="M78 -250 L182 -250 L182 -235 L197 -235 L197 -188 L78 -188 Z" stroke="none" clip-path="url(#clipPath2)"/>
      <path fill="white" d="M182 -250 L182 -235 L197 -235 Z" clip-path="url(#clipPath2)" fill-rule="evenodd" stroke="none"/>
    </g>
    <g text-rendering="geometricPrecision" stroke-miterlimit="1.45" shape-rendering="geometricPrecision" transform="matrix(1,0,0,1,494,415)" stroke-linecap="butt">
      <path fill="none" d="M78 -250 L182 -250 L182 -235 L197 -235 L197 -188 L78 -188 Z" clip-path="url(#clipPath2)"/>
      <path fill="none" d="M182 -250 L182 -235 L197 -235 Z" clip-path="url(#clipPath2)" fill-rule="evenodd"/>
      <text x="82.1143" xml:space="preserve" y="-221.5312" clip-path="url(#clipPath2)" font-family="sans-serif" stroke="none">Declaring/catching</text>
      <text x="106.9111" xml:space="preserve" y="-207.3984" clip-path="url(#clipPath2)" font-family="sans-serif" stroke="none">is optional</text>
      <path fill="none" d="M-191.5 -273.9834 L-191.5 -304.0239" clip-path="url(#clipPath2)"/>
      <path fill="white" d="M-191.5 -319.0239 L-197.5 -303.0239 L-185.5 -303.0239 Z" clip-path="url(#clipPath2)" stroke="none"/>
      <path fill="none" d="M-191.5 -319.0239 L-197.5 -303.0239 L-185.5 -303.0239 Z" clip-path="url(#clipPath2)"/>
      <path fill="none" d="M-368 -179.981 L-368 -204.5 L-191.5 -204.5 L-191.5 -225.0042" clip-path="url(#clipPath2)"/>
      <path fill="white" d="M-191.5 -240.0042 L-197.5 -224.0042 L-185.5 -224.0042 Z" clip-path="url(#clipPath2)" stroke="none"/>
      <path fill="none" d="M-191.5 -240.0042 L-197.5 -224.0042 L-185.5 -224.0042 Z" clip-path="url(#clipPath2)"/>
      <path fill="none" d="M-41.5 -179.981 L-41.5 -204.5 L-191.5 -204.5 L-191.5 -225.0042" clip-path="url(#clipPath2)"/>
      <path fill="white" d="M-191.5 -240.0042 L-197.5 -224.0042 L-185.5 -224.0042 Z" clip-path="url(#clipPath2)" stroke="none"/>
      <path fill="none" d="M-191.5 -240.0042 L-197.5 -224.0042 L-185.5 -224.0042 Z" clip-path="url(#clipPath2)"/>
      <path fill="none" d="M-277 -107.9862 L-277 -204.5 L-191.5 -204.5 L-191.5 -225.0042" clip-path="url(#clipPath2)"/>
      <path fill="white" d="M-191.5 -240.0042 L-197.5 -224.0042 L-185.5 -224.0042 Z" clip-path="url(#clipPath2)" stroke="none"/>
      <path fill="none" d="M-191.5 -240.0042 L-197.5 -224.0042 L-185.5 -224.0042 Z" clip-path="url(#clipPath2)"/>
      <path fill="none" d="M-41.5 -103.0317 L-41.5 -130.9875" clip-path="url(#clipPath2)"/>
      <path fill="white" d="M-41.5 -145.9875 L-47.5 -129.9875 L-35.5 -129.9875 Z" clip-path="url(#clipPath2)" stroke="none"/>
      <path fill="none" d="M-41.5 -145.9875 L-47.5 -129.9875 L-35.5 -129.9875 Z" clip-path="url(#clipPath2)"/>
      <path fill="none" stroke-dasharray="6,2" d="M-354.982 -328.1885 L-306.4525 -337.3349" clip-path="url(#clipPath2)"/>
      <path stroke-dasharray="6,2" d="M-302.5217 -338.0757 L-315.4253 -341.7495 L-302.5217 -338.0757 L-313.2029 -329.9571 Z" clip-path="url(#clipPath2)" stroke="none"/>
      <path fill="none" stroke-miterlimit="10" d="M-302.5217 -338.0757 L-315.4253 -341.7495 L-302.5217 -338.0757 L-313.2029 -329.9571 Z" clip-path="url(#clipPath2)" stroke-linecap="square"/>
      <path fill="none" stroke-dasharray="6,2" d="M-354.982 -300.136 L-260.7934 -275.2836" clip-path="url(#clipPath2)"/>
      <path stroke-dasharray="6,2" d="M-256.9258 -274.2631 L-266.9979 -283.1261 L-256.9258 -274.2631 L-270.0594 -271.5232 Z" clip-path="url(#clipPath2)" stroke="none"/>
      <path fill="none" stroke-miterlimit="10" d="M-256.9258 -274.2631 L-266.9979 -283.1261 L-256.9258 -274.2631 L-270.0594 -271.5232 Z" clip-path="url(#clipPath2)" stroke-linecap="square"/>
      <path fill="none" stroke-dasharray="6,2" d="M-408.7097 -290.5294 L-374.9571 -184.7941" clip-path="url(#clipPath2)"/>
      <path stroke-dasharray="6,2" d="M-373.7407 -180.9835 L-371.674 -194.2398 L-373.7407 -180.9835 L-383.1057 -190.5907 Z" clip-path="url(#clipPath2)" stroke="none"/>
      <path fill="none" stroke-miterlimit="10" d="M-373.7407 -180.9835 L-371.674 -194.2398 L-373.7407 -180.9835 L-383.1057 -190.5907 Z" clip-path="url(#clipPath2)" stroke-linecap="square"/>
      <path fill="none" stroke-dasharray="6,2" d="M-400.8501 -290.4871 L-290.205 -112.2696" clip-path="url(#clipPath2)"/>
      <path stroke-dasharray="6,2" d="M-288.0952 -108.8712 L-289.3272 -122.231 L-288.0952 -108.8712 L-299.5222 -115.9015 Z" clip-path="url(#clipPath2)" stroke="none"/>
      <path fill="none" stroke-miterlimit="10" d="M-288.0952 -108.8712 L-289.3272 -122.231 L-288.0952 -108.8712 L-299.5222 -115.9015 Z" clip-path="url(#clipPath2)" stroke-linecap="square"/>
      <path fill="none" stroke-dasharray="6,2" d="M78.0227 -200.3926 L17.6349 -181.5003" clip-path="url(#clipPath2)"/>
      <path stroke-dasharray="6,2" d="M13.8174 -180.306 L27.0615 -178.1626 L13.8174 -180.306 L23.4785 -189.6152 Z" clip-path="url(#clipPath2)" stroke="none"/>
      <path fill="none" stroke-miterlimit="10" d="M13.8174 -180.306 L27.0615 -178.1626 L13.8174 -180.306 L23.4785 -189.6152 Z" clip-path="url(#clipPath2)" stroke-linecap="square"/>
      <path fill="none" stroke-dasharray="6,2" d="M95.7872 -188.0067 L-14.5942 -105.9915" clip-path="url(#clipPath2)"/>
      <path stroke-dasharray="6,2" d="M-17.8049 -103.6058 L-4.5943 -105.9466 L-17.8049 -103.6058 L-11.7512 -115.5788 Z" clip-path="url(#clipPath2)" stroke="none"/>
      <path fill="none" stroke-miterlimit="10" d="M-17.8049 -103.6058 L-4.5943 -105.9466 L-17.8049 -103.6058 L-11.7512 -115.5788 Z" clip-path="url(#clipPath2)" stroke-linecap="square"/>
    </g>
  </g>
</svg>
