<?xml version="1.0" encoding="UTF-8"?><svg xmlns="http://www.w3.org/2000/svg" xmlns:xlink="http://www.w3.org/1999/xlink" fill-opacity="1" color-rendering="auto" color-interpolation="auto" text-rendering="auto" stroke="black" stroke-linecap="square" width="657" stroke-miterlimit="10" shape-rendering="auto" stroke-opacity="1" fill="black" stroke-dasharray="none" font-weight="normal" stroke-width="1" height="358" font-family="'Dialog'" font-style="normal" stroke-linejoin="miter" font-size="12px" stroke-dashoffset="0" image-rendering="auto">
  <!--Generated by ySVG 2.5-->
  <defs id="genericDefs"/>
  <g>
    <defs id="defs1">
      <clipPath clipPathUnits="userSpaceOnUse" id="clipPath1">
        <path d="M0 0 L657 0 L657 358 L0 358 L0 0 Z"/>
      </clipPath>
      <clipPath clipPathUnits="userSpaceOnUse" id="clipPath2">
        <path d="M-939 -738 L-282 -738 L-282 -380 L-939 -380 L-939 -738 Z"/>
      </clipPath>
      <clipPath clipPathUnits="userSpaceOnUse" id="clipPath3">
        <path d="M-923 -704 L-923 -597 L-715 -597 L-715 -704 Z"/>
      </clipPath>
      <clipPath clipPathUnits="userSpaceOnUse" id="clipPath4">
        <path d="M0 0 L0 60 L183 60 L183 0 Z"/>
      </clipPath>
      <clipPath clipPathUnits="userSpaceOnUse" id="clipPath5">
        <path d="M-585 -722 L-585 -604 L-467 -604 L-467 -722 Z"/>
      </clipPath>
      <clipPath clipPathUnits="userSpaceOnUse" id="clipPath6">
        <path d="M-668 -684 L-668 -656 L-615 -656 L-615 -684 Z"/>
      </clipPath>
      <clipPath clipPathUnits="userSpaceOnUse" id="clipPath7">
        <path d="M-895 -520 L-895 -410 L-732 -410 L-732 -520 Z"/>
      </clipPath>
      <clipPath clipPathUnits="userSpaceOnUse" id="clipPath8">
        <path d="M-426 -531 L-426 -396 L-297 -396 L-297 -531 Z"/>
      </clipPath>
      <clipPath clipPathUnits="userSpaceOnUse" id="clipPath9">
        <path d="M-384 -551 L-384 -523 L-331 -523 L-331 -551 Z"/>
      </clipPath>
      <clipPath clipPathUnits="userSpaceOnUse" id="clipPath10">
        <path d="M-836 -544 L-836 -516 L-783 -516 L-783 -544 Z"/>
      </clipPath>
      <clipPath clipPathUnits="userSpaceOnUse" id="clipPath11">
        <path d="M-634 -516 L-634 -409 L-534 -409 L-534 -516 Z"/>
      </clipPath>
      <clipPath clipPathUnits="userSpaceOnUse" id="clipPath12">
        <path d="M-709 -525 L-709 -497 L-628 -497 L-628 -525 Z"/>
      </clipPath>
      <clipPath clipPathUnits="userSpaceOnUse" id="clipPath13">
        <path d="M-544 -512 L-544 -484 L-491 -484 L-491 -512 Z"/>
      </clipPath>
      <clipPath clipPathUnits="userSpaceOnUse" id="clipPath14">
        <path d="M-668 -457 L-668 -429 L-615 -429 L-615 -457 Z"/>
      </clipPath>
      <clipPath clipPathUnits="userSpaceOnUse" id="clipPath15">
        <path d="M-668 -505 L-668 -477 L-615 -477 L-615 -505 Z"/>
      </clipPath>
      <clipPath clipPathUnits="userSpaceOnUse" id="clipPath16">
        <path d="M-708 -477 L-708 -449 L-629 -449 L-629 -477 Z"/>
      </clipPath>
      <clipPath clipPathUnits="userSpaceOnUse" id="clipPath17">
        <path d="M-534 -484 L-534 -456 L-481 -456 L-481 -484 Z"/>
      </clipPath>
    </defs>
    <g fill="white" text-rendering="geometricPrecision" shape-rendering="geometricPrecision" transform="translate(939,738)" stroke="white">
      <rect x="-939" width="657" height="358" y="-738" clip-path="url(#clipPath2)" stroke="none"/>
    </g>
    <g fill="rgb(255,255,204)" text-rendering="geometricPrecision" shape-rendering="geometricPrecision" transform="matrix(1,0,0,1,939,738)" stroke="rgb(255,255,204)">
      <rect x="-923.5" width="208" height="107" y="-704" clip-path="url(#clipPath2)" stroke="none"/>
    </g>
    <g text-rendering="geometricPrecision" stroke-miterlimit="1.45" shape-rendering="geometricPrecision" transform="matrix(1,0,0,1,939,738)" stroke-linecap="butt">
      <rect fill="none" x="-923.5" width="208" height="107" y="-704" clip-path="url(#clipPath2)"/>
      <text x="-841.3613" font-size="13px" y="-686.6475" clip-path="url(#clipPath3)" font-family="sans-serif" stroke="none" font-weight="bold" xml:space="preserve">MyGUI</text>
      <line stroke-linecap="square" clip-path="url(#clipPath3)" fill="none" x1="-922" x2="-716" y1="-678" y2="-678" stroke-miterlimit="10"/>
      <line stroke-linecap="square" clip-path="url(#clipPath3)" fill="none" x1="-922" x2="-716" y1="-668" y2="-668" stroke-miterlimit="10"/>
    </g>
    <g text-rendering="geometricPrecision" stroke-miterlimit="1.45" shape-rendering="geometricPrecision" font-family="sans-serif" transform="matrix(1,0,0,1,939,738) translate(-918,-663)" stroke-linecap="butt">
      <text x="0" xml:space="preserve" y="12" clip-path="url(#clipPath4)" stroke="none">main(String[])</text>
      <line y2="13" fill="none" x1="0" clip-path="url(#clipPath4)" x2="76" y1="13"/>
      <text x="76" xml:space="preserve" y="12" clip-path="url(#clipPath4)" stroke="none"> </text>
      <text x="0" xml:space="preserve" y="27" clip-path="url(#clipPath4)" stroke="none">+paint(Graphics)</text>
      <text x="98" xml:space="preserve" y="27" clip-path="url(#clipPath4)" stroke="none"> </text>
      <text x="0" xml:space="preserve" y="42" clip-path="url(#clipPath4)" stroke="none">-paintSquare(Square, Graphics)</text>
      <text x="183" xml:space="preserve" y="42" clip-path="url(#clipPath4)" stroke="none"> </text>
      <text x="0" xml:space="preserve" y="57" clip-path="url(#clipPath4)" stroke="none">-paintCircle(Circle, Graphics)</text>
      <text x="167" xml:space="preserve" y="57" clip-path="url(#clipPath4)" stroke="none"> </text>
    </g>
    <g fill="rgb(255,255,204)" text-rendering="geometricPrecision" shape-rendering="geometricPrecision" transform="matrix(1,0,0,1,939,738)" stroke="rgb(255,255,204)">
      <rect x="-585" width="118.8" height="118.6" y="-722.8" clip-path="url(#clipPath2)" stroke="none"/>
    </g>
    <g text-rendering="geometricPrecision" stroke-miterlimit="1.45" shape-rendering="geometricPrecision" transform="matrix(1,0,0,1,939,738)" stroke-linecap="butt">
      <rect fill="none" x="-585" width="118.8" height="118.6" y="-722.8" clip-path="url(#clipPath2)"/>
      <text x="-575.2958" font-size="13px" y="-705.4474" clip-path="url(#clipPath5)" font-family="sans-serif" stroke="none" font-weight="bold" xml:space="preserve">ShapesFactory</text>
      <line stroke-linecap="square" clip-path="url(#clipPath5)" fill="none" x1="-584" x2="-467" y1="-697" y2="-697" stroke-miterlimit="10"/>
      <text x="-580" xml:space="preserve" y="-681.2712" clip-path="url(#clipPath5)" font-family="sans-serif" stroke="none">-width</text>
      <text x="-580" xml:space="preserve" y="-667.3083" clip-path="url(#clipPath5)" font-family="sans-serif" stroke="none">-height</text>
      <line stroke-linecap="square" clip-path="url(#clipPath5)" fill="none" x1="-584" x2="-467" y1="-659" y2="-659" stroke-miterlimit="10"/>
      <text x="-580" xml:space="preserve" y="-643.3454" clip-path="url(#clipPath5)" font-family="sans-serif" stroke="none">+makeSquare()</text>
      <text x="-580" xml:space="preserve" y="-629.3825" clip-path="url(#clipPath5)" font-family="sans-serif" stroke="none">+makeCircle()</text>
      <text x="-663.8691" font-size="13px" y="-667.1871" clip-path="url(#clipPath6)" font-family="sans-serif" stroke="none" xml:space="preserve">uses →</text>
    </g>
    <g fill="rgb(255,255,204)" text-rendering="geometricPrecision" shape-rendering="geometricPrecision" transform="matrix(1,0,0,1,939,738)" stroke="rgb(255,255,204)">
      <rect x="-895.1987" width="163.75" height="110.68" y="-520.2996" clip-path="url(#clipPath2)" stroke="none"/>
    </g>
    <g text-rendering="geometricPrecision" stroke-miterlimit="1.45" shape-rendering="geometricPrecision" transform="matrix(1,0,0,1,939,738)" stroke-linecap="butt">
      <rect fill="none" x="-895.1987" width="163.75" height="110.68" y="-520.2996" clip-path="url(#clipPath2)"/>
      <text x="-836.9719" font-size="13px" y="-502.9471" clip-path="url(#clipPath7)" font-family="sans-serif" stroke="none" font-weight="bold" xml:space="preserve">Square</text>
      <line stroke-linecap="square" clip-path="url(#clipPath7)" fill="none" x1="-894" x2="-732" y1="-495" y2="-495" stroke-miterlimit="10"/>
      <text x="-890.1987" xml:space="preserve" y="-478.7708" clip-path="url(#clipPath7)" font-family="sans-serif" stroke="none">-color</text>
      <line stroke-linecap="square" clip-path="url(#clipPath7)" fill="none" x1="-894" x2="-732" y1="-471" y2="-471" stroke-miterlimit="10"/>
      <text x="-890.1987" xml:space="preserve" y="-454.8079" clip-path="url(#clipPath7)" font-family="sans-serif" stroke="none">+getArea() : float</text>
      <text x="-890.1987" xml:space="preserve" y="-440.845" clip-path="url(#clipPath7)" font-family="sans-serif" stroke="none">+getColor() : Color</text>
      <text x="-890.1987" xml:space="preserve" y="-426.8821" clip-path="url(#clipPath7)" font-family="sans-serif" stroke="none">+getBounds() : Rectangle</text>
    </g>
    <g fill="rgb(255,255,204)" text-rendering="geometricPrecision" shape-rendering="geometricPrecision" transform="matrix(1,0,0,1,939,738)" stroke="rgb(255,255,204)">
      <rect x="-426.88" width="129.25" height="135.88" y="-531.4196" clip-path="url(#clipPath2)" stroke="none"/>
    </g>
    <g text-rendering="geometricPrecision" stroke-miterlimit="1.45" shape-rendering="geometricPrecision" transform="matrix(1,0,0,1,939,738)" stroke-linecap="butt">
      <rect fill="none" x="-426.88" width="129.25" height="135.88" y="-531.4196" clip-path="url(#clipPath2)"/>
      <text x="-382.2723" font-size="13px" y="-514.0671" clip-path="url(#clipPath8)" font-family="sans-serif" stroke="none" font-weight="bold" xml:space="preserve">Circle</text>
      <line stroke-linecap="square" clip-path="url(#clipPath8)" fill="none" x1="-425" x2="-298" y1="-506" y2="-506" stroke-miterlimit="10"/>
      <text x="-421.88" xml:space="preserve" y="-489.8908" clip-path="url(#clipPath8)" font-family="sans-serif" stroke="none">-color</text>
      <text x="-421.88" xml:space="preserve" y="-475.9279" clip-path="url(#clipPath8)" font-family="sans-serif" stroke="none">-radius</text>
      <line stroke-linecap="square" clip-path="url(#clipPath8)" fill="none" x1="-425" x2="-298" y1="-468" y2="-468" stroke-miterlimit="10"/>
      <text x="-421.88" xml:space="preserve" y="-451.965" clip-path="url(#clipPath8)" font-family="sans-serif" stroke="none">+getArea() : float</text>
      <text x="-421.88" xml:space="preserve" y="-438.0021" clip-path="url(#clipPath8)" font-family="sans-serif" stroke="none">+getColor() : Color</text>
      <text x="-421.88" xml:space="preserve" y="-424.0392" clip-path="url(#clipPath8)" font-family="sans-serif" stroke="none">+getBounds() : Bounds</text>
      <text x="-361.9339" font-size="13px" y="-534.2271" clip-path="url(#clipPath9)" font-family="sans-serif" stroke="none" xml:space="preserve">n</text>
      <text x="-814.3206" font-size="13px" y="-527.2671" clip-path="url(#clipPath10)" font-family="sans-serif" stroke="none" xml:space="preserve">n</text>
    </g>
    <g fill="rgb(255,255,204)" text-rendering="geometricPrecision" shape-rendering="geometricPrecision" transform="matrix(1,0,0,1,939,738)" stroke="rgb(255,255,204)">
      <rect x="-634.0933" width="100" height="107" y="-516.6196" clip-path="url(#clipPath2)" stroke="none"/>
    </g>
    <g text-rendering="geometricPrecision" stroke-miterlimit="1.45" shape-rendering="geometricPrecision" transform="matrix(1,0,0,1,939,738)" stroke-linecap="butt">
      <rect fill="none" x="-634.0933" width="100" height="107" y="-516.6196" clip-path="url(#clipPath2)"/>
      <text x="-601.816" font-size="13px" y="-499.2671" clip-path="url(#clipPath11)" font-family="sans-serif" stroke="none" font-weight="bold" xml:space="preserve">Point</text>
      <line stroke-linecap="square" clip-path="url(#clipPath11)" fill="none" x1="-633" x2="-535" y1="-491" y2="-491" stroke-miterlimit="10"/>
      <text x="-629.0933" xml:space="preserve" y="-475.0908" clip-path="url(#clipPath11)" font-family="sans-serif" stroke="none">-x</text>
      <text x="-629.0933" xml:space="preserve" y="-461.1279" clip-path="url(#clipPath11)" font-family="sans-serif" stroke="none">-y</text>
      <line stroke-linecap="square" clip-path="url(#clipPath11)" fill="none" x1="-633" x2="-535" y1="-453" y2="-453" stroke-miterlimit="10"/>
      <text x="-629.0933" xml:space="preserve" y="-437.165" clip-path="url(#clipPath11)" font-family="sans-serif" stroke="none">+getX()</text>
      <text x="-629.0933" xml:space="preserve" y="-423.2021" clip-path="url(#clipPath11)" font-family="sans-serif" stroke="none">+getY()</text>
      <text x="-698.832" font-size="13px" y="-508.0671" clip-path="url(#clipPath12)" font-family="sans-serif" stroke="none" xml:space="preserve">upperLeft</text>
      <text x="-522.2034" font-size="13px" y="-495.2671" clip-path="url(#clipPath13)" font-family="sans-serif" stroke="none" xml:space="preserve">1</text>
      <text x="-645.8701" font-size="13px" y="-439.7671" clip-path="url(#clipPath14)" font-family="sans-serif" stroke="none" xml:space="preserve">1</text>
      <text x="-645.8701" font-size="13px" y="-487.7671" clip-path="url(#clipPath15)" font-family="sans-serif" stroke="none" xml:space="preserve">1</text>
      <text x="-702.0947" font-size="13px" y="-459.7671" clip-path="url(#clipPath16)" font-family="sans-serif" stroke="none" xml:space="preserve">lowerRight</text>
      <text x="-527.2901" font-size="13px" y="-467.2671" clip-path="url(#clipPath17)" font-family="sans-serif" stroke="none" xml:space="preserve">center</text>
      <path fill="none" d="M-715.4833 -663.5 L-584.9849 -663.5" clip-path="url(#clipPath2)"/>
      <path fill="none" d="M-819.5 -590.0359 L-819.5 -520.304" clip-path="url(#clipPath2)"/>
      <path fill="white" d="M-819.5 -597.0359 L-814.5 -590.0359 L-819.5 -583.0359 L-824.5 -590.0359 Z" clip-path="url(#clipPath2)" stroke="none"/>
      <path fill="none" d="M-819.5 -597.0359 L-814.5 -590.0359 L-819.5 -583.0359 L-824.5 -590.0359 Z" clip-path="url(#clipPath2)"/>
      <path fill="none" d="M-769.8693 -589.9777 L-769.8693 -568.5396 L-370.01 -568.5396 L-370.01 -531.4162" clip-path="url(#clipPath2)"/>
      <path fill="white" d="M-769.8693 -596.9777 L-764.8693 -589.9777 L-769.8693 -582.9777 L-774.8693 -589.9777 Z" clip-path="url(#clipPath2)" stroke="none"/>
      <path fill="none" d="M-769.8693 -596.9777 L-764.8693 -589.9777 L-769.8693 -582.9777 L-774.8693 -589.9777 Z" clip-path="url(#clipPath2)"/>
      <path fill="none" d="M-724.4769 -502.5774 L-634.0945 -503.5921" clip-path="url(#clipPath2)"/>
      <path fill="white" d="M-731.4764 -502.4988 L-724.533 -507.5771 L-717.4773 -502.6559 L-724.4208 -497.5777 Z" clip-path="url(#clipPath2)" stroke="none"/>
      <path fill="none" d="M-731.4764 -502.4988 L-724.533 -507.5771 L-717.4773 -502.6559 L-724.4208 -497.5777 Z" clip-path="url(#clipPath2)"/>
      <path fill="none" d="M-724.4095 -456.3927 L-634.1245 -456.3927" clip-path="url(#clipPath2)"/>
      <path fill="white" d="M-731.4095 -456.3927 L-724.4095 -461.3927 L-717.4095 -456.3927 L-724.4095 -451.3927 Z" clip-path="url(#clipPath2)" stroke="none"/>
      <path fill="none" d="M-731.4095 -456.3927 L-724.4095 -461.3927 L-717.4095 -456.3927 L-724.4095 -451.3927 Z" clip-path="url(#clipPath2)"/>
      <path fill="none" d="M-433.8984 -486.1196 L-534.0917 -486.1196" clip-path="url(#clipPath2)"/>
      <path fill="white" d="M-426.8984 -486.1196 L-433.8984 -481.1196 L-440.8984 -486.1196 L-433.8984 -491.1196 Z" clip-path="url(#clipPath2)" stroke="none"/>
      <path fill="none" d="M-426.8984 -486.1196 L-433.8984 -481.1196 L-440.8984 -486.1196 L-433.8984 -491.1196 Z" clip-path="url(#clipPath2)"/>
    </g>
  </g>
</svg>
