<?xml version="1.0" encoding="UTF-8"?><svg xmlns="http://www.w3.org/2000/svg" xmlns:xlink="http://www.w3.org/1999/xlink" fill-opacity="1" color-rendering="auto" color-interpolation="auto" text-rendering="auto" stroke="black" stroke-linecap="square" width="432" stroke-miterlimit="10" shape-rendering="auto" stroke-opacity="1" fill="black" stroke-dasharray="none" font-weight="normal" stroke-width="1" height="251" font-family="'Dialog'" font-style="normal" stroke-linejoin="miter" font-size="12px" stroke-dashoffset="0" image-rendering="auto">
  <!--Generated by ySVG 2.5-->
  <defs id="genericDefs"/>
  <g>
    <defs id="defs1">
      <clipPath clipPathUnits="userSpaceOnUse" id="clipPath1">
        <path d="M0 0 L432 0 L432 251 L0 251 L0 0 Z"/>
      </clipPath>
      <clipPath clipPathUnits="userSpaceOnUse" id="clipPath2">
        <path d="M52 79 L484 79 L484 330 L52 330 L52 79 Z"/>
      </clipPath>
      <clipPath clipPathUnits="userSpaceOnUse" id="clipPath3">
        <path d="M301 101 L301 172 L469 172 L469 101 Z"/>
      </clipPath>
      <clipPath clipPathUnits="userSpaceOnUse" id="clipPath4">
        <path d="M0 0 L0 15 L124 15 L124 0 Z"/>
      </clipPath>
      <clipPath clipPathUnits="userSpaceOnUse" id="clipPath5">
        <path d="M301 252 L301 315 L469 315 L469 252 Z"/>
      </clipPath>
      <clipPath clipPathUnits="userSpaceOnUse" id="clipPath6">
        <path d="M67 107 L67 135 L167 135 L167 107 Z"/>
      </clipPath>
      <clipPath clipPathUnits="userSpaceOnUse" id="clipPath7">
        <path d="M248 94 L248 122 L301 122 L301 94 Z"/>
      </clipPath>
    </defs>
    <g fill="white" text-rendering="geometricPrecision" shape-rendering="geometricPrecision" transform="translate(-52,-79)" stroke="white">
      <rect x="52" width="432" height="251" y="79" clip-path="url(#clipPath2)" stroke="none"/>
    </g>
    <g fill="rgb(255,255,204)" text-rendering="geometricPrecision" shape-rendering="geometricPrecision" transform="matrix(1,0,0,1,-52,-79)" stroke="rgb(255,255,204)">
      <rect x="301" width="168" height="71" y="101" clip-path="url(#clipPath2)" stroke="none"/>
    </g>
    <g text-rendering="geometricPrecision" stroke-miterlimit="1.45" shape-rendering="geometricPrecision" transform="matrix(1,0,0,1,-52,-79)" stroke-linecap="butt">
      <rect fill="none" x="301" width="168" height="71" y="101" clip-path="url(#clipPath2)"/>
      <text x="316.4072" font-size="13px" y="118.3525" clip-path="url(#clipPath3)" font-family="sans-serif" stroke="none" font-weight="bold" xml:space="preserve">javax.Swing.JButton</text>
      <line stroke-linecap="square" clip-path="url(#clipPath3)" fill="none" x1="302" x2="468" y1="126" y2="126" stroke-miterlimit="10"/>
      <line stroke-linecap="square" clip-path="url(#clipPath3)" fill="none" x1="302" x2="468" y1="136" y2="136" stroke-miterlimit="10"/>
    </g>
    <g stroke-linecap="butt" transform="matrix(1,0,0,1,-52,-79) translate(306,141)" text-rendering="geometricPrecision" font-family="sans-serif" shape-rendering="geometricPrecision" font-style="italic" stroke-miterlimit="1.45">
      <text x="0" xml:space="preserve" y="12" clip-path="url(#clipPath4)" stroke="none">#onButtonPressed()   </text>
    </g>
    <g fill="rgb(255,255,204)" text-rendering="geometricPrecision" shape-rendering="geometricPrecision" transform="matrix(1,0,0,1,-52,-79)" stroke="rgb(255,255,204)">
      <rect x="301" width="168" height="63" y="252" clip-path="url(#clipPath2)" stroke="none"/>
    </g>
    <g text-rendering="geometricPrecision" stroke-miterlimit="1.45" shape-rendering="geometricPrecision" transform="matrix(1,0,0,1,-52,-79)" stroke-linecap="butt">
      <rect fill="none" x="301" width="168" height="63" y="252" clip-path="url(#clipPath2)"/>
      <text x="352.4746" font-size="13px" y="269.3525" clip-path="url(#clipPath5)" font-family="sans-serif" stroke="none" font-weight="bold" xml:space="preserve">MyButton</text>
      <line stroke-linecap="square" clip-path="url(#clipPath5)" fill="none" x1="302" x2="468" y1="277" y2="277" stroke-miterlimit="10"/>
      <line stroke-linecap="square" clip-path="url(#clipPath5)" fill="none" x1="302" x2="468" y1="287" y2="287" stroke-miterlimit="10"/>
      <text x="306" xml:space="preserve" y="303.5288" clip-path="url(#clipPath5)" font-family="sans-serif" stroke="none">#onButtonPressed()</text>
    </g>
    <g fill="rgb(255,255,204)" text-rendering="geometricPrecision" shape-rendering="geometricPrecision" transform="matrix(1,0,0,1,-52,-79)" stroke="rgb(255,255,204)">
      <rect x="67" width="100" height="28" y="107" clip-path="url(#clipPath2)" stroke="none"/>
    </g>
    <g text-rendering="geometricPrecision" stroke-miterlimit="1.45" shape-rendering="geometricPrecision" transform="matrix(1,0,0,1,-52,-79)" stroke-linecap="butt">
      <rect fill="none" x="67" width="100" height="28" y="107" clip-path="url(#clipPath2)"/>
      <text x="78.1619" font-size="13px" y="124.3525" clip-path="url(#clipPath6)" font-family="sans-serif" stroke="none" font-weight="bold" xml:space="preserve">MyProgram</text>
      <text x="270.3899" font-size="13px" y="111.3525" clip-path="url(#clipPath7)" font-family="sans-serif" stroke="none" xml:space="preserve">1</text>
      <path fill="none" d="M385 252.0256 L385 187.0095" clip-path="url(#clipPath2)"/>
      <path fill="white" d="M385 172.0095 L379 188.0095 L391 188.0095 Z" clip-path="url(#clipPath2)" stroke="none"/>
      <path fill="none" d="M385 172.0095 L379 188.0095 L391 188.0095 Z" clip-path="url(#clipPath2)"/>
      <path fill="none" d="M173.9724 121 L293.0139 121" clip-path="url(#clipPath2)"/>
      <path fill="white" d="M166.9724 121 L173.9724 116 L180.9724 121 L173.9724 126 Z" clip-path="url(#clipPath2)" stroke="none"/>
      <path fill="none" d="M166.9724 121 L173.9724 116 L180.9724 121 L173.9724 126 Z" clip-path="url(#clipPath2)"/>
      <path d="M301.0139 121 L289.0139 116 L292.0139 121 L289.0139 126 Z" clip-path="url(#clipPath2)" stroke="none"/>
    </g>
  </g>
</svg>
