<?xml version="1.0" encoding="UTF-8"?><svg xmlns="http://www.w3.org/2000/svg" xmlns:xlink="http://www.w3.org/1999/xlink" fill-opacity="1" color-rendering="auto" color-interpolation="auto" text-rendering="auto" stroke="black" stroke-linecap="square" width="554" stroke-miterlimit="10" shape-rendering="auto" stroke-opacity="1" fill="black" stroke-dasharray="none" font-weight="normal" stroke-width="1" height="411" font-family="'Dialog'" font-style="normal" stroke-linejoin="miter" font-size="12px" stroke-dashoffset="0" image-rendering="auto">
  <!--Generated by ySVG 2.5-->
  <defs id="genericDefs"/>
  <g>
    <defs id="defs1">
      <clipPath clipPathUnits="userSpaceOnUse" id="clipPath1">
        <path d="M0 0 L554 0 L554 411 L0 411 L0 0 Z"/>
      </clipPath>
      <clipPath clipPathUnits="userSpaceOnUse" id="clipPath2">
        <path d="M-113 -35 L441 -35 L441 376 L-113 376 L-113 -35 Z"/>
      </clipPath>
      <clipPath clipPathUnits="userSpaceOnUse" id="clipPath3">
        <path d="M-97 8 L-97 113 L73 113 L73 8 Z"/>
      </clipPath>
      <clipPath clipPathUnits="userSpaceOnUse" id="clipPath4">
        <path d="M179 -20 L179 152 L424 152 L424 -20 Z"/>
      </clipPath>
      <clipPath clipPathUnits="userSpaceOnUse" id="clipPath5">
        <path d="M148 261 L148 360 L393 360 L393 261 Z"/>
      </clipPath>
      <clipPath clipPathUnits="userSpaceOnUse" id="clipPath6">
        <path d="M227 234 L227 261 L280 261 L280 234 Z"/>
      </clipPath>
    </defs>
    <g fill="white" text-rendering="geometricPrecision" shape-rendering="geometricPrecision" transform="translate(113,35)" stroke="white">
      <rect x="-113" width="554" height="411" y="-35" clip-path="url(#clipPath2)" stroke="none"/>
    </g>
    <g fill="rgb(255,255,204)" text-rendering="geometricPrecision" shape-rendering="geometricPrecision" transform="matrix(1,0,0,1,113,35)" stroke="rgb(255,255,204)">
      <rect x="-97" width="170" height="105" y="8.5" clip-path="url(#clipPath2)" stroke="none"/>
    </g>
    <g text-rendering="geometricPrecision" stroke-miterlimit="1.45" shape-rendering="geometricPrecision" transform="matrix(1,0,0,1,113,35)" stroke-linecap="butt">
      <rect fill="none" x="-97" width="170" height="105" y="8.5" clip-path="url(#clipPath2)"/>
      <text x="-29.1545" font-size="13px" y="26.0684" clip-path="url(#clipPath3)" font-family="sans-serif" stroke="none" font-weight="bold" xml:space="preserve">Point</text>
      <line stroke-linecap="square" clip-path="url(#clipPath3)" fill="none" x1="-96" x2="71" y1="33" y2="33" stroke-miterlimit="10"/>
      <text x="-92" xml:space="preserve" y="50.4121" clip-path="url(#clipPath3)" font-family="sans-serif" stroke="none">+x : int</text>
      <text x="-92" xml:space="preserve" y="64.5449" clip-path="url(#clipPath3)" font-family="sans-serif" stroke="none">+y : int</text>
      <line stroke-linecap="square" clip-path="url(#clipPath3)" fill="none" x1="-96" x2="71" y1="72" y2="72" stroke-miterlimit="10"/>
      <text x="-92" xml:space="preserve" y="88.6777" clip-path="url(#clipPath3)" font-family="sans-serif" stroke="none">distanceSquared(Point)</text>
    </g>
    <g fill="rgb(255,255,204)" text-rendering="geometricPrecision" shape-rendering="geometricPrecision" transform="matrix(1,0,0,1,113,35)" stroke="rgb(255,255,204)">
      <rect x="179.75" width="245.5" height="172" y="-20" clip-path="url(#clipPath2)" stroke="none"/>
    </g>
    <g text-rendering="geometricPrecision" stroke-miterlimit="1.45" shape-rendering="geometricPrecision" transform="matrix(1,0,0,1,113,35)" stroke-linecap="butt">
      <rect fill="none" x="179.75" width="245.5" height="172" y="-20" clip-path="url(#clipPath2)"/>
      <text x="262.8176" font-size="13px" y="-2.4316" clip-path="url(#clipPath4)" font-family="sans-serif" stroke="none" font-weight="bold" xml:space="preserve">WorldModel</text>
      <line stroke-linecap="square" clip-path="url(#clipPath4)" fill="none" x1="180" x2="424" y1="5" y2="5" stroke-miterlimit="10"/>
      <text x="184.75" xml:space="preserve" y="21.9121" clip-path="url(#clipPath4)" font-family="sans-serif" stroke="none">background : Background[y][x]</text>
      <line stroke-linecap="square" clip-path="url(#clipPath4)" fill="none" x1="180" x2="424" y1="29" y2="29" stroke-miterlimit="10"/>
      <text x="184.75" xml:space="preserve" y="46.0449" clip-path="url(#clipPath4)" font-family="sans-serif" stroke="none">isOccupied(Point) : boolean</text>
      <text x="184.75" xml:space="preserve" y="60.1777" clip-path="url(#clipPath4)" font-family="sans-serif" stroke="none">setOccupancyCell(Point, Entity)</text>
      <text x="184.75" xml:space="preserve" y="74.3105" clip-path="url(#clipPath4)" font-family="sans-serif" stroke="none">withinBounds(Point)</text>
      <text x="184.75" xml:space="preserve" y="88.4434" clip-path="url(#clipPath4)" font-family="sans-serif" stroke="none">setBackgroundCell(Point, Background)</text>
      <text x="184.75" xml:space="preserve" y="102.5762" clip-path="url(#clipPath4)" font-family="sans-serif" stroke="none">findNearest(Entity, EntityKind) : Entity</text>
    </g>
    <g fill="rgb(255,255,204)" text-rendering="geometricPrecision" shape-rendering="geometricPrecision" transform="matrix(1,0,0,1,113,35)" stroke="rgb(255,255,204)">
      <rect x="148.75" width="245.5" height="99" y="262" clip-path="url(#clipPath2)" stroke="none"/>
    </g>
    <g text-rendering="geometricPrecision" stroke-miterlimit="1.45" shape-rendering="geometricPrecision" transform="matrix(1,0,0,1,113,35)" stroke-linecap="butt">
      <rect fill="none" x="148.75" width="245.5" height="99" y="262" clip-path="url(#clipPath2)"/>
      <text x="252.1555" font-size="13px" y="279.5684" clip-path="url(#clipPath5)" font-family="sans-serif" stroke="none" font-weight="bold" xml:space="preserve">Entity</text>
      <line stroke-linecap="square" clip-path="url(#clipPath5)" fill="none" x1="149" x2="393" y1="287" y2="287" stroke-miterlimit="10"/>
      <text x="153.75" xml:space="preserve" y="303.9121" clip-path="url(#clipPath5)" font-family="sans-serif" stroke="none">pos : Point</text>
      <text x="153.75" xml:space="preserve" y="318.0449" clip-path="url(#clipPath5)" font-family="sans-serif" stroke="none">kind : EntityKind</text>
      <line stroke-linecap="square" clip-path="url(#clipPath5)" fill="none" x1="149" x2="393" y1="325" y2="325" stroke-miterlimit="10"/>
      <text x="249.4661" font-size="13px" y="252.5684" clip-path="url(#clipPath6)" font-family="sans-serif" stroke="none" xml:space="preserve">n</text>
      <path fill="none" d="M81.0353 62.4791 L179.7291 64.0482" clip-path="url(#clipPath2)"/>
      <path d="M73.0363 62.3519 L84.9553 67.5421 L82.0352 62.495 L85.1143 57.5433 Z" clip-path="url(#clipPath2)" stroke="none"/>
      <text x="89.1357" xml:space="preserve" y="97.7389" clip-path="url(#clipPath2)" font-family="sans-serif" stroke="none">knows about</text>
      <path fill="none" d="M262 159.0266 L262 253.9657" clip-path="url(#clipPath2)"/>
      <path fill="white" d="M262 152.0266 L267 159.0266 L262 166.0266 L257 159.0266 Z" clip-path="url(#clipPath2)" stroke="none"/>
      <path fill="none" d="M262 152.0266 L267 159.0266 L262 166.0266 L257 159.0266 Z" clip-path="url(#clipPath2)"/>
      <path d="M262 261.9657 L267 249.9657 L262 252.9657 L257 249.9657 Z" clip-path="url(#clipPath2)" stroke="none"/>
      <text x="186.1621" xml:space="preserve" y="211.5352" clip-path="url(#clipPath2)" font-family="sans-serif" stroke="none">occupancy ↓     </text>
      <path fill="none" d="M42.6048 119.3279 L176.1691 261.9988" clip-path="url(#clipPath2)"/>
      <path d="M37.1375 113.4877 L41.6884 125.6651 L43.2883 120.0579 L48.9887 118.8309 Z" clip-path="url(#clipPath2)" stroke="none"/>
      <text x="31.3384" xml:space="preserve" y="195.5033" clip-path="url(#clipPath2)" font-family="sans-serif" stroke="none">knows about</text>
      <path fill="none" d="M352.9589 152.0054 L350.4046 254.0036" clip-path="url(#clipPath2)"/>
      <path d="M350.2043 262.0011 L355.5032 250.13 L350.4297 253.0039 L345.5063 249.8797 Z" clip-path="url(#clipPath2)" stroke="none"/>
      <text x="276.7393" xml:space="preserve" y="211.5352" clip-path="url(#clipPath2)" font-family="sans-serif" stroke="none">knows about    </text>
    </g>
  </g>
</svg>
