<?xml version="1.0" encoding="UTF-8"?><svg xmlns="http://www.w3.org/2000/svg" xmlns:xlink="http://www.w3.org/1999/xlink" fill-opacity="1" color-rendering="auto" color-interpolation="auto" text-rendering="auto" stroke="black" stroke-linecap="square" width="614" stroke-miterlimit="10" shape-rendering="auto" stroke-opacity="1" fill="black" stroke-dasharray="none" font-weight="normal" stroke-width="1" height="414" font-family="'Dialog'" font-style="normal" stroke-linejoin="miter" font-size="12px" stroke-dashoffset="0" image-rendering="auto">
  <!--Generated by ySVG 2.5-->
  <defs id="genericDefs"/>
  <g>
    <defs id="defs1">
      <clipPath clipPathUnits="userSpaceOnUse" id="clipPath1">
        <path d="M0 0 L614 0 L614 414 L0 414 L0 0 Z"/>
      </clipPath>
      <clipPath clipPathUnits="userSpaceOnUse" id="clipPath2">
        <path d="M-260 -173 L354 -173 L354 241 L-260 241 L-260 -173 Z"/>
      </clipPath>
      <clipPath clipPathUnits="userSpaceOnUse" id="clipPath3">
        <path d="M-244 -158 L-244 24 L48 24 L48 -158 Z"/>
      </clipPath>
      <clipPath clipPathUnits="userSpaceOnUse" id="clipPath4">
        <path d="M137 -153 L137 24 L337 24 L337 -153 Z"/>
      </clipPath>
      <clipPath clipPathUnits="userSpaceOnUse" id="clipPath5">
        <path d="M57 133 L57 225 L338 225 L338 133 Z"/>
      </clipPath>
      <clipPath clipPathUnits="userSpaceOnUse" id="clipPath6">
        <path d="M154 106 L154 133 L207 133 L207 106 Z"/>
      </clipPath>
    </defs>
    <g fill="white" text-rendering="geometricPrecision" shape-rendering="geometricPrecision" transform="translate(260,173)" stroke="white">
      <rect x="-260" width="614" height="414" y="-173" clip-path="url(#clipPath2)" stroke="none"/>
    </g>
    <g fill="rgb(255,255,204)" text-rendering="geometricPrecision" shape-rendering="geometricPrecision" transform="matrix(1,0,0,1,260,173)" stroke="rgb(255,255,204)">
      <rect x="-244.5" width="292" height="182" y="-158" clip-path="url(#clipPath2)" stroke="none"/>
    </g>
    <g text-rendering="geometricPrecision" stroke-miterlimit="1.45" shape-rendering="geometricPrecision" transform="matrix(1,0,0,1,260,173)" stroke-linecap="butt">
      <rect fill="none" x="-244.5" width="292" height="182" y="-158" clip-path="url(#clipPath2)"/>
      <text x="-115.6545" font-size="13px" y="-140.4316" clip-path="url(#clipPath3)" font-family="sans-serif" stroke="none" font-weight="bold" xml:space="preserve">Point</text>
      <line stroke-linecap="square" clip-path="url(#clipPath3)" fill="none" x1="-243" x2="46" y1="-132" y2="-132" stroke-miterlimit="10"/>
      <text x="-239.5" xml:space="preserve" y="-116.0879" clip-path="url(#clipPath3)" font-family="sans-serif" stroke="none">+x : int</text>
      <text x="-239.5" xml:space="preserve" y="-101.9551" clip-path="url(#clipPath3)" font-family="sans-serif" stroke="none">+y : int</text>
      <line stroke-linecap="square" clip-path="url(#clipPath3)" fill="none" x1="-243" x2="46" y1="-94" y2="-94" stroke-miterlimit="10"/>
      <text x="-239.5" xml:space="preserve" y="-77.8223" clip-path="url(#clipPath3)" font-family="sans-serif" stroke="none">isOccupied(WorldModel) : boolean</text>
      <text x="-239.5" xml:space="preserve" y="-63.6895" clip-path="url(#clipPath3)" font-family="sans-serif" stroke="none">distanceSquared(Point)</text>
      <text x="-239.5" xml:space="preserve" y="-49.5566" clip-path="url(#clipPath3)" font-family="sans-serif" stroke="none">setOccupancyCell(WorldModel, Entity)</text>
      <text x="-239.5" xml:space="preserve" y="-35.4238" clip-path="url(#clipPath3)" font-family="sans-serif" stroke="none">withinBounds(WorldModel)</text>
      <text x="-239.5" xml:space="preserve" y="-21.291" clip-path="url(#clipPath3)" font-family="sans-serif" stroke="none">setBackgroundCell(WorldModel, Background)</text>
    </g>
    <g fill="rgb(255,255,204)" text-rendering="geometricPrecision" shape-rendering="geometricPrecision" transform="matrix(1,0,0,1,260,173)" stroke="rgb(255,255,204)">
      <rect x="137.75" width="200.5" height="177" y="-153" clip-path="url(#clipPath2)" stroke="none"/>
    </g>
    <g text-rendering="geometricPrecision" stroke-miterlimit="1.45" shape-rendering="geometricPrecision" transform="matrix(1,0,0,1,260,173)" stroke-linecap="butt">
      <rect fill="none" x="137.75" width="200.5" height="177" y="-153" clip-path="url(#clipPath2)"/>
      <text x="198.3176" font-size="13px" y="-135.4316" clip-path="url(#clipPath4)" font-family="sans-serif" stroke="none" font-weight="bold" xml:space="preserve">WorldModel</text>
      <line stroke-linecap="square" clip-path="url(#clipPath4)" fill="none" x1="138" x2="337" y1="-127" y2="-127" stroke-miterlimit="10"/>
      <text x="142.75" xml:space="preserve" y="-111.0879" clip-path="url(#clipPath4)" font-family="sans-serif" stroke="none">background : Background[y][x]</text>
      <line stroke-linecap="square" clip-path="url(#clipPath4)" fill="none" x1="138" x2="337" y1="-103" y2="-103" stroke-miterlimit="10"/>
    </g>
    <g fill="rgb(255,255,204)" text-rendering="geometricPrecision" shape-rendering="geometricPrecision" transform="matrix(1,0,0,1,260,173)" stroke="rgb(255,255,204)">
      <rect x="57.25" width="281" height="92" y="134" clip-path="url(#clipPath2)" stroke="none"/>
    </g>
    <g text-rendering="geometricPrecision" stroke-miterlimit="1.45" shape-rendering="geometricPrecision" transform="matrix(1,0,0,1,260,173)" stroke-linecap="butt">
      <rect fill="none" x="57.25" width="281" height="92" y="134" clip-path="url(#clipPath2)"/>
      <text x="178.4055" font-size="13px" y="151.5684" clip-path="url(#clipPath5)" font-family="sans-serif" stroke="none" font-weight="bold" xml:space="preserve">Entity</text>
      <line stroke-linecap="square" clip-path="url(#clipPath5)" fill="none" x1="58" x2="337" y1="159" y2="159" stroke-miterlimit="10"/>
      <text x="62.25" xml:space="preserve" y="175.9121" clip-path="url(#clipPath5)" font-family="sans-serif" stroke="none">pos : Point</text>
      <text x="62.25" xml:space="preserve" y="190.0449" clip-path="url(#clipPath5)" font-family="sans-serif" stroke="none">kind : EntityKind</text>
      <line stroke-linecap="square" clip-path="url(#clipPath5)" fill="none" x1="58" x2="337" y1="197" y2="197" stroke-miterlimit="10"/>
      <text x="62.25" xml:space="preserve" y="214.1777" clip-path="url(#clipPath5)" font-family="sans-serif" stroke="none">findNearest(WorldModel, EntityKind) : Entity</text>
      <text x="176.4661" font-size="13px" y="124.5684" clip-path="url(#clipPath6)" font-family="sans-serif" stroke="none" xml:space="preserve">n</text>
      <path fill="none" d="M55.5273 -65.8557 L129.7883 -65.3039" clip-path="url(#clipPath2)"/>
      <path d="M47.5275 -65.9151 L59.4901 -60.8261 L56.5273 -65.8482 L59.5643 -70.8258 Z" clip-path="url(#clipPath2)" stroke="none"/>
      <path d="M137.7881 -65.2445 L125.8255 -70.3335 L128.7883 -65.3114 L125.7512 -60.3338 Z" clip-path="url(#clipPath2)" stroke="none"/>
      <text x="55.3857" xml:space="preserve" y="-31.0441" clip-path="url(#clipPath2)" font-family="sans-serif" stroke="none">knows about</text>
      <path fill="none" d="M193 30.9912 L193 125.9639" clip-path="url(#clipPath2)"/>
      <path fill="white" d="M193 23.9912 L198 30.9912 L193 37.9912 L188 30.9912 Z" clip-path="url(#clipPath2)" stroke="none"/>
      <path fill="none" d="M193 23.9912 L198 30.9912 L193 37.9912 L188 30.9912 Z" clip-path="url(#clipPath2)"/>
      <path d="M193 133.9639 L198 121.9639 L193 124.9639 L188 121.9639 Z" clip-path="url(#clipPath2)" stroke="none"/>
      <text x="117.1621" xml:space="preserve" y="83.5352" clip-path="url(#clipPath2)" font-family="sans-serif" stroke="none">occupancy ↓     </text>
      <path fill="none" d="M16.8216 29.15 L136.4108 128.8581" clip-path="url(#clipPath2)"/>
      <path d="M10.6771 24.027 L16.692 35.5518 L17.5897 29.7904 L23.0957 27.8712 Z" clip-path="url(#clipPath2)" stroke="none"/>
      <path d="M142.5553 133.9811 L136.5404 122.4563 L135.6427 128.2177 L130.1367 130.1369 Z" clip-path="url(#clipPath2)" stroke="none"/>
      <text x="-2.0929" xml:space="preserve" y="88.0229" clip-path="url(#clipPath2)" font-family="sans-serif" stroke="none">knows about</text>
      <path fill="none" d="M313 32.0299 L313 126.0113" clip-path="url(#clipPath2)"/>
      <path d="M313 24.0299 L308 36.0299 L313 33.0299 L318 36.0299 Z" clip-path="url(#clipPath2)" stroke="none"/>
      <path d="M313 134.0113 L318 122.0113 L313 125.0113 L308 122.0113 Z" clip-path="url(#clipPath2)" stroke="none"/>
      <text x="238.167" xml:space="preserve" y="83.5352" clip-path="url(#clipPath2)" font-family="sans-serif" stroke="none">knows about    </text>
    </g>
  </g>
</svg>
