<?xml version="1.0" encoding="UTF-8"?><svg xmlns="http://www.w3.org/2000/svg" xmlns:xlink="http://www.w3.org/1999/xlink" fill-opacity="1" color-rendering="auto" color-interpolation="auto" text-rendering="auto" stroke="black" stroke-linecap="square" width="599" stroke-miterlimit="10" shape-rendering="auto" stroke-opacity="1" fill="black" stroke-dasharray="none" font-weight="normal" stroke-width="1" height="261" font-family="'Dialog'" font-style="normal" stroke-linejoin="miter" font-size="12px" stroke-dashoffset="0" image-rendering="auto">
  <!--Generated by ySVG 2.5-->
  <defs id="genericDefs"/>
  <g>
    <defs id="defs1">
      <clipPath clipPathUnits="userSpaceOnUse" id="clipPath1">
        <path d="M0 0 L599 0 L599 261 L0 261 L0 0 Z"/>
      </clipPath>
      <clipPath clipPathUnits="userSpaceOnUse" id="clipPath2">
        <path d="M52 79 L651 79 L651 340 L52 340 L52 79 Z"/>
      </clipPath>
      <clipPath clipPathUnits="userSpaceOnUse" id="clipPath3">
        <path d="M259 111 L259 145 L427 145 L427 111 Z"/>
      </clipPath>
      <clipPath clipPathUnits="userSpaceOnUse" id="clipPath4">
        <path d="M67 107 L67 135 L167 135 L167 107 Z"/>
      </clipPath>
      <clipPath clipPathUnits="userSpaceOnUse" id="clipPath5">
        <path d="M197 94 L197 122 L250 122 L250 94 Z"/>
      </clipPath>
      <clipPath clipPathUnits="userSpaceOnUse" id="clipPath6">
        <path d="M499 101 L499 191 L636 191 L636 101 Z"/>
      </clipPath>
      <clipPath clipPathUnits="userSpaceOnUse" id="clipPath7">
        <path d="M0 0 L0 15 L111 15 L111 0 Z"/>
      </clipPath>
      <clipPath clipPathUnits="userSpaceOnUse" id="clipPath8">
        <path d="M436 101 L436 129 L489 129 L489 101 Z"/>
      </clipPath>
      <clipPath clipPathUnits="userSpaceOnUse" id="clipPath9">
        <path d="M503 265 L503 325 L631 325 L631 265 Z"/>
      </clipPath>
      <clipPath clipPathUnits="userSpaceOnUse" id="clipPath10">
        <path d="M450 265 L450 293 L503 293 L503 265 Z"/>
      </clipPath>
    </defs>
    <g fill="white" text-rendering="geometricPrecision" shape-rendering="geometricPrecision" transform="translate(-52,-79)" stroke="white">
      <rect x="52" width="599" height="261" y="79" clip-path="url(#clipPath2)" stroke="none"/>
    </g>
    <g fill="rgb(255,255,204)" text-rendering="geometricPrecision" shape-rendering="geometricPrecision" transform="matrix(1,0,0,1,-52,-79)" stroke="rgb(255,255,204)">
      <rect x="259" width="168" height="34" y="111.4225" clip-path="url(#clipPath2)" stroke="none"/>
    </g>
    <g text-rendering="geometricPrecision" stroke-miterlimit="1.45" shape-rendering="geometricPrecision" transform="matrix(1,0,0,1,-52,-79)" stroke-linecap="butt">
      <rect fill="none" x="259" width="168" height="34" y="111.4225" clip-path="url(#clipPath2)"/>
      <text x="274.4072" font-size="13px" y="128.7751" clip-path="url(#clipPath3)" font-family="sans-serif" stroke="none" font-weight="bold" xml:space="preserve">javax.Swing.JButton</text>
    </g>
    <g fill="rgb(255,255,204)" text-rendering="geometricPrecision" shape-rendering="geometricPrecision" transform="matrix(1,0,0,1,-52,-79)" stroke="rgb(255,255,204)">
      <rect x="67" width="100" height="28" y="107" clip-path="url(#clipPath2)" stroke="none"/>
    </g>
    <g text-rendering="geometricPrecision" stroke-miterlimit="1.45" shape-rendering="geometricPrecision" transform="matrix(1,0,0,1,-52,-79)" stroke-linecap="butt">
      <rect fill="none" x="67" width="100" height="28" y="107" clip-path="url(#clipPath2)"/>
      <text x="78.1619" font-size="13px" y="124.3525" clip-path="url(#clipPath4)" font-family="sans-serif" stroke="none" font-weight="bold" xml:space="preserve">MyProgram</text>
      <text x="219.3899" font-size="13px" y="111.3525" clip-path="url(#clipPath5)" font-family="sans-serif" stroke="none" xml:space="preserve">1</text>
    </g>
    <g fill="rgb(255,255,204)" text-rendering="geometricPrecision" shape-rendering="geometricPrecision" transform="matrix(1,0,0,1,-52,-79)" stroke="rgb(255,255,204)">
      <rect x="499" width="137" height="90" y="101" clip-path="url(#clipPath2)" stroke="none"/>
    </g>
    <g text-rendering="geometricPrecision" stroke-miterlimit="1.45" shape-rendering="geometricPrecision" transform="matrix(1,0,0,1,-52,-79)" stroke-linecap="butt">
      <rect fill="none" x="499" width="137" height="90" y="101" clip-path="url(#clipPath2)"/>
      <text x="522.9863" xml:space="preserve" y="117.4023" clip-path="url(#clipPath6)" font-family="sans-serif" stroke="none">&lt;&lt;interface&gt;&gt;</text>
      <text x="517.3027" font-size="13px" y="141.3154" clip-path="url(#clipPath6)" font-family="sans-serif" stroke="none" font-weight="bold" xml:space="preserve">ActionListener</text>
      <line stroke-linecap="square" clip-path="url(#clipPath6)" fill="none" x1="500" x2="635" y1="149" y2="149" stroke-miterlimit="10"/>
      <line stroke-linecap="square" clip-path="url(#clipPath6)" fill="none" x1="500" x2="635" y1="159" y2="159" stroke-miterlimit="10"/>
    </g>
    <g stroke-linecap="butt" transform="matrix(1,0,0,1,-52,-79) translate(504,164)" text-rendering="geometricPrecision" font-family="sans-serif" shape-rendering="geometricPrecision" font-style="italic" stroke-miterlimit="1.45">
      <text x="0" xml:space="preserve" y="12" clip-path="url(#clipPath7)" stroke="none">actionPerformed()  </text>
    </g>
    <g font-size="13px" stroke-linecap="butt" transform="matrix(1,0,0,1,-52,-79)" text-rendering="geometricPrecision" font-family="sans-serif" shape-rendering="geometricPrecision" stroke-miterlimit="1.45">
      <text x="440.9229" xml:space="preserve" y="118.3525" clip-path="url(#clipPath8)" stroke="none">calls →</text>
    </g>
    <g fill="rgb(255,255,204)" text-rendering="geometricPrecision" shape-rendering="geometricPrecision" transform="matrix(1,0,0,1,-52,-79)" stroke="rgb(255,255,204)">
      <rect x="503.5" width="128" height="60" y="265" clip-path="url(#clipPath2)" stroke="none"/>
    </g>
    <g text-rendering="geometricPrecision" stroke-miterlimit="1.45" shape-rendering="geometricPrecision" transform="matrix(1,0,0,1,-52,-79)" stroke-linecap="butt">
      <rect fill="none" x="503.5" width="128" height="60" y="265" clip-path="url(#clipPath2)"/>
      <text x="529.8933" font-size="13px" y="282.3525" clip-path="url(#clipPath9)" font-family="sans-serif" stroke="none" font-weight="bold" xml:space="preserve">MyListener</text>
      <line stroke-linecap="square" clip-path="url(#clipPath9)" fill="none" x1="504" x2="630" y1="290" y2="290" stroke-miterlimit="10"/>
      <line stroke-linecap="square" clip-path="url(#clipPath9)" fill="none" x1="504" x2="630" y1="300" y2="300" stroke-miterlimit="10"/>
      <text x="508.5" xml:space="preserve" y="316.5288" clip-path="url(#clipPath9)" font-family="sans-serif" stroke="none">actionPerformed()</text>
      <text x="472.8899" font-size="13px" y="282.3525" clip-path="url(#clipPath10)" font-family="sans-serif" stroke="none" xml:space="preserve">1</text>
      <path fill="none" d="M174.0117 121 L250.9757 121" clip-path="url(#clipPath2)"/>
      <path fill="white" d="M167.0117 121 L174.0117 116 L181.0117 121 L174.0117 126 Z" clip-path="url(#clipPath2)" stroke="none"/>
      <path fill="none" d="M167.0117 121 L174.0117 116 L181.0117 121 L174.0117 126 Z" clip-path="url(#clipPath2)"/>
      <path d="M258.9757 121 L246.9757 116 L249.9757 121 L246.9757 126 Z" clip-path="url(#clipPath2)" stroke="none"/>
      <path fill="none" d="M427.0231 128.4225 L491.0262 128.4225" clip-path="url(#clipPath2)"/>
      <path d="M499.0262 128.4225 L487.0262 123.4225 L490.0262 128.4225 L487.0262 133.4225 Z" clip-path="url(#clipPath2)" stroke="none"/>
      <path fill="none" d="M117 141.9761 L117 295 L495.516 295" clip-path="url(#clipPath2)"/>
      <path fill="white" d="M117 134.9761 L122 141.9761 L117 148.9761 L112 141.9761 Z" clip-path="url(#clipPath2)" stroke="none"/>
      <path fill="none" d="M117 134.9761 L122 141.9761 L117 148.9761 L112 141.9761 Z" clip-path="url(#clipPath2)"/>
      <path d="M503.516 295 L491.516 290 L494.516 295 L491.516 300 Z" clip-path="url(#clipPath2)" stroke="none"/>
      <path fill="none" d="M567.5 264.989 L567.5 205.9985" clip-path="url(#clipPath2)"/>
      <path fill="white" d="M567.5 190.9985 L561.5 206.9985 L573.5 206.9985 Z" clip-path="url(#clipPath2)" stroke="none"/>
      <path fill="none" d="M567.5 190.9985 L561.5 206.9985 L573.5 206.9985 Z" clip-path="url(#clipPath2)"/>
    </g>
  </g>
</svg>
