<?xml version="1.0" encoding="UTF-8"?><svg xmlns="http://www.w3.org/2000/svg" xmlns:xlink="http://www.w3.org/1999/xlink" fill-opacity="1" color-rendering="auto" color-interpolation="auto" text-rendering="auto" stroke="black" stroke-linecap="square" width="884" stroke-miterlimit="10" shape-rendering="auto" stroke-opacity="1" fill="black" stroke-dasharray="none" font-weight="normal" stroke-width="1" height="506" font-family="'Dialog'" font-style="normal" stroke-linejoin="miter" font-size="12px" stroke-dashoffset="0" image-rendering="auto">
  <!--Generated by ySVG 2.5-->
  <defs id="genericDefs"/>
  <g>
    <defs id="defs1">
      <clipPath clipPathUnits="userSpaceOnUse" id="clipPath1">
        <path d="M0 0 L884 0 L884 506 L0 506 L0 0 Z"/>
      </clipPath>
      <clipPath clipPathUnits="userSpaceOnUse" id="clipPath2">
        <path d="M-39 -245 L845 -245 L845 261 L-39 261 L-39 -245 Z"/>
      </clipPath>
      <clipPath clipPathUnits="userSpaceOnUse" id="clipPath3">
        <path d="M136 -161 L136 -44 L367 -44 L367 -161 Z"/>
      </clipPath>
      <clipPath clipPathUnits="userSpaceOnUse" id="clipPath4">
        <path d="M-24 -142 L-24 -114 L76 -114 L76 -142 Z"/>
      </clipPath>
      <clipPath clipPathUnits="userSpaceOnUse" id="clipPath5">
        <path d="M180 0 L180 90 L341 90 L341 0 Z"/>
      </clipPath>
      <clipPath clipPathUnits="userSpaceOnUse" id="clipPath6">
        <path d="M0 0 L0 15 L21 15 L21 0 Z"/>
      </clipPath>
      <clipPath clipPathUnits="userSpaceOnUse" id="clipPath7">
        <path d="M182 147 L182 246 L338 246 L338 147 Z"/>
      </clipPath>
      <clipPath clipPathUnits="userSpaceOnUse" id="clipPath8">
        <path d="M448 -161 L448 -44 L647 -44 L647 -161 Z"/>
      </clipPath>
      <clipPath clipPathUnits="userSpaceOnUse" id="clipPath9">
        <path d="M0 0 L0 30 L169 30 L169 0 Z"/>
      </clipPath>
      <clipPath clipPathUnits="userSpaceOnUse" id="clipPath10">
        <path d="M414 -130 L414 -102 L467 -102 L467 -130 Z"/>
      </clipPath>
      <clipPath clipPathUnits="userSpaceOnUse" id="clipPath11">
        <path d="M387 8 L387 88 L581 88 L581 8 Z"/>
      </clipPath>
      <clipPath clipPathUnits="userSpaceOnUse" id="clipPath12">
        <path d="M605 8 L605 88 L799 88 L799 8 Z"/>
      </clipPath>
      <clipPath clipPathUnits="userSpaceOnUse" id="clipPath13">
        <path d="M700 -144 L700 -64 L829 -64 L829 -144 Z"/>
      </clipPath>
    </defs>
    <g fill="white" text-rendering="geometricPrecision" shape-rendering="geometricPrecision" transform="translate(39,245)" stroke="white">
      <rect x="-39" width="884" height="506" y="-245" clip-path="url(#clipPath2)" stroke="none"/>
    </g>
    <g fill="rgb(255,255,204)" text-rendering="geometricPrecision" shape-rendering="geometricPrecision" transform="matrix(1,0,0,1,39,245)" stroke="rgb(255,255,204)">
      <rect x="136.149" width="231" height="117.5915" y="-161.1244" clip-path="url(#clipPath2)" stroke="none"/>
    </g>
    <g text-rendering="geometricPrecision" stroke-miterlimit="1.45" shape-rendering="geometricPrecision" transform="matrix(1,0,0,1,39,245)" stroke-linecap="butt">
      <rect fill="none" x="136.149" width="231" height="117.5915" y="-161.1244" clip-path="url(#clipPath2)"/>
      <text x="225.2047" font-size="13px" y="-144.0575" clip-path="url(#clipPath3)" font-family="sans-serif" stroke="none" font-weight="bold" xml:space="preserve">Graphy</text>
      <line stroke-linecap="square" clip-path="url(#clipPath3)" fill="none" x1="137" x2="366" y1="-135" y2="-135" stroke-miterlimit="10"/>
      <line stroke-linecap="square" clip-path="url(#clipPath3)" fill="none" x1="137" x2="366" y1="-125" y2="-125" stroke-miterlimit="10"/>
      <text x="141.149" xml:space="preserve" y="-109.8529" clip-path="url(#clipPath3)" font-family="sans-serif" stroke="none">Graphy(GraphRange range)</text>
      <text x="141.149" xml:space="preserve" y="-95.8841" clip-path="url(#clipPath3)" font-family="sans-serif" stroke="none">Graphy(GraphGenerator generator)</text>
      <text x="141.149" xml:space="preserve" y="-81.9154" clip-path="url(#clipPath3)" font-family="sans-serif" stroke="none">add(GraphyFunction f)</text>
      <text x="141.149" xml:space="preserve" y="-67.9466" clip-path="url(#clipPath3)" font-family="sans-serif" stroke="none">add(GraphyFunction f, Color c)</text>
      <text x="141.149" xml:space="preserve" y="-53.9779" clip-path="url(#clipPath3)" font-family="sans-serif" stroke="none">run()</text>
    </g>
    <g fill="rgb(255,255,204)" text-rendering="geometricPrecision" shape-rendering="geometricPrecision" transform="matrix(1,0,0,1,39,245)" stroke="rgb(255,255,204)">
      <rect x="-24" width="100" height="28" y="-142" clip-path="url(#clipPath2)" stroke="none"/>
    </g>
    <g text-rendering="geometricPrecision" stroke-miterlimit="1.45" shape-rendering="geometricPrecision" transform="matrix(1,0,0,1,39,245)" stroke-linecap="butt">
      <rect fill="none" x="-24" width="100" height="28" y="-142" clip-path="url(#clipPath2)"/>
      <text x="-16.158" font-size="13px" y="-124.9331" clip-path="url(#clipPath4)" font-family="sans-serif" stroke="none" font-weight="bold" xml:space="preserve">MyProgram</text>
    </g>
    <g fill="rgb(255,255,204)" text-rendering="geometricPrecision" shape-rendering="geometricPrecision" transform="matrix(1,0,0,1,39,245)" stroke="rgb(255,255,204)">
      <rect x="180.5" width="161" height="90" y="-0.3521" clip-path="url(#clipPath2)" stroke="none"/>
    </g>
    <g text-rendering="geometricPrecision" stroke-miterlimit="1.45" shape-rendering="geometricPrecision" transform="matrix(1,0,0,1,39,245)" stroke-linecap="butt">
      <rect fill="none" x="180.5" width="161" height="90" y="-0.3521" clip-path="url(#clipPath2)"/>
      <text x="182.3701" xml:space="preserve" y="15.7866" clip-path="url(#clipPath5)" font-family="sans-serif" stroke="none">&lt;&lt;functional interface&gt;&gt;</text>
      <text x="202.5793" font-size="13px" y="39.6835" clip-path="url(#clipPath5)" font-family="sans-serif" stroke="none" font-weight="bold" xml:space="preserve">GraphyFunction</text>
      <line stroke-linecap="square" clip-path="url(#clipPath5)" fill="none" x1="181" x2="340" y1="47" y2="47" stroke-miterlimit="10"/>
      <line stroke-linecap="square" clip-path="url(#clipPath5)" fill="none" x1="181" x2="340" y1="57" y2="57" stroke-miterlimit="10"/>
    </g>
    <g stroke-linecap="butt" transform="matrix(1,0,0,1,39,245) translate(185,62)" text-rendering="geometricPrecision" font-family="sans-serif" shape-rendering="geometricPrecision" font-style="italic" stroke-miterlimit="1.45">
      <text x="0" xml:space="preserve" y="12" clip-path="url(#clipPath6)" stroke="none">f(x)</text>
    </g>
    <g fill="rgb(255,255,204)" text-rendering="geometricPrecision" shape-rendering="geometricPrecision" transform="matrix(1,0,0,1,39,245)" stroke="rgb(255,255,204)">
      <rect x="182.75" width="156.5" height="99" y="147" clip-path="url(#clipPath2)" stroke="none"/>
    </g>
    <g text-rendering="geometricPrecision" stroke-miterlimit="1.45" shape-rendering="geometricPrecision" transform="matrix(1,0,0,1,39,245)" stroke-linecap="butt">
      <rect fill="none" x="182.75" width="156.5" height="99" y="147" clip-path="url(#clipPath2)"/>
      <text x="216.7324" xml:space="preserve" y="163.1387" clip-path="url(#clipPath7)" font-family="sans-serif" stroke="none">&lt;&lt;Lambda&gt;&gt;</text>
      <text x="218.2771" font-size="13px" y="187.0356" clip-path="url(#clipPath7)" font-family="sans-serif" stroke="none" font-weight="bold" xml:space="preserve">Anonymous</text>
      <line stroke-linecap="square" clip-path="url(#clipPath7)" fill="none" x1="183" x2="338" y1="195" y2="195" stroke-miterlimit="10"/>
      <line stroke-linecap="square" clip-path="url(#clipPath7)" fill="none" x1="183" x2="338" y1="205" y2="205" stroke-miterlimit="10"/>
      <text x="187.75" xml:space="preserve" y="221.2402" clip-path="url(#clipPath7)" font-family="sans-serif" stroke="none">f(x)</text>
    </g>
    <g fill="rgb(255,255,204)" text-rendering="geometricPrecision" shape-rendering="geometricPrecision" transform="matrix(1,0,0,1,39,245)" stroke="rgb(255,255,204)">
      <rect x="448.5" width="199.5" height="117.5915" y="-161.1244" clip-path="url(#clipPath2)" stroke="none"/>
    </g>
    <g text-rendering="geometricPrecision" stroke-miterlimit="1.45" shape-rendering="geometricPrecision" transform="matrix(1,0,0,1,39,245)" stroke-linecap="butt">
      <rect fill="none" x="448.5" width="199.5" height="117.5915" y="-161.1244" clip-path="url(#clipPath2)"/>
      <text x="501.3809" xml:space="preserve" y="-144.9857" clip-path="url(#clipPath8)" font-family="sans-serif" stroke="none">&lt;&lt;interface&gt;&gt;</text>
      <text x="488.8931" font-size="13px" y="-121.0887" clip-path="url(#clipPath8)" font-family="sans-serif" stroke="none" font-weight="bold" xml:space="preserve">GraphGenerator</text>
      <line stroke-linecap="square" clip-path="url(#clipPath8)" fill="none" x1="449" x2="647" y1="-113" y2="-113" stroke-miterlimit="10"/>
      <line stroke-linecap="square" clip-path="url(#clipPath8)" fill="none" x1="449" x2="647" y1="-103" y2="-103" stroke-miterlimit="10"/>
    </g>
    <g stroke-linecap="butt" transform="matrix(1,0,0,1,39,245) translate(453,-98)" text-rendering="geometricPrecision" font-family="sans-serif" shape-rendering="geometricPrecision" font-style="italic" stroke-miterlimit="1.45">
      <text x="0" xml:space="preserve" y="12" clip-path="url(#clipPath9)" stroke="none">generateGraph(...)</text>
      <text x="118" xml:space="preserve" y="12" clip-path="url(#clipPath9)" stroke="none"> </text>
      <text x="0" xml:space="preserve" y="27" clip-path="url(#clipPath9)" stroke="none">getRange() : GraphRange  </text>
      <text x="169" xml:space="preserve" y="27" clip-path="url(#clipPath9)" stroke="none"> </text>
    </g>
    <g font-size="13px" stroke-linecap="butt" transform="matrix(1,0,0,1,39,245)" text-rendering="geometricPrecision" font-family="sans-serif" shape-rendering="geometricPrecision" stroke-miterlimit="1.45">
      <text x="436.3645" xml:space="preserve" y="-113.4331" clip-path="url(#clipPath10)" stroke="none">1</text>
    </g>
    <g fill="rgb(255,255,204)" text-rendering="geometricPrecision" shape-rendering="geometricPrecision" transform="matrix(1,0,0,1,39,245)" stroke="rgb(255,255,204)">
      <rect x="387" width="194.5" height="80.8966" y="8.7512" clip-path="url(#clipPath2)" stroke="none"/>
    </g>
    <g text-rendering="geometricPrecision" stroke-miterlimit="1.45" shape-rendering="geometricPrecision" transform="matrix(1,0,0,1,39,245)" stroke-linecap="butt">
      <rect fill="none" x="387" width="194.5" height="80.8966" y="8.7512" clip-path="url(#clipPath2)"/>
      <text x="389.9048" font-size="13px" y="25.8181" clip-path="url(#clipPath11)" font-family="sans-serif" stroke="none" font-weight="bold" xml:space="preserve">CartesianGraphGenerator</text>
      <line stroke-linecap="square" clip-path="url(#clipPath11)" fill="none" x1="388" x2="580" y1="33" y2="33" stroke-miterlimit="10"/>
      <line stroke-linecap="square" clip-path="url(#clipPath11)" fill="none" x1="388" x2="580" y1="43" y2="43" stroke-miterlimit="10"/>
      <text x="392" xml:space="preserve" y="60.0227" clip-path="url(#clipPath11)" font-family="sans-serif" stroke="none">generateGraph(...)</text>
      <text x="392" xml:space="preserve" y="73.9915" clip-path="url(#clipPath11)" font-family="sans-serif" stroke="none">getRange() : GraphRange</text>
    </g>
    <g fill="rgb(255,255,204)" text-rendering="geometricPrecision" shape-rendering="geometricPrecision" transform="matrix(1,0,0,1,39,245)" stroke="rgb(255,255,204)">
      <rect x="605.6667" width="194.5" height="80.8966" y="8.7512" clip-path="url(#clipPath2)" stroke="none"/>
    </g>
    <g text-rendering="geometricPrecision" stroke-miterlimit="1.45" shape-rendering="geometricPrecision" transform="matrix(1,0,0,1,39,245)" stroke-linecap="butt">
      <rect fill="none" x="605.6667" width="194.5" height="80.8966" y="8.7512" clip-path="url(#clipPath2)"/>
      <text x="624.5104" font-size="13px" y="25.8181" clip-path="url(#clipPath12)" font-family="sans-serif" stroke="none" font-weight="bold" xml:space="preserve">PolarGraphGenerator</text>
      <line stroke-linecap="square" clip-path="url(#clipPath12)" fill="none" x1="606" x2="799" y1="33" y2="33" stroke-miterlimit="10"/>
      <line stroke-linecap="square" clip-path="url(#clipPath12)" fill="none" x1="606" x2="799" y1="43" y2="43" stroke-miterlimit="10"/>
      <text x="610.6667" xml:space="preserve" y="60.0227" clip-path="url(#clipPath12)" font-family="sans-serif" stroke="none">generateGraph(...)</text>
      <text x="610.6667" xml:space="preserve" y="73.9915" clip-path="url(#clipPath12)" font-family="sans-serif" stroke="none">getRange() : GraphRange</text>
    </g>
    <g fill="rgb(255,255,204)" text-rendering="geometricPrecision" shape-rendering="geometricPrecision" transform="matrix(1,0,0,1,39,245)" stroke="rgb(255,255,204)">
      <rect x="700.1667" width="129" height="80.8966" y="-144.5" clip-path="url(#clipPath2)" stroke="none"/>
    </g>
    <g text-rendering="geometricPrecision" stroke-miterlimit="1.45" shape-rendering="geometricPrecision" transform="matrix(1,0,0,1,39,245)" stroke-linecap="butt">
      <rect fill="none" x="700.1667" width="129" height="80.8966" y="-144.5" clip-path="url(#clipPath2)"/>
      <text x="742.4594" font-size="13px" y="-127.4331" clip-path="url(#clipPath13)" font-family="sans-serif" stroke="none" font-weight="bold" xml:space="preserve">Graph</text>
      <line stroke-linecap="square" clip-path="url(#clipPath13)" fill="none" x1="701" x2="828" y1="-119" y2="-119" stroke-miterlimit="10"/>
      <line stroke-linecap="square" clip-path="url(#clipPath13)" fill="none" x1="701" x2="828" y1="-109" y2="-109" stroke-miterlimit="10"/>
      <text x="705.1667" xml:space="preserve" y="-93.2285" clip-path="url(#clipPath13)" font-family="sans-serif" stroke="none">addPoint(...)</text>
      <text x="705.1667" xml:space="preserve" y="-79.2598" clip-path="url(#clipPath13)" font-family="sans-serif" stroke="none">finishSegment()</text>
      <path fill="none" d="M82.9836 -128 L128.1409 -128" clip-path="url(#clipPath2)"/>
      <path fill="white" d="M75.9836 -128 L82.9836 -133 L89.9836 -128 L82.9836 -123 Z" clip-path="url(#clipPath2)" stroke="none"/>
      <path fill="none" d="M75.9836 -128 L82.9836 -133 L89.9836 -128 L82.9836 -123 Z" clip-path="url(#clipPath2)"/>
      <path d="M136.1409 -128 L124.1409 -133 L127.1409 -128 L124.1409 -123 Z" clip-path="url(#clipPath2)" stroke="none"/>
      <path fill="none" d="M254.5365 -36.5586 L254.5365 -8.3466" clip-path="url(#clipPath2)"/>
      <path fill="white" d="M254.5365 -43.5586 L259.5365 -36.5586 L254.5365 -29.5586 L249.5365 -36.5586 Z" clip-path="url(#clipPath2)" stroke="none"/>
      <path fill="none" d="M254.5365 -43.5586 L259.5365 -36.5586 L254.5365 -29.5586 L249.5365 -36.5586 Z" clip-path="url(#clipPath2)"/>
      <path d="M254.5365 -0.3466 L259.5365 -12.3466 L254.5365 -9.3466 L249.5365 -12.3466 Z" clip-path="url(#clipPath2)" stroke="none"/>
      <path fill="none" d="M26 -114.017 L26 196.5 L174.7719 196.5" clip-path="url(#clipPath2)"/>
      <path d="M182.7719 196.5 L170.7719 191.5 L173.7719 196.5 L170.7719 201.5 Z" clip-path="url(#clipPath2)" stroke="none"/>
      <text x="39.8143" xml:space="preserve" y="170.6543" clip-path="url(#clipPath2)" font-family="sans-serif" stroke="none">creates -&gt;</text>
      <path fill="none" stroke-dasharray="6,2" d="M261 147.0072 L261 104.68" clip-path="url(#clipPath2)"/>
      <path fill="white" stroke-dasharray="6,2" d="M261 89.68 L255 105.68 L267 105.68 Z" clip-path="url(#clipPath2)" stroke="none"/>
      <path fill="none" d="M261 89.68 L255 105.68 L267 105.68 Z" clip-path="url(#clipPath2)"/>
      <path fill="none" d="M374.1829 -102.3286 L440.4774 -102.3286" clip-path="url(#clipPath2)"/>
      <path fill="white" d="M367.1829 -102.3286 L374.1829 -107.3286 L381.1829 -102.3286 L374.1829 -97.3286 Z" clip-path="url(#clipPath2)" stroke="none"/>
      <path fill="none" d="M367.1829 -102.3286 L374.1829 -107.3286 L381.1829 -102.3286 L374.1829 -97.3286 Z" clip-path="url(#clipPath2)"/>
      <path d="M448.4774 -102.3286 L436.4774 -107.3286 L439.4774 -102.3286 L436.4774 -97.3286 Z" clip-path="url(#clipPath2)" stroke="none"/>
      <path fill="none" stroke-dasharray="6,2" d="M484.25 8.7342 L484.25 -14.5 L548.25 -14.5 L548.25 -28.5332" clip-path="url(#clipPath2)"/>
      <path fill="white" stroke-dasharray="6,2" d="M548.25 -43.5332 L542.25 -27.5332 L554.25 -27.5332 Z" clip-path="url(#clipPath2)" stroke="none"/>
      <path fill="none" d="M548.25 -43.5332 L542.25 -27.5332 L554.25 -27.5332 Z" clip-path="url(#clipPath2)"/>
      <path fill="none" stroke-dasharray="6,2" d="M702.9167 8.7342 L702.9167 -14.5 L548.25 -14.5 L548.25 -28.5332" clip-path="url(#clipPath2)"/>
      <path fill="white" stroke-dasharray="6,2" d="M548.25 -43.5332 L542.25 -27.5332 L554.25 -27.5332 Z" clip-path="url(#clipPath2)" stroke="none"/>
      <path fill="none" d="M548.25 -43.5332 L542.25 -27.5332 L554.25 -27.5332 Z" clip-path="url(#clipPath2)"/>
      <path fill="none" stroke-dasharray="6,2" d="M647.9781 -103.1226 L695.1406 -103.4981" clip-path="url(#clipPath2)"/>
      <path stroke-dasharray="6,2" d="M699.1404 -103.53 L687.093 -109.4342 L699.1404 -103.53 L687.1885 -97.4346 Z" clip-path="url(#clipPath2)" stroke="none"/>
      <path fill="none" stroke-miterlimit="10" d="M699.1404 -103.53 L687.093 -109.4342 L699.1404 -103.53 L687.1885 -97.4346 Z" clip-path="url(#clipPath2)" stroke-linecap="square"/>
      <path fill="none" d="M251.649 -161.0952 L251.649 -190.5 L764.6667 -190.5 L764.6667 -152.5321" clip-path="url(#clipPath2)"/>
      <path d="M764.6667 -144.5321 L769.6667 -156.5321 L764.6667 -153.5321 L759.6667 -156.5321 Z" clip-path="url(#clipPath2)" stroke="none"/>
      <text x="514.2457" xml:space="preserve" y="-216.3457" clip-path="url(#clipPath2)" font-family="sans-serif" stroke="none">creates -&gt;</text>
    </g>
  </g>
</svg>
