<?xml version="1.0" encoding="UTF-8"?><svg xmlns="http://www.w3.org/2000/svg" xmlns:xlink="http://www.w3.org/1999/xlink" fill-opacity="1" color-rendering="auto" color-interpolation="auto" text-rendering="auto" stroke="black" stroke-linecap="square" width="623" stroke-miterlimit="10" shape-rendering="auto" stroke-opacity="1" fill="black" stroke-dasharray="none" font-weight="normal" stroke-width="1" height="303" font-family="'Dialog'" font-style="normal" stroke-linejoin="miter" font-size="12px" stroke-dashoffset="0" image-rendering="auto">
  <!--Generated by ySVG 2.5-->
  <defs id="genericDefs"/>
  <g>
    <defs id="defs1">
      <clipPath clipPathUnits="userSpaceOnUse" id="clipPath1">
        <path d="M0 0 L623 0 L623 303 L0 303 L0 0 Z"/>
      </clipPath>
      <clipPath clipPathUnits="userSpaceOnUse" id="clipPath2">
        <path d="M-39 -173 L584 -173 L584 130 L-39 130 L-39 -173 Z"/>
      </clipPath>
      <clipPath clipPathUnits="userSpaceOnUse" id="clipPath3">
        <path d="M161 -157 L161 -49 L361 -49 L361 -157 Z"/>
      </clipPath>
      <clipPath clipPathUnits="userSpaceOnUse" id="clipPath4">
        <path d="M-24 -142 L-24 -114 L76 -114 L76 -142 Z"/>
      </clipPath>
      <clipPath clipPathUnits="userSpaceOnUse" id="clipPath5">
        <path d="M408 -148 L408 -58 L569 -58 L569 -148 Z"/>
      </clipPath>
      <clipPath clipPathUnits="userSpaceOnUse" id="clipPath6">
        <path d="M0 0 L0 15 L21 15 L21 0 Z"/>
      </clipPath>
      <clipPath clipPathUnits="userSpaceOnUse" id="clipPath7">
        <path d="M412 16 L412 115 L568 115 L568 16 Z"/>
      </clipPath>
    </defs>
    <g fill="white" text-rendering="geometricPrecision" shape-rendering="geometricPrecision" transform="translate(39,173)" stroke="white">
      <rect x="-39" width="623" height="303" y="-173" clip-path="url(#clipPath2)" stroke="none"/>
    </g>
    <g fill="rgb(255,255,204)" text-rendering="geometricPrecision" shape-rendering="geometricPrecision" transform="matrix(1,0,0,1,39,173)" stroke="rgb(255,255,204)">
      <rect x="161" width="200" height="108.5915" y="-157.2958" clip-path="url(#clipPath2)" stroke="none"/>
    </g>
    <g text-rendering="geometricPrecision" stroke-miterlimit="1.45" shape-rendering="geometricPrecision" transform="matrix(1,0,0,1,39,173)" stroke-linecap="butt">
      <rect fill="none" x="161" width="200" height="108.5915" y="-157.2958" clip-path="url(#clipPath2)"/>
      <text x="234.5557" font-size="13px" y="-140.2289" clip-path="url(#clipPath3)" font-family="sans-serif" stroke="none" font-weight="bold" xml:space="preserve">Graphy</text>
      <line stroke-linecap="square" clip-path="url(#clipPath3)" fill="none" x1="162" x2="360" y1="-132" y2="-132" stroke-miterlimit="10"/>
      <line stroke-linecap="square" clip-path="url(#clipPath3)" fill="none" x1="162" x2="360" y1="-122" y2="-122" stroke-miterlimit="10"/>
      <text x="166" xml:space="preserve" y="-106.0243" clip-path="url(#clipPath3)" font-family="sans-serif" stroke="none">Graphy(GraphRange range)</text>
      <text x="166" xml:space="preserve" y="-92.0555" clip-path="url(#clipPath3)" font-family="sans-serif" stroke="none">add(GraphyFunction f)</text>
      <text x="166" xml:space="preserve" y="-78.0868" clip-path="url(#clipPath3)" font-family="sans-serif" stroke="none">add(GraphyFunction f, Color c)</text>
      <text x="166" xml:space="preserve" y="-64.118" clip-path="url(#clipPath3)" font-family="sans-serif" stroke="none">run()</text>
    </g>
    <g fill="rgb(255,255,204)" text-rendering="geometricPrecision" shape-rendering="geometricPrecision" transform="matrix(1,0,0,1,39,173)" stroke="rgb(255,255,204)">
      <rect x="-24" width="100" height="28" y="-142" clip-path="url(#clipPath2)" stroke="none"/>
    </g>
    <g text-rendering="geometricPrecision" stroke-miterlimit="1.45" shape-rendering="geometricPrecision" transform="matrix(1,0,0,1,39,173)" stroke-linecap="butt">
      <rect fill="none" x="-24" width="100" height="28" y="-142" clip-path="url(#clipPath2)"/>
      <text x="-16.158" font-size="13px" y="-124.9331" clip-path="url(#clipPath4)" font-family="sans-serif" stroke="none" font-weight="bold" xml:space="preserve">MyProgram</text>
    </g>
    <g fill="rgb(255,255,204)" text-rendering="geometricPrecision" shape-rendering="geometricPrecision" transform="matrix(1,0,0,1,39,173)" stroke="rgb(255,255,204)">
      <rect x="408" width="161" height="90" y="-148" clip-path="url(#clipPath2)" stroke="none"/>
    </g>
    <g text-rendering="geometricPrecision" stroke-miterlimit="1.45" shape-rendering="geometricPrecision" transform="matrix(1,0,0,1,39,173)" stroke-linecap="butt">
      <rect fill="none" x="408" width="161" height="90" y="-148" clip-path="url(#clipPath2)"/>
      <text x="409.8701" xml:space="preserve" y="-131.8613" clip-path="url(#clipPath5)" font-family="sans-serif" stroke="none">&lt;&lt;functional interface&gt;&gt;</text>
      <text x="430.0793" font-size="13px" y="-107.9644" clip-path="url(#clipPath5)" font-family="sans-serif" stroke="none" font-weight="bold" xml:space="preserve">GraphyFunction</text>
      <line stroke-linecap="square" clip-path="url(#clipPath5)" fill="none" x1="409" x2="568" y1="-99" y2="-99" stroke-miterlimit="10"/>
      <line stroke-linecap="square" clip-path="url(#clipPath5)" fill="none" x1="409" x2="568" y1="-89" y2="-89" stroke-miterlimit="10"/>
    </g>
    <g stroke-linecap="butt" transform="matrix(1,0,0,1,39,173) translate(413,-84)" text-rendering="geometricPrecision" font-family="sans-serif" shape-rendering="geometricPrecision" font-style="italic" stroke-miterlimit="1.45">
      <text x="0" xml:space="preserve" y="12" clip-path="url(#clipPath6)" stroke="none">f(x)</text>
    </g>
    <g fill="rgb(255,255,204)" text-rendering="geometricPrecision" shape-rendering="geometricPrecision" transform="matrix(1,0,0,1,39,173)" stroke="rgb(255,255,204)">
      <rect x="412.5" width="156.5" height="99" y="16" clip-path="url(#clipPath2)" stroke="none"/>
    </g>
    <g text-rendering="geometricPrecision" stroke-miterlimit="1.45" shape-rendering="geometricPrecision" transform="matrix(1,0,0,1,39,173)" stroke-linecap="butt">
      <rect fill="none" x="412.5" width="156.5" height="99" y="16" clip-path="url(#clipPath2)"/>
      <text x="446.4824" xml:space="preserve" y="32.1387" clip-path="url(#clipPath7)" font-family="sans-serif" stroke="none">&lt;&lt;Lambda&gt;&gt;</text>
      <text x="448.0271" font-size="13px" y="56.0356" clip-path="url(#clipPath7)" font-family="sans-serif" stroke="none" font-weight="bold" xml:space="preserve">Anonymous</text>
      <line stroke-linecap="square" clip-path="url(#clipPath7)" fill="none" x1="413" x2="568" y1="64" y2="64" stroke-miterlimit="10"/>
      <line stroke-linecap="square" clip-path="url(#clipPath7)" fill="none" x1="413" x2="568" y1="74" y2="74" stroke-miterlimit="10"/>
      <text x="417.5" xml:space="preserve" y="90.2402" clip-path="url(#clipPath7)" font-family="sans-serif" stroke="none">f(x)</text>
      <path fill="none" d="M83.005 -127.683 L153.026 -127.2937" clip-path="url(#clipPath2)"/>
      <path fill="white" d="M76.0051 -127.722 L83.0328 -132.683 L90.0049 -127.6441 L82.9772 -122.6831 Z" clip-path="url(#clipPath2)" stroke="none"/>
      <path fill="none" d="M76.0051 -127.722 L83.0328 -132.683 L90.0049 -127.6441 L82.9772 -122.6831 Z" clip-path="url(#clipPath2)"/>
      <path d="M161.0258 -127.2492 L149.0538 -132.3159 L152.026 -127.2993 L148.9982 -122.316 Z" clip-path="url(#clipPath2)" stroke="none"/>
      <path fill="none" d="M368.0038 -120.5775 L400.0162 -120.5775" clip-path="url(#clipPath2)"/>
      <path fill="white" d="M361.0038 -120.5775 L368.0038 -125.5775 L375.0038 -120.5775 L368.0038 -115.5775 Z" clip-path="url(#clipPath2)" stroke="none"/>
      <path fill="none" d="M361.0038 -120.5775 L368.0038 -125.5775 L375.0038 -120.5775 L368.0038 -115.5775 Z" clip-path="url(#clipPath2)"/>
      <path d="M408.0162 -120.5775 L396.0162 -125.5775 L399.0162 -120.5775 L396.0162 -115.5775 Z" clip-path="url(#clipPath2)" stroke="none"/>
      <path fill="none" d="M26 -113.9694 L26 65.5 L404.488 65.5" clip-path="url(#clipPath2)"/>
      <path d="M412.488 65.5 L400.488 60.5 L403.488 65.5 L400.488 70.5 Z" clip-path="url(#clipPath2)" stroke="none"/>
      <text x="127.5967" xml:space="preserve" y="39.6543" clip-path="url(#clipPath2)" font-family="sans-serif" stroke="none">creates -&gt;</text>
      <path fill="none" d="M490.0892 16.0114 L489.3013 -42.9944" clip-path="url(#clipPath2)"/>
      <path fill="white" d="M489.101 -57.993 L483.3152 -41.9143 L495.3141 -42.0746 Z" clip-path="url(#clipPath2)" stroke="none"/>
      <path fill="none" d="M489.101 -57.993 L483.3152 -41.9143 L495.3141 -42.0746 Z" clip-path="url(#clipPath2)"/>
    </g>
  </g>
</svg>
