<?xml version="1.0" encoding="UTF-8"?><svg xmlns="http://www.w3.org/2000/svg" xmlns:xlink="http://www.w3.org/1999/xlink" fill-opacity="1" color-rendering="auto" color-interpolation="auto" text-rendering="auto" stroke="black" stroke-linecap="square" width="594" stroke-miterlimit="10" shape-rendering="auto" stroke-opacity="1" fill="black" stroke-dasharray="none" font-weight="normal" stroke-width="1" height="382" font-family="'Dialog'" font-style="normal" stroke-linejoin="miter" font-size="12px" stroke-dashoffset="0" image-rendering="auto">
  <!--Generated by ySVG 2.5-->
  <defs id="genericDefs"/>
  <g>
    <defs id="defs1">
      <clipPath clipPathUnits="userSpaceOnUse" id="clipPath1">
        <path d="M0 0 L594 0 L594 382 L0 382 L0 0 Z"/>
      </clipPath>
      <clipPath clipPathUnits="userSpaceOnUse" id="clipPath2">
        <path d="M-684 -502 L-90 -502 L-90 -120 L-684 -120 L-684 -502 Z"/>
      </clipPath>
      <clipPath clipPathUnits="userSpaceOnUse" id="clipPath3">
        <path d="M-282 -256 L-282 -143 L-105 -143 L-105 -256 Z"/>
      </clipPath>
      <clipPath clipPathUnits="userSpaceOnUse" id="clipPath4">
        <path d="M-624 -264 L-624 -135 L-411 -135 L-411 -264 Z"/>
      </clipPath>
      <clipPath clipPathUnits="userSpaceOnUse" id="clipPath5">
        <path d="M-668 -486 L-668 -398 L-367 -398 L-367 -486 Z"/>
      </clipPath>
    </defs>
    <g fill="white" text-rendering="geometricPrecision" shape-rendering="geometricPrecision" transform="translate(684,502)" stroke="white">
      <rect x="-684" width="594" height="382" y="-502" clip-path="url(#clipPath2)" stroke="none"/>
    </g>
    <g fill="rgb(255,255,204)" text-rendering="geometricPrecision" shape-rendering="geometricPrecision" transform="matrix(1,0,0,1,684,502)" stroke="rgb(255,255,204)">
      <rect x="-282.5" width="177" height="114" y="-256.5" clip-path="url(#clipPath2)" stroke="none"/>
    </g>
    <g text-rendering="geometricPrecision" stroke-miterlimit="1.45" shape-rendering="geometricPrecision" transform="matrix(1,0,0,1,684,502)" stroke-linecap="butt">
      <rect fill="none" x="-282.5" width="177" height="114" y="-256.5" clip-path="url(#clipPath2)"/>
      <text x="-243.8831" font-size="13px" y="-238.9316" clip-path="url(#clipPath3)" font-family="sans-serif" stroke="none" font-weight="bold" xml:space="preserve">GoodCustomer</text>
      <line stroke-linecap="square" clip-path="url(#clipPath3)" fill="none" x1="-281" x2="-106" y1="-231" y2="-231" stroke-miterlimit="10"/>
      <text x="-277.5" xml:space="preserve" y="-214.5879" clip-path="url(#clipPath3)" font-family="sans-serif" stroke="none">name : String</text>
      <text x="-277.5" xml:space="preserve" y="-200.4551" clip-path="url(#clipPath3)" font-family="sans-serif" stroke="none">purchaseHistory : List&lt;...&gt;</text>
      <text x="-277.5" xml:space="preserve" y="-186.3223" clip-path="url(#clipPath3)" font-family="sans-serif" stroke="none">creditRating : int</text>
      <text x="-277.5" xml:space="preserve" y="-172.1895" clip-path="url(#clipPath3)" font-family="sans-serif" stroke="none">complaintLog : List&lt;...&gt;</text>
      <line stroke-linecap="square" clip-path="url(#clipPath3)" fill="none" x1="-281" x2="-106" y1="-164" y2="-164" stroke-miterlimit="10"/>
    </g>
    <g fill="rgb(255,255,204)" text-rendering="geometricPrecision" shape-rendering="geometricPrecision" transform="matrix(1,0,0,1,684,502)" stroke="rgb(255,255,204)">
      <rect x="-624" width="213" height="129" y="-264" clip-path="url(#clipPath2)" stroke="none"/>
    </g>
    <g text-rendering="geometricPrecision" stroke-miterlimit="1.45" shape-rendering="geometricPrecision" transform="matrix(1,0,0,1,684,502)" stroke-linecap="butt">
      <rect fill="none" x="-624" width="213" height="129" y="-264" clip-path="url(#clipPath2)"/>
      <text x="-549.29" xml:space="preserve" y="-247.3984" clip-path="url(#clipPath4)" font-family="sans-serif" stroke="none">&lt;&lt;final&gt;&gt;</text>
      <text x="-557.2363" font-size="13px" y="-223.2988" clip-path="url(#clipPath4)" font-family="sans-serif" stroke="none" font-weight="bold" xml:space="preserve">CustomerID</text>
      <line stroke-linecap="square" clip-path="url(#clipPath4)" fill="none" x1="-623" x2="-412" y1="-215" y2="-215" stroke-miterlimit="10"/>
      <text x="-619" xml:space="preserve" y="-198.9551" clip-path="url(#clipPath4)" font-family="sans-serif" stroke="none">driversLicenseNo : String</text>
      <text x="-619" xml:space="preserve" y="-184.8223" clip-path="url(#clipPath4)" font-family="sans-serif" stroke="none">state : String</text>
      <line stroke-linecap="square" clip-path="url(#clipPath4)" fill="none" x1="-623" x2="-412" y1="-177" y2="-177" stroke-miterlimit="10"/>
      <text x="-619" xml:space="preserve" y="-160.6895" clip-path="url(#clipPath4)" font-family="sans-serif" stroke="none">equals(Object other) : Boolean</text>
      <text x="-619" xml:space="preserve" y="-146.5566" clip-path="url(#clipPath4)" font-family="sans-serif" stroke="none">hashCode() : int</text>
    </g>
    <g fill="white" text-rendering="geometricPrecision" shape-rendering="geometricPrecision" transform="matrix(1,0,0,1,684,502)" stroke="white">
      <path d="M-411 -232 L-381 -232 L-388.5 -202 L-403.5 -202 Z" fill-rule="evenodd" clip-path="url(#clipPath2)" stroke="none"/>
      <path fill="none" stroke-miterlimit="1.45" d="M-411 -232 L-381 -232 L-388.5 -202 L-403.5 -202 Z" fill-rule="evenodd" clip-path="url(#clipPath2)" stroke-linecap="butt"/>
    </g>
    <g text-rendering="geometricPrecision" stroke-miterlimit="1.45" shape-rendering="geometricPrecision" font-family="sans-serif" transform="matrix(1,0,0,1,684,502)" stroke-linecap="butt">
      <text x="-399.7939" xml:space="preserve" y="-212.4648" clip-path="url(#clipPath2)" stroke="none">1</text>
    </g>
    <g fill="white" text-rendering="geometricPrecision" shape-rendering="geometricPrecision" transform="matrix(1,0,0,1,684,502)" stroke="white">
      <path d="M-312.5 -232 L-282.5 -232 L-290 -202 L-305 -202 Z" fill-rule="evenodd" clip-path="url(#clipPath2)" stroke="none"/>
      <path fill="none" stroke-miterlimit="1.45" d="M-312.5 -232 L-282.5 -232 L-290 -202 L-305 -202 Z" fill-rule="evenodd" clip-path="url(#clipPath2)" stroke-linecap="butt"/>
    </g>
    <g text-rendering="geometricPrecision" stroke-miterlimit="1.45" shape-rendering="geometricPrecision" font-family="sans-serif" transform="matrix(1,0,0,1,684,502)" stroke-linecap="butt">
      <text x="-301.2939" xml:space="preserve" y="-212.4648" clip-path="url(#clipPath2)" stroke="none">1</text>
    </g>
    <g fill="rgb(255,255,204)" text-rendering="geometricPrecision" shape-rendering="geometricPrecision" transform="matrix(1,0,0,1,684,502)" stroke="rgb(255,255,204)">
      <rect x="-668" width="301" height="88" y="-486" clip-path="url(#clipPath2)" stroke="none"/>
    </g>
    <g text-rendering="geometricPrecision" stroke-miterlimit="1.45" shape-rendering="geometricPrecision" transform="matrix(1,0,0,1,684,502)" stroke-linecap="butt">
      <rect fill="none" x="-668" width="301" height="88" y="-486" clip-path="url(#clipPath2)"/>
      <text x="-634.6174" font-size="13px" y="-468.4316" clip-path="url(#clipPath5)" font-family="sans-serif" stroke="none" font-weight="bold" xml:space="preserve">HashMap&lt;CustomerID, Customer&gt;</text>
      <line stroke-linecap="square" clip-path="url(#clipPath5)" fill="none" x1="-667" x2="-368" y1="-460" y2="-460" stroke-miterlimit="10"/>
      <text x="-663" xml:space="preserve" y="-444.0879" clip-path="url(#clipPath5)" font-family="sans-serif" stroke="none"> </text>
      <line stroke-linecap="square" clip-path="url(#clipPath5)" fill="none" x1="-667" x2="-368" y1="-436" y2="-436" stroke-miterlimit="10"/>
      <text x="-663" xml:space="preserve" y="-419.9551" clip-path="url(#clipPath5)" font-family="sans-serif" stroke="none"> </text>
      <path fill="none" d="M-289.4965 -199.5 L-410.9854 -199.5" clip-path="url(#clipPath2)"/>
      <path fill="white" d="M-282.4965 -199.5 L-289.4965 -194.5 L-296.4965 -199.5 L-289.4965 -204.5 Z" clip-path="url(#clipPath2)" stroke="none"/>
      <path fill="none" d="M-282.4965 -199.5 L-289.4965 -194.5 L-296.4965 -199.5 L-289.4965 -204.5 Z" clip-path="url(#clipPath2)"/>
      <path fill="none" d="M-517.5 -397.9818 L-517.5 -271.9969" clip-path="url(#clipPath2)"/>
      <path d="M-517.5 -263.9969 L-512.5 -275.9969 L-517.5 -272.9969 L-522.5 -275.9969 Z" clip-path="url(#clipPath2)" stroke="none"/>
      <text x="-566.3115" xml:space="preserve" y="-326.4648" clip-path="url(#clipPath2)" font-family="sans-serif" stroke="none">keys ↓</text>
      <path fill="none" d="M-409.5 -398.0046 L-409.5 -300 L-194 -300 L-194 -256.4729" clip-path="url(#clipPath2)"/>
      <text x="-463.5469" xml:space="preserve" y="-337.4316" clip-path="url(#clipPath2)" font-family="sans-serif" stroke="none">values ↓</text>
    </g>
  </g>
</svg>
