<?xml version="1.0" encoding="UTF-8"?><svg xmlns="http://www.w3.org/2000/svg" xmlns:xlink="http://www.w3.org/1999/xlink" fill-opacity="1" color-rendering="auto" color-interpolation="auto" text-rendering="auto" stroke="black" stroke-linecap="square" width="566" stroke-miterlimit="10" shape-rendering="auto" stroke-opacity="1" fill="black" stroke-dasharray="none" font-weight="normal" stroke-width="1" height="165" font-family="'Dialog'" font-style="normal" stroke-linejoin="miter" font-size="12px" stroke-dashoffset="0" image-rendering="auto">
  <!--Generated by ySVG 2.5-->
  <defs id="genericDefs"/>
  <g>
    <defs id="defs1">
      <clipPath clipPathUnits="userSpaceOnUse" id="clipPath1">
        <path d="M0 0 L566 0 L566 165 L0 165 L0 0 Z"/>
      </clipPath>
      <clipPath clipPathUnits="userSpaceOnUse" id="clipPath2">
        <path d="M102 -102 L668 -102 L668 63 L102 63 L102 -102 Z"/>
      </clipPath>
      <clipPath clipPathUnits="userSpaceOnUse" id="clipPath3">
        <path d="M419 -86 L419 47 L652 47 L652 -86 Z"/>
      </clipPath>
      <clipPath clipPathUnits="userSpaceOnUse" id="clipPath4">
        <path d="M117 -74 L117 -15 L281 -15 L281 -74 Z"/>
      </clipPath>
      <clipPath clipPathUnits="userSpaceOnUse" id="clipPath5">
        <path d="M0 0 L0 15 L123 15 L123 0 Z"/>
      </clipPath>
      <clipPath clipPathUnits="userSpaceOnUse" id="clipPath6">
        <path d="M304 -64 L304 -39 L395 -39 L395 -64 Z"/>
      </clipPath>
    </defs>
    <g fill="white" text-rendering="geometricPrecision" shape-rendering="geometricPrecision" transform="translate(-102,102)" stroke="white">
      <rect x="102" width="566" height="165" y="-102" clip-path="url(#clipPath2)" stroke="none"/>
    </g>
    <g fill="rgb(255,255,204)" text-rendering="geometricPrecision" shape-rendering="geometricPrecision" transform="matrix(1,0,0,1,-102,102)" stroke="rgb(255,255,204)">
      <rect x="419.2" width="233.1733" height="133.92" y="-86.88" clip-path="url(#clipPath2)" stroke="none"/>
    </g>
    <g text-rendering="geometricPrecision" stroke-miterlimit="1.45" shape-rendering="geometricPrecision" transform="matrix(1,0,0,1,-102,102)" stroke-linecap="butt">
      <rect fill="none" x="419.2" width="233.1733" height="133.92" y="-86.88" clip-path="url(#clipPath2)"/>
      <text x="523.9642" font-size="13px" y="-69.5275" clip-path="url(#clipPath3)" font-family="sans-serif" stroke="none" font-weight="bold" xml:space="preserve">Car</text>
      <line stroke-linecap="square" clip-path="url(#clipPath3)" fill="none" x1="420" x2="651" y1="-61" y2="-61" stroke-miterlimit="10"/>
      <text x="424.2" xml:space="preserve" y="-45.3512" clip-path="url(#clipPath3)" font-family="sans-serif" stroke="none">+make : String</text>
      <text x="424.2" xml:space="preserve" y="-31.3883" clip-path="url(#clipPath3)" font-family="sans-serif" stroke="none">-model : String</text>
      <line stroke-linecap="square" clip-path="url(#clipPath3)" fill="none" x1="420" x2="651" y1="-23" y2="-23" stroke-miterlimit="10"/>
      <text x="424.2" xml:space="preserve" y="-7.4254" clip-path="url(#clipPath3)" font-family="sans-serif" stroke="none">+getModel()</text>
      <text x="424.2" xml:space="preserve" y="6.5375" clip-path="url(#clipPath3)" font-family="sans-serif" stroke="none">+toString() : String</text>
      <text x="424.2" xml:space="preserve" y="20.5004" clip-path="url(#clipPath3)" font-family="sans-serif" stroke="none">-getMembersAsString() : String</text>
      <text x="424.2" xml:space="preserve" y="34.4633" clip-path="url(#clipPath3)" font-family="sans-serif" stroke="none">-getMembersAsString(String) : String</text>
    </g>
    <g fill="rgb(255,255,204)" text-rendering="geometricPrecision" shape-rendering="geometricPrecision" transform="matrix(1,0,0,1,-102,102)" stroke="rgb(255,255,204)">
      <rect x="117.16" width="164.64" height="59.36" y="-74.08" clip-path="url(#clipPath2)" stroke="none"/>
    </g>
    <g text-rendering="geometricPrecision" stroke-miterlimit="1.45" shape-rendering="geometricPrecision" transform="matrix(1,0,0,1,-102,102)" stroke-linecap="butt">
      <rect fill="none" x="117.16" width="164.64" height="59.36" y="-74.08" clip-path="url(#clipPath2)"/>
      <text x="182.9444" font-size="13px" y="-56.7275" clip-path="url(#clipPath4)" font-family="sans-serif" stroke="none" font-weight="bold" xml:space="preserve">Main</text>
      <line stroke-linecap="square" clip-path="url(#clipPath4)" fill="none" x1="118" x2="280" y1="-48" y2="-48" stroke-miterlimit="10"/>
      <line stroke-linecap="square" clip-path="url(#clipPath4)" fill="none" x1="118" x2="280" y1="-38" y2="-38" stroke-miterlimit="10"/>
    </g>
    <g text-rendering="geometricPrecision" stroke-miterlimit="1.45" shape-rendering="geometricPrecision" font-family="sans-serif" transform="matrix(1,0,0,1,-102,102) translate(122,-33)" stroke-linecap="butt">
      <text x="0" xml:space="preserve" y="12" clip-path="url(#clipPath5)" stroke="none">+main(args : String[])</text>
      <line y2="13" fill="none" x1="0" clip-path="url(#clipPath5)" x2="123" y1="13"/>
    </g>
    <g font-size="13px" stroke-linecap="butt" transform="matrix(1,0,0,1,-102,102)" text-rendering="geometricPrecision" font-family="sans-serif" shape-rendering="geometricPrecision" stroke-miterlimit="1.45">
      <text x="310.7351" xml:space="preserve" y="-46.9675" clip-path="url(#clipPath6)" stroke="none">plays with →</text>
      <path fill="none" d="M281.7791 -44.4 L419.218 -44.4" clip-path="url(#clipPath2)"/>
      <text x="348.6016" xml:space="preserve" font-size="12px" y="-69.9791" clip-path="url(#clipPath2)" stroke="none"> </text>
    </g>
  </g>
</svg>
