<?xml version="1.0" encoding="UTF-8"?><svg xmlns="http://www.w3.org/2000/svg" xmlns:xlink="http://www.w3.org/1999/xlink" fill-opacity="1" color-rendering="auto" color-interpolation="auto" text-rendering="auto" stroke="black" stroke-linecap="square" width="625" stroke-miterlimit="10" shape-rendering="auto" stroke-opacity="1" fill="black" stroke-dasharray="none" font-weight="normal" stroke-width="1" height="410" font-family="'Dialog'" font-style="normal" stroke-linejoin="miter" font-size="12px" stroke-dashoffset="0" image-rendering="auto">
  <!--Generated by ySVG 2.5-->
  <defs id="genericDefs"/>
  <g>
    <defs id="defs1">
      <clipPath clipPathUnits="userSpaceOnUse" id="clipPath1">
        <path d="M0 0 L625 0 L625 410 L0 410 L0 0 Z"/>
      </clipPath>
      <clipPath clipPathUnits="userSpaceOnUse" id="clipPath2">
        <path d="M-1308 -750 L-683 -750 L-683 -340 L-1308 -340 L-1308 -750 Z"/>
      </clipPath>
      <clipPath clipPathUnits="userSpaceOnUse" id="clipPath3">
        <path d="M-1088 -734 L-1088 -640 L-913 -640 L-913 -734 Z"/>
      </clipPath>
      <clipPath clipPathUnits="userSpaceOnUse" id="clipPath4">
        <path d="M-1292 -584 L-1292 -509 L-1129 -509 L-1129 -584 Z"/>
      </clipPath>
      <clipPath clipPathUnits="userSpaceOnUse" id="clipPath5">
        <path d="M-1088 -584 L-1088 -509 L-913 -509 L-913 -584 Z"/>
      </clipPath>
      <clipPath clipPathUnits="userSpaceOnUse" id="clipPath6">
        <path d="M-873 -594 L-873 -500 L-698 -500 L-698 -594 Z"/>
      </clipPath>
      <clipPath clipPathUnits="userSpaceOnUse" id="clipPath7">
        <path d="M0 0 L0 15 L161 15 L161 0 Z"/>
      </clipPath>
      <clipPath clipPathUnits="userSpaceOnUse" id="clipPath8">
        <path d="M-883 -444 L-883 -356 L-698 -356 L-698 -444 Z"/>
      </clipPath>
    </defs>
    <g fill="white" text-rendering="geometricPrecision" shape-rendering="geometricPrecision" transform="translate(1308,750)" stroke="white">
      <rect x="-1308" width="625" height="410" y="-750" clip-path="url(#clipPath2)" stroke="none"/>
    </g>
    <g fill="rgb(255,255,204)" text-rendering="geometricPrecision" shape-rendering="geometricPrecision" transform="matrix(1,0,0,1,1308,750)" stroke="rgb(255,255,204)">
      <rect x="-1088.5" width="175" height="95" y="-735" clip-path="url(#clipPath2)" stroke="none"/>
    </g>
    <g text-rendering="geometricPrecision" stroke-miterlimit="1.45" shape-rendering="geometricPrecision" transform="matrix(1,0,0,1,1308,750)" stroke-linecap="butt">
      <rect fill="none" x="-1088.5" width="175" height="95" y="-735" clip-path="url(#clipPath2)"/>
      <text x="-1045.5137" xml:space="preserve" y="-718.3984" clip-path="url(#clipPath3)" font-family="sans-serif" stroke="none">&lt;&lt;interface&gt;&gt;</text>
      <text x="-1028.0283" font-size="13px" y="-694.2988" clip-path="url(#clipPath3)" font-family="sans-serif" stroke="none" font-weight="bold" xml:space="preserve">List&lt;T&gt;</text>
      <line stroke-linecap="square" clip-path="url(#clipPath3)" fill="none" x1="-1087" x2="-914" y1="-686" y2="-686" stroke-miterlimit="10"/>
      <text x="-1083.5" xml:space="preserve" y="-669.9551" clip-path="url(#clipPath3)" font-family="sans-serif" stroke="none"> </text>
      <line stroke-linecap="square" clip-path="url(#clipPath3)" fill="none" x1="-1087" x2="-914" y1="-662" y2="-662" stroke-miterlimit="10"/>
      <text x="-1083.5" xml:space="preserve" y="-645.8223" clip-path="url(#clipPath3)" font-family="sans-serif" stroke="none"> +add(int index, T element)</text>
    </g>
    <g fill="rgb(255,255,204)" text-rendering="geometricPrecision" shape-rendering="geometricPrecision" transform="matrix(1,0,0,1,1308,750)" stroke="rgb(255,255,204)">
      <rect x="-1292" width="163" height="76" y="-585" clip-path="url(#clipPath2)" stroke="none"/>
    </g>
    <g text-rendering="geometricPrecision" stroke-miterlimit="1.45" shape-rendering="geometricPrecision" transform="matrix(1,0,0,1,1308,750)" stroke-linecap="butt">
      <rect fill="none" x="-1292" width="163" height="76" y="-585" clip-path="url(#clipPath2)"/>
      <text x="-1255.835" font-size="13px" y="-567.4316" clip-path="url(#clipPath4)" font-family="sans-serif" stroke="none" font-weight="bold" xml:space="preserve">ArrayList&lt;T&gt;</text>
      <line stroke-linecap="square" clip-path="url(#clipPath4)" fill="none" x1="-1291" x2="-1130" y1="-559" y2="-559" stroke-miterlimit="10"/>
      <text x="-1287" xml:space="preserve" y="-543.0879" clip-path="url(#clipPath4)" font-family="sans-serif" stroke="none"> </text>
      <line stroke-linecap="square" clip-path="url(#clipPath4)" fill="none" x1="-1291" x2="-1130" y1="-535" y2="-535" stroke-miterlimit="10"/>
      <text x="-1287" xml:space="preserve" y="-518.9551" clip-path="url(#clipPath4)" font-family="sans-serif" stroke="none">+add(int index, T element)</text>
    </g>
    <g fill="rgb(255,255,204)" text-rendering="geometricPrecision" shape-rendering="geometricPrecision" transform="matrix(1,0,0,1,1308,750)" stroke="rgb(255,255,204)">
      <rect x="-1088.5" width="175" height="76" y="-585" clip-path="url(#clipPath2)" stroke="none"/>
    </g>
    <g text-rendering="geometricPrecision" stroke-miterlimit="1.45" shape-rendering="geometricPrecision" transform="matrix(1,0,0,1,1308,750)" stroke-linecap="butt">
      <rect fill="none" x="-1088.5" width="175" height="76" y="-585" clip-path="url(#clipPath2)"/>
      <text x="-1074.2043" font-size="13px" y="-567.4316" clip-path="url(#clipPath5)" font-family="sans-serif" stroke="none" font-weight="bold" xml:space="preserve">DoublyLinkedList&lt;T&gt;</text>
      <line stroke-linecap="square" clip-path="url(#clipPath5)" fill="none" x1="-1087" x2="-914" y1="-559" y2="-559" stroke-miterlimit="10"/>
      <text x="-1083.5" xml:space="preserve" y="-543.0879" clip-path="url(#clipPath5)" font-family="sans-serif" stroke="none"> </text>
      <line stroke-linecap="square" clip-path="url(#clipPath5)" fill="none" x1="-1087" x2="-914" y1="-535" y2="-535" stroke-miterlimit="10"/>
      <text x="-1083.5" xml:space="preserve" y="-518.9551" clip-path="url(#clipPath5)" font-family="sans-serif" stroke="none"> +add(int index, T element)</text>
    </g>
    <g fill="rgb(255,255,204)" text-rendering="geometricPrecision" shape-rendering="geometricPrecision" transform="matrix(1,0,0,1,1308,750)" stroke="rgb(255,255,204)">
      <rect x="-873" width="175" height="95" y="-594.5" clip-path="url(#clipPath2)" stroke="none"/>
    </g>
    <g text-rendering="geometricPrecision" stroke-miterlimit="1.45" shape-rendering="geometricPrecision" transform="matrix(1,0,0,1,1308,750)" stroke-linecap="butt">
      <rect fill="none" x="-873" width="175" height="95" y="-594.5" clip-path="url(#clipPath2)"/>
      <text x="-830.0137" xml:space="preserve" y="-577.8984" clip-path="url(#clipPath6)" font-family="sans-serif" stroke="none">&lt;&lt;interface&gt;&gt;</text>
      <text x="-834.0977" font-size="13px" y="-553.7988" clip-path="url(#clipPath6)" font-family="sans-serif" stroke="none" font-weight="bold" xml:space="preserve">SortedList&lt;T&gt;</text>
      <line stroke-linecap="square" clip-path="url(#clipPath6)" fill="none" x1="-872" x2="-699" y1="-546" y2="-546" stroke-miterlimit="10"/>
      <text x="-868" xml:space="preserve" y="-529.4551" clip-path="url(#clipPath6)" font-family="sans-serif" stroke="none"> </text>
      <line stroke-linecap="square" clip-path="url(#clipPath6)" fill="none" x1="-872" x2="-699" y1="-521" y2="-521" stroke-miterlimit="10"/>
    </g>
    <g stroke-linecap="butt" transform="matrix(1,0,0,1,1308,750) translate(-868,-516)" fill="red" text-rendering="geometricPrecision" font-family="sans-serif" shape-rendering="geometricPrecision" stroke="red" stroke-miterlimit="1.45">
      <text x="0" xml:space="preserve" y="12" clip-path="url(#clipPath7)" stroke="none">+add(int index, T element) </text>
    </g>
    <g fill="rgb(255,255,204)" text-rendering="geometricPrecision" shape-rendering="geometricPrecision" transform="matrix(1,0,0,1,1308,750)" stroke="rgb(255,255,204)">
      <rect x="-883" width="185" height="89" y="-445" clip-path="url(#clipPath2)" stroke="none"/>
    </g>
    <g text-rendering="geometricPrecision" stroke-miterlimit="1.45" shape-rendering="geometricPrecision" transform="matrix(1,0,0,1,1308,750)" stroke-linecap="butt">
      <rect fill="none" x="-883" width="185" height="89" y="-445" clip-path="url(#clipPath2)"/>
      <text x="-853.6274" font-size="13px" y="-427.4316" clip-path="url(#clipPath8)" font-family="sans-serif" stroke="none" font-weight="bold" xml:space="preserve">BinaryTreeList&lt;T&gt;</text>
      <line stroke-linecap="square" clip-path="url(#clipPath8)" fill="none" x1="-882" x2="-699" y1="-419" y2="-419" stroke-miterlimit="10"/>
      <text x="-878" xml:space="preserve" y="-403.0879" clip-path="url(#clipPath8)" font-family="sans-serif" stroke="none"> </text>
      <line stroke-linecap="square" clip-path="url(#clipPath8)" fill="none" x1="-882" x2="-699" y1="-395" y2="-395" stroke-miterlimit="10"/>
    </g>
    <g stroke-linecap="butt" transform="matrix(1,0,0,1,1308,750) translate(-878,-390)" fill="red" text-rendering="geometricPrecision" font-family="sans-serif" shape-rendering="geometricPrecision" stroke="red" stroke-miterlimit="1.45">
      <text x="0" xml:space="preserve" y="12" clip-path="url(#clipPath7)" stroke="none">+add(int index, T element) </text>
    </g>
    <g text-rendering="geometricPrecision" stroke-miterlimit="1.45" stroke-dasharray="6,2" shape-rendering="geometricPrecision" transform="matrix(1,0,0,1,1308,750)" stroke-linecap="butt">
      <path fill="none" d="M-1210.5 -585.0193 L-1210.5 -605.5 L-1001 -605.5 L-1001 -624.9736" clip-path="url(#clipPath2)"/>
      <path fill="white" d="M-1001 -639.9736 L-1007 -623.9736 L-995 -623.9736 Z" clip-path="url(#clipPath2)" stroke="none"/>
      <path fill="none" stroke-dasharray="none" d="M-1001 -639.9736 L-1007 -623.9736 L-995 -623.9736 Z" clip-path="url(#clipPath2)"/>
      <path fill="none" d="M-1001 -584.972 L-1001 -625.0157" clip-path="url(#clipPath2)"/>
      <path fill="white" d="M-1001 -640.0157 L-1007 -624.0157 L-995 -624.0157 Z" clip-path="url(#clipPath2)" stroke="none"/>
      <path fill="none" stroke-dasharray="none" d="M-1001 -640.0157 L-1007 -624.0157 L-995 -624.0157 Z" clip-path="url(#clipPath2)"/>
      <path fill="none" d="M-785.5 -594.5027 L-785.5 -605.5 L-1001 -605.5 L-1001 -624.9736" clip-path="url(#clipPath2)"/>
      <path fill="white" d="M-1001 -639.9736 L-1007 -623.9736 L-995 -623.9736 Z" clip-path="url(#clipPath2)" stroke="none"/>
      <path fill="none" stroke-dasharray="none" d="M-1001 -639.9736 L-1007 -623.9736 L-995 -623.9736 Z" clip-path="url(#clipPath2)"/>
      <path fill="none" d="M-788.9802 -445.0294 L-787.6345 -484.459" clip-path="url(#clipPath2)"/>
      <path fill="white" d="M-787.1229 -499.4503 L-793.6652 -483.6642 L-781.6721 -483.2549 Z" clip-path="url(#clipPath2)" stroke="none"/>
      <path fill="none" stroke-dasharray="none" d="M-787.1229 -499.4503 L-793.6652 -483.6642 L-781.6721 -483.2549 Z" clip-path="url(#clipPath2)"/>
    </g>
  </g>
</svg>
