<?xml version="1.0" encoding="UTF-8"?><svg xmlns="http://www.w3.org/2000/svg" xmlns:xlink="http://www.w3.org/1999/xlink" fill-opacity="1" color-rendering="auto" color-interpolation="auto" text-rendering="auto" stroke="black" stroke-linecap="square" width="136" stroke-miterlimit="10" shape-rendering="auto" stroke-opacity="1" fill="black" stroke-dasharray="none" font-weight="normal" stroke-width="1" height="358" font-family="'Dialog'" font-style="normal" stroke-linejoin="miter" font-size="12px" stroke-dashoffset="0" image-rendering="auto">
  <!--Generated by ySVG 2.5-->
  <defs id="genericDefs"/>
  <g>
    <defs id="defs1">
      <clipPath clipPathUnits="userSpaceOnUse" id="clipPath1">
        <path d="M0 0 L136 0 L136 358 L0 358 L0 0 Z"/>
      </clipPath>
      <clipPath clipPathUnits="userSpaceOnUse" id="clipPath2">
        <path d="M-1353 -816 L-1217 -816 L-1217 -458 L-1353 -458 L-1353 -816 Z"/>
      </clipPath>
      <clipPath clipPathUnits="userSpaceOnUse" id="clipPath3">
        <path d="M-1337 -800 L-1337 -663 L-1232 -663 L-1232 -800 Z"/>
      </clipPath>
      <clipPath clipPathUnits="userSpaceOnUse" id="clipPath4">
        <path d="M-1337 -610 L-1337 -473 L-1232 -473 L-1232 -610 Z"/>
      </clipPath>
    </defs>
    <g fill="white" text-rendering="geometricPrecision" shape-rendering="geometricPrecision" transform="translate(1353,816)" stroke="white">
      <rect x="-1353" width="136" height="358" y="-816" clip-path="url(#clipPath2)" stroke="none"/>
    </g>
    <g fill="rgb(255,255,204)" text-rendering="geometricPrecision" shape-rendering="geometricPrecision" transform="matrix(1,0,0,1,1353,816)" stroke="rgb(255,255,204)">
      <rect x="-1337" width="105" height="138" y="-801" clip-path="url(#clipPath2)" stroke="none"/>
    </g>
    <g text-rendering="geometricPrecision" stroke-miterlimit="1.45" shape-rendering="geometricPrecision" transform="matrix(1,0,0,1,1353,816)" stroke-linecap="butt">
      <rect fill="none" x="-1337" width="105" height="138" y="-801" clip-path="url(#clipPath2)"/>
      <text x="-1317.1873" font-size="13px" y="-783.4316" clip-path="url(#clipPath3)" font-family="sans-serif" stroke="none" font-weight="bold" xml:space="preserve">Rectangle</text>
      <line stroke-linecap="square" clip-path="url(#clipPath3)" fill="none" x1="-1336" x2="-1233" y1="-775" y2="-775" stroke-miterlimit="10"/>
      <text x="-1332" xml:space="preserve" y="-759.0879" clip-path="url(#clipPath3)" font-family="sans-serif" stroke="none">  </text>
      <line stroke-linecap="square" clip-path="url(#clipPath3)" fill="none" x1="-1336" x2="-1233" y1="-751" y2="-751" stroke-miterlimit="10"/>
      <text x="-1332" xml:space="preserve" y="-734.9551" clip-path="url(#clipPath3)" font-family="sans-serif" stroke="none">+getWidth()</text>
      <text x="-1332" xml:space="preserve" y="-720.8223" clip-path="url(#clipPath3)" font-family="sans-serif" stroke="none">+getHeight()</text>
      <text x="-1332" xml:space="preserve" y="-706.6895" clip-path="url(#clipPath3)" font-family="sans-serif" stroke="none">+setWidth(int)</text>
      <text x="-1332" xml:space="preserve" y="-692.5566" clip-path="url(#clipPath3)" font-family="sans-serif" stroke="none">+setHeight(int)</text>
      <text x="-1332" xml:space="preserve" y="-678.4238" clip-path="url(#clipPath3)" font-family="sans-serif" stroke="none">+getArea()</text>
    </g>
    <g fill="rgb(255,255,204)" text-rendering="geometricPrecision" shape-rendering="geometricPrecision" transform="matrix(1,0,0,1,1353,816)" stroke="rgb(255,255,204)">
      <rect x="-1337" width="105" height="138" y="-611" clip-path="url(#clipPath2)" stroke="none"/>
    </g>
    <g text-rendering="geometricPrecision" stroke-miterlimit="1.45" shape-rendering="geometricPrecision" transform="matrix(1,0,0,1,1353,816)" stroke-linecap="butt">
      <rect fill="none" x="-1337" width="105" height="138" y="-611" clip-path="url(#clipPath2)"/>
      <text x="-1307.3738" font-size="13px" y="-593.4316" clip-path="url(#clipPath4)" font-family="sans-serif" stroke="none" font-weight="bold" xml:space="preserve">Square</text>
      <line stroke-linecap="square" clip-path="url(#clipPath4)" fill="none" x1="-1336" x2="-1233" y1="-585" y2="-585" stroke-miterlimit="10"/>
      <text x="-1332" xml:space="preserve" y="-569.0879" clip-path="url(#clipPath4)" font-family="sans-serif" stroke="none">  </text>
      <line stroke-linecap="square" clip-path="url(#clipPath4)" fill="none" x1="-1336" x2="-1233" y1="-561" y2="-561" stroke-miterlimit="10"/>
      <text x="-1332" xml:space="preserve" y="-544.9551" clip-path="url(#clipPath4)" font-family="sans-serif" stroke="none">+getWidth()</text>
      <text x="-1332" xml:space="preserve" y="-530.8223" clip-path="url(#clipPath4)" font-family="sans-serif" stroke="none">+getHeight()</text>
      <text x="-1332" xml:space="preserve" y="-516.6895" clip-path="url(#clipPath4)" font-family="sans-serif" stroke="none">+setWidth(int)</text>
      <text x="-1332" xml:space="preserve" y="-502.5566" clip-path="url(#clipPath4)" font-family="sans-serif" stroke="none">+setHeight(int)</text>
      <text x="-1332" xml:space="preserve" y="-488.4238" clip-path="url(#clipPath4)" font-family="sans-serif" stroke="none">+getArea()</text>
      <path fill="none" d="M-1284.5 -610.9771 L-1284.5 -648.0087" clip-path="url(#clipPath2)"/>
      <path fill="white" d="M-1284.5 -663.0087 L-1290.5 -647.0087 L-1278.5 -647.0087 Z" clip-path="url(#clipPath2)" stroke="none"/>
      <path fill="none" d="M-1284.5 -663.0087 L-1290.5 -647.0087 L-1278.5 -647.0087 Z" clip-path="url(#clipPath2)"/>
    </g>
  </g>
</svg>
