<?xml version="1.0" encoding="UTF-8"?><svg xmlns="http://www.w3.org/2000/svg" xmlns:xlink="http://www.w3.org/1999/xlink" fill-opacity="1" color-rendering="auto" color-interpolation="auto" text-rendering="auto" stroke="black" stroke-linecap="square" width="423" stroke-miterlimit="10" shape-rendering="auto" stroke-opacity="1" fill="black" stroke-dasharray="none" font-weight="normal" stroke-width="1" height="250" font-family="'Dialog'" font-style="normal" stroke-linejoin="miter" font-size="12px" stroke-dashoffset="0" image-rendering="auto">
  <!--Generated by ySVG 2.5-->
  <defs id="genericDefs"/>
  <g>
    <defs id="defs1">
      <clipPath clipPathUnits="userSpaceOnUse" id="clipPath1">
        <path d="M0 0 L423 0 L423 250 L0 250 L0 0 Z"/>
      </clipPath>
      <clipPath clipPathUnits="userSpaceOnUse" id="clipPath2">
        <path d="M-1098 -696 L-675 -696 L-675 -446 L-1098 -446 L-1098 -696 Z"/>
      </clipPath>
      <clipPath clipPathUnits="userSpaceOnUse" id="clipPath3">
        <path d="M-1082 -680 L-1082 -605 L-964 -605 L-964 -680 Z"/>
      </clipPath>
      <clipPath clipPathUnits="userSpaceOnUse" id="clipPath4">
        <path d="M0 0 L0 43 L37 43 L37 0 Z"/>
      </clipPath>
      <clipPath clipPathUnits="userSpaceOnUse" id="clipPath5">
        <path d="M-1082 -544 L-1082 -461 L-964 -461 L-964 -544 Z"/>
      </clipPath>
      <clipPath clipPathUnits="userSpaceOnUse" id="clipPath6">
        <path d="M-808 -536 L-808 -461 L-690 -461 L-690 -536 Z"/>
      </clipPath>
      <clipPath clipPathUnits="userSpaceOnUse" id="clipPath7">
        <path d="M-808 -680 L-808 -597 L-690 -597 L-690 -680 Z"/>
      </clipPath>
    </defs>
    <g fill="white" text-rendering="geometricPrecision" shape-rendering="geometricPrecision" transform="translate(1098,696)" stroke="white">
      <rect x="-1098" width="423" height="250" y="-696" clip-path="url(#clipPath2)" stroke="none"/>
    </g>
    <g fill="rgb(255,255,204)" text-rendering="geometricPrecision" shape-rendering="geometricPrecision" transform="matrix(1,0,0,1,1098,696)" stroke="rgb(255,255,204)">
      <rect x="-1082" width="118" height="76" y="-681" clip-path="url(#clipPath2)" stroke="none"/>
    </g>
    <g text-rendering="geometricPrecision" stroke-miterlimit="1.45" shape-rendering="geometricPrecision" transform="matrix(1,0,0,1,1098,696)" stroke-linecap="butt">
      <rect fill="none" x="-1082" width="118" height="76" y="-681" clip-path="url(#clipPath2)"/>
      <text x="-1045.8738" font-size="13px" y="-663.4316" clip-path="url(#clipPath3)" font-family="sans-serif" stroke="none" font-weight="bold" xml:space="preserve">Square</text>
      <line stroke-linecap="square" clip-path="url(#clipPath3)" fill="none" x1="-1081" x2="-965" y1="-655" y2="-655" stroke-miterlimit="10"/>
      <text x="-1077" xml:space="preserve" y="-639.0879" clip-path="url(#clipPath3)" font-family="sans-serif" stroke="none"> </text>
      <line stroke-linecap="square" clip-path="url(#clipPath3)" fill="none" x1="-1081" x2="-965" y1="-631" y2="-631" stroke-miterlimit="10"/>
      <text x="-1077" xml:space="preserve" y="-614.9551" clip-path="url(#clipPath3)" font-family="sans-serif" stroke="none"> </text>
    </g>
    <g fill="white" text-rendering="geometricPrecision" shape-rendering="geometricPrecision" transform="matrix(1,0,0,1,1098,696)" stroke="white">
      <path d="M-901 -627 L-871 -627 L-878.5 -597 L-893.5 -597 Z" fill-rule="evenodd" clip-path="url(#clipPath2)" stroke="none"/>
      <path fill="none" stroke-miterlimit="1.45" d="M-901 -627 L-871 -627 L-878.5 -597 L-893.5 -597 Z" fill-rule="evenodd" clip-path="url(#clipPath2)" stroke-linecap="butt"/>
    </g>
    <g font-size="36px" stroke-linecap="butt" transform="matrix(1,0,0,1,1098,696) translate(-904,-633)" text-rendering="geometricPrecision" font-family="sans-serif" shape-rendering="geometricPrecision" stroke-miterlimit="1.45">
      <text x="0" xml:space="preserve" y="35" clip-path="url(#clipPath4)" stroke="none">?  </text>
    </g>
    <g fill="rgb(255,255,204)" text-rendering="geometricPrecision" shape-rendering="geometricPrecision" transform="matrix(1,0,0,1,1098,696)" stroke="rgb(255,255,204)">
      <rect x="-1082" width="118" height="84" y="-545" clip-path="url(#clipPath2)" stroke="none"/>
    </g>
    <g text-rendering="geometricPrecision" stroke-miterlimit="1.45" shape-rendering="geometricPrecision" transform="matrix(1,0,0,1,1098,696)" stroke-linecap="butt">
      <rect fill="none" x="-1082" width="118" height="84" y="-545" clip-path="url(#clipPath2)"/>
      <text x="-1055.6873" font-size="13px" y="-527.4316" clip-path="url(#clipPath5)" font-family="sans-serif" stroke="none" font-weight="bold" xml:space="preserve">Rectangle</text>
      <line stroke-linecap="square" clip-path="url(#clipPath5)" fill="none" x1="-1081" x2="-965" y1="-519" y2="-519" stroke-miterlimit="10"/>
      <text x="-1077" xml:space="preserve" y="-503.0879" clip-path="url(#clipPath5)" font-family="sans-serif" stroke="none"> </text>
      <line stroke-linecap="square" clip-path="url(#clipPath5)" fill="none" x1="-1081" x2="-965" y1="-495" y2="-495" stroke-miterlimit="10"/>
      <text x="-1077" xml:space="preserve" y="-478.9551" clip-path="url(#clipPath5)" font-family="sans-serif" stroke="none"> </text>
    </g>
    <g fill="rgb(255,255,204)" text-rendering="geometricPrecision" shape-rendering="geometricPrecision" transform="matrix(1,0,0,1,1098,696)" stroke="rgb(255,255,204)">
      <rect x="-808" width="118" height="76" y="-537" clip-path="url(#clipPath2)" stroke="none"/>
    </g>
    <g text-rendering="geometricPrecision" stroke-miterlimit="1.45" shape-rendering="geometricPrecision" transform="matrix(1,0,0,1,1098,696)" stroke-linecap="butt">
      <rect fill="none" x="-808" width="118" height="76" y="-537" clip-path="url(#clipPath2)"/>
      <text x="-771.8738" font-size="13px" y="-519.4316" clip-path="url(#clipPath6)" font-family="sans-serif" stroke="none" font-weight="bold" xml:space="preserve">Square</text>
      <line stroke-linecap="square" clip-path="url(#clipPath6)" fill="none" x1="-807" x2="-691" y1="-511" y2="-511" stroke-miterlimit="10"/>
      <text x="-803" xml:space="preserve" y="-495.0879" clip-path="url(#clipPath6)" font-family="sans-serif" stroke="none"> </text>
      <line stroke-linecap="square" clip-path="url(#clipPath6)" fill="none" x1="-807" x2="-691" y1="-487" y2="-487" stroke-miterlimit="10"/>
      <text x="-803" xml:space="preserve" y="-470.9551" clip-path="url(#clipPath6)" font-family="sans-serif" stroke="none"> </text>
    </g>
    <g fill="rgb(255,255,204)" text-rendering="geometricPrecision" shape-rendering="geometricPrecision" transform="matrix(1,0,0,1,1098,696)" stroke="rgb(255,255,204)">
      <rect x="-808" width="118" height="84" y="-681" clip-path="url(#clipPath2)" stroke="none"/>
    </g>
    <g text-rendering="geometricPrecision" stroke-miterlimit="1.45" shape-rendering="geometricPrecision" transform="matrix(1,0,0,1,1098,696)" stroke-linecap="butt">
      <rect fill="none" x="-808" width="118" height="84" y="-681" clip-path="url(#clipPath2)"/>
      <text x="-781.6873" font-size="13px" y="-663.4316" clip-path="url(#clipPath7)" font-family="sans-serif" stroke="none" font-weight="bold" xml:space="preserve">Rectangle</text>
      <line stroke-linecap="square" clip-path="url(#clipPath7)" fill="none" x1="-807" x2="-691" y1="-655" y2="-655" stroke-miterlimit="10"/>
      <text x="-803" xml:space="preserve" y="-639.0879" clip-path="url(#clipPath7)" font-family="sans-serif" stroke="none"> </text>
      <line stroke-linecap="square" clip-path="url(#clipPath7)" fill="none" x1="-807" x2="-691" y1="-631" y2="-631" stroke-miterlimit="10"/>
      <text x="-803" xml:space="preserve" y="-614.9551" clip-path="url(#clipPath7)" font-family="sans-serif" stroke="none"> </text>
      <path fill="none" d="M-1023 -545.0068 L-1023 -589.9606" clip-path="url(#clipPath2)"/>
      <path fill="white" d="M-1023 -604.9606 L-1029 -588.9606 L-1017 -588.9606 Z" clip-path="url(#clipPath2)" stroke="none"/>
      <path fill="none" d="M-1023 -604.9606 L-1029 -588.9606 L-1017 -588.9606 Z" clip-path="url(#clipPath2)"/>
      <path fill="none" d="M-749 -536.9736 L-749 -582.0038" clip-path="url(#clipPath2)"/>
      <path fill="white" d="M-749 -597.0038 L-755 -581.0038 L-743 -581.0038 Z" clip-path="url(#clipPath2)" stroke="none"/>
      <path fill="none" d="M-749 -597.0038 L-755 -581.0038 L-743 -581.0038 Z" clip-path="url(#clipPath2)"/>
    </g>
  </g>
</svg>
