<?xml version="1.0" encoding="UTF-8"?><svg xmlns="http://www.w3.org/2000/svg" xmlns:xlink="http://www.w3.org/1999/xlink" fill-opacity="1" color-rendering="auto" color-interpolation="auto" text-rendering="auto" stroke="black" stroke-linecap="square" width="824" stroke-miterlimit="10" shape-rendering="auto" stroke-opacity="1" fill="black" stroke-dasharray="none" font-weight="normal" stroke-width="1" height="464" font-family="'Dialog'" font-style="normal" stroke-linejoin="miter" font-size="12px" stroke-dashoffset="0" image-rendering="auto">
  <!--Generated by ySVG 2.5-->
  <defs id="genericDefs"/>
  <g>
    <defs id="defs1">
      <clipPath clipPathUnits="userSpaceOnUse" id="clipPath1">
        <path d="M0 0 L824 0 L824 464 L0 464 L0 0 Z"/>
      </clipPath>
      <clipPath clipPathUnits="userSpaceOnUse" id="clipPath2">
        <path d="M-1883 -1047 L-1059 -1047 L-1059 -583 L-1883 -583 L-1883 -1047 Z"/>
      </clipPath>
      <clipPath clipPathUnits="userSpaceOnUse" id="clipPath3">
        <path d="M-1693 -1032 L-1693 -958 L-1517 -958 L-1517 -1032 Z"/>
      </clipPath>
      <clipPath clipPathUnits="userSpaceOnUse" id="clipPath4">
        <path d="M-1373 -1032 L-1373 -933 L-1133 -933 L-1133 -1032 Z"/>
      </clipPath>
      <clipPath clipPathUnits="userSpaceOnUse" id="clipPath5">
        <path d="M-1461 -877 L-1461 -752 L-1295 -752 L-1295 -877 Z"/>
      </clipPath>
      <clipPath clipPathUnits="userSpaceOnUse" id="clipPath6">
        <path d="M-1240 -872 L-1240 -773 L-1074 -773 L-1074 -872 Z"/>
      </clipPath>
      <clipPath clipPathUnits="userSpaceOnUse" id="clipPath7">
        <path d="M-1549 -679 L-1549 -599 L-1436 -599 L-1436 -679 Z"/>
      </clipPath>
      <clipPath clipPathUnits="userSpaceOnUse" id="clipPath8">
        <path d="M-1334 -679 L-1334 -599 L-1216 -599 L-1216 -679 Z"/>
      </clipPath>
      <clipPath clipPathUnits="userSpaceOnUse" id="clipPath9">
        <path d="M-1828 -909 L-1828 -798 L-1652 -798 L-1652 -909 Z"/>
      </clipPath>
      <clipPath clipPathUnits="userSpaceOnUse" id="clipPath10">
        <path d="M-1838 -742 L-1838 -631 L-1642 -631 L-1642 -742 Z"/>
      </clipPath>
    </defs>
    <g fill="white" text-rendering="geometricPrecision" shape-rendering="geometricPrecision" transform="translate(1883,1047)" stroke="white">
      <rect x="-1883" width="824" height="464" y="-1047" clip-path="url(#clipPath2)" stroke="none"/>
    </g>
    <g fill="rgb(255,255,204)" text-rendering="geometricPrecision" shape-rendering="geometricPrecision" transform="matrix(1,0,0,1,1883,1047)" stroke="rgb(255,255,204)">
      <rect x="-1693" width="177" height="75" y="-1032" clip-path="url(#clipPath2)" stroke="none"/>
    </g>
    <g text-rendering="geometricPrecision" stroke-miterlimit="1.45" shape-rendering="geometricPrecision" transform="matrix(1,0,0,1,1883,1047)" stroke-linecap="butt">
      <rect fill="none" x="-1693" width="177" height="75" y="-1032" clip-path="url(#clipPath2)"/>
      <text x="-1644.1824" font-size="13px" y="-1014.4316" clip-path="url(#clipPath3)" font-family="sans-serif" stroke="none" font-weight="bold" xml:space="preserve">WorldModel</text>
      <line stroke-linecap="square" clip-path="url(#clipPath3)" fill="none" x1="-1692" x2="-1517" y1="-1006" y2="-1006" stroke-miterlimit="10"/>
      <text x="-1688" xml:space="preserve" y="-990.0879" clip-path="url(#clipPath3)" font-family="sans-serif" stroke="none"> </text>
      <line stroke-linecap="square" clip-path="url(#clipPath3)" fill="none" x1="-1692" x2="-1517" y1="-982" y2="-982" stroke-miterlimit="10"/>
      <text x="-1688" xml:space="preserve" y="-965.9551" clip-path="url(#clipPath3)" font-family="sans-serif" stroke="none">initialize(InitializationInfo)</text>
    </g>
    <g fill="rgb(255,255,204)" text-rendering="geometricPrecision" shape-rendering="geometricPrecision" transform="matrix(1,0,0,1,1883,1047)" stroke="rgb(255,255,204)">
      <rect x="-1373.5" width="241" height="100" y="-1032" clip-path="url(#clipPath2)" stroke="none"/>
    </g>
    <g text-rendering="geometricPrecision" stroke-miterlimit="1.45" shape-rendering="geometricPrecision" transform="matrix(1,0,0,1,1883,1047)" stroke-linecap="butt">
      <rect fill="none" x="-1373.5" width="241" height="100" y="-1032" clip-path="url(#clipPath2)"/>
      <text x="-1295.5566" xml:space="preserve" y="-1015.3984" clip-path="url(#clipPath4)" font-family="sans-serif" stroke="none">&lt;&lt;abstract&gt;&gt;</text>
      <text x="-1272.3445" font-size="13px" y="-991.2988" clip-path="url(#clipPath4)" font-family="sans-serif" stroke="none" font-weight="bold" xml:space="preserve">Entity</text>
      <line stroke-linecap="square" clip-path="url(#clipPath4)" fill="none" x1="-1372" x2="-1133" y1="-983" y2="-983" stroke-miterlimit="10"/>
      <text x="-1368.5" xml:space="preserve" y="-966.9551" clip-path="url(#clipPath4)" font-family="sans-serif" stroke="none"> </text>
      <line stroke-linecap="square" clip-path="url(#clipPath4)" fill="none" x1="-1372" x2="-1133" y1="-959" y2="-959" stroke-miterlimit="10"/>
      <text x="-1368.5" xml:space="preserve" y="-942.8223" clip-path="url(#clipPath4)" font-family="sans-serif" stroke="none">initialize(InitializationInfo, WorldModel)</text>
    </g>
    <g fill="rgb(255,255,204)" text-rendering="geometricPrecision" shape-rendering="geometricPrecision" transform="matrix(1,0,0,1,1883,1047)" stroke="rgb(255,255,204)">
      <rect x="-1461" width="166" height="125.5" y="-877.75" clip-path="url(#clipPath2)" stroke="none"/>
    </g>
    <g text-rendering="geometricPrecision" stroke-miterlimit="1.45" shape-rendering="geometricPrecision" transform="matrix(1,0,0,1,1883,1047)" stroke-linecap="butt">
      <rect fill="none" x="-1461" width="166" height="125.5" y="-877.75" clip-path="url(#clipPath2)"/>
      <text x="-1420.5566" xml:space="preserve" y="-861.1484" clip-path="url(#clipPath5)" font-family="sans-serif" stroke="none">&lt;&lt;abstract&gt;&gt;</text>
      <text x="-1437.3347" font-size="13px" y="-837.0488" clip-path="url(#clipPath5)" font-family="sans-serif" stroke="none" font-weight="bold" xml:space="preserve">SchedulableEntity</text>
      <line stroke-linecap="square" clip-path="url(#clipPath5)" fill="none" x1="-1460" x2="-1296" y1="-829" y2="-829" stroke-miterlimit="10"/>
      <text x="-1456" xml:space="preserve" y="-812.7051" clip-path="url(#clipPath5)" font-family="sans-serif" stroke="none"> </text>
      <line stroke-linecap="square" clip-path="url(#clipPath5)" fill="none" x1="-1460" x2="-1296" y1="-805" y2="-805" stroke-miterlimit="10"/>
      <text x="-1456" xml:space="preserve" y="-788.5723" clip-path="url(#clipPath5)" font-family="sans-serif" stroke="none">initialize(InitializationInfo,</text>
      <text x="-1456" xml:space="preserve" y="-774.4395" clip-path="url(#clipPath5)" font-family="sans-serif" stroke="none">               WorldModel)</text>
      <text x="-1456" xml:space="preserve" y="-760.3066" clip-path="url(#clipPath5)" font-family="sans-serif" stroke="none">scheduleActions()</text>
    </g>
    <g fill="rgb(255,255,204)" text-rendering="geometricPrecision" shape-rendering="geometricPrecision" transform="matrix(1,0,0,1,1883,1047)" stroke="rgb(255,255,204)">
      <rect x="-1240" width="166" height="100" y="-873" clip-path="url(#clipPath2)" stroke="none"/>
    </g>
    <g text-rendering="geometricPrecision" stroke-miterlimit="1.45" shape-rendering="geometricPrecision" transform="matrix(1,0,0,1,1883,1047)" stroke-linecap="butt">
      <rect fill="none" x="-1240" width="166" height="100" y="-873" clip-path="url(#clipPath2)"/>
      <text x="-1199.5566" xml:space="preserve" y="-856.3984" clip-path="url(#clipPath6)" font-family="sans-serif" stroke="none">&lt;&lt;abstract&gt;&gt;</text>
      <text x="-1161.8179" font-size="13px" y="-832.2988" clip-path="url(#clipPath6)" font-family="sans-serif" stroke="none" font-weight="bold" xml:space="preserve">...</text>
      <line stroke-linecap="square" clip-path="url(#clipPath6)" fill="none" x1="-1239" x2="-1075" y1="-824" y2="-824" stroke-miterlimit="10"/>
      <text x="-1235" xml:space="preserve" y="-807.9551" clip-path="url(#clipPath6)" font-family="sans-serif" stroke="none"> </text>
      <line stroke-linecap="square" clip-path="url(#clipPath6)" fill="none" x1="-1239" x2="-1075" y1="-800" y2="-800" stroke-miterlimit="10"/>
    </g>
    <g fill="rgb(255,255,204)" text-rendering="geometricPrecision" shape-rendering="geometricPrecision" transform="matrix(1,0,0,1,1883,1047)" stroke="rgb(255,255,204)">
      <rect x="-1549" width="113" height="81" y="-680" clip-path="url(#clipPath2)" stroke="none"/>
    </g>
    <g text-rendering="geometricPrecision" stroke-miterlimit="1.45" shape-rendering="geometricPrecision" transform="matrix(1,0,0,1,1883,1047)" stroke-linecap="butt">
      <rect fill="none" x="-1549" width="113" height="81" y="-680" clip-path="url(#clipPath2)"/>
      <text x="-1497.3179" font-size="13px" y="-662.4316" clip-path="url(#clipPath7)" font-family="sans-serif" stroke="none" font-weight="bold" xml:space="preserve">...</text>
      <line stroke-linecap="square" clip-path="url(#clipPath7)" fill="none" x1="-1548" x2="-1437" y1="-654" y2="-654" stroke-miterlimit="10"/>
      <text x="-1544" xml:space="preserve" y="-638.0879" clip-path="url(#clipPath7)" font-family="sans-serif" stroke="none"> </text>
      <line stroke-linecap="square" clip-path="url(#clipPath7)" fill="none" x1="-1548" x2="-1437" y1="-630" y2="-630" stroke-miterlimit="10"/>
    </g>
    <g fill="rgb(255,255,204)" text-rendering="geometricPrecision" shape-rendering="geometricPrecision" transform="matrix(1,0,0,1,1883,1047)" stroke="rgb(255,255,204)">
      <rect x="-1334" width="118" height="81" y="-680" clip-path="url(#clipPath2)" stroke="none"/>
    </g>
    <g text-rendering="geometricPrecision" stroke-miterlimit="1.45" shape-rendering="geometricPrecision" transform="matrix(1,0,0,1,1883,1047)" stroke-linecap="butt">
      <rect fill="none" x="-1334" width="118" height="81" y="-680" clip-path="url(#clipPath2)"/>
      <text x="-1279.8179" font-size="13px" y="-662.4316" clip-path="url(#clipPath8)" font-family="sans-serif" stroke="none" font-weight="bold" xml:space="preserve">...</text>
      <line stroke-linecap="square" clip-path="url(#clipPath8)" fill="none" x1="-1333" x2="-1217" y1="-654" y2="-654" stroke-miterlimit="10"/>
      <text x="-1329" xml:space="preserve" y="-638.0879" clip-path="url(#clipPath8)" font-family="sans-serif" stroke="none"> </text>
      <line stroke-linecap="square" clip-path="url(#clipPath8)" fill="none" x1="-1333" x2="-1217" y1="-630" y2="-630" stroke-miterlimit="10"/>
    </g>
    <g fill="rgb(255,255,204)" text-rendering="geometricPrecision" shape-rendering="geometricPrecision" transform="matrix(1,0,0,1,1883,1047)" stroke="rgb(255,255,204)">
      <rect x="-1828" width="177" height="111.5" y="-909" clip-path="url(#clipPath2)" stroke="none"/>
    </g>
    <g text-rendering="geometricPrecision" stroke-miterlimit="1.45" shape-rendering="geometricPrecision" transform="matrix(1,0,0,1,1883,1047)" stroke-linecap="butt">
      <rect fill="none" x="-1828" width="177" height="111.5" y="-909" clip-path="url(#clipPath2)"/>
      <text x="-1784.0137" xml:space="preserve" y="-892.3984" clip-path="url(#clipPath9)" font-family="sans-serif" stroke="none">&lt;&lt;interface&gt;&gt;</text>
      <text x="-1794.9341" font-size="13px" y="-868.2988" clip-path="url(#clipPath9)" font-family="sans-serif" stroke="none" font-weight="bold" xml:space="preserve">InitializationInfo</text>
      <line stroke-linecap="square" clip-path="url(#clipPath9)" fill="none" x1="-1827" x2="-1652" y1="-860" y2="-860" stroke-miterlimit="10"/>
      <text x="-1823" xml:space="preserve" y="-843.9551" clip-path="url(#clipPath9)" font-family="sans-serif" stroke="none"> </text>
      <line stroke-linecap="square" clip-path="url(#clipPath9)" fill="none" x1="-1827" x2="-1652" y1="-836" y2="-836" stroke-miterlimit="10"/>
      <text x="-1823" xml:space="preserve" y="-819.8223" clip-path="url(#clipPath9)" font-family="sans-serif" stroke="none">getScheduler()</text>
      <text x="-1823" xml:space="preserve" y="-805.6895" clip-path="url(#clipPath9)" font-family="sans-serif" stroke="none">getImageStore()</text>
    </g>
    <g fill="rgb(255,255,204)" text-rendering="geometricPrecision" shape-rendering="geometricPrecision" transform="matrix(1,0,0,1,1883,1047)" stroke="rgb(255,255,204)">
      <rect x="-1838" width="197" height="111" y="-742" clip-path="url(#clipPath2)" stroke="none"/>
    </g>
    <g text-rendering="geometricPrecision" stroke-miterlimit="1.45" shape-rendering="geometricPrecision" transform="matrix(1,0,0,1,1883,1047)" stroke-linecap="butt">
      <rect fill="none" x="-1838" width="197" height="111" y="-742" clip-path="url(#clipPath2)"/>
      <text x="-1781.3501" font-size="13px" y="-724.4316" clip-path="url(#clipPath10)" font-family="sans-serif" stroke="none" font-weight="bold" xml:space="preserve">VirtualWorld</text>
      <line stroke-linecap="square" clip-path="url(#clipPath10)" fill="none" x1="-1837" x2="-1642" y1="-716" y2="-716" stroke-miterlimit="10"/>
      <text x="-1833" xml:space="preserve" y="-700.0879" clip-path="url(#clipPath10)" font-family="sans-serif" stroke="none">-scheduler</text>
      <text x="-1833" xml:space="preserve" y="-685.9551" clip-path="url(#clipPath10)" font-family="sans-serif" stroke="none">-imageStore</text>
      <line stroke-linecap="square" clip-path="url(#clipPath10)" fill="none" x1="-1837" x2="-1642" y1="-678" y2="-678" stroke-miterlimit="10"/>
      <text x="-1833" xml:space="preserve" y="-661.8223" clip-path="url(#clipPath10)" font-family="sans-serif" stroke="none">getScheduler()</text>
      <text x="-1833" xml:space="preserve" y="-647.6895" clip-path="url(#clipPath10)" font-family="sans-serif" stroke="none">getImageStore()</text>
      <path fill="none" d="M-1508.9701 -994.36 L-1381.5159 -994.1733" clip-path="url(#clipPath2)"/>
      <path fill="white" d="M-1515.9701 -994.3703 L-1508.9628 -999.36 L-1501.9701 -994.3498 L-1508.9774 -989.36 Z" clip-path="url(#clipPath2)" stroke="none"/>
      <path fill="none" d="M-1515.9701 -994.3703 L-1508.9628 -999.36 L-1501.9701 -994.3498 L-1508.9774 -989.36 Z" clip-path="url(#clipPath2)"/>
      <path d="M-1373.5159 -994.1616 L-1385.5085 -999.1792 L-1382.5159 -994.1748 L-1385.5232 -989.1792 Z" clip-path="url(#clipPath2)" stroke="none"/>
      <text x="-1406.1249" xml:space="preserve" y="-996.7379" clip-path="url(#clipPath2)" font-family="sans-serif" stroke="none"> </text>
      <text x="-1407.9501" xml:space="preserve" y="-982.605" clip-path="url(#clipPath2)" font-family="sans-serif" stroke="none">n</text>
      <path fill="none" d="M-1377.6052 -877.7693 L-1377.5 -894.5 L-1253 -894.5 L-1253 -916.9695" clip-path="url(#clipPath2)"/>
      <path fill="white" d="M-1253 -931.9695 L-1259 -915.9695 L-1247 -915.9695 Z" clip-path="url(#clipPath2)" stroke="none"/>
      <path fill="none" d="M-1253 -931.9695 L-1259 -915.9695 L-1247 -915.9695 Z" clip-path="url(#clipPath2)"/>
      <path fill="none" d="M-1157 -873.0291 L-1157 -894.5 L-1253 -894.5 L-1253 -916.9695" clip-path="url(#clipPath2)"/>
      <path fill="white" d="M-1253 -931.9695 L-1259 -915.9695 L-1247 -915.9695 Z" clip-path="url(#clipPath2)" stroke="none"/>
      <path fill="none" d="M-1253 -931.9695 L-1259 -915.9695 L-1247 -915.9695 Z" clip-path="url(#clipPath2)"/>
      <path fill="none" d="M-1492.5 -679.9604 L-1492.5 -720.5 L-1377.5 -720.5 L-1377.5889 -737.2924" clip-path="url(#clipPath2)"/>
      <path fill="white" d="M-1377.6682 -752.2922 L-1383.5835 -736.2607 L-1371.5836 -736.3242 Z" clip-path="url(#clipPath2)" stroke="none"/>
      <path fill="none" d="M-1377.6682 -752.2922 L-1383.5835 -736.2607 L-1371.5836 -736.3242 Z" clip-path="url(#clipPath2)"/>
      <path fill="none" d="M-1275 -679.9604 L-1275 -720.5 L-1377.5 -720.5 L-1377.5889 -737.2924" clip-path="url(#clipPath2)"/>
      <path fill="white" d="M-1377.6682 -752.2922 L-1383.5835 -736.2607 L-1371.5836 -736.3242 Z" clip-path="url(#clipPath2)" stroke="none"/>
      <path fill="none" d="M-1377.6682 -752.2922 L-1383.5835 -736.2607 L-1371.5836 -736.3242 Z" clip-path="url(#clipPath2)"/>
      <path fill="none" stroke-dasharray="6,2" d="M-1640.3264 -957.015 L-1682.754 -912.623" clip-path="url(#clipPath2)"/>
      <path stroke-dasharray="6,2" d="M-1685.5178 -909.7314 L-1672.889 -914.2607 L-1685.5178 -909.7314 L-1681.564 -922.552 Z" clip-path="url(#clipPath2)" stroke="none"/>
      <path fill="none" stroke-miterlimit="10" d="M-1685.5178 -909.7314 L-1672.889 -914.2607 L-1685.5178 -909.7314 L-1681.564 -922.552 Z" clip-path="url(#clipPath2)" stroke-linecap="square"/>
      <path fill="none" stroke-dasharray="6,2" d="M-1373.5264 -950.1033 L-1646.1661 -877.9504" clip-path="url(#clipPath2)"/>
      <path stroke-dasharray="6,2" d="M-1650.0331 -876.9271 L-1636.8973 -874.1967 L-1650.0331 -876.9271 L-1639.9674 -885.7974 Z" clip-path="url(#clipPath2)" stroke="none"/>
      <path fill="none" stroke-miterlimit="10" d="M-1650.0331 -876.9271 L-1636.8973 -874.1967 L-1650.0331 -876.9271 L-1639.9674 -885.7974 Z" clip-path="url(#clipPath2)" stroke-linecap="square"/>
      <path fill="none" stroke-dasharray="6,2" d="M-1739.5 -741.9883 L-1739.5 -782.4833" clip-path="url(#clipPath2)"/>
      <path fill="white" stroke-dasharray="6,2" d="M-1739.5 -797.4833 L-1745.5 -781.4833 L-1733.5 -781.4833 Z" clip-path="url(#clipPath2)" stroke="none"/>
      <path fill="none" d="M-1739.5 -797.4833 L-1745.5 -781.4833 L-1733.5 -781.4833 Z" clip-path="url(#clipPath2)"/>
      <path fill="none" d="M-1837.9769 -686.5 L-1868 -686.5 L-1868 -994.5 L-1700.9874 -994.5" clip-path="url(#clipPath2)"/>
      <path d="M-1692.9874 -994.5 L-1704.9874 -999.5 L-1701.9874 -994.5 L-1704.9874 -989.5 Z" clip-path="url(#clipPath2)" stroke="none"/>
      <text x="-1837.5386" xml:space="preserve" y="-1004.0977" clip-path="url(#clipPath2)" font-family="sans-serif" stroke="none">initializes →</text>
      <text x="-1803.7446" xml:space="preserve" y="-989.9648" clip-path="url(#clipPath2)" font-family="sans-serif" stroke="none"> </text>
      <text x="-1803.7446" xml:space="preserve" y="-975.832" clip-path="url(#clipPath2)" font-family="sans-serif" stroke="none"> </text>
    </g>
  </g>
</svg>
