<?xml version="1.0" encoding="UTF-8"?><svg xmlns="http://www.w3.org/2000/svg" xmlns:xlink="http://www.w3.org/1999/xlink" fill-opacity="1" color-rendering="auto" color-interpolation="auto" text-rendering="auto" stroke="black" stroke-linecap="square" width="260" stroke-miterlimit="10" shape-rendering="auto" stroke-opacity="1" fill="black" stroke-dasharray="none" font-weight="normal" stroke-width="1" height="328" font-family="'Dialog'" font-style="normal" stroke-linejoin="miter" font-size="12px" stroke-dashoffset="0" image-rendering="auto">
  <!--Generated by ySVG 2.5-->
  <defs id="genericDefs"/>
  <g>
    <defs id="defs1">
      <clipPath clipPathUnits="userSpaceOnUse" id="clipPath1">
        <path d="M0 0 L260 0 L260 328 L0 328 L0 0 Z"/>
      </clipPath>
      <clipPath clipPathUnits="userSpaceOnUse" id="clipPath2">
        <path d="M-958 -878 L-698 -878 L-698 -550 L-958 -550 L-958 -878 Z"/>
      </clipPath>
      <clipPath clipPathUnits="userSpaceOnUse" id="clipPath3">
        <path d="M-930 -662 L-930 -565 L-725 -565 L-725 -662 Z"/>
      </clipPath>
      <clipPath clipPathUnits="userSpaceOnUse" id="clipPath4">
        <path d="M-942 -862 L-942 -729 L-713 -729 L-713 -862 Z"/>
      </clipPath>
    </defs>
    <g fill="white" text-rendering="geometricPrecision" shape-rendering="geometricPrecision" transform="translate(958,878)" stroke="white">
      <rect x="-958" width="260" height="328" y="-878" clip-path="url(#clipPath2)" stroke="none"/>
    </g>
    <g fill="rgb(255,255,204)" text-rendering="geometricPrecision" shape-rendering="geometricPrecision" transform="matrix(1,0,0,1,958,878)" stroke="rgb(255,255,204)">
      <rect x="-930.9104" width="205" height="97" y="-662.8" clip-path="url(#clipPath2)" stroke="none"/>
    </g>
    <g text-rendering="geometricPrecision" stroke-miterlimit="1.45" shape-rendering="geometricPrecision" transform="matrix(1,0,0,1,958,878)" stroke-linecap="butt">
      <rect fill="none" x="-930.9104" width="205" height="97" y="-662.8" clip-path="url(#clipPath2)"/>
      <text x="-845.5649" font-size="13px" y="-645.2316" clip-path="url(#clipPath3)" font-family="sans-serif" stroke="none" font-weight="bold" xml:space="preserve">Point</text>
      <line stroke-linecap="square" clip-path="url(#clipPath3)" fill="none" x1="-929" x2="-726" y1="-637" y2="-637" stroke-miterlimit="10"/>
      <text x="-925.9104" xml:space="preserve" y="-620.8879" clip-path="url(#clipPath3)" font-family="sans-serif" stroke="none">-x : final int</text>
      <text x="-925.9104" xml:space="preserve" y="-606.7551" clip-path="url(#clipPath3)" font-family="sans-serif" stroke="none">-y : final int</text>
      <line stroke-linecap="square" clip-path="url(#clipPath3)" fill="none" x1="-929" x2="-726" y1="-599" y2="-599" stroke-miterlimit="10"/>
      <text x="-925.9104" xml:space="preserve" y="-582.6223" clip-path="url(#clipPath3)" font-family="sans-serif" stroke="none">equals(Object other) : boolean</text>
    </g>
    <g fill="rgb(255,255,204)" text-rendering="geometricPrecision" shape-rendering="geometricPrecision" transform="matrix(1,0,0,1,958,878)" stroke="rgb(255,255,204)">
      <rect x="-942.9104" width="229" height="133" y="-862.6" clip-path="url(#clipPath2)" stroke="none"/>
    </g>
    <g text-rendering="geometricPrecision" stroke-miterlimit="1.45" shape-rendering="geometricPrecision" transform="matrix(1,0,0,1,958,878)" stroke-linecap="butt">
      <rect fill="none" x="-942.9104" width="229" height="133" y="-862.6" clip-path="url(#clipPath2)"/>
      <text x="-881.5022" font-size="13px" y="-845.0316" clip-path="url(#clipPath4)" font-family="sans-serif" stroke="none" font-weight="bold" xml:space="preserve">java.lang.Object</text>
      <line stroke-linecap="square" clip-path="url(#clipPath4)" fill="none" x1="-941" x2="-714" y1="-837" y2="-837" stroke-miterlimit="10"/>
      <line stroke-linecap="square" clip-path="url(#clipPath4)" fill="none" x1="-941" x2="-714" y1="-827" y2="-827" stroke-miterlimit="10"/>
      <text x="-937.9104" xml:space="preserve" y="-810.6879" clip-path="url(#clipPath4)" font-family="sans-serif" stroke="none">equals(Object other) : boolean</text>
      <text x="-937.9104" xml:space="preserve" y="-796.5551" clip-path="url(#clipPath4)" font-family="sans-serif" stroke="none">hashCode() : int</text>
      <text x="-937.9104" xml:space="preserve" y="-782.4222" clip-path="url(#clipPath4)" font-family="sans-serif" stroke="none">getClass() : Class</text>
      <text x="-937.9104" xml:space="preserve" y="-768.2894" clip-path="url(#clipPath4)" font-family="sans-serif" stroke="none">toString() : String</text>
      <text x="-937.9104" xml:space="preserve" y="-754.1566" clip-path="url(#clipPath4)" font-family="sans-serif" stroke="none">.. A few others we won't discuss</text>
      <path fill="none" d="M-828.4104 -662.8126 L-828.4104 -714.619" clip-path="url(#clipPath2)"/>
      <path fill="white" d="M-828.4104 -729.619 L-834.4104 -713.619 L-822.4104 -713.619 Z" clip-path="url(#clipPath2)" stroke="none"/>
      <path fill="none" d="M-828.4104 -729.619 L-834.4104 -713.619 L-822.4104 -713.619 Z" clip-path="url(#clipPath2)"/>
    </g>
  </g>
</svg>
