<?xml version="1.0" encoding="UTF-8"?><svg xmlns="http://www.w3.org/2000/svg" xmlns:xlink="http://www.w3.org/1999/xlink" fill-opacity="1" color-rendering="auto" color-interpolation="auto" text-rendering="auto" stroke="black" stroke-linecap="square" width="170" stroke-miterlimit="10" shape-rendering="auto" stroke-opacity="1" fill="black" stroke-dasharray="none" font-weight="normal" stroke-width="1" height="116" font-family="'Dialog'" font-style="normal" stroke-linejoin="miter" font-size="12px" stroke-dashoffset="0" image-rendering="auto">
  <!--Generated by ySVG 2.5-->
  <defs id="genericDefs"/>
  <g>
    <defs id="defs1">
      <clipPath clipPathUnits="userSpaceOnUse" id="clipPath1">
        <path d="M0 0 L170 0 L170 116 L0 116 L0 0 Z"/>
      </clipPath>
      <clipPath clipPathUnits="userSpaceOnUse" id="clipPath2">
        <path d="M-1230 -1169 L-1060 -1169 L-1060 -1053 L-1230 -1053 L-1230 -1169 Z"/>
      </clipPath>
      <clipPath clipPathUnits="userSpaceOnUse" id="clipPath3">
        <path d="M-1214 -1153 L-1214 -1068 L-1075 -1068 L-1075 -1153 Z"/>
      </clipPath>
    </defs>
    <g fill="white" text-rendering="geometricPrecision" shape-rendering="geometricPrecision" transform="translate(1230,1169)" stroke="white">
      <rect x="-1230" width="170" height="116" y="-1169" clip-path="url(#clipPath2)" stroke="none"/>
    </g>
    <g fill="rgb(255,255,204)" text-rendering="geometricPrecision" shape-rendering="geometricPrecision" transform="matrix(1,0,0,1,1230,1169)" stroke="rgb(255,255,204)">
      <rect x="-1214.9104" width="139" height="85" y="-1153.8" clip-path="url(#clipPath2)" stroke="none"/>
    </g>
    <g text-rendering="geometricPrecision" stroke-miterlimit="1.45" shape-rendering="geometricPrecision" transform="matrix(1,0,0,1,1230,1169)" stroke-linecap="butt">
      <rect fill="none" x="-1214.9104" width="139" height="85" y="-1153.8" clip-path="url(#clipPath2)"/>
      <text x="-1162.5649" font-size="13px" y="-1136.2317" clip-path="url(#clipPath3)" font-family="sans-serif" stroke="none" font-weight="bold" xml:space="preserve">Point</text>
      <line stroke-linecap="square" clip-path="url(#clipPath3)" fill="none" x1="-1213" x2="-1076" y1="-1128" y2="-1128" stroke-miterlimit="10"/>
      <text x="-1209.9104" xml:space="preserve" y="-1111.8879" clip-path="url(#clipPath3)" font-family="sans-serif" stroke="none">-x : final int</text>
      <text x="-1209.9104" xml:space="preserve" y="-1097.7551" clip-path="url(#clipPath3)" font-family="sans-serif" stroke="none">-y : final int</text>
      <line stroke-linecap="square" clip-path="url(#clipPath3)" fill="none" x1="-1213" x2="-1076" y1="-1090" y2="-1090" stroke-miterlimit="10"/>
    </g>
  </g>
</svg>
