<?xml version="1.0" encoding="UTF-8"?><svg xmlns="http://www.w3.org/2000/svg" xmlns:xlink="http://www.w3.org/1999/xlink" fill-opacity="1" color-rendering="auto" color-interpolation="auto" text-rendering="auto" stroke="black" stroke-linecap="square" width="503" stroke-miterlimit="10" shape-rendering="auto" stroke-opacity="1" fill="black" stroke-dasharray="none" font-weight="normal" stroke-width="1" height="380" font-family="'Dialog'" font-style="normal" stroke-linejoin="miter" font-size="12px" stroke-dashoffset="0" image-rendering="auto">
  <!--Generated by ySVG 2.5-->
  <defs id="genericDefs"/>
  <g>
    <defs id="defs1">
      <clipPath clipPathUnits="userSpaceOnUse" id="clipPath1">
        <path d="M0 0 L503 0 L503 380 L0 380 L0 0 Z"/>
      </clipPath>
      <clipPath clipPathUnits="userSpaceOnUse" id="clipPath2">
        <path d="M-1052 -913 L-549 -913 L-549 -533 L-1052 -533 L-1052 -913 Z"/>
      </clipPath>
      <clipPath clipPathUnits="userSpaceOnUse" id="clipPath3">
        <path d="M-754 -738 L-754 -674 L-628 -674 L-628 -738 Z"/>
      </clipPath>
      <clipPath clipPathUnits="userSpaceOnUse" id="clipPath4">
        <path d="M0 0 L0 15 L99 15 L99 0 Z"/>
      </clipPath>
      <clipPath clipPathUnits="userSpaceOnUse" id="clipPath5">
        <path d="M-920 -898 L-920 -798 L-745 -798 L-745 -898 Z"/>
      </clipPath>
      <clipPath clipPathUnits="userSpaceOnUse" id="clipPath6">
        <path d="M0 0 L0 16 L78 16 L78 0 Z"/>
      </clipPath>
      <clipPath clipPathUnits="userSpaceOnUse" id="clipPath7">
        <path d="M0 0 L0 30 L136 30 L136 0 Z"/>
      </clipPath>
      <clipPath clipPathUnits="userSpaceOnUse" id="clipPath8">
        <path d="M-1037 -749 L-1037 -655 L-889 -655 L-889 -749 Z"/>
      </clipPath>
      <clipPath clipPathUnits="userSpaceOnUse" id="clipPath9">
        <path d="M-768 -636 L-768 -549 L-613 -549 L-613 -636 Z"/>
      </clipPath>
    </defs>
    <g fill="white" text-rendering="geometricPrecision" shape-rendering="geometricPrecision" transform="translate(1052,913)" stroke="white">
      <rect x="-1052" width="503" height="380" y="-913" clip-path="url(#clipPath2)" stroke="none"/>
    </g>
    <g fill="rgb(255,255,204)" text-rendering="geometricPrecision" shape-rendering="geometricPrecision" transform="matrix(1,0,0,1,1052,913)" stroke="rgb(255,255,204)">
      <rect x="-754" width="126" height="64.5" y="-738.5" clip-path="url(#clipPath2)" stroke="none"/>
    </g>
    <g text-rendering="geometricPrecision" stroke-miterlimit="1.45" shape-rendering="geometricPrecision" transform="matrix(1,0,0,1,1052,913)" stroke-linecap="butt">
      <rect fill="none" x="-754" width="126" height="64.5" y="-738.5" clip-path="url(#clipPath2)"/>
      <text x="-723.6523" font-size="13px" y="-720.9316" clip-path="url(#clipPath3)" font-family="sans-serif" stroke="none" font-weight="bold" xml:space="preserve">Container</text>
      <line stroke-linecap="square" clip-path="url(#clipPath3)" fill="none" x1="-753" x2="-629" y1="-713" y2="-713" stroke-miterlimit="10"/>
      <line stroke-linecap="square" clip-path="url(#clipPath3)" fill="none" x1="-753" x2="-629" y1="-703" y2="-703" stroke-miterlimit="10"/>
    </g>
    <g text-rendering="geometricPrecision" stroke-miterlimit="1.45" shape-rendering="geometricPrecision" font-family="sans-serif" transform="matrix(1,0,0,1,1052,913) translate(-749,-698)" stroke-linecap="butt">
      <text x="0" xml:space="preserve" y="12" clip-path="url(#clipPath4)" stroke="none">paint(Graphics g)</text>
      <text x="99" xml:space="preserve" y="12" clip-path="url(#clipPath4)" stroke="none"> </text>
    </g>
    <g fill="rgb(255,255,204)" text-rendering="geometricPrecision" shape-rendering="geometricPrecision" transform="matrix(1,0,0,1,1052,913)" stroke="rgb(255,255,204)">
      <rect x="-920" width="175" height="100.5" y="-898" clip-path="url(#clipPath2)" stroke="none"/>
    </g>
    <g text-rendering="geometricPrecision" stroke-miterlimit="1.45" shape-rendering="geometricPrecision" transform="matrix(1,0,0,1,1052,913)" stroke-linecap="butt">
      <rect fill="none" x="-920" width="175" height="100.5" y="-898" clip-path="url(#clipPath2)"/>
    </g>
    <g stroke-linecap="butt" font-size="13px" transform="matrix(1,0,0,1,1052,913) translate(-871,-893)" text-rendering="geometricPrecision" font-family="sans-serif" shape-rendering="geometricPrecision" font-style="italic" font-weight="bold" stroke-miterlimit="1.45">
      <text x="0" xml:space="preserve" y="13" clip-path="url(#clipPath6)" stroke="none">Component</text>
    </g>
    <g text-rendering="geometricPrecision" shape-rendering="geometricPrecision" transform="matrix(1,0,0,1,1052,913)">
      <line y2="-872" fill="none" x1="-919" clip-path="url(#clipPath5)" x2="-746" y1="-872"/>
      <text stroke-linecap="butt" x="-915" y="-855.3984" clip-path="url(#clipPath5)" font-family="sans-serif" stroke="none" stroke-miterlimit="1.45" xml:space="preserve">-bounds : Rectangle</text>
      <line y2="-847" fill="none" x1="-919" clip-path="url(#clipPath5)" x2="-746" y1="-847"/>
    </g>
    <g text-rendering="geometricPrecision" stroke-miterlimit="1.45" shape-rendering="geometricPrecision" font-family="sans-serif" transform="matrix(1,0,0,1,1052,913) translate(-915,-842)" stroke-linecap="butt">
      <text x="0" xml:space="preserve" y="12" clip-path="url(#clipPath7)" stroke="none">getBounds() : Rectangle</text>
      <text x="136" xml:space="preserve" y="12" clip-path="url(#clipPath7)" stroke="none"> </text>
      <text font-style="italic" x="0" xml:space="preserve" y="27" clip-path="url(#clipPath7)" stroke="none">paint(Graphics)</text>
    </g>
    <g fill="rgb(255,255,204)" text-rendering="geometricPrecision" shape-rendering="geometricPrecision" transform="matrix(1,0,0,1,1052,913)" stroke="rgb(255,255,204)">
      <rect x="-1037" width="148" height="94.5" y="-749" clip-path="url(#clipPath2)" stroke="none"/>
    </g>
    <g text-rendering="geometricPrecision" stroke-miterlimit="1.45" shape-rendering="geometricPrecision" transform="matrix(1,0,0,1,1052,913)" stroke-linecap="butt">
      <rect fill="none" x="-1037" width="148" height="94.5" y="-749" clip-path="url(#clipPath2)"/>
      <text x="-985.0518" font-size="13px" y="-731.4316" clip-path="url(#clipPath8)" font-family="sans-serif" stroke="none" font-weight="bold" xml:space="preserve">Button</text>
      <line stroke-linecap="square" clip-path="url(#clipPath8)" fill="none" x1="-1036" x2="-890" y1="-723" y2="-723" stroke-miterlimit="10"/>
      <text x="-1032" xml:space="preserve" y="-707.0879" clip-path="url(#clipPath8)" font-family="sans-serif" stroke="none">-label : String</text>
      <line stroke-linecap="square" clip-path="url(#clipPath8)" fill="none" x1="-1036" x2="-890" y1="-699" y2="-699" stroke-miterlimit="10"/>
      <text x="-1032" xml:space="preserve" y="-682.9551" clip-path="url(#clipPath8)" font-family="sans-serif" stroke="none">+getLabel() : String</text>
      <text x="-1032" xml:space="preserve" y="-668.8223" clip-path="url(#clipPath8)" font-family="sans-serif" stroke="none">+setLabel(String)</text>
    </g>
    <g fill="rgb(255,255,204)" text-rendering="geometricPrecision" shape-rendering="geometricPrecision" transform="matrix(1,0,0,1,1052,913)" stroke="rgb(255,255,204)">
      <rect x="-768.5" width="155" height="87.5" y="-636" clip-path="url(#clipPath2)" stroke="none"/>
    </g>
    <g text-rendering="geometricPrecision" stroke-miterlimit="1.45" shape-rendering="geometricPrecision" transform="matrix(1,0,0,1,1052,913)" stroke-linecap="butt">
      <rect fill="none" x="-768.5" width="155" height="87.5" y="-636" clip-path="url(#clipPath2)"/>
      <text x="-725.3916" font-size="13px" y="-618.4316" clip-path="url(#clipPath9)" font-family="sans-serif" stroke="none" font-weight="bold" xml:space="preserve">ScrollPane</text>
      <line stroke-linecap="square" clip-path="url(#clipPath9)" fill="none" x1="-767" x2="-614" y1="-610" y2="-610" stroke-miterlimit="10"/>
      <text x="-763.5" xml:space="preserve" y="-594.0879" clip-path="url(#clipPath9)" font-family="sans-serif" stroke="none">-verticalSB : Scrollbar</text>
      <text x="-763.5" xml:space="preserve" y="-579.9551" clip-path="url(#clipPath9)" font-family="sans-serif" stroke="none">-horizontalSB : Scrollbar</text>
      <line stroke-linecap="square" clip-path="url(#clipPath9)" fill="none" x1="-767" x2="-614" y1="-572" y2="-572" stroke-miterlimit="10"/>
      <text x="-763.5" xml:space="preserve" y="-555.8223" clip-path="url(#clipPath9)" font-family="sans-serif" stroke="none">paint(Graphics g)</text>
      <path fill="none" d="M-621.0315 -703.7708 L-564 -701.75 L-564 -858.75 L-733.9865 -858.75" clip-path="url(#clipPath2)"/>
      <path fill="white" d="M-628.0271 -704.0187 L-620.8544 -708.7677 L-614.0359 -703.5229 L-621.2086 -698.7739 Z" clip-path="url(#clipPath2)" stroke="none"/>
      <path fill="none" d="M-628.0271 -704.0187 L-620.8544 -708.7677 L-614.0359 -703.5229 L-621.2086 -698.7739 Z" clip-path="url(#clipPath2)"/>
      <path d="M-744.9865 -858.75 L-732.9865 -852.75 L-732.9865 -864.75 Z" clip-path="url(#clipPath2)" stroke="none"/>
      <text x="-629.0635" xml:space="preserve" y="-884.2148" clip-path="url(#clipPath2)" font-family="sans-serif" stroke="none">children</text>
      <path fill="none" d="M-691 -738.4882 L-691 -766 L-832.5 -766 L-832.5 -782.4945" clip-path="url(#clipPath2)"/>
      <path fill="white" d="M-832.5 -797.4945 L-838.5 -781.4945 L-826.5 -781.4945 Z" clip-path="url(#clipPath2)" stroke="none"/>
      <path fill="none" d="M-832.5 -797.4945 L-838.5 -781.4945 L-826.5 -781.4945 Z" clip-path="url(#clipPath2)"/>
      <path fill="none" d="M-963 -749.0277 L-963 -766 L-832.5 -766 L-832.5 -782.4945" clip-path="url(#clipPath2)"/>
      <path fill="white" d="M-832.5 -797.4945 L-838.5 -781.4945 L-826.5 -781.4945 Z" clip-path="url(#clipPath2)" stroke="none"/>
      <path fill="none" d="M-832.5 -797.4945 L-838.5 -781.4945 L-826.5 -781.4945 Z" clip-path="url(#clipPath2)"/>
      <path fill="none" d="M-691 -635.9741 L-691 -659.0288" clip-path="url(#clipPath2)"/>
      <path fill="white" d="M-691 -674.0288 L-697 -658.0288 L-685 -658.0288 Z" clip-path="url(#clipPath2)" stroke="none"/>
      <path fill="none" d="M-691 -674.0288 L-697 -658.0288 L-685 -658.0288 Z" clip-path="url(#clipPath2)"/>
    </g>
  </g>
</svg>
