<?xml version="1.0" encoding="UTF-8"?><svg xmlns="http://www.w3.org/2000/svg" xmlns:xlink="http://www.w3.org/1999/xlink" fill-opacity="1" color-rendering="auto" color-interpolation="auto" text-rendering="auto" stroke="black" stroke-linecap="square" width="503" stroke-miterlimit="10" shape-rendering="auto" stroke-opacity="1" fill="black" stroke-dasharray="none" font-weight="normal" stroke-width="1" height="507" font-family="'Dialog'" font-style="normal" stroke-linejoin="miter" font-size="12px" stroke-dashoffset="0" image-rendering="auto">
  <!--Generated by ySVG 2.5-->
  <defs id="genericDefs"/>
  <g>
    <defs id="defs1">
      <clipPath clipPathUnits="userSpaceOnUse" id="clipPath1">
        <path d="M0 0 L503 0 L503 507 L0 507 L0 0 Z"/>
      </clipPath>
      <clipPath clipPathUnits="userSpaceOnUse" id="clipPath2">
        <path d="M-963 -850 L-460 -850 L-460 -343 L-963 -343 L-963 -850 Z"/>
      </clipPath>
      <clipPath clipPathUnits="userSpaceOnUse" id="clipPath3">
        <path d="M-665 -548 L-665 -484 L-539 -484 L-539 -548 Z"/>
      </clipPath>
      <clipPath clipPathUnits="userSpaceOnUse" id="clipPath4">
        <path d="M0 0 L0 15 L99 15 L99 0 Z"/>
      </clipPath>
      <clipPath clipPathUnits="userSpaceOnUse" id="clipPath5">
        <path d="M-831 -708 L-831 -608 L-656 -608 L-656 -708 Z"/>
      </clipPath>
      <clipPath clipPathUnits="userSpaceOnUse" id="clipPath6">
        <path d="M0 0 L0 16 L78 16 L78 0 Z"/>
      </clipPath>
      <clipPath clipPathUnits="userSpaceOnUse" id="clipPath7">
        <path d="M0 0 L0 30 L136 30 L136 0 Z"/>
      </clipPath>
      <clipPath clipPathUnits="userSpaceOnUse" id="clipPath8">
        <path d="M-948 -559 L-948 -465 L-800 -465 L-800 -559 Z"/>
      </clipPath>
      <clipPath clipPathUnits="userSpaceOnUse" id="clipPath9">
        <path d="M-679 -446 L-679 -359 L-524 -359 L-524 -446 Z"/>
      </clipPath>
      <clipPath clipPathUnits="userSpaceOnUse" id="clipPath10">
        <path d="M-828 -835 L-828 -762 L-659 -762 L-659 -835 Z"/>
      </clipPath>
    </defs>
    <g fill="white" text-rendering="geometricPrecision" shape-rendering="geometricPrecision" transform="translate(963,850)" stroke="white">
      <rect x="-963" width="503" height="507" y="-850" clip-path="url(#clipPath2)" stroke="none"/>
    </g>
    <g fill="rgb(255,255,204)" text-rendering="geometricPrecision" shape-rendering="geometricPrecision" transform="matrix(1,0,0,1,963,850)" stroke="rgb(255,255,204)">
      <rect x="-665" width="126" height="64.5" y="-548.5" clip-path="url(#clipPath2)" stroke="none"/>
    </g>
    <g text-rendering="geometricPrecision" stroke-miterlimit="1.45" shape-rendering="geometricPrecision" transform="matrix(1,0,0,1,963,850)" stroke-linecap="butt">
      <rect fill="none" x="-665" width="126" height="64.5" y="-548.5" clip-path="url(#clipPath2)"/>
      <text x="-634.6523" font-size="13px" y="-530.9316" clip-path="url(#clipPath3)" font-family="sans-serif" stroke="none" font-weight="bold" xml:space="preserve">Container</text>
      <line stroke-linecap="square" clip-path="url(#clipPath3)" fill="none" x1="-664" x2="-540" y1="-523" y2="-523" stroke-miterlimit="10"/>
      <line stroke-linecap="square" clip-path="url(#clipPath3)" fill="none" x1="-664" x2="-540" y1="-513" y2="-513" stroke-miterlimit="10"/>
    </g>
    <g text-rendering="geometricPrecision" stroke-miterlimit="1.45" shape-rendering="geometricPrecision" font-family="sans-serif" transform="matrix(1,0,0,1,963,850) translate(-660,-508)" stroke-linecap="butt">
      <text x="0" xml:space="preserve" y="12" clip-path="url(#clipPath4)" stroke="none">paint(Graphics g)</text>
      <text x="99" xml:space="preserve" y="12" clip-path="url(#clipPath4)" stroke="none"> </text>
    </g>
    <g fill="rgb(255,255,204)" text-rendering="geometricPrecision" shape-rendering="geometricPrecision" transform="matrix(1,0,0,1,963,850)" stroke="rgb(255,255,204)">
      <rect x="-831" width="175" height="100.5" y="-708" clip-path="url(#clipPath2)" stroke="none"/>
    </g>
    <g text-rendering="geometricPrecision" stroke-miterlimit="1.45" shape-rendering="geometricPrecision" transform="matrix(1,0,0,1,963,850)" stroke-linecap="butt">
      <rect fill="none" x="-831" width="175" height="100.5" y="-708" clip-path="url(#clipPath2)"/>
    </g>
    <g stroke-linecap="butt" font-size="13px" transform="matrix(1,0,0,1,963,850) translate(-782,-703)" text-rendering="geometricPrecision" font-family="sans-serif" shape-rendering="geometricPrecision" font-style="italic" font-weight="bold" stroke-miterlimit="1.45">
      <text x="0" xml:space="preserve" y="13" clip-path="url(#clipPath6)" stroke="none">Component</text>
    </g>
    <g text-rendering="geometricPrecision" shape-rendering="geometricPrecision" transform="matrix(1,0,0,1,963,850)">
      <line y2="-682" fill="none" x1="-830" clip-path="url(#clipPath5)" x2="-657" y1="-682"/>
      <text stroke-linecap="butt" x="-826" y="-665.3984" clip-path="url(#clipPath5)" font-family="sans-serif" stroke="none" stroke-miterlimit="1.45" xml:space="preserve">-bounds : Rectangle</text>
      <line y2="-657" fill="none" x1="-830" clip-path="url(#clipPath5)" x2="-657" y1="-657"/>
    </g>
    <g text-rendering="geometricPrecision" stroke-miterlimit="1.45" shape-rendering="geometricPrecision" font-family="sans-serif" transform="matrix(1,0,0,1,963,850) translate(-826,-652)" stroke-linecap="butt">
      <text x="0" xml:space="preserve" y="12" clip-path="url(#clipPath7)" stroke="none">getBounds() : Rectangle</text>
      <text x="136" xml:space="preserve" y="12" clip-path="url(#clipPath7)" stroke="none"> </text>
      <text font-style="italic" x="0" xml:space="preserve" y="27" clip-path="url(#clipPath7)" stroke="none">paint(Graphics)</text>
    </g>
    <g fill="rgb(255,255,204)" text-rendering="geometricPrecision" shape-rendering="geometricPrecision" transform="matrix(1,0,0,1,963,850)" stroke="rgb(255,255,204)">
      <rect x="-948" width="148" height="94.5" y="-559" clip-path="url(#clipPath2)" stroke="none"/>
    </g>
    <g text-rendering="geometricPrecision" stroke-miterlimit="1.45" shape-rendering="geometricPrecision" transform="matrix(1,0,0,1,963,850)" stroke-linecap="butt">
      <rect fill="none" x="-948" width="148" height="94.5" y="-559" clip-path="url(#clipPath2)"/>
      <text x="-896.0518" font-size="13px" y="-541.4316" clip-path="url(#clipPath8)" font-family="sans-serif" stroke="none" font-weight="bold" xml:space="preserve">Button</text>
      <line stroke-linecap="square" clip-path="url(#clipPath8)" fill="none" x1="-947" x2="-801" y1="-533" y2="-533" stroke-miterlimit="10"/>
      <text x="-943" xml:space="preserve" y="-517.0879" clip-path="url(#clipPath8)" font-family="sans-serif" stroke="none">-label : String</text>
      <line stroke-linecap="square" clip-path="url(#clipPath8)" fill="none" x1="-947" x2="-801" y1="-509" y2="-509" stroke-miterlimit="10"/>
      <text x="-943" xml:space="preserve" y="-492.9551" clip-path="url(#clipPath8)" font-family="sans-serif" stroke="none">+getLabel() : String</text>
      <text x="-943" xml:space="preserve" y="-478.8223" clip-path="url(#clipPath8)" font-family="sans-serif" stroke="none">+setLabel(String)</text>
    </g>
    <g fill="rgb(255,255,204)" text-rendering="geometricPrecision" shape-rendering="geometricPrecision" transform="matrix(1,0,0,1,963,850)" stroke="rgb(255,255,204)">
      <rect x="-679.5" width="155" height="87.5" y="-446" clip-path="url(#clipPath2)" stroke="none"/>
    </g>
    <g text-rendering="geometricPrecision" stroke-miterlimit="1.45" shape-rendering="geometricPrecision" transform="matrix(1,0,0,1,963,850)" stroke-linecap="butt">
      <rect fill="none" x="-679.5" width="155" height="87.5" y="-446" clip-path="url(#clipPath2)"/>
      <text x="-636.3916" font-size="13px" y="-428.4316" clip-path="url(#clipPath9)" font-family="sans-serif" stroke="none" font-weight="bold" xml:space="preserve">ScrollPane</text>
      <line stroke-linecap="square" clip-path="url(#clipPath9)" fill="none" x1="-678" x2="-525" y1="-420" y2="-420" stroke-miterlimit="10"/>
      <text x="-674.5" xml:space="preserve" y="-404.0879" clip-path="url(#clipPath9)" font-family="sans-serif" stroke="none">-verticalSB : Scrollbar</text>
      <text x="-674.5" xml:space="preserve" y="-389.9551" clip-path="url(#clipPath9)" font-family="sans-serif" stroke="none">-horizontalSB : Scrollbar</text>
      <line stroke-linecap="square" clip-path="url(#clipPath9)" fill="none" x1="-678" x2="-525" y1="-382" y2="-382" stroke-miterlimit="10"/>
      <text x="-674.5" xml:space="preserve" y="-365.8223" clip-path="url(#clipPath9)" font-family="sans-serif" stroke="none">paint(Graphics g)</text>
    </g>
    <g fill="rgb(255,255,204)" text-rendering="geometricPrecision" shape-rendering="geometricPrecision" transform="matrix(1,0,0,1,963,850)" stroke="rgb(255,255,204)">
      <rect x="-828" width="169" height="73.5" y="-835" clip-path="url(#clipPath2)" stroke="none"/>
    </g>
    <g text-rendering="geometricPrecision" stroke-miterlimit="1.45" shape-rendering="geometricPrecision" transform="matrix(1,0,0,1,963,850)" stroke-linecap="butt">
      <rect fill="none" x="-828" width="169" height="73.5" y="-835" clip-path="url(#clipPath2)"/>
      <text x="-765.2249" font-size="13px" y="-817.4316" clip-path="url(#clipPath10)" font-family="sans-serif" stroke="none" font-weight="bold" xml:space="preserve">Object</text>
      <line stroke-linecap="square" clip-path="url(#clipPath10)" fill="none" x1="-827" x2="-660" y1="-809" y2="-809" stroke-miterlimit="10"/>
      <line stroke-linecap="square" clip-path="url(#clipPath10)" fill="none" x1="-827" x2="-660" y1="-799" y2="-799" stroke-miterlimit="10"/>
      <text x="-823" xml:space="preserve" y="-783.0879" clip-path="url(#clipPath10)" font-family="sans-serif" stroke="none">toString() : String</text>
      <text x="-823" xml:space="preserve" y="-768.9551" clip-path="url(#clipPath10)" font-family="sans-serif" stroke="none">equals(Object) : boolean</text>
      <path fill="none" d="M-532.0315 -513.7708 L-475 -511.75 L-475 -668.75 L-644.9865 -668.75" clip-path="url(#clipPath2)"/>
      <path fill="white" d="M-539.0271 -514.0187 L-531.8544 -518.7677 L-525.0359 -513.5229 L-532.2086 -508.774 Z" clip-path="url(#clipPath2)" stroke="none"/>
      <path fill="none" d="M-539.0271 -514.0187 L-531.8544 -518.7677 L-525.0359 -513.5229 L-532.2086 -508.774 Z" clip-path="url(#clipPath2)"/>
      <path d="M-655.9865 -668.75 L-643.9865 -662.75 L-643.9865 -674.75 Z" clip-path="url(#clipPath2)" stroke="none"/>
      <text x="-540.0635" xml:space="preserve" y="-694.2148" clip-path="url(#clipPath2)" font-family="sans-serif" stroke="none">children</text>
      <path fill="none" d="M-602 -548.4882 L-602 -576 L-743.5 -576 L-743.5 -592.4945" clip-path="url(#clipPath2)"/>
      <path fill="white" d="M-743.5 -607.4945 L-749.5 -591.4945 L-737.5 -591.4945 Z" clip-path="url(#clipPath2)" stroke="none"/>
      <path fill="none" d="M-743.5 -607.4945 L-749.5 -591.4945 L-737.5 -591.4945 Z" clip-path="url(#clipPath2)"/>
      <path fill="none" d="M-874 -559.0277 L-874 -576 L-743.5 -576 L-743.5 -592.4945" clip-path="url(#clipPath2)"/>
      <path fill="white" d="M-743.5 -607.4945 L-749.5 -591.4945 L-737.5 -591.4945 Z" clip-path="url(#clipPath2)" stroke="none"/>
      <path fill="none" d="M-743.5 -607.4945 L-749.5 -591.4945 L-737.5 -591.4945 Z" clip-path="url(#clipPath2)"/>
      <path fill="none" d="M-602 -445.9741 L-602 -469.0288" clip-path="url(#clipPath2)"/>
      <path fill="white" d="M-602 -484.0288 L-608 -468.0288 L-596 -468.0288 Z" clip-path="url(#clipPath2)" stroke="none"/>
      <path fill="none" d="M-602 -484.0288 L-608 -468.0288 L-596 -468.0288 Z" clip-path="url(#clipPath2)"/>
      <path fill="none" d="M-743.5 -708.0021 L-743.5 -746.5427" clip-path="url(#clipPath2)"/>
      <path fill="white" d="M-743.5 -761.5427 L-749.5 -745.5427 L-737.5 -745.5427 Z" clip-path="url(#clipPath2)" stroke="none"/>
      <path fill="none" d="M-743.5 -761.5427 L-749.5 -745.5427 L-737.5 -745.5427 Z" clip-path="url(#clipPath2)"/>
    </g>
  </g>
</svg>
