<?xml version="1.0" encoding="UTF-8"?><svg xmlns="http://www.w3.org/2000/svg" xmlns:xlink="http://www.w3.org/1999/xlink" fill-opacity="1" color-rendering="auto" color-interpolation="auto" text-rendering="auto" stroke="black" stroke-linecap="square" width="107" stroke-miterlimit="10" shape-rendering="auto" stroke-opacity="1" fill="black" stroke-dasharray="none" font-weight="normal" stroke-width="1" height="165" font-family="'Dialog'" font-style="normal" stroke-linejoin="miter" font-size="12px" stroke-dashoffset="0" image-rendering="auto">
  <!--Generated by ySVG 2.5-->
  <defs id="genericDefs"/>
  <g>
    <defs id="defs1">
      <clipPath clipPathUnits="userSpaceOnUse" id="clipPath1">
        <path d="M0 0 L107 0 L107 165 L0 165 L0 0 Z"/>
      </clipPath>
      <clipPath clipPathUnits="userSpaceOnUse" id="clipPath2">
        <path d="M-966 -869 L-859 -869 L-859 -704 L-966 -704 L-966 -869 Z"/>
      </clipPath>
      <clipPath clipPathUnits="userSpaceOnUse" id="clipPath3">
        <path d="M-940 -853 L-940 -805 L-884 -805 L-884 -853 Z"/>
      </clipPath>
      <clipPath clipPathUnits="userSpaceOnUse" id="clipPath4">
        <path d="M-950 -767 L-950 -719 L-874 -719 L-874 -767 Z"/>
      </clipPath>
    </defs>
    <g fill="white" text-rendering="geometricPrecision" shape-rendering="geometricPrecision" transform="translate(966,869)" stroke="white">
      <rect x="-966" width="107" height="165" y="-869" clip-path="url(#clipPath2)" stroke="none"/>
    </g>
    <g fill="rgb(255,255,204)" text-rendering="geometricPrecision" shape-rendering="geometricPrecision" transform="matrix(1,0,0,1,966,869)" stroke="rgb(255,255,204)">
      <rect x="-940.9104" width="56" height="48" y="-853.6" clip-path="url(#clipPath2)" stroke="none"/>
    </g>
    <g text-rendering="geometricPrecision" stroke-miterlimit="1.45" shape-rendering="geometricPrecision" transform="matrix(1,0,0,1,966,869)" stroke-linecap="butt">
      <rect fill="none" x="-940.9104" width="56" height="48" y="-853.6" clip-path="url(#clipPath2)"/>
      <text x="-917.3792" font-size="13px" y="-836.2474" clip-path="url(#clipPath3)" font-family="sans-serif" stroke="none" font-weight="bold" xml:space="preserve">T</text>
      <line stroke-linecap="square" clip-path="url(#clipPath3)" fill="none" x1="-939" x2="-885" y1="-828" y2="-828" stroke-miterlimit="10"/>
      <text x="-935.9104" xml:space="preserve" y="-812.0712" clip-path="url(#clipPath3)" font-family="sans-serif" stroke="none"> </text>
      <line stroke-linecap="square" clip-path="url(#clipPath3)" fill="none" x1="-939" x2="-885" y1="-804" y2="-804" stroke-miterlimit="10"/>
      <text x="-935.9104" xml:space="preserve" y="-788.1083" clip-path="url(#clipPath3)" font-family="sans-serif" stroke="none"> </text>
    </g>
    <g fill="rgb(255,255,204)" text-rendering="geometricPrecision" shape-rendering="geometricPrecision" transform="matrix(1,0,0,1,966,869)" stroke="rgb(255,255,204)">
      <rect x="-950.9104" width="76" height="48" y="-767.2" clip-path="url(#clipPath2)" stroke="none"/>
    </g>
    <g text-rendering="geometricPrecision" stroke-miterlimit="1.45" shape-rendering="geometricPrecision" transform="matrix(1,0,0,1,966,869)" stroke-linecap="butt">
      <rect fill="none" x="-950.9104" width="76" height="48" y="-767.2" clip-path="url(#clipPath2)"/>
      <text x="-916.7698" font-size="13px" y="-749.8475" clip-path="url(#clipPath4)" font-family="sans-serif" stroke="none" font-weight="bold" xml:space="preserve">S</text>
      <line stroke-linecap="square" clip-path="url(#clipPath4)" fill="none" x1="-949" x2="-875" y1="-742" y2="-742" stroke-miterlimit="10"/>
      <text x="-945.9104" xml:space="preserve" y="-725.6712" clip-path="url(#clipPath4)" font-family="sans-serif" stroke="none"> </text>
      <line stroke-linecap="square" clip-path="url(#clipPath4)" fill="none" x1="-949" x2="-875" y1="-718" y2="-718" stroke-miterlimit="10"/>
      <text x="-945.9104" xml:space="preserve" y="-701.7083" clip-path="url(#clipPath4)" font-family="sans-serif" stroke="none"> </text>
      <path fill="none" d="M-912.9104 -767.2047 L-912.9104 -790.6229" clip-path="url(#clipPath2)"/>
      <path fill="white" d="M-912.9104 -805.6229 L-918.9104 -789.6229 L-906.9104 -789.6229 Z" clip-path="url(#clipPath2)" stroke="none"/>
      <path fill="none" d="M-912.9104 -805.6229 L-918.9104 -789.6229 L-906.9104 -789.6229 Z" clip-path="url(#clipPath2)"/>
    </g>
  </g>
</svg>
