<?xml version="1.0" encoding="UTF-8"?><svg xmlns="http://www.w3.org/2000/svg" xmlns:xlink="http://www.w3.org/1999/xlink" fill-opacity="1" color-rendering="auto" color-interpolation="auto" text-rendering="auto" stroke="black" stroke-linecap="square" width="616" stroke-miterlimit="10" shape-rendering="auto" stroke-opacity="1" fill="black" stroke-dasharray="none" font-weight="normal" stroke-width="1" height="411" font-family="'Dialog'" font-style="normal" stroke-linejoin="miter" font-size="12px" stroke-dashoffset="0" image-rendering="auto">
  <!--Generated by ySVG 2.5-->
  <defs id="genericDefs"/>
  <g>
    <defs id="defs1">
      <clipPath clipPathUnits="userSpaceOnUse" id="clipPath1">
        <path d="M0 0 L616 0 L616 411 L0 411 L0 0 Z"/>
      </clipPath>
      <clipPath clipPathUnits="userSpaceOnUse" id="clipPath2">
        <path d="M-1016 -797 L-400 -797 L-400 -386 L-1016 -386 L-1016 -797 Z"/>
      </clipPath>
      <clipPath clipPathUnits="userSpaceOnUse" id="clipPath3">
        <path d="M-889 -782 L-889 -709 L-750 -709 L-750 -782 Z"/>
      </clipPath>
      <clipPath clipPathUnits="userSpaceOnUse" id="clipPath4">
        <path d="M0 0 L0 30 L102 30 L102 0 Z"/>
      </clipPath>
      <clipPath clipPathUnits="userSpaceOnUse" id="clipPath5">
        <path d="M-534 -782 L-534 -664 L-416 -664 L-416 -782 Z"/>
      </clipPath>
      <clipPath clipPathUnits="userSpaceOnUse" id="clipPath6">
        <path d="M-734 -767 L-734 -739 L-681 -739 L-681 -767 Z"/>
      </clipPath>
      <clipPath clipPathUnits="userSpaceOnUse" id="clipPath7">
        <path d="M-870 -504 L-870 -410 L-741 -410 L-741 -504 Z"/>
      </clipPath>
      <clipPath clipPathUnits="userSpaceOnUse" id="clipPath8">
        <path d="M-563 -508 L-563 -401 L-434 -401 L-434 -508 Z"/>
      </clipPath>
      <clipPath clipPathUnits="userSpaceOnUse" id="clipPath9">
        <path d="M-694 -693 L-694 -665 L-641 -665 L-641 -693 Z"/>
      </clipPath>
      <clipPath clipPathUnits="userSpaceOnUse" id="clipPath10">
        <path d="M-734 -665 L-734 -563 L-579 -563 L-579 -665 Z"/>
      </clipPath>
      <clipPath clipPathUnits="userSpaceOnUse" id="clipPath11">
        <path d="M0 0 L0 30 L131 30 L131 0 Z"/>
      </clipPath>
      <clipPath clipPathUnits="userSpaceOnUse" id="clipPath12">
        <path d="M-1001 -665 L-1001 -563 L-846 -563 L-846 -665 Z"/>
      </clipPath>
      <clipPath clipPathUnits="userSpaceOnUse" id="clipPath13">
        <path d="M0 0 L0 30 L99 30 L99 0 Z"/>
      </clipPath>
    </defs>
    <g fill="white" text-rendering="geometricPrecision" shape-rendering="geometricPrecision" transform="translate(1016,797)" stroke="white">
      <rect x="-1016" width="616" height="411" y="-797" clip-path="url(#clipPath2)" stroke="none"/>
    </g>
    <g fill="rgb(255,255,204)" text-rendering="geometricPrecision" shape-rendering="geometricPrecision" transform="matrix(1,0,0,1,1016,797)" stroke="rgb(255,255,204)">
      <rect x="-889" width="139" height="73.5" y="-782" clip-path="url(#clipPath2)" stroke="none"/>
    </g>
    <g text-rendering="geometricPrecision" stroke-miterlimit="1.45" shape-rendering="geometricPrecision" transform="matrix(1,0,0,1,1016,797)" stroke-linecap="butt">
      <rect fill="none" x="-889" width="139" height="73.5" y="-782" clip-path="url(#clipPath2)"/>
      <text x="-840.9773" font-size="13px" y="-764.4316" clip-path="url(#clipPath3)" font-family="sans-serif" stroke="none" font-weight="bold" xml:space="preserve">MyGUI</text>
      <line stroke-linecap="square" clip-path="url(#clipPath3)" fill="none" x1="-888" x2="-751" y1="-756" y2="-756" stroke-miterlimit="10"/>
      <line stroke-linecap="square" clip-path="url(#clipPath3)" fill="none" x1="-888" x2="-751" y1="-746" y2="-746" stroke-miterlimit="10"/>
    </g>
    <g text-rendering="geometricPrecision" stroke-miterlimit="1.45" shape-rendering="geometricPrecision" font-family="sans-serif" transform="matrix(1,0,0,1,1016,797) translate(-884,-741)" stroke-linecap="butt">
      <text x="0" xml:space="preserve" y="12" clip-path="url(#clipPath4)" stroke="none">main(String[])</text>
      <line y2="13" fill="none" x1="0" clip-path="url(#clipPath4)" x2="76" y1="13"/>
      <text x="76" xml:space="preserve" y="12" clip-path="url(#clipPath4)" stroke="none"> </text>
      <text x="0" xml:space="preserve" y="27" clip-path="url(#clipPath4)" stroke="none">+paint(Graphics)</text>
      <text x="98" xml:space="preserve" y="27" clip-path="url(#clipPath4)" stroke="none"> </text>
    </g>
    <g fill="rgb(255,255,204)" text-rendering="geometricPrecision" shape-rendering="geometricPrecision" transform="matrix(1,0,0,1,1016,797)" stroke="rgb(255,255,204)">
      <rect x="-534" width="118.8" height="118.6" y="-782" clip-path="url(#clipPath2)" stroke="none"/>
    </g>
    <g text-rendering="geometricPrecision" stroke-miterlimit="1.45" shape-rendering="geometricPrecision" transform="matrix(1,0,0,1,1016,797)" stroke-linecap="butt">
      <rect fill="none" x="-534" width="118.8" height="118.6" y="-782" clip-path="url(#clipPath2)"/>
      <text x="-522.7374" font-size="13px" y="-764.4316" clip-path="url(#clipPath5)" font-family="sans-serif" stroke="none" font-weight="bold" xml:space="preserve">ShapesFactory</text>
      <line stroke-linecap="square" clip-path="url(#clipPath5)" fill="none" x1="-533" x2="-416" y1="-756" y2="-756" stroke-miterlimit="10"/>
      <text x="-529" xml:space="preserve" y="-740.0879" clip-path="url(#clipPath5)" font-family="sans-serif" stroke="none">-width</text>
      <text x="-529" xml:space="preserve" y="-725.9551" clip-path="url(#clipPath5)" font-family="sans-serif" stroke="none">-height</text>
      <line stroke-linecap="square" clip-path="url(#clipPath5)" fill="none" x1="-533" x2="-416" y1="-718" y2="-718" stroke-miterlimit="10"/>
      <text x="-529" xml:space="preserve" y="-701.8223" clip-path="url(#clipPath5)" font-family="sans-serif" stroke="none">+makeShape()</text>
      <text x="-730.3389" font-size="13px" y="-749.9713" clip-path="url(#clipPath6)" font-family="sans-serif" stroke="none" xml:space="preserve">uses →</text>
    </g>
    <g fill="rgb(255,255,204)" text-rendering="geometricPrecision" shape-rendering="geometricPrecision" transform="matrix(1,0,0,1,1016,797)" stroke="rgb(255,255,204)">
      <rect x="-870.4633" width="129.25" height="94.76" y="-504.44" clip-path="url(#clipPath2)" stroke="none"/>
    </g>
    <g text-rendering="geometricPrecision" stroke-miterlimit="1.45" shape-rendering="geometricPrecision" transform="matrix(1,0,0,1,1016,797)" stroke-linecap="butt">
      <rect fill="none" x="-870.4633" width="129.25" height="94.76" y="-504.44" clip-path="url(#clipPath2)"/>
      <text x="-828.7121" font-size="13px" y="-486.8716" clip-path="url(#clipPath7)" font-family="sans-serif" stroke="none" font-weight="bold" xml:space="preserve">Square</text>
      <line stroke-linecap="square" clip-path="url(#clipPath7)" fill="none" x1="-869" x2="-742" y1="-479" y2="-479" stroke-miterlimit="10"/>
      <text x="-865.4633" xml:space="preserve" y="-462.5279" clip-path="url(#clipPath7)" font-family="sans-serif" stroke="none">-color</text>
      <line stroke-linecap="square" clip-path="url(#clipPath7)" fill="none" x1="-869" x2="-742" y1="-454" y2="-454" stroke-miterlimit="10"/>
      <text x="-865.4633" xml:space="preserve" y="-438.3951" clip-path="url(#clipPath7)" font-family="sans-serif" stroke="none">+getArea() : float</text>
      <text x="-865.4633" xml:space="preserve" y="-424.2623" clip-path="url(#clipPath7)" font-family="sans-serif" stroke="none">+paint(Painter)</text>
    </g>
    <g fill="rgb(255,255,204)" text-rendering="geometricPrecision" shape-rendering="geometricPrecision" transform="matrix(1,0,0,1,1016,797)" stroke="rgb(255,255,204)">
      <rect x="-563.0933" width="129.25" height="107" y="-508.26" clip-path="url(#clipPath2)" stroke="none"/>
    </g>
    <g text-rendering="geometricPrecision" stroke-miterlimit="1.45" shape-rendering="geometricPrecision" transform="matrix(1,0,0,1,1016,797)" stroke-linecap="butt">
      <rect fill="none" x="-563.0933" width="129.25" height="107" y="-508.26" clip-path="url(#clipPath2)"/>
      <text x="-517.5494" font-size="13px" y="-490.6917" clip-path="url(#clipPath8)" font-family="sans-serif" stroke="none" font-weight="bold" xml:space="preserve">Circle</text>
      <line stroke-linecap="square" clip-path="url(#clipPath8)" fill="none" x1="-562" x2="-434" y1="-482" y2="-482" stroke-miterlimit="10"/>
      <text x="-558.0933" xml:space="preserve" y="-466.3479" clip-path="url(#clipPath8)" font-family="sans-serif" stroke="none">-color</text>
      <text x="-558.0933" xml:space="preserve" y="-452.2151" clip-path="url(#clipPath8)" font-family="sans-serif" stroke="none">-radius</text>
      <line stroke-linecap="square" clip-path="url(#clipPath8)" fill="none" x1="-562" x2="-434" y1="-444" y2="-444" stroke-miterlimit="10"/>
      <text x="-558.0933" xml:space="preserve" y="-428.0823" clip-path="url(#clipPath8)" font-family="sans-serif" stroke="none">+getArea() : float</text>
      <text x="-558.0933" xml:space="preserve" y="-413.9495" clip-path="url(#clipPath8)" font-family="sans-serif" stroke="none">+paint(Painter)</text>
      <text x="-671.5339" font-size="13px" y="-675.8314" clip-path="url(#clipPath9)" font-family="sans-serif" stroke="none" xml:space="preserve">n</text>
    </g>
    <g fill="rgb(255,255,204)" text-rendering="geometricPrecision" shape-rendering="geometricPrecision" transform="matrix(1,0,0,1,1016,797)" stroke="rgb(255,255,204)">
      <rect x="-734" width="155" height="102" y="-665.3998" clip-path="url(#clipPath2)" stroke="none"/>
    </g>
    <g text-rendering="geometricPrecision" stroke-miterlimit="1.45" shape-rendering="geometricPrecision" transform="matrix(1,0,0,1,1016,797)" stroke-linecap="butt">
      <rect fill="none" x="-734" width="155" height="102" y="-665.3998" clip-path="url(#clipPath2)"/>
      <text x="-701.0137" xml:space="preserve" y="-648.7982" clip-path="url(#clipPath10)" font-family="sans-serif" stroke="none">&lt;&lt;interface&gt;&gt;</text>
      <text x="-676.4189" font-size="13px" y="-624.6986" clip-path="url(#clipPath10)" font-family="sans-serif" stroke="none" font-weight="bold" xml:space="preserve">Shape</text>
      <line stroke-linecap="square" clip-path="url(#clipPath10)" fill="none" x1="-733" x2="-580" y1="-616" y2="-616" stroke-miterlimit="10"/>
      <line stroke-linecap="square" clip-path="url(#clipPath10)" fill="none" x1="-733" x2="-580" y1="-606" y2="-606" stroke-miterlimit="10"/>
    </g>
    <g stroke-linecap="butt" transform="matrix(1,0,0,1,1016,797) translate(-729,-601)" text-rendering="geometricPrecision" font-family="sans-serif" shape-rendering="geometricPrecision" font-style="italic" stroke-miterlimit="1.45">
      <text x="0" xml:space="preserve" y="12" clip-path="url(#clipPath11)" stroke="none">+getArea() : float</text>
      <text x="100" xml:space="preserve" y="12" clip-path="url(#clipPath11)" stroke="none"> </text>
      <text x="0" xml:space="preserve" y="27" clip-path="url(#clipPath11)" stroke="none">+paint(Painter) : void  </text>
      <text x="131" xml:space="preserve" y="27" clip-path="url(#clipPath11)" stroke="none"> </text>
    </g>
    <g fill="rgb(255,255,204)" text-rendering="geometricPrecision" shape-rendering="geometricPrecision" transform="matrix(1,0,0,1,1016,797)" stroke="rgb(255,255,204)">
      <rect x="-1001" width="155" height="102" y="-665.3998" clip-path="url(#clipPath2)" stroke="none"/>
    </g>
    <g text-rendering="geometricPrecision" stroke-miterlimit="1.45" shape-rendering="geometricPrecision" transform="matrix(1,0,0,1,1016,797)" stroke-linecap="butt">
      <rect fill="none" x="-1001" width="155" height="102" y="-665.3998" clip-path="url(#clipPath2)"/>
      <text x="-968.0137" xml:space="preserve" y="-648.7982" clip-path="url(#clipPath12)" font-family="sans-serif" stroke="none">&lt;&lt;interface&gt;&gt;</text>
      <text x="-947.0879" font-size="13px" y="-624.6986" clip-path="url(#clipPath12)" font-family="sans-serif" stroke="none" font-weight="bold" xml:space="preserve">Painter</text>
      <line stroke-linecap="square" clip-path="url(#clipPath12)" fill="none" x1="-1000" x2="-847" y1="-616" y2="-616" stroke-miterlimit="10"/>
      <line stroke-linecap="square" clip-path="url(#clipPath12)" fill="none" x1="-1000" x2="-847" y1="-606" y2="-606" stroke-miterlimit="10"/>
    </g>
    <g stroke-linecap="butt" transform="matrix(1,0,0,1,1016,797) translate(-996,-601)" text-rendering="geometricPrecision" font-family="sans-serif" shape-rendering="geometricPrecision" font-style="italic" stroke-miterlimit="1.45">
      <text x="0" xml:space="preserve" y="12" clip-path="url(#clipPath13)" stroke="none">+paintCircle()</text>
      <text x="79" xml:space="preserve" y="12" clip-path="url(#clipPath13)" stroke="none"> </text>
      <text x="0" xml:space="preserve" y="27" clip-path="url(#clipPath13)" stroke="none">+paintSquare()  </text>
      <text x="95" xml:space="preserve" y="27" clip-path="url(#clipPath13)" stroke="none"> </text>
    </g>
    <g text-rendering="geometricPrecision" stroke-miterlimit="1.45" shape-rendering="geometricPrecision" transform="matrix(1,0,0,1,1016,797)" stroke-linecap="butt">
      <path fill="none" d="M-750.027 -741.5 L-534.0323 -741.5" clip-path="url(#clipPath2)"/>
      <path fill="none" d="M-742.9852 -718.6196 L-655.0933 -718.6196 L-655.0933 -665.395" clip-path="url(#clipPath2)"/>
      <path fill="white" d="M-749.9852 -718.6196 L-742.9852 -723.6196 L-735.9852 -718.6196 L-742.9852 -713.6196 Z" clip-path="url(#clipPath2)" stroke="none"/>
      <path fill="none" d="M-749.9852 -718.6196 L-742.9852 -723.6196 L-735.9852 -718.6196 L-742.9852 -713.6196 Z" clip-path="url(#clipPath2)"/>
      <path fill="none" stroke-dasharray="6,2" d="M-805.8383 -504.4054 L-805.8383 -528.6196 L-656.5 -528.6196 L-656.5 -548.426" clip-path="url(#clipPath2)"/>
      <path fill="white" stroke-dasharray="6,2" d="M-656.5 -563.426 L-662.5 -547.426 L-650.5 -547.426 Z" clip-path="url(#clipPath2)" stroke="none"/>
      <path fill="none" d="M-656.5 -563.426 L-662.5 -547.426 L-650.5 -547.426 Z" clip-path="url(#clipPath2)"/>
      <path fill="none" stroke-dasharray="6,2" d="M-492.4683 -508.2308 L-492.4683 -528.6196 L-656.5 -528.6196 L-656.5 -548.426" clip-path="url(#clipPath2)"/>
      <path fill="white" stroke-dasharray="6,2" d="M-656.5 -563.426 L-662.5 -547.426 L-650.5 -547.426 Z" clip-path="url(#clipPath2)" stroke="none"/>
      <path fill="none" d="M-656.5 -563.426 L-662.5 -547.426 L-650.5 -547.426 Z" clip-path="url(#clipPath2)"/>
      <path fill="none" d="M-846.027 -614.3998 L-734.0043 -614.3998" clip-path="url(#clipPath2)"/>
    </g>
  </g>
</svg>
